<svg xmlns="http://www.w3.org/2000/svg" viewBox="0 0 747.38 583.28"><defs><style>.cls-1{fill:#f7931e;}.cls-2{fill:#ff931e;}.cls-3{fill:#efeeab;}.cls-4{fill:#7fa18e;}.cls-5{fill:#fef8e0;}.cls-6{fill:#c39156;}.cls-7{fill:#603813;}.cls-8{fill:#f5f5f5;}.cls-9{fill:#fcee21;}.cls-10{fill:#c1272d;}.cls-11{fill:#fbb03b;}.cls-12{fill:#ffe065;}.cls-13{fill:#9c6e4a;}.cls-14{fill:#fff;}</style></defs><title>hiboo</title><g id="Layer_2" data-name="Layer 2"><g id="Layer_1-2" data-name="Layer 1"><path class="cls-1" d="M322.68,563.3l-1.17-.92-.11,0v.1s0,0,0,.06l-.22.93c-.15.59-.31,1.19-.47,1.79,1.39-.09,2.77-.16,4.16-.23l-.37-.27Z"/><path class="cls-1" d="M426.2,563.42l-.22-.93s0,0,0-.06v-.1l-.11,0-1.17.92-1.81,1.41-.06,0c1.15-.34,2.3-.71,3.44-1.06A2.68,2.68,0,0,0,426.2,563.42Z"/><path class="cls-2" d="M309,529.85c-.12,1.36-.24,2.76-.37,4.26q-.14,1.41-.27,2.91c0,.5-.09,1-.14,1.51-.09.84-.18,1.69-.28,2.55l-2,1.3-1.25.85L302.18,545q-2.54,1.77-5.2,3.73a106.41,106.41,0,0,0-10.71,8.79c-.4.42-.82.83-1.19,1.26a7.56,7.56,0,0,0-.54.63l-.13.16,0,.05c-.07.14-.15.29-.06.41a.42.42,0,0,0,.4.08h.1l.2,0c.27,0,.57-.09.85-.14.58-.11,1.18-.25,1.79-.4a65.09,65.09,0,0,0,7.57-2.63l1.93-.82L299.6,555c2.59-1.16,5.29-2.56,8-3.9l-.06,6.33c0,1,0,2.09,0,3.13l.07,1.82c.1,2,.24,4.12.47,6.16a41.25,41.25,0,0,0,1,5.92,16.2,16.2,0,0,0,.54,1.65h0l0,0c.14-.22.44-.68.65-1.06s.45-.84.66-1.29a50.13,50.13,0,0,0,2.2-5.78c.65-2,1.22-4,1.74-6.06l.54-2.19c.23-1,.47-2.06.7-3.09.42-2.12.85-4.23,1.27-6.33,2.3,2.14,4.6,4.38,6.82,6.29l2.29,1.92,1.67,1.34a48.82,48.82,0,0,0,6.73,4.54,13,13,0,0,0,3.09,1.25l.16,0h.14a.3.3,0,0,0,.2-.1.34.34,0,0,0,.07-.22c0-.06,0,0,0-.16a5,5,0,0,0-.21-.67,17.28,17.28,0,0,0-1.51-3,85.15,85.15,0,0,0-8.56-11.12c-1.48-1.68-2.93-3.27-4.36-4.79l-2.09-2.21-.52-.53-.68-.69L319,540.46c.2-.79.39-1.57.58-2.34.11-.51.23-1,.34-1.52.18-.89.35-1.76.49-2.6s.21-1.4.3-2.07l-1-.15C316.13,531.21,312.55,530.55,309,529.85Z"/><path class="cls-2" d="M427,534c.14.84.31,1.71.49,2.6.11.5.23,1,.34,1.52.19.77.38,1.55.58,2.34l-1.69,1.66-.68.69-.52.53-2.09,2.21c-1.42,1.52-2.88,3.11-4.36,4.79a85.15,85.15,0,0,0-8.56,11.12,18,18,0,0,0-1.51,3,5,5,0,0,0-.21.67c0,.11,0,.1,0,.16a.34.34,0,0,0,.07.22.3.3,0,0,0,.2.1h.14l.16,0a13,13,0,0,0,3.09-1.25,48.82,48.82,0,0,0,6.73-4.54l1.67-1.34,2.29-1.92c2.22-1.91,4.52-4.15,6.82-6.29.42,2.1.85,4.21,1.27,6.33.23,1,.47,2.06.7,3.09l.54,2.19c.52,2,1.09,4.06,1.74,6.06a50.13,50.13,0,0,0,2.2,5.78c.21.45.44.88.66,1.29s.51.84.65,1.06l0,0h0a16.2,16.2,0,0,0,.54-1.65,39.91,39.91,0,0,0,1-5.92c.23-2,.37-4.11.47-6.16l.07-1.82c0-1,0-2.09,0-3.13q0-3.18-.06-6.33c2.71,1.34,5.41,2.74,8,3.9l2.44,1.08,1.93.82a65.09,65.09,0,0,0,7.57,2.63c.61.15,1.21.29,1.79.4.28,0,.58.11.85.14l.2,0h.1a.42.42,0,0,0,.4-.08c.09-.12,0-.27-.06-.41l0-.05-.12-.16c-.17-.21-.35-.42-.55-.63-.37-.43-.79-.84-1.19-1.26a104.22,104.22,0,0,0-10.71-8.79q-2.67-2-5.2-3.73l-2.49-1.72-1.25-.85-2-1.3c-.09-.86-.19-1.71-.28-2.55-.05-.51-.1-1-.14-1.51q-.13-1.5-.27-2.91c-.13-1.49-.25-2.9-.36-4.25Q432.57,531,426.68,532C426.77,532.64,426.86,533.31,427,534Z"/><path class="cls-3" d="M243.51,497.27a234.8,234.8,0,0,0,27.95,12.21,269.7,269.7,0,0,0,49.8,12.68,343.57,343.57,0,0,0,52.43,4.07l9.56-.21c3.18-.08,6.36-.07,9.52-.35l9.47-.62,2.36-.16,2.35-.25,4.7-.53a294.69,294.69,0,0,0,36.88-6.37l9-2.34,2.23-.59,2.21-.69,4.39-1.39c5.9-1.72,11.56-4,17.27-6.11q10.38-4.28,20.26-9.33a92.49,92.49,0,0,0,16.55-53.81q0-4.56-.41-9.16a139.66,139.66,0,0,1-39.05,18.89C467.87,457.32,454.52,461,441,464a8,8,0,0,1,.22,1,14.73,14.73,0,0,1-1.55,8.53,21.24,21.24,0,0,1-9.52,9.38,35.17,35.17,0,0,1-30.11-.13,21.88,21.88,0,0,1-9.48-9.27c-.19-.39-.36-.76-.52-1.14A334.72,334.72,0,0,1,355.87,474a22,22,0,0,1-9.22,8.79,35.15,35.15,0,0,1-30.1.13,21.32,21.32,0,0,1-9.53-9.38,16.83,16.83,0,0,1-1.41-4.26,223.32,223.32,0,0,1-71.47-26.42q-3.58-2.06-7-4.23c-.08,1.63-.13,3.26-.13,4.88A92.61,92.61,0,0,0,243.51,497.27Z"/><path class="cls-4" d="M331.56,473.19c1,0,1.94,0,2.87-.11q-6.9-.54-13.73-1.42c.22.08.42.17.65.24A36.61,36.61,0,0,0,331.56,473.19Z"/><path class="cls-5" d="M305.61,469.25a12.86,12.86,0,0,1-.14-4.27c.33-2,1.18-3.14,2.08-3.16s1.77.76,2.86,2a38.86,38.86,0,0,0,4.18,4.43,18.35,18.35,0,0,0,6.11,3.4q6.84.88,13.73,1.42a32.21,32.21,0,0,0,7.34-1.28,20,20,0,0,0,6.9-3.7,47.09,47.09,0,0,0,4.32-4.37c1.13-1.21,2-2,2.94-1.91s1.69,1.18,1.95,3.22a15.19,15.19,0,0,1-1.75,8.45c-.08.16-.18.32-.26.48a334.72,334.72,0,0,0,34.18-1.62,14.71,14.71,0,0,1-1.23-7.31c.26-2,1.07-3.17,2-3.22s1.8.7,2.93,1.91A47.34,47.34,0,0,0,398,468.1a19.81,19.81,0,0,0,4.59,2.82c10.83-1.42,21.64-3.3,32.35-5.57.47-.55.91-1.07,1.31-1.52,1.09-1.25,2-2,2.87-2,.74,0,1.44.78,1.85,2.2,13.51-3,26.86-6.7,39.93-10.81A139.66,139.66,0,0,0,520,434.32c-5.38-60.46-63.14-124.6-146.3-124.6-85.12,0-143.63,67.21-146.58,128.88q3.45,2.17,7,4.23A223.32,223.32,0,0,0,305.61,469.25Zm8.28-46.12a22,22,0,0,1-9.48,9.28,35.17,35.17,0,0,1-30.11.13,21.29,21.29,0,0,1-9.53-9.39,14.77,14.77,0,0,1-1.54-8.53c.33-2,1.17-3.13,2.07-3.15s1.77.76,2.86,2a39.77,39.77,0,0,0,4.18,4.43,18.6,18.6,0,0,0,6.76,3.64,36.61,36.61,0,0,0,10.21,1.29,35.7,35.7,0,0,0,10.22-1.39,20.05,20.05,0,0,0,6.89-3.7,48.36,48.36,0,0,0,4.32-4.37c1.14-1.22,2-2,2.94-1.91s1.7,1.18,2,3.22A15.23,15.23,0,0,1,313.89,423.13Zm84.2,0a22,22,0,0,1-9.48,9.28,35.17,35.17,0,0,1-30.11.13,21.29,21.29,0,0,1-9.53-9.39,14.77,14.77,0,0,1-1.54-8.53c.33-2,1.18-3.13,2.07-3.15s1.77.76,2.86,2a39.77,39.77,0,0,0,4.18,4.43,18.56,18.56,0,0,0,6.77,3.64,36.49,36.49,0,0,0,10.2,1.29,35.7,35.7,0,0,0,10.22-1.39,20.05,20.05,0,0,0,6.89-3.7,48.36,48.36,0,0,0,4.32-4.37c1.14-1.22,2-2,2.94-1.91s1.7,1.18,2,3.22A15.23,15.23,0,0,1,398.09,423.13Zm84.52,0a21.29,21.29,0,0,1-9.53,9.39,35.17,35.17,0,0,1-30.11-.13,22,22,0,0,1-9.48-9.28,15.2,15.2,0,0,1-1.74-8.44c.25-2,1.06-3.17,1.95-3.22s1.8.69,2.94,1.91a48.36,48.36,0,0,0,4.32,4.37,20.05,20.05,0,0,0,6.89,3.7,35.76,35.76,0,0,0,10.22,1.39,36.61,36.61,0,0,0,10.21-1.29,18.6,18.6,0,0,0,6.76-3.64,39.77,39.77,0,0,0,4.18-4.43c1.09-1.25,2-2,2.86-2s1.74,1.12,2.07,3.15A14.77,14.77,0,0,1,482.61,423.15Zm-93.79-66.09c.26-2,1.07-3.17,2-3.22s1.8.69,2.93,1.9a48.58,48.58,0,0,0,4.33,4.38,20,20,0,0,0,6.89,3.69,35.66,35.66,0,0,0,10.21,1.4,36.53,36.53,0,0,0,10.21-1.3,18.55,18.55,0,0,0,6.77-3.63,39.52,39.52,0,0,0,4.17-4.44c1.09-1.24,2-2,2.87-2s1.74,1.11,2.07,3.15a14.72,14.72,0,0,1-1.55,8.53,21.15,21.15,0,0,1-9.52,9.38,35.17,35.17,0,0,1-30.11-.13,21.82,21.82,0,0,1-9.48-9.27A15.26,15.26,0,0,1,388.82,357.06Zm-40.15,3.06a48.32,48.32,0,0,0,4.32-4.38c1.13-1.21,2-2,2.94-1.9s1.69,1.18,1.95,3.22a15.17,15.17,0,0,1-1.75,8.44,21.82,21.82,0,0,1-9.48,9.27,35.15,35.15,0,0,1-30.1.13,21.22,21.22,0,0,1-9.53-9.38,14.89,14.89,0,0,1-1.55-8.53c.33-2,1.18-3.13,2.08-3.15s1.77.76,2.86,2a39.71,39.71,0,0,0,4.18,4.44,18.58,18.58,0,0,0,6.76,3.63,36.59,36.59,0,0,0,10.21,1.3,35.61,35.61,0,0,0,10.21-1.4A20,20,0,0,0,348.67,360.12Z"/><path class="cls-6" d="M144.09,388.24c.63,1.8,1.46,3.52,2.19,5.29l2.28,5.28a213.28,213.28,0,0,0,10.9,20.49,207.66,207.66,0,0,0,29,37.54,213.44,213.44,0,0,0,38,30.64q8.28,5.25,17.08,9.79A92.61,92.61,0,0,1,227,443.48c0-1.62.05-3.25.13-4.88-35.43-22.28-59.25-53.92-74.21-90-2.38-.59-4.83-1.27-7.35-2.07-4.29-1.35-8.8-3-13.47-4.87a193.88,193.88,0,0,0,8.18,35.85C141.34,381.16,142.79,384.67,144.09,388.24Z"/><path class="cls-6" d="M525.06,34.77c-1-.41-2.19-.94-3.6-1.57l-4.92-2.08a273.4,273.4,0,0,0-30.46-10.79c2.3,5.88,7.86,10.82,12.86,15.15q2.21,1.92,4.36,3.89a31,31,0,0,1,7,.29c2.71.34,5.93.91,9.56,1.67q2.73.57,5.74,1.29l3.05.75.31.07c.09,0,.21,0,.18,0l.1,0a.42.42,0,0,0,.16-.09.46.46,0,0,0,.14-.19l.93-.6,1.13-.71c1.51-1,3.09-1.9,4.73-2.8a110.67,110.67,0,0,1,10.46-5.17,96.6,96.6,0,0,1,20.32-6.18,71.35,71.35,0,0,1,17.4-1.13,54.44,54.44,0,0,1,6.66.83,40,40,0,0,1,4.9,1.36c2.63,1.06,4,2.07,3.84,3-.27,1.9-6.11,2.33-14.9,4a153.3,153.3,0,0,0-15.16,3.62,164.72,164.72,0,0,0-17.94,6.48c-3.34,1.45-6.58,2.91-9.66,4.44-1.55.75-3.05,1.51-4.52,2.27l-2.37,1.22a12.11,12.11,0,0,1-4.51,1.42,10.63,10.63,0,0,1-3.14-.18,15,15,0,0,1-1.5-.38l-.6-.2-.45-.18-3-1.2q-2.85-1.2-5.4-2.34c-1.22-.55-2.36-1.08-3.46-1.61,1.3,1.36,2.6,2.73,3.87,4.12,9.58,10.45,18.64,23.59,16.52,37.6,0,.11-.05.22-.06.33A110.22,110.22,0,1,1,386.26,247.92c-1.2,2.54-2.34,4.89-3.42,7a82.35,82.35,0,0,1-5.79,10A12.41,12.41,0,0,1,375,267.3c-.54.78-1,1.24-1.27,1.24s-.73-.45-1.27-1.24a12.08,12.08,0,0,1-2.09-2.36,82.35,82.35,0,0,1-5.79-10c-1.08-2.12-2.22-4.47-3.42-7A110.23,110.23,0,1,1,230,83.23a24.24,24.24,0,0,1,3.72-12.39,24.53,24.53,0,0,1,20.33-11.09c-2,5.8-4.05,11.71-4.35,17.84a109.79,109.79,0,0,1,37.66-.45,36.56,36.56,0,0,0-7.05-22c-4.83-6.49-11.79-11.28-16-18.18a28.83,28.83,0,0,1-4.12-16.28,274.87,274.87,0,0,0-29.34,10.47l-4.93,2.08c-1.41.63-2.61,1.16-3.6,1.57-2,.81-3.06,1.15-3.17.95-.13.19-1.82-.83-5.14-2.66a102.23,102.23,0,0,0-41.44-12.43,105.53,105.53,0,0,0-17-.05,79.15,79.15,0,0,0-9.19,1.27A41,41,0,0,0,141.81,23l-1.07.38a7.37,7.37,0,0,0-.67.31c-.39.2-.86.47-.86,1a4.47,4.47,0,0,0-.16.81l-.16,1.27c0,.94-.13,1.86-.11,2.84,0,1.94.05,3.95.18,6,.26,4.08.7,8.31,1.25,12.64,1.1,8.68,2.57,17.8,4.25,27.33s3.59,19.49,5.69,29.83q1.57,7.77,3.29,15.81l.87,4,.44,2,.18.8a6.33,6.33,0,0,1,0,.87v1.15c0,2.87-.15,5.73-.31,8.62a255.7,255.7,0,0,1-4.55,35.52c-1.5,7.62-3.39,15.26-5.33,23,4.24,6.67,8.16,13.27,11.79,19.74a379.31,379.31,0,0,1,19.37,39.62,225.51,225.51,0,0,1,11,34.55A201.54,201.54,0,0,1,191.36,318a99.75,99.75,0,0,1,.35,17.12,20.38,20.38,0,0,1-.78,4.44,4,4,0,0,1-.53,1.08c-.21.23-.33.29-.39.24.11.09-.06.56-.56,1.37a16,16,0,0,1-2.76,3.26,18.33,18.33,0,0,1-6.06,3.65,29.79,29.79,0,0,1-9.48,1.78,67.63,67.63,0,0,1-18.25-2.26c15,36.05,38.78,67.69,74.21,90,2.95-61.67,61.46-128.88,146.58-128.88,83.16,0,140.92,64.14,146.3,124.6,29.29-20.18,50.77-50.62,64.45-83.83a53.27,53.27,0,0,1-8.21.4,29.79,29.79,0,0,1-9.48-1.78,18.33,18.33,0,0,1-6.06-3.65,16,16,0,0,1-2.76-3.26c-.5-.81-.67-1.28-.56-1.37-.06.05-.18,0-.39-.24a4,4,0,0,1-.53-1.08,21,21,0,0,1-.78-4.44A99.75,99.75,0,0,1,556,318a203.19,203.19,0,0,1,4.44-26.81,225.51,225.51,0,0,1,11-34.55A379.31,379.31,0,0,1,590.83,217q5.45-9.71,11.8-19.75c-1.35-5.33-2.67-10.64-3.85-15.93-.52-2.18-.94-4.37-1.39-6.55s-.85-4.35-1.24-6.52c-.74-4.34-1.4-8.64-1.91-12.9a238.75,238.75,0,0,1-1.81-25.12v-1.86a4.48,4.48,0,0,1,.11-.62l.11-.51.16-.73c.22-1,.43-2,.64-2.91.41-1.95.83-3.88,1.23-5.79q1.2-5.76,2.36-11.36c3-14.94,5.7-29.06,7.83-42.31,1.07-6.62,2-13,2.71-19.18.34-3.08.66-6.11.83-9a66.1,66.1,0,0,0,.12-8.52,7.62,7.62,0,0,0-.08-1l-.11-.9a7.78,7.78,0,0,0-.25-1.13,2.06,2.06,0,0,0-.88-.68c-.18-.09-.3-.14-.55-.24s-.58-.22-.87-.32a47.92,47.92,0,0,0-7.51-1.76,94.72,94.72,0,0,0-14.63-1.09,107.56,107.56,0,0,0-24.59,2.87,99.7,99.7,0,0,0-17.28,5.78c-4.52,2-7.84,3.83-10.06,5.06s-3.38,1.9-3.48,1.75C528.12,35.92,527,35.58,525.06,34.77ZM147.51,31.71c-.13-.89,1.21-1.9,3.84-3a40,40,0,0,1,4.9-1.36,54.44,54.44,0,0,1,6.66-.83,71.35,71.35,0,0,1,17.4,1.13,96.6,96.6,0,0,1,20.32,6.18A110.67,110.67,0,0,1,211.09,39c1.64.9,3.22,1.85,4.73,2.8l1.14.71.93.6a.36.36,0,0,0,.13.19.42.42,0,0,0,.16.09l.1,0s.09,0,.18,0l.31-.07,3-.75c2-.48,3.93-.91,5.74-1.29,3.63-.76,6.85-1.33,9.56-1.67,5.4-.68,8.75-.48,9.15.77s-2.17,3.39-7,6c-2.38,1.31-5.32,2.75-8.7,4.27-1.69.76-3.5,1.54-5.4,2.34l-3,1.2-.45.18-.6.2a15,15,0,0,1-1.5.38,10.63,10.63,0,0,1-3.14.18,12.11,12.11,0,0,1-4.51-1.42l-2.37-1.22c-1.47-.76-3-1.52-4.52-2.27-3.08-1.53-6.32-3-9.65-4.44a165.6,165.6,0,0,0-18-6.48,153.3,153.3,0,0,0-15.16-3.62C153.62,34,147.78,33.61,147.51,31.71Z"/><path class="cls-6" d="M275.29,35.48a221.43,221.43,0,0,1,18.24,17.75c7.84,8.56,15.33,18.93,16.62,30.1a110.33,110.33,0,0,1,63.54,65.35A110.17,110.17,0,0,1,454.3,78.21a23.64,23.64,0,0,1,3.08-7.37,24.53,24.53,0,0,1,20.33-11.09c-1.83,5.24-3.66,10.56-4.22,16.06a109.21,109.21,0,0,1,37.32,5.1A36.8,36.8,0,0,0,504,55.11c-4.83-6.49-11.79-11.28-16-18.18a28.91,28.91,0,0,1-4.06-17.23,340.56,340.56,0,0,0-48.65-9.8c-9.39-1.23-19.3-2.17-29.59-2.76-5.14-.29-10.39-.49-15.7-.59-2.66,0-5.34-.06-8,0l-4,0-2,.06-2.16.08-2.16-.08-2-.06-4.05,0c-2.69,0-5.37,0-8,0q-8,.15-15.7.59c-10.29.59-20.2,1.53-29.59,2.76a338.44,338.44,0,0,0-49.27,10l-.56.16C264.54,26.05,270.21,31.08,275.29,35.48Zm48.17-14c3.59-.79,7.54-1.6,11.8-2.31s8.85-1.4,13.68-2A295.84,295.84,0,0,1,380.65,15a250.77,250.77,0,0,1,31.87,1.77c4.87.69,9.49,1.32,13.77,2.25,2.15.45,4.22.83,6.19,1.32l5.65,1.48c3.6.91,6.78,2.07,9.56,3,1.39.51,2.68,1,3.85,1.46s2.21,1,3.15,1.47c3.76,1.86,5.68,3.28,5.42,4.14s-2.67,1.08-6.75.75L446,31.91c-2.86-.29-6.06-.79-9.63-1.09l-5.58-.62c-1.93-.21-4-.33-6.05-.53-4.16-.45-8.64-.65-13.33-1-9.41-.48-19.75-.77-30.64-.69s-21.29.59-30.77,1.07l-25.28,1.52c-14.45.86-23.57.92-23.89-.89S309.1,24.67,323.46,21.45Z"/><path class="cls-6" d="M520,434.32q.4,4.6.41,9.16a92.49,92.49,0,0,1-16.55,53.81q6.18-3.17,12.14-6.67A230.43,230.43,0,0,0,544.8,470l6.57-5.79c2.11-2,4.17-4.06,6.25-6.08l1.56-1.52c.5-.51,1-1.06,1.47-1.58l2.94-3.19,2.93-3.17,2.76-3.31a204.39,204.39,0,0,0,34.22-57.67c.94-2.58,2-5.12,2.84-7.7s1.67-5.17,2.5-7.75,1.43-5.21,2.13-7.81,1.2-5.23,1.81-7.83c1-5,1.87-9.93,2.5-14.88-4.67,1.87-9.16,3.51-13.45,4.86a95.73,95.73,0,0,1-17.39,3.93C570.76,383.7,549.28,414.14,520,434.32Z"/><path class="cls-7" d="M321.35,363.91a18.58,18.58,0,0,1-6.76-3.63,39.71,39.71,0,0,1-4.18-4.44c-1.09-1.24-2-2-2.86-2S305.8,355,305.47,357a14.89,14.89,0,0,0,1.55,8.53,21.22,21.22,0,0,0,9.53,9.38,35.15,35.15,0,0,0,30.1-.13,21.82,21.82,0,0,0,9.48-9.27,15.17,15.17,0,0,0,1.75-8.44c-.26-2-1.06-3.17-1.95-3.22s-1.81.69-2.94,1.9a48.32,48.32,0,0,1-4.32,4.38,20,20,0,0,1-6.9,3.69,35.61,35.61,0,0,1-10.21,1.4A36.59,36.59,0,0,1,321.35,363.91Z"/><path class="cls-7" d="M357.88,465c-.26-2-1.06-3.17-1.95-3.22s-1.81.7-2.94,1.91a47.09,47.09,0,0,1-4.32,4.37,20,20,0,0,1-6.9,3.7,32.21,32.21,0,0,1-7.34,1.28c-.93.07-1.88.1-2.87.11a36.61,36.61,0,0,1-10.21-1.29c-.23-.07-.43-.16-.65-.24a18.35,18.35,0,0,1-6.11-3.4,38.86,38.86,0,0,1-4.18-4.43c-1.09-1.25-2-2-2.86-2s-1.75,1.12-2.08,3.16a12.86,12.86,0,0,0,.14,4.27,16.83,16.83,0,0,0,1.41,4.26,21.32,21.32,0,0,0,9.53,9.38,35.15,35.15,0,0,0,30.1-.13,22,22,0,0,0,9.22-8.79c.08-.16.18-.32.26-.48A15.19,15.19,0,0,0,357.88,465Z"/><path class="cls-7" d="M400.05,374.77a35.17,35.17,0,0,0,30.11.13,21.15,21.15,0,0,0,9.52-9.38,14.72,14.72,0,0,0,1.55-8.53c-.33-2-1.18-3.13-2.07-3.15s-1.78.76-2.87,2a39.52,39.52,0,0,1-4.17,4.44,18.55,18.55,0,0,1-6.77,3.63,36.53,36.53,0,0,1-10.21,1.3,35.66,35.66,0,0,1-10.21-1.4,20,20,0,0,1-6.89-3.69,48.58,48.58,0,0,1-4.33-4.38c-1.13-1.21-2-2-2.93-1.9s-1.7,1.18-2,3.22a15.26,15.26,0,0,0,1.75,8.44A21.82,21.82,0,0,0,400.05,374.77Z"/><path class="cls-7" d="M439.16,461.82c-.9,0-1.78.76-2.87,2-.4.45-.84,1-1.31,1.52a25.92,25.92,0,0,1-2.86,2.91,18.56,18.56,0,0,1-6.77,3.64,36.56,36.56,0,0,1-10.21,1.29,35.68,35.68,0,0,1-10.21-1.39,22,22,0,0,1-2.3-.88A19.81,19.81,0,0,1,398,468.1a47.34,47.34,0,0,1-4.33-4.37c-1.13-1.21-2-2-2.93-1.91s-1.7,1.18-2,3.22a14.71,14.71,0,0,0,1.23,7.31c.16.38.33.75.52,1.14a21.88,21.88,0,0,0,9.48,9.27,35.17,35.17,0,0,0,30.11.13,21.24,21.24,0,0,0,9.52-9.38,14.73,14.73,0,0,0,1.55-8.53,8,8,0,0,0-.22-1C440.6,462.6,439.9,461.84,439.16,461.82Z"/><path class="cls-7" d="M313.68,411.47c-.9-.06-1.8.69-2.94,1.91a48.36,48.36,0,0,1-4.32,4.37,20.05,20.05,0,0,1-6.89,3.7,35.7,35.7,0,0,1-10.22,1.39,36.61,36.61,0,0,1-10.21-1.29,18.6,18.6,0,0,1-6.76-3.64,39.77,39.77,0,0,1-4.18-4.43c-1.09-1.25-2-2-2.86-2s-1.74,1.12-2.07,3.15a14.77,14.77,0,0,0,1.54,8.53,21.29,21.29,0,0,0,9.53,9.39,35.17,35.17,0,0,0,30.11-.13,22,22,0,0,0,9.48-9.28,15.23,15.23,0,0,0,1.75-8.44C315.38,412.65,314.57,411.52,313.68,411.47Z"/><path class="cls-7" d="M482.08,411.47c-.9,0-1.77.76-2.86,2a39.77,39.77,0,0,1-4.18,4.43,18.6,18.6,0,0,1-6.76,3.64,36.61,36.61,0,0,1-10.21,1.29,35.76,35.76,0,0,1-10.22-1.39,20.05,20.05,0,0,1-6.89-3.7,48.36,48.36,0,0,1-4.32-4.37c-1.14-1.22-2-2-2.94-1.91s-1.7,1.18-1.95,3.22a15.2,15.2,0,0,0,1.74,8.44,22,22,0,0,0,9.48,9.28,35.17,35.17,0,0,0,30.11.13,21.29,21.29,0,0,0,9.53-9.39,14.77,14.77,0,0,0,1.54-8.53C483.82,412.59,483,411.49,482.08,411.47Z"/><path class="cls-7" d="M397.88,411.47c-.9-.06-1.8.69-2.94,1.91a48.36,48.36,0,0,1-4.32,4.37,20.05,20.05,0,0,1-6.89,3.7,35.7,35.7,0,0,1-10.22,1.39,36.49,36.49,0,0,1-10.2-1.29,18.56,18.56,0,0,1-6.77-3.64,39.77,39.77,0,0,1-4.18-4.43c-1.09-1.25-2-2-2.86-2s-1.74,1.12-2.07,3.15a14.77,14.77,0,0,0,1.54,8.53,21.29,21.29,0,0,0,9.53,9.39,35.17,35.17,0,0,0,30.11-.13,22,22,0,0,0,9.48-9.28,15.23,15.23,0,0,0,1.75-8.44C399.58,412.65,398.77,411.52,397.88,411.47Z"/><path class="cls-3" d="M521.45,116a80.73,80.73,0,0,1,21.4,15.69,45.41,45.41,0,0,0-8.79-17.87,49.24,49.24,0,0,1,20.63,22.93c2.78,6.37,4.16,13.26,5.23,20.12.08.49.15,1,.22,1.48a80.61,80.61,0,1,1-134-25.22,29.61,29.61,0,0,1-2.89-5.41c-4.45-11.22,2-25.49,13.39-29.53a15,15,0,0,0-.06,18.23,13.85,13.85,0,0,0,4.92,3.83,80.3,80.3,0,0,1,20.16-9.38,11.56,11.56,0,0,0,.14-4c-.65-4.72-4-8.57-6-12.89a24.48,24.48,0,0,1-1.51-15.74,110.17,110.17,0,0,0-80.61,70.47,110.33,110.33,0,0,0-63.54-65.35,28.16,28.16,0,0,1-.11,7.5c-1.39,9.18-7.35,16.87-12.08,24.85a81.15,81.15,0,0,1,21,15,45.27,45.27,0,0,0-8.54-16.92A49.19,49.19,0,0,1,331,136.7a78.67,78.67,0,0,1,5.06,19,80.61,80.61,0,1,1-133.34-22.23,30.66,30.66,0,0,1-3.17-5.82c-4.45-11.22,2-25.49,13.4-29.53a15,15,0,0,0-.06,18.23,14,14,0,0,0,5.31,4A80.34,80.34,0,0,1,238,111a11.85,11.85,0,0,0,.2-4.2c-.66-4.72-4-8.57-6-12.89A23.84,23.84,0,0,1,230,83.23,110.23,110.23,0,1,0,361.12,247.92q-1.92-4.08-4-8.83c-1.35-3.05-2.74-6.3-4.17-9.71l-2.17-5.24-1.1-2.7c-.56-1.41-1.11-2.82-1.68-4.25a25.34,25.34,0,0,1,1.54-2.43l.45-.59.22-.29.15-.18.59-.67a24.72,24.72,0,0,1,2.58-2.43,27.09,27.09,0,0,1,6.07-3.74,36.42,36.42,0,0,1,28.2,0,27.09,27.09,0,0,1,6.07,3.74,24.82,24.82,0,0,1,2.59,2.43l.58.67.15.18.22.29.45.59a25.34,25.34,0,0,1,1.54,2.43c-.56,1.43-1.12,2.84-1.68,4.25l-1.1,2.7-2.17,5.24c-1.43,3.41-2.82,6.66-4.17,9.71s-2.73,6.11-4,8.83A110.22,110.22,0,1,0,533.63,91.16c-1.5,9.11-7.46,16.78-12.16,24.75Z"/><path class="cls-3" d="M473.49,75.81c-.08.72-.13,1.46-.16,2.19-.22,6.28,1.72,12.94,6.51,17,3.9,3.31,9.19,4.52,14.31,4.75a15.81,15.81,0,0,0,7-.93c3.65-1.57,6-5.24,7.41-8.93a35,35,0,0,0,2.21-9A109.21,109.21,0,0,0,473.49,75.81Z"/><path class="cls-3" d="M256.19,95c3.9,3.31,9.2,4.52,14.31,4.75a15.81,15.81,0,0,0,7-.93c3.65-1.57,6-5.24,7.42-8.93a35.51,35.51,0,0,0,2.41-12.76,109.79,109.79,0,0,0-37.66.45c0,.14,0,.27,0,.41C249.47,84.28,251.4,90.94,256.19,95Z"/><path class="cls-8" d="M337.64,183.17a66.82,66.82,0,0,1-23.42,44.12c-10.65,8.88-25.68,15.49-39.77,15.18a28.48,28.48,0,0,1-6.52-1.08l-2.18-.56a33.86,33.86,0,0,0-4.13-.81q-.64-.09-1.32-.12A63.86,63.86,0,0,0,253,240c-5.9.35-11.82,1.17-17.77.78-10.6-.7-21.3-3.59-29.78-10A37.55,37.55,0,0,1,191.2,209a31.51,31.51,0,0,1,5.27-25.22c.41-.55.86-1.08,1.31-1.6l-.19-.49c-.69-1.71-1.34-3.47-2-5.21a10.48,10.48,0,0,1-.43-1.26l1.36.27,2.7.52c1.3.25,2.56.49,3.83.75a43.42,43.42,0,0,0,7.53-8.63,23,23,0,0,0,1.68-20.06c-2.15-5.4-6.28-9.76-9.52-14.59A80.6,80.6,0,1,0,336.1,155.72l.18,1.1C337.64,165.53,338.52,174.39,337.64,183.17Z"/><path class="cls-8" d="M316.65,179.14a16.79,16.79,0,0,0-.63-3C316.26,177.11,316.47,178.12,316.65,179.14Z"/><path class="cls-8" d="M292.68,159.64c2.92,5.55,8.74,10.46,14.88,9.24,5.56-1.1,9-6.68,10.81-12.07a46.07,46.07,0,0,0,.58-26.12,81.15,81.15,0,0,0-21-15l-.14.23C290,129.13,285.54,146.07,292.68,159.64Z"/><path class="cls-8" d="M230.73,120.27A14,14,0,0,0,238,111a80.34,80.34,0,0,0-19.71,9.34A14.89,14.89,0,0,0,230.73,120.27Z"/><path class="cls-8" d="M521.45,116c-7.78,13.21-12.26,30.13-5.12,43.69,2.92,5.55,8.73,10.46,14.88,9.24,5.56-1.1,9-6.68,10.81-12.07a45.93,45.93,0,0,0,.83-25.17A80.73,80.73,0,0,0,521.45,116Z"/><path class="cls-8" d="M539.67,176.1c.12.53.22,1.06.33,1.59h.07C540,177.15,539.83,176.63,539.67,176.1Z"/><path class="cls-8" d="M485.18,268.54a80.6,80.6,0,0,0,75-110.24c1.23,8.24,2,16.59,1.15,24.87a66.86,66.86,0,0,1-23.42,44.12c-10.65,8.88-25.69,15.49-39.77,15.18a28.48,28.48,0,0,1-6.52-1.08l-2.19-.56a33.34,33.34,0,0,0-4.12-.81q-.66-.09-1.32-.12a63.86,63.86,0,0,0-7.32.09c-5.91.35-11.82,1.17-17.77.78-10.6-.7-21.3-3.59-29.78-10A37.55,37.55,0,0,1,414.85,209a31.47,31.47,0,0,1,5.27-25.22c4.24-5.63,10.48-9.63,14.13-15.65a23,23,0,0,0,1.68-20.06c-2.21-5.55-6.52-10-9.8-15a80.59,80.59,0,0,0,59.05,135.46Z"/><path class="cls-8" d="M454.38,120.27a13.92,13.92,0,0,0,7.27-9.45,80.3,80.3,0,0,0-20.16,9.38A14.93,14.93,0,0,0,454.38,120.27Z"/><path class="cls-1" d="M293,215.62,286.59,217l-.66.13a10.91,10.91,0,0,1-5.81,7.13c-4.58,2.17-9.64,3.37-12.29,8a20.34,20.34,0,0,0-2.08,8.59l2.18.56c17.27-2.86,31.83-13.87,42.45-29-3.66.79-7.41,1.44-11.19,2.09C297.12,214.83,295,215.19,293,215.62Z"/><path class="cls-1" d="M313.72,192.46l1,.15,2.52.3a52.12,52.12,0,0,0-.62-13.77,16.45,16.45,0,0,1-4.58,13l.54.09Z"/><path class="cls-1" d="M254.58,231c-6.08-1.65-11.73-4.87-15-9.85a29.44,29.44,0,0,1-3.4-.91,29.75,29.75,0,0,1-7.12-3.68c-2.13-1.45-4-3-5.83-4.53s-3.57-3-5.33-4.56c-.78-.68-1.55-1.37-2.32-2.06a43.4,43.4,0,0,0,10.36,24.87c5.54,6.51,14.22,7.95,22.89,8.67a15.37,15.37,0,0,1,4.18,1,63.86,63.86,0,0,1,7.32-.09q.68,0,1.32.12a25,25,0,0,0-.77-3.69C259.88,233.68,257.23,232,254.58,231Z"/><path class="cls-1" d="M257.16,186.92a15.43,15.43,0,0,0,2.24-3.35c.34,1.28.66,2.57,1,3.84,2.45.37,4.68.7,6.65,1,5.17.77,8.64,1.35,10.12,1.79A24.77,24.77,0,0,1,271,165.74c1.92-6.26,4.57-12.29,7-18.31,1.45-4.58.72-9.15,0-14-.72-4.1-3.85-6.75-7-9.4-5.55-5.3-13.26-8.43-15.42-16.14-3.86,3.85-1.69,10.12-1,14.94,1.21,7,8.68,9.87,11.57,15.9,2.41,4.58-1.93,9.88-6.51,11.32-5.54,1.69-10.36-3.61-15.18-5.54-3.85-1.69-8.67-1.2-13,0v1a19.69,19.69,0,0,1,15.42,10.36c1.69,3.62.73,8.2-1.2,11.81-3.9,6.93-11.49,10-18.24,14.19q5.12,1,9.81,1.8C244.78,185,251.47,186.05,257.16,186.92Z"/><path class="cls-9" d="M257.16,186.92l3.23.49c-.33-1.27-.65-2.56-1-3.84A15.43,15.43,0,0,1,257.16,186.92Z"/><path class="cls-9" d="M280.12,224.29a10.91,10.91,0,0,0,5.81-7.13c-4.16.87-8.43,1.67-12.79,2.37-4.6.73-9.31,1.34-14.11,1.79-2.41.22-4.82.4-7.29.53a59.58,59.58,0,0,1-7.67,0,35.37,35.37,0,0,1-4.52-.64c3.3,5,8.95,8.2,15,9.85,2.65,1,5.3,2.65,6.27,5.3a25,25,0,0,1,.77,3.69,33.86,33.86,0,0,1,4.13.81,20.34,20.34,0,0,1,2.08-8.59C270.48,227.66,275.54,226.46,280.12,224.29Z"/><path class="cls-10" d="M261.39,13.68c-.21.67-.38,1.34-.53,2l.51-.17A14.32,14.32,0,0,1,261.39,13.68Z"/><path class="cls-10" d="M232.17,94c2,4.32,5.32,8.17,6,12.89a11.85,11.85,0,0,1-.2,4.2,14,14,0,0,1-7.22,9.23,14.89,14.89,0,0,1-12.49.11,14,14,0,0,1-5.31-4A15,15,0,0,1,213,98.14c-11.37,4-17.85,18.31-13.4,29.53a30.66,30.66,0,0,0,3.17,5.82c3.24,4.83,7.37,9.19,9.52,14.59a23,23,0,0,1-1.68,20.06,43.42,43.42,0,0,1-7.53,8.63l1.51.3,6.64,1.47,5.58,1.19c3.67.77,7.22,1.47,10.63,2.13,6.75-4.22,14.34-7.26,18.24-14.19,1.93-3.61,2.89-8.19,1.2-11.81a19.69,19.69,0,0,0-15.42-10.36v-1c4.34-1.2,9.16-1.69,13,0,4.82,1.93,9.64,7.23,15.18,5.54,4.58-1.44,8.92-6.74,6.51-11.32-2.89-6-10.36-8.92-11.57-15.9-.72-4.82-2.89-11.09,1-14.94,2.16,7.71,9.87,10.84,15.42,16.14,3.13,2.65,6.26,5.3,7,9.4.72,4.82,1.45,9.39,0,14-2.41,6-5.06,12-7,18.31a24.77,24.77,0,0,0,6.19,24.47c.54.16.83.3.82.42,0-.44,4-.59,11.17-.44,3.58.09,8,.26,13.08.72,2.56.24,5.29.56,8.18,1l1.66.27a16.45,16.45,0,0,0,4.58-13c-.18-1-.39-2-.63-3a16.79,16.79,0,0,1,.63,3,52.12,52.12,0,0,1,.62,13.77l2.11.26a48.57,48.57,0,0,1,5.07.87,18,18,0,0,1,2.77.85,7.14,7.14,0,0,1,3.44,2.62,4.54,4.54,0,0,1,.31,4.21l-.53,1-.72,1a8.52,8.52,0,0,1-.69.75l-.34.35-.3.26a10.87,10.87,0,0,1-1.25,1c-.43.3-.86.65-1.31.91a25.74,25.74,0,0,1-2.73,1.47,57.05,57.05,0,0,1-11.64,3.74l-1.08.23c-10.62,15.14-25.18,26.15-42.45,29a28.48,28.48,0,0,0,6.52,1.08c14.09.31,29.12-6.3,39.77-15.18a66.82,66.82,0,0,0,23.42-44.12c.88-8.78,0-17.64-1.36-26.35l-.18-1.1a78.67,78.67,0,0,0-5.06-19,49.19,49.19,0,0,0-20.63-22.93A45.27,45.27,0,0,1,319,130.69a46.07,46.07,0,0,1-.58,26.12c-1.77,5.39-5.25,11-10.81,12.07-6.14,1.22-12-3.69-14.88-9.24-7.14-13.57-2.65-30.51,5.14-43.73l.14-.23c4.73-8,10.69-15.67,12.08-24.85a28.16,28.16,0,0,0,.11-7.5c-1.29-11.17-8.78-21.54-16.62-30.1a221.43,221.43,0,0,0-18.24-17.75c-5.08-4.4-10.75-9.43-13-15.44l-2.12.61a28.83,28.83,0,0,0,4.12,16.28c4.22,6.9,11.18,11.69,16,18.18a36.56,36.56,0,0,1,7.05,22A35.51,35.51,0,0,1,285,89.9c-1.46,3.69-3.77,7.36-7.42,8.93a15.81,15.81,0,0,1-7,.93c-5.11-.23-10.41-1.44-14.31-4.75-4.79-4.07-6.72-10.73-6.5-17,0-.14,0-.27,0-.41.3-6.13,2.33-12,4.35-17.84a24.53,24.53,0,0,0-20.33,11.09A24.24,24.24,0,0,0,230,83.23,23.84,23.84,0,0,0,232.17,94Z"/><path class="cls-10" d="M225.91,230.31a43.4,43.4,0,0,1-10.36-24.87c-2.68-2.43-5.27-4.94-7.67-7.59a58.51,58.51,0,0,1-8-11.09l-.56-1.08c-.24-.45-.48-.91-.67-1.35-.34-.73-.61-1.43-.88-2.14-.45.52-.9,1.05-1.31,1.6A31.51,31.51,0,0,0,191.2,209a37.55,37.55,0,0,0,14.23,21.78c8.48,6.39,19.18,9.28,29.78,10,5.95.39,11.87-.43,17.77-.78a15.37,15.37,0,0,0-4.18-1C240.13,238.26,231.45,236.82,225.91,230.31Z"/><path class="cls-11" d="M374.07,267.77c-.24.05-.4-.07-.38-.14s-.14.19-.38.14a2,2,0,0,1-.84-.43l-.05,0c.54.79,1,1.24,1.27,1.24s.73-.46,1.27-1.24l0,0A2,2,0,0,1,374.07,267.77Z"/><path class="cls-11" d="M375.25,263.94c1-2.43,2.36-6,4.08-10.57s3.75-10.05,6.08-16.25q1.72-4.68,3.66-9.86c.5-1.35,1-2.75,1.53-4.15-7.24,5.24-13.47,12.36-19.22,20.2a35.74,35.74,0,0,0-15.15-21.68l.13.34c.66,1.8,1.32,3.56,2,5.29l3.66,9.86c2.32,6.2,4.37,11.69,6.07,16.25s3.1,8.14,4.08,10.57c.49,1.22.88,2.13,1.15,2.73a5.4,5.4,0,0,1,.41,1,6.4,6.4,0,0,1,.41-1C374.37,266.07,374.76,265.16,375.25,263.94Z"/><path class="cls-12" d="M371.38,243.31c5.75-7.84,12-15,19.22-20.2L391,222l1-2.73.45-1.21s0-.06,0-.08a.34.34,0,0,0-.06-.06h0l-.1-.11-.43-.47a18.33,18.33,0,0,0-2-1.76,20.76,20.76,0,0,0-4.72-2.79,31,31,0,0,0-23,0,20.33,20.33,0,0,0-4.72,2.79,18.44,18.44,0,0,0-2,1.76l-.43.47-.1.11h0l-.06.06a.17.17,0,0,1,0,.08l.45,1.21c.29.8.59,1.6.88,2.39A35.74,35.74,0,0,1,371.38,243.31Zm-7.31-27.08a17.66,17.66,0,0,1,17.05.41c2,1.32,2.88,2.88,2.51,4.16s-1.89,2.12-3.9,2.6a29.47,29.47,0,0,1-7.32.6,30,30,0,0,1-7.27-.95c-2-.58-3.45-1.47-3.77-2.79S362,217.44,364.07,216.23Z"/><path class="cls-7" d="M190,339.34c0-1,0-2.4-.12-4.3-.17-2.73-.52-6.42-1.15-10.94a294.29,294.29,0,0,1-31.89-7C103.46,302.29,48.38,279.79,13.4,235.87a6.94,6.94,0,0,0-.72.37,5.48,5.48,0,0,0-.78.59c-.12.12-.23.2-.36.32l-.4.48-.4.47-.31.49-.33.49-.23.5A8,8,0,0,0,9.23,244a15.73,15.73,0,0,0,1.61,5.18,10.34,10.34,0,0,0,.68,1.32c.24.44.47.88.73,1.31.59.86,1.07,1.75,1.72,2.59A78.31,78.31,0,0,0,22.35,264c3,3,6.26,5.9,9.53,8.64s6.6,5.35,9.91,7.89c13.39,10.06,26.78,18.76,39.41,26.6s24.53,14.88,35.54,20.77q8.28,4.38,15.89,7.93c5.08,2.33,9.92,4.36,14.5,6.05,9.16,3.38,17.34,5.32,24,5.58s11.64-1.42,14.47-3.41a32.52,32.52,0,0,0,3.17-2.46c.71-.6,1.11-.89,1.23-.79C189.9,340.71,190,340.31,190,339.34Z"/><path class="cls-7" d="M78.45,237.55c-14.07-15-28.11-31.92-34.51-51.92a10.48,10.48,0,0,0-4.5.86,4.82,4.82,0,0,0-1,.61c-.16.12-.34.22-.49.34l-.44.43c-.4.32-.36.46-.53.59s-.08.23-.14.33a.91.91,0,0,0-.09.17l-.06.24a12.89,12.89,0,0,0,.12,5.64,63.38,63.38,0,0,0,5,13.83c2.19,4.58,4.65,9.07,7.26,13.45l.49.82.9,1.46c.65,1,1.26,2.06,2,3.19,1.41,2.2,2.85,4.39,4.42,6.66l1.56,2.22A57.86,57.86,0,0,0,78.45,237.55Z"/><path class="cls-7" d="M84.32,146.72a4.32,4.32,0,0,0-.73,0,3,3,0,0,0-1.44.54,1.78,1.78,0,0,1-.27.17,3.47,3.47,0,0,1-.25.29c-.21.13-.35.51-.55.74a14.94,14.94,0,0,0-1.56,5.31,60.5,60.5,0,0,0,.2,13.93c.53,4.84,1.38,9.76,2.41,14.7l.4,1.85.76,3.35q.7,2.94,1.51,6a55.36,55.36,0,0,0,15.56,7C95.17,183.32,86.08,165.34,84.32,146.72Z"/><path class="cls-13" d="M156.87,317.12a294.29,294.29,0,0,0,31.89,7c-.25-1.78-.53-3.67-.87-5.7a247.37,247.37,0,0,0-5.86-26,240.94,240.94,0,0,0-12-33.27A406.57,406.57,0,0,0,150,220.76,390.41,390.41,0,0,0,122,179.38a198.31,198.31,0,0,0-17.79-20.11,80,80,0,0,0-10.33-8.57,32.07,32.07,0,0,0-5.51-3,11.37,11.37,0,0,0-4.05-.94c1.76,18.62,10.85,36.6,16,53.92a55.36,55.36,0,0,1-15.56-7c.15.57.29,1.12.45,1.7q2.27,7.77,4.54,15.61a33.62,33.62,0,0,1,5.57,7.73,29,29,0,0,1,1.87,4.76,4.62,4.62,0,0,1,.19,3.07c-.36.8-1.47,1.31-3.19,1a15.32,15.32,0,0,1-5.8-2.79c-3.72-2.52-8.19-5.9-13.42-9.34-1.31-.85-2.59-1.67-3.82-2.48s-2.61-1.5-3.81-2.27-2.37-1.52-3.44-2.28-2.14-1.51-3-2.24c-3.69-2.92-5.6-5.55-4.87-7.19s4-2,8.6-1.22a33.66,33.66,0,0,1,3.75.81c1.36.38,2.8.83,4.29,1.35a40.11,40.11,0,0,1,4.68,1.88c.25.12.49.27.74.39-3.1-2.41-6-4.46-9-6.39l-1.79-1.13-1.22-.74c-.82-.49-1.65-1-2.47-1.43-1.67-.92-3.34-1.81-5-2.61a46.85,46.85,0,0,0-10.28-3.68,20,20,0,0,0-4.36-.5c6.4,20,20.44,37,34.51,51.92a57.86,57.86,0,0,1-20.06-1.08L66.46,248,50.29,241.4c-1.27-.49-2.53-1-3.72-1.36s-2.41-.83-3.59-1.2-2.28-.7-3.39-1l-1.32-.38-.86-.23a75.7,75.7,0,0,0-13.54-2.5,32,32,0,0,0-6.29.06,13.7,13.7,0,0,0-4.18,1.11C48.38,279.79,103.46,302.29,156.87,317.12ZM92,164.58c.25-.37.91-.43,2-.21a18.33,18.33,0,0,1,4.18,1.6,64.82,64.82,0,0,1,13.26,9.15,113.75,113.75,0,0,1,16.2,17.55,167,167,0,0,1,15.23,24.7,270,270,0,0,1,11.53,26.18c1.58,4.07,3,8,4.2,11.63s2.36,7.1,3.33,10.25c3.88,12.62,5.43,20.72,3.76,21.38s-6.25-6.24-12.28-17.88S140,240.68,131.21,223.29c-4.44-8.69-9-16.73-13.48-23.75a201.45,201.45,0,0,0-13-18C96.82,171.7,90.9,166.15,92,164.58ZM27.65,245.45a3.75,3.75,0,0,1,2-2.06,16,16,0,0,1,4-1.34,29.18,29.18,0,0,1,6.07-.66,25.42,25.42,0,0,1,8.57,1.39,23,23,0,0,1,4.36,2.15,28.15,28.15,0,0,1,3.14,2.35,37.85,37.85,0,0,1,3.93,3.93,36.28,36.28,0,0,1,2.29,2.94,4.65,4.65,0,0,1,1,2.68,2.78,2.78,0,0,1-1.92,2.31,9.41,9.41,0,0,1-5.35.39,26.89,26.89,0,0,1-6.42-2.13l-2.91-1.33c-.92-.41-1.71-.72-2.54-1-3.36-1.22-8.11-2.16-11.58-3.88a11.7,11.7,0,0,1-3.92-2.86A3.07,3.07,0,0,1,27.65,245.45Z"/><path class="cls-7" d="M661.52,197.39c.21-.7.41-1.4.61-2.09.73-2.62,1.36-5.16,2-7.67l.76-3.35.4-1.85c1-4.94,1.88-9.86,2.41-14.7a60.5,60.5,0,0,0,.2-13.93,14.74,14.74,0,0,0-1.56-5.31c-.2-.23-.34-.61-.55-.74a3.47,3.47,0,0,1-.25-.29,2.46,2.46,0,0,1-.27-.17,3,3,0,0,0-1.44-.54,5.34,5.34,0,0,0-1.21,0c-2.25,20-10.31,39.43-24.79,53.91A35,35,0,0,0,661.52,197.39Z"/><path class="cls-13" d="M582.43,333.27c55.91-22.37,114-44.76,151.09-97.61a14.94,14.94,0,0,0-3.71-.9,32.16,32.16,0,0,0-6.3-.06A75.7,75.7,0,0,0,710,237.2l-.86.23-1.32.38c-1.11.33-2.17.62-3.39,1s-2.37.76-3.59,1.2-2.45.87-3.72,1.36L680.92,248l7.33-10.43a37.12,37.12,0,0,1-23.93-3.44c20.28-7.94,31.8-28,40.73-48.38a18.05,18.05,0,0,0-6,.42,46.85,46.85,0,0,0-10.28,3.68c-1.7.8-3.37,1.69-5,2.61-.82.47-1.65.94-2.47,1.43l-1.22.74-1.79,1.13c-3,1.93-5.89,4-9,6.39.25-.12.49-.27.74-.39a40.11,40.11,0,0,1,4.68-1.88c1.49-.52,2.93-1,4.29-1.35a33.66,33.66,0,0,1,3.75-.81c4.64-.77,7.87-.43,8.6,1.22s-1.18,4.27-4.87,7.19c-.9.73-2,1.48-3,2.24s-2.22,1.52-3.44,2.28-2.6,1.48-3.8,2.27l-3.83,2.48c-5.23,3.44-9.7,6.82-13.42,9.34a15.32,15.32,0,0,1-5.8,2.79c-1.72.29-2.83-.22-3.19-1a4.69,4.69,0,0,1,.19-3.07,29,29,0,0,1,1.87-4.76,33.92,33.92,0,0,1,5.57-7.73q2-6.78,3.93-13.52a35,35,0,0,1-23.73,3.25c14.48-14.48,22.54-33.94,24.79-53.91a12.94,12.94,0,0,0-3.57.93,32.07,32.07,0,0,0-5.51,3,80,80,0,0,0-10.33,8.57,198.31,198.31,0,0,0-17.79,20.11,388.75,388.75,0,0,0-27.94,41.38,404.46,404.46,0,0,0-20.06,38.37,240.94,240.94,0,0,0-12,33.27,247.37,247.37,0,0,0-5.86,26c-1.2,7.21-1.78,12.84-2,16.64,0,.57-.06,1.09-.08,1.58C566,337.12,574.36,336.37,582.43,333.27Zm102.88-79.12a36.28,36.28,0,0,1,2.29-2.94,38.88,38.88,0,0,1,3.93-3.93,29.11,29.11,0,0,1,3.14-2.35,23,23,0,0,1,4.36-2.15,25.42,25.42,0,0,1,8.57-1.39,29.18,29.18,0,0,1,6.07.66,16,16,0,0,1,4,1.34,3.75,3.75,0,0,1,2,2.06,3.07,3.07,0,0,1-.81,2.85,11.7,11.7,0,0,1-3.92,2.86c-3.47,1.72-8.22,2.66-11.58,3.88-.83.31-1.62.62-2.54,1L698,257.4a26.89,26.89,0,0,1-6.42,2.13,9.41,9.41,0,0,1-5.35-.39,2.78,2.78,0,0,1-1.92-2.31A4.71,4.71,0,0,1,685.31,254.15Zm-99.79,11.28c1-3.15,2.08-6.58,3.33-10.25s2.62-7.56,4.2-11.63a270,270,0,0,1,11.53-26.18,167,167,0,0,1,15.23-24.7A114.25,114.25,0,0,1,636,175.12,64.82,64.82,0,0,1,649.27,166a18.33,18.33,0,0,1,4.18-1.6c1-.22,1.7-.16,2,.21,1.07,1.57-4.85,7.12-12.8,17a201.45,201.45,0,0,0-13,18c-4.52,7-9,15.06-13.48,23.75-8.82,17.39-16.07,34-22.13,45.64s-10.6,18.54-12.28,17.88S581.64,278.05,585.52,265.43Z"/><path class="cls-7" d="M664.32,234.09a37.12,37.12,0,0,0,23.93,3.44l2.3-3.28c1.57-2.27,3-4.46,4.42-6.66.73-1.13,1.34-2.14,2-3.19l.9-1.46.49-.82c2.61-4.38,5.07-8.87,7.26-13.45a63.38,63.38,0,0,0,5-13.83,12.73,12.73,0,0,0,.12-5.64l-.06-.24a.91.91,0,0,0-.09-.17c-.06-.1-.09-.23-.14-.33s-.13-.27-.53-.59l-.44-.43c-.15-.12-.33-.22-.49-.34a4.59,4.59,0,0,0-1-.61,9.21,9.21,0,0,0-2.89-.78C696.12,206.07,684.6,226.15,664.32,234.09Z"/><path class="cls-7" d="M558.6,341.62a32.52,32.52,0,0,0,3.17,2.46c2.83,2,7.79,3.72,14.47,3.41s14.85-2.2,24-5.58c4.58-1.69,9.42-3.72,14.5-6.05s10.37-5,15.9-7.93c11-5.89,22.87-12.92,35.53-20.77s26-16.54,39.41-26.6c3.31-2.54,6.66-5.14,9.91-7.89S722,267.07,725,264a78.31,78.31,0,0,0,8.38-9.64c.65-.84,1.13-1.73,1.72-2.59.26-.43.49-.87.74-1.31a11.71,11.71,0,0,0,.67-1.32,15.73,15.73,0,0,0,1.61-5.18,8,8,0,0,0-.64-4.41l-.23-.5-.33-.49-.3-.49-.41-.47-.4-.48c-.12-.12-.24-.2-.36-.32a5.48,5.48,0,0,0-.78-.59,7.2,7.2,0,0,0-1.18-.58c-37.12,52.85-95.18,75.24-151.09,97.61-8.07,3.1-16.48,3.85-25,3.35,0,1.13,0,2.05,0,2.72,0,1,.13,1.37,0,1.49C557.49,340.73,557.89,341,558.6,341.62Z"/><path class="cls-14" d="M266.8,190.94c-7.17-.31-17.53-1.08-30.26-2.73-6.36-.82-13.32-1.87-20.76-3.18l-5.67-1-2.89-.56-1.47-.29-.36-.07-.1,0h-.11l-.32,0h-.2l0,.08a2.11,2.11,0,0,0,.16.3l.07.12,0,0h0l.17.31c3.89,6.87,10,13,16.9,18.82,1.72,1.47,3.5,2.95,5.28,4.43s3.54,2.91,5.35,4.13a23.68,23.68,0,0,0,5.58,2.88,26,26,0,0,0,6.32,1.21,94.15,94.15,0,0,0,13.87-.46c4.66-.41,9.24-1,13.72-1.64s8.89-1.45,13.19-2.29l6.43-1.31c2.21-.43,4.35-.76,6.45-1.08,4.19-.63,8.21-1.23,12-2a53.79,53.79,0,0,0,10.6-3.05,22.93,22.93,0,0,0,2.22-1.1c.35-.19.65-.42,1-.63a6.19,6.19,0,0,0,.92-.67l.22-.18.14-.12.24-.23a1.29,1.29,0,0,0,.19-.21.48.48,0,0,0,0-.55,1.13,1.13,0,0,0-.51-.39,14.64,14.64,0,0,0-2-.72c-1.46-.41-3-.71-4.55-1l-4.63-.78c-.39-.08-.79-.15-1.21-.25l-1.08-.24c-.7-.17-1.4-.32-2.1-.47-2.77-.58-5.41-1-7.89-1.45-5-.8-9.29-1.34-12.83-1.82-7.09-.92-11-1.62-11-2.08C278,191.07,274,191.23,266.8,190.94Z"/><path class="cls-14" d="M177.57,39.37a165.6,165.6,0,0,1,18,6.48c3.33,1.45,6.57,2.91,9.65,4.44,1.55.75,3.05,1.51,4.52,2.27l2.37,1.22a12.11,12.11,0,0,0,4.51,1.42,10.63,10.63,0,0,0,3.14-.18,15,15,0,0,0,1.5-.38l.6-.2.45-.18,3-1.2c1.9-.8,3.71-1.58,5.4-2.34,3.38-1.52,6.32-3,8.7-4.27,4.78-2.63,7.36-4.76,7-6s-3.75-1.45-9.15-.77c-2.71.34-5.93.91-9.56,1.67-1.81.38-3.73.81-5.74,1.29l-3,.75-.31.07c-.09,0-.21,0-.18,0l-.1,0a.42.42,0,0,1-.16-.09.36.36,0,0,1-.13-.19l-.93-.6-1.14-.71c-1.51-1-3.09-1.9-4.73-2.8a110.67,110.67,0,0,0-10.46-5.17,96.6,96.6,0,0,0-20.32-6.18,71.35,71.35,0,0,0-17.4-1.13,54.44,54.44,0,0,0-6.66.83,40,40,0,0,0-4.9,1.36c-2.63,1.06-4,2.07-3.84,3,.27,1.9,6.11,2.33,14.9,4A153.3,153.3,0,0,1,177.57,39.37Z"/><path class="cls-14" d="M513.3,49.11c1.1.53,2.24,1.06,3.46,1.61q2.55,1.14,5.4,2.34l3,1.2.45.18.6.2a15,15,0,0,0,1.5.38,10.63,10.63,0,0,0,3.14.18,12.11,12.11,0,0,0,4.51-1.42l2.37-1.22c1.47-.76,3-1.52,4.52-2.27,3.08-1.53,6.32-3,9.66-4.44a164.72,164.72,0,0,1,17.94-6.48A153.3,153.3,0,0,1,585,35.75c8.79-1.71,14.63-2.14,14.9-4,.13-.89-1.21-1.9-3.84-3a40,40,0,0,0-4.9-1.36,54.44,54.44,0,0,0-6.66-.83,71.35,71.35,0,0,0-17.4,1.13,96.6,96.6,0,0,0-20.32,6.18A110.67,110.67,0,0,0,536.29,39c-1.64.9-3.22,1.85-4.73,2.8l-1.13.71-.93.6a.46.46,0,0,1-.14.19.42.42,0,0,1-.16.09l-.1,0s-.09,0-.18,0l-.31-.07-3.05-.75q-3-.72-5.74-1.29c-3.63-.76-6.85-1.33-9.56-1.67a31,31,0,0,0-7-.29Q508.45,44.08,513.3,49.11Z"/><path class="cls-1" d="M529.51,207.5c-1.75,1.54-3.54,3-5.33,4.56s-3.7,3.08-5.82,4.53a29.82,29.82,0,0,1-7.13,3.68,28.52,28.52,0,0,1-3.68,1,9.93,9.93,0,0,1-3.78,3c-4.58,2.17-9.64,3.37-12.29,8a20.5,20.5,0,0,0-2.09,8.59l2.19.56c17.32-2.87,31.91-13.93,42.54-29.15a22.6,22.6,0,0,0,3.38-5.54,45.3,45.3,0,0,0,2.9-9.9l-.89,1A117.05,117.05,0,0,1,529.51,207.5Z"/><path class="cls-1" d="M458.24,190.19c7.16-.15,11.13,0,11.16.44h0c0-.43,3.45-1.07,9.76-2a16.31,16.31,0,0,0,3.89-5c.37,1.43.73,2.85,1.1,4.27,3.79-.57,8.22-1.24,13.23-2a24.37,24.37,0,0,1-2.77-20.06c1.93-6.26,4.58-12.29,7-18.31,1.44-4.58.72-9.15,0-14-.72-4.1-3.86-6.75-7-9.4-5.54-5.3-13.25-8.43-15.42-16.14-3.85,3.85-1.68,10.12-1,14.94,1.2,7,8.67,9.87,11.56,15.9,2.41,4.58-1.92,9.88-6.5,11.32-5.54,1.69-10.36-3.61-15.18-5.54-3.85-1.69-8.67-1.2-13,0v1a19.7,19.7,0,0,1,15.42,10.36c1.69,3.62.72,8.2-1.21,11.81-4.33,7.71-13.25,10.6-20.47,15.66a22.07,22.07,0,0,0-6.95,7.92c1.11-.12,2.2-.24,3.26-.34C450.26,190.45,454.65,190.28,458.24,190.19Z"/><path class="cls-1" d="M484,239.9q.66,0,1.32.12a23.8,23.8,0,0,0-.78-3.69c-1-2.65-3.61-4.33-6.26-5.3-7.61-2.07-14.54-6.58-17-13.92l-.42-.08-6.42-1.41c-2-.43-4.1-.79-6.18-1.15-2.59-.44-5.17-.89-7.72-1.38a43.85,43.85,0,0,0,9.09,17.22c5.54,6.51,14.21,7.95,22.89,8.67a15.55,15.55,0,0,1,4.18,1A63.86,63.86,0,0,1,484,239.9Z"/><path class="cls-9" d="M503.77,224.29a9.93,9.93,0,0,0,3.78-3,34.52,34.52,0,0,1-4.24.58,59.58,59.58,0,0,1-7.67,0c-2.47-.13-4.88-.31-7.28-.53-4.81-.45-9.52-1.06-14.12-1.79s-8.8-1.53-13-2.42c2.48,7.34,9.41,11.85,17,13.92,2.65,1,5.3,2.65,6.26,5.3a23.8,23.8,0,0,1,.78,3.69,33.34,33.34,0,0,1,4.12.81,20.5,20.5,0,0,1,2.09-8.59C494.13,227.66,499.19,226.46,503.77,224.29Z"/><path class="cls-9" d="M479.16,188.59l1.18-.17,3.81-.58c-.37-1.42-.73-2.84-1.1-4.27A16.31,16.31,0,0,1,479.16,188.59Z"/><path class="cls-10" d="M483.89,19.7A28.91,28.91,0,0,0,488,36.93c4.23,6.9,11.19,11.69,16,18.18a36.8,36.8,0,0,1,6.84,25.8,35,35,0,0,1-2.21,9c-1.45,3.69-3.76,7.36-7.41,8.93a15.81,15.81,0,0,1-7,.93c-5.12-.23-10.41-1.44-14.31-4.75-4.79-4.07-6.73-10.73-6.51-17,0-.73.08-1.47.16-2.19.56-5.5,2.39-10.82,4.22-16.06a24.53,24.53,0,0,0-20.33,11.09,23.64,23.64,0,0,0-3.08,7.37A24.48,24.48,0,0,0,455.81,94c2,4.32,5.33,8.17,6,12.89a11.56,11.56,0,0,1-.14,4,13.92,13.92,0,0,1-7.27,9.45,14.93,14.93,0,0,1-12.89-.07,13.85,13.85,0,0,1-4.92-3.83,15,15,0,0,1,.06-18.23c-11.36,4-17.84,18.31-13.39,29.53a29.61,29.61,0,0,0,2.89,5.41c3.28,5,7.59,9.45,9.8,15a23,23,0,0,1-1.68,20.06c-3.65,6-9.89,10-14.13,15.65A31.47,31.47,0,0,0,414.85,209a37.55,37.55,0,0,0,14.23,21.78c8.48,6.39,19.18,9.28,29.78,10,5.95.39,11.86-.43,17.77-.78a15.55,15.55,0,0,0-4.18-1c-8.68-.72-17.35-2.16-22.89-8.67a43.85,43.85,0,0,1-9.09-17.22c-1.53-.3-3.05-.6-4.55-.94a57.05,57.05,0,0,1-11.64-3.74,25.74,25.74,0,0,1-2.73-1.47c-.45-.26-.88-.61-1.31-.91a10.87,10.87,0,0,1-1.25-1l-.29-.26-.35-.35a8.52,8.52,0,0,1-.69-.75l-.71-1-.54-1a4.54,4.54,0,0,1,.31-4.21,7.18,7.18,0,0,1,3.44-2.62,18,18,0,0,1,2.77-.85,48.57,48.57,0,0,1,5.07-.87l4.63-.56,1-.15,1.11-.19,2.2-.36c1.7-.26,3.33-.47,4.92-.66a22.07,22.07,0,0,1,6.95-7.92c7.22-5.06,16.14-8,20.47-15.66,1.93-3.61,2.9-8.19,1.21-11.81A19.7,19.7,0,0,0,455.1,145.5v-1c4.34-1.2,9.16-1.69,13,0,4.82,1.93,9.64,7.23,15.18,5.54,4.58-1.44,8.91-6.74,6.5-11.32-2.89-6-10.36-8.92-11.56-15.9-.72-4.82-2.89-11.09,1-14.94,2.17,7.71,9.88,10.84,15.42,16.14,3.13,2.65,6.27,5.3,7,9.4.72,4.82,1.44,9.39,0,14-2.41,6-5.06,12-7,18.31a24.37,24.37,0,0,0,2.77,20.06c3.92-.62,8.19-1.33,12.77-2.14,6.26-1.11,13.11-2.4,20.43-3.93l5.58-1.19,3.84-.85c-.11-.53-.21-1.06-.33-1.59.16.53.29,1.05.4,1.58l2.73-.61c1.82-.4,3.53-.69,5.34-1l2.7-.52,1.36-.27a10.48,10.48,0,0,1-.43,1.26c-.64,1.74-1.29,3.5-2,5.21-.34.87-.64,1.73-1.07,2.63-.19.44-.43.9-.67,1.35l-.56,1.08a56.32,56.32,0,0,1-7.09,10,45.3,45.3,0,0,1-2.9,9.9,22.6,22.6,0,0,1-3.38,5.54c-10.63,15.22-25.22,26.28-42.54,29.15a28.48,28.48,0,0,0,6.52,1.08c14.08.31,29.12-6.3,39.77-15.18a66.86,66.86,0,0,0,23.42-44.12c.83-8.28.08-16.63-1.15-24.87-.07-.49-.14-1-.22-1.48-1.07-6.86-2.45-13.75-5.23-20.12a49.24,49.24,0,0,0-20.63-22.93,45.41,45.41,0,0,1,8.79,17.87,45.93,45.93,0,0,1-.83,25.17c-1.77,5.39-5.25,11-10.81,12.07-6.15,1.22-12-3.69-14.88-9.24-7.14-13.56-2.66-30.48,5.12-43.69l0,0c4.7-8,10.66-15.64,12.16-24.75,0-.11,0-.22.06-.33,2.12-14-6.94-27.15-16.52-37.6-1.27-1.39-2.57-2.76-3.87-4.12q-4.84-5-10-9.74-2.16-2-4.36-3.89c-5-4.33-10.56-9.27-12.86-15.15A15.18,15.18,0,0,1,485,15.2c0-.5,0-1,0-1.52-.14.47-.27.93-.39,1.4A28,28,0,0,0,483.89,19.7Z"/><path class="cls-14" d="M458.43,192.71c-3.54.48-7.86,1-12.83,1.82-2.48.4-5.12.87-7.89,1.45-.69.15-1.39.3-2.1.47l-1.08.24c-.42.1-.82.17-1.21.25l-4.63.78c-1.53.27-3.09.57-4.55,1a14.64,14.64,0,0,0-2,.72,1.13,1.13,0,0,0-.51.39.48.48,0,0,0,0,.55,1.29,1.29,0,0,0,.19.21l.24.23.14.12.22.18a6.19,6.19,0,0,0,.92.67c.33.21.62.44,1,.63a22,22,0,0,0,2.23,1.1,53.69,53.69,0,0,0,10.59,3.05c3.82.77,7.84,1.37,12,2,2.09.32,4.23.65,6.44,1.08l6.43,1.31q6.45,1.26,13.19,2.29c4.49.66,9.06,1.23,13.72,1.64a94.2,94.2,0,0,0,13.87.46,26,26,0,0,0,6.32-1.21,23.68,23.68,0,0,0,5.58-2.88c1.81-1.22,3.56-2.65,5.35-4.13s3.56-3,5.28-4.43c6.88-5.86,13-12,16.9-18.82l.17-.31h0l0,0,.08-.12q.08-.13.15-.3l0-.08h-.2l-.32,0h-.1l-.1,0-.37.07-1.47.29-2.89.56-5.67,1c-7.44,1.31-14.39,2.36-20.76,3.18-12.73,1.65-23.09,2.42-30.26,2.73s-11.14.13-11.18-.31C469.44,191.09,465.52,191.79,458.43,192.71Z"/><polygon class="cls-7" points="309.69 576.06 309.69 576.06 309.69 576.06 309.69 576.06"/><polygon class="cls-7" points="437.69 576.06 437.69 576.06 437.69 576.06 437.69 576.06"/><path class="cls-7" d="M525.68,33.61c-.89-.59-2-1.32-3.34-2.14l-4.71-2.64c-2.45-1.32-5.33-2.77-8.6-4.29a213.08,213.08,0,0,0-23.16-9.06L485,15.2a15.18,15.18,0,0,0,1.08,5.13,273.4,273.4,0,0,1,30.46,10.79l4.92,2.08c1.41.63,2.62,1.16,3.6,1.57,2,.81,3.06,1.15,3.17.95S527.46,34.81,525.68,33.61Z"/><path class="cls-7" d="M222.32,34.77c1-.41,2.19-.94,3.6-1.57l4.93-2.08a274.87,274.87,0,0,1,29.34-10.47l2.12-.61.56-.16a338.44,338.44,0,0,1,49.27-10c9.39-1.23,19.3-2.17,29.59-2.76q7.72-.43,15.7-.59c2.66,0,5.34-.06,8,0l4.05,0,2,.06,2.16.08,2.16-.08,2-.06,4,0c2.69,0,5.37,0,8,0,5.31.1,10.56.3,15.7.59,10.29.59,20.2,1.53,29.59,2.76a340.56,340.56,0,0,1,48.65,9.8,28,28,0,0,1,.75-4.62A300.06,300.06,0,0,0,436.07,4c-9.52-1.42-19.58-2.5-30-3.19Q400.27.41,394.33.22c-1.42,0-2.83-.11-4.26-.14C387.37,0,384.64,0,381.89,0l-4.15.05L375.65.1l-2,.07-2-.07-2.09,0-4.15,0c-2.75,0-5.47,0-8.18.08-5.42.12-10.74.36-16,.69q-7.23.48-14.2,1.21c-5.41.56-10.7,1.22-15.83,2a298.59,298.59,0,0,0-49.8,11.52l-.14,0-.51.17a195.92,195.92,0,0,0-31.11,13.13L225,31.47c-1.34.82-2.45,1.55-3.34,2.14-1.78,1.2-2.66,1.92-2.55,2.11S220.35,35.58,222.32,34.77Z"/><path class="cls-7" d="M397.18,213.88l-.15-.18-.58-.67a24.82,24.82,0,0,0-2.59-2.43,27.09,27.09,0,0,0-6.07-3.74,36.42,36.42,0,0,0-28.2,0,27.09,27.09,0,0,0-6.07,3.74,24.72,24.72,0,0,0-2.58,2.43l-.59.67-.15.18-.22.29-.45.59a25.34,25.34,0,0,0-1.54,2.43c.57,1.43,1.12,2.84,1.68,4.25l1.1,2.7,2.17,5.24c1.43,3.41,2.82,6.66,4.17,9.71s2.73,6.11,4,8.83c1.2,2.54,2.34,4.89,3.42,7a82.35,82.35,0,0,0,5.79,10,12.08,12.08,0,0,0,2.09,2.36l.05,0a2,2,0,0,0,.84.43c.24.05.4-.07.38-.14a5.4,5.4,0,0,0-.41-1c-.27-.6-.66-1.51-1.15-2.73-1-2.43-2.36-6-4.08-10.57s-3.75-10.05-6.07-16.25l-3.66-9.86c-.64-1.73-1.3-3.49-2-5.29l-.13-.34c-.29-.79-.59-1.59-.88-2.39L354.9,218a.17.17,0,0,0,0-.08l.06-.06h0l.1-.11.43-.47a18.44,18.44,0,0,1,2-1.76,20.33,20.33,0,0,1,4.72-2.79,31,31,0,0,1,23,0,20.76,20.76,0,0,1,4.72,2.79,18.33,18.33,0,0,1,2,1.76l.43.47.1.11h0a.34.34,0,0,1,.06.06s0,0,0,.08l-.45,1.21L391,222l-.43,1.14c-.52,1.4-1,2.8-1.53,4.15q-1.94,5.18-3.66,9.86c-2.33,6.2-4.38,11.69-6.08,16.25s-3.1,8.14-4.08,10.57c-.49,1.22-.88,2.13-1.15,2.73a6.4,6.4,0,0,0-.41,1c0,.07.14.19.38.14a2,2,0,0,0,.84-.43l0,0a12.41,12.41,0,0,0,2.09-2.36,82.35,82.35,0,0,0,5.79-10c1.08-2.12,2.22-4.47,3.42-7q1.92-4.08,4-8.83c1.35-3.05,2.74-6.3,4.17-9.71l2.17-5.24,1.1-2.7c.56-1.41,1.12-2.82,1.68-4.25a25.34,25.34,0,0,0-1.54-2.43l-.45-.59Z"/><path class="cls-7" d="M745.88,235.74c-.17-.36-.33-.74-.51-1.1l-.63-1-.65-1-.73-.89-.74-.89c-.28-.3-.62-.6-.93-.9a14.41,14.41,0,0,0-2.05-1.56,21.12,21.12,0,0,0-8.64-2.9,36.27,36.27,0,0,0-5.46-.28c-.91,0-1.81,0-2.7.1a85.74,85.74,0,0,0-15.3,2.69l-1.58.42h-.18l.1-.11,0,0,.09-.13.64-1.07c2.75-4.57,5.37-9.29,7.75-14.24,1.18-2.49,2.29-5,3.3-7.7a54.3,54.3,0,0,0,2.49-8.44l.37-2.32c.07-.82.16-1.62.18-2.47v-2l-.08-.7-.19-1.39c-.09-.48-.24-1-.37-1.47l-.21-.73c-.09-.25-.22-.5-.33-.75-.23-.5-.45-1-.73-1.48a13.17,13.17,0,0,0-2-2.52l-1-1c-.37-.3-.77-.57-1.15-.85a14.79,14.79,0,0,0-2.46-1.44,19.88,19.88,0,0,0-7.86-1.79,29.43,29.43,0,0,0-7.2.71A57.46,57.46,0,0,0,684.61,181c-1.93.92-3.78,1.91-5.61,2.93-.91.52-1.82,1-2.7,1.58l-2.07,1.27-.08.08s0,0,0-.05v-.07l.09-.43.41-1.95c1.06-5.18,1.92-10.38,2.47-15.65q.42-3.94.49-8a51.59,51.59,0,0,0-.45-8.25,23.32,23.32,0,0,0-2.87-8.83,14.1,14.1,0,0,0-1.67-2.21c-.34-.35-.68-.7-1-1s-.82-.61-1.24-.89a12.35,12.35,0,0,0-5.4-2,18.88,18.88,0,0,0-9.46,1.62,41.2,41.2,0,0,0-7.12,4,85.78,85.78,0,0,0-11.34,9.6l-.11.1a201.94,201.94,0,0,0-18.33,21.28c-3.71,4.91-7.18,9.82-10.48,14.71-.8-3.08-1.57-6.14-2.29-9.17-.53-2.14-1-4.27-1.43-6.39s-.88-4.22-1.28-6.33c-.78-4.2-1.47-8.38-2-12.53a233.48,233.48,0,0,1-2.1-24.35l0-1.16a.5.5,0,0,1,0-.12l0-.23.15-.74.6-2.94c.39-2,.77-3.9,1.16-5.84l2.19-11.43c2.81-15.06,5.23-29.3,7.13-42.69,1-6.7,1.77-13.19,2.35-19.48.27-3.16.53-6.25.65-9.32a71.66,71.66,0,0,0-.1-9.15,9.58,9.58,0,0,0-.13-1.16l-.18-1.23a8,8,0,0,0-.4-1.47c-.17-.48-.29-1-.5-1.44a5.55,5.55,0,0,0-2.34-1.85c-.44-.22-1-.43-1.36-.58s-.73-.25-1.09-.37a51,51,0,0,0-8.27-1.71,95.09,95.09,0,0,0-15.31-.71,106,106,0,0,0-25.26,3.86,92,92,0,0,0-17.39,6.82,72.69,72.69,0,0,0-9.77,6c-2.07,1.53-3,2.46-2.93,2.58s1.25-.5,3.48-1.75,5.54-3.07,10.06-5.06a99.7,99.7,0,0,1,17.28-5.78,107.56,107.56,0,0,1,24.59-2.87,94.72,94.72,0,0,1,14.63,1.09,47.92,47.92,0,0,1,7.51,1.76c.29.1.59.2.87.32s.37.15.55.24a2.06,2.06,0,0,1,.88.68,7.78,7.78,0,0,1,.25,1.13l.11.9a7.62,7.62,0,0,1,.08,1,66.1,66.1,0,0,1-.12,8.52c-.17,2.94-.49,6-.83,9-.7,6.16-1.64,12.56-2.71,19.18-2.13,13.25-4.8,27.37-7.83,42.31q-1.15,5.61-2.36,11.36c-.4,1.91-.82,3.84-1.23,5.79-.21,1-.42,1.94-.64,2.91l-.16.73-.11.51a4.48,4.48,0,0,0-.11.62v1.86a238.75,238.75,0,0,0,1.81,25.12c.51,4.26,1.17,8.56,1.91,12.9.39,2.17.78,4.35,1.24,6.52s.87,4.37,1.39,6.55c1.18,5.29,2.5,10.6,3.85,15.93q-6.37,10-11.8,19.75a379.31,379.31,0,0,0-19.37,39.62,225.51,225.51,0,0,0-11,34.55A203.19,203.19,0,0,0,556,318a99.75,99.75,0,0,0-.35,17.12,21,21,0,0,0,.78,4.44,4,4,0,0,0,.53,1.08c.21.23.33.29.39.24s0-.52,0-1.49c0-.67,0-1.59,0-2.72,0-.49.05-1,.08-1.58.24-3.8.82-9.43,2-16.64a247.37,247.37,0,0,1,5.86-26,240.94,240.94,0,0,1,12-33.27,404.46,404.46,0,0,1,20.06-38.37,388.75,388.75,0,0,1,27.94-41.38,198.31,198.31,0,0,1,17.79-20.11,80,80,0,0,1,10.33-8.57,32.07,32.07,0,0,1,5.51-3,12.94,12.94,0,0,1,3.57-.93,5.34,5.34,0,0,1,1.21,0,3,3,0,0,1,1.44.54,2.46,2.46,0,0,0,.27.17,3.47,3.47,0,0,0,.25.29c.21.13.35.51.55.74a14.74,14.74,0,0,1,1.56,5.31,60.5,60.5,0,0,1-.2,13.93c-.53,4.84-1.38,9.76-2.41,14.7l-.4,1.85-.76,3.35c-.6,2.51-1.23,5.05-2,7.67-.2.69-.4,1.39-.61,2.09q-1.95,6.74-3.93,13.52a42.22,42.22,0,0,1,7.59-6.41,46.93,46.93,0,0,1,4.11-2.39c3.1-2.41,6-4.46,9-6.39l1.79-1.13,1.22-.74c.82-.49,1.65-1,2.47-1.43,1.67-.92,3.34-1.81,5-2.61a46.85,46.85,0,0,1,10.28-3.68,18.05,18.05,0,0,1,6-.42,9.21,9.21,0,0,1,2.89.78,4.59,4.59,0,0,1,1,.61c.16.12.34.22.49.34l.44.43c.4.32.36.46.53.59s.08.23.14.33a.91.91,0,0,1,.09.17l.06.24a12.73,12.73,0,0,1-.12,5.64,63.38,63.38,0,0,1-5,13.83c-2.19,4.58-4.65,9.07-7.26,13.45l-.49.82-.9,1.46c-.65,1-1.26,2.06-2,3.19-1.41,2.2-2.85,4.39-4.42,6.66l-2.3,3.28L680.92,248l16.17-6.56c1.27-.49,2.53-1,3.72-1.36s2.41-.83,3.59-1.2,2.28-.7,3.39-1l1.32-.38.86-.23a75.7,75.7,0,0,1,13.54-2.5,32.16,32.16,0,0,1,6.3.06,14.94,14.94,0,0,1,3.71.9,7.2,7.2,0,0,1,1.18.58,5.48,5.48,0,0,1,.78.59c.12.12.24.2.36.32l.4.48.41.47.3.49.33.49.23.5a8,8,0,0,1,.64,4.41,15.73,15.73,0,0,1-1.61,5.18,11.71,11.71,0,0,1-.67,1.32c-.25.44-.48.88-.74,1.31-.59.86-1.07,1.75-1.72,2.59A78.31,78.31,0,0,1,725,264c-3,3-6.26,5.9-9.53,8.64s-6.6,5.35-9.91,7.89c-13.39,10.06-26.78,18.76-39.41,26.6S641.66,322,630.65,327.93q-8.29,4.38-15.9,7.93c-5.08,2.33-9.92,4.36-14.5,6.05-9.16,3.38-17.34,5.32-24,5.58s-11.64-1.42-14.47-3.41a32.52,32.52,0,0,1-3.17-2.46c-.71-.6-1.11-.89-1.23-.79s.06.56.56,1.37a16,16,0,0,0,2.76,3.26,18.33,18.33,0,0,0,6.06,3.65,29.79,29.79,0,0,0,9.48,1.78,53.27,53.27,0,0,0,8.21-.4,95.73,95.73,0,0,0,17.39-3.93c4.29-1.35,8.78-3,13.45-4.86-.63,4.95-1.46,9.92-2.5,14.88-.61,2.6-1.11,5.24-1.81,7.83s-1.42,5.2-2.13,7.81-1.66,5.16-2.5,7.75-1.9,5.12-2.84,7.7a204.39,204.39,0,0,1-34.22,57.67l-2.76,3.31-2.93,3.17L560.65,455c-.49.52-1,1.07-1.47,1.58l-1.56,1.52c-2.08,2-4.14,4.08-6.25,6.08L544.8,470A230.43,230.43,0,0,1,516,490.62q-6,3.51-12.14,6.67-9.87,5.07-20.26,9.33c-5.71,2.09-11.37,4.39-17.27,6.11l-4.39,1.39-2.21.69-2.23.59-9,2.34a294.69,294.69,0,0,1-36.88,6.37l-4.7.53-2.35.25-2.36.16-9.47.62c-3.16.28-6.34.27-9.52.35l-9.56.21a343.57,343.57,0,0,1-52.43-4.07,269.7,269.7,0,0,1-49.8-12.68,234.8,234.8,0,0,1-27.95-12.21q-8.79-4.54-17.08-9.79a213.44,213.44,0,0,1-38-30.64,207.66,207.66,0,0,1-29-37.54,213.28,213.28,0,0,1-10.9-20.49l-2.28-5.28c-.73-1.77-1.56-3.49-2.19-5.29-1.3-3.57-2.75-7.08-3.83-10.7a193.88,193.88,0,0,1-8.18-35.85c4.67,1.87,9.18,3.52,13.47,4.87,2.52.8,5,1.48,7.35,2.07a67.63,67.63,0,0,0,18.25,2.26,29.79,29.79,0,0,0,9.48-1.78,18.33,18.33,0,0,0,6.06-3.65,16,16,0,0,0,2.76-3.26c.5-.81.67-1.28.56-1.37s-.52.19-1.23.79a32.52,32.52,0,0,1-3.17,2.46c-2.83,2-7.79,3.72-14.47,3.41s-14.85-2.2-24-5.58c-4.58-1.69-9.42-3.72-14.5-6.05s-10.37-5-15.89-7.93C105.73,322,93.86,315,81.2,307.16s-26-16.54-39.41-26.6c-3.31-2.54-6.66-5.14-9.91-7.89s-6.49-5.6-9.53-8.64A78.31,78.31,0,0,1,14,254.39c-.65-.84-1.13-1.73-1.72-2.59-.26-.43-.49-.87-.73-1.31a10.34,10.34,0,0,1-.68-1.32A15.73,15.73,0,0,1,9.23,244a8,8,0,0,1,.64-4.41l.23-.5.33-.49.31-.49.4-.47.4-.48c.13-.12.24-.2.36-.32a5.48,5.48,0,0,1,.78-.59,6.94,6.94,0,0,1,.72-.37,13.7,13.7,0,0,1,4.18-1.11,32,32,0,0,1,6.29-.06,75.7,75.7,0,0,1,13.54,2.5l.86.23,1.32.38c1.11.33,2.17.62,3.39,1s2.37.76,3.59,1.2,2.45.87,3.72,1.36L66.46,248l-8.07-11.49-1.56-2.22c-1.57-2.27-3-4.46-4.42-6.66-.73-1.13-1.34-2.14-2-3.19l-.9-1.46-.49-.82c-2.61-4.38-5.07-8.87-7.26-13.45a63.38,63.38,0,0,1-5-13.83,12.89,12.89,0,0,1-.12-5.64l.06-.24a.91.91,0,0,1,.09-.17c.06-.1.09-.23.14-.33s.13-.27.53-.59l.44-.43c.15-.12.33-.22.49-.34a4.82,4.82,0,0,1,1-.61,10.48,10.48,0,0,1,4.5-.86,20,20,0,0,1,4.36.5,46.85,46.85,0,0,1,10.28,3.68c1.7.8,3.37,1.69,5,2.61.82.47,1.65.94,2.47,1.43l1.22.74,1.79,1.13c3,1.93,5.89,4,9,6.39a46.93,46.93,0,0,1,4.11,2.39,42.22,42.22,0,0,1,7.59,6.41q-2.28-7.83-4.54-15.61c-.16-.58-.3-1.13-.45-1.7q-.81-3-1.51-6l-.76-3.35-.4-1.85c-1-4.94-1.88-9.86-2.41-14.7a60.5,60.5,0,0,1-.2-13.93,14.94,14.94,0,0,1,1.56-5.31c.2-.23.34-.61.55-.74a3.47,3.47,0,0,0,.25-.29,1.78,1.78,0,0,0,.27-.17,3,3,0,0,1,1.44-.54,4.32,4.32,0,0,1,.73,0,11.37,11.37,0,0,1,4.05.94,32.07,32.07,0,0,1,5.51,3,80,80,0,0,1,10.33,8.57A198.31,198.31,0,0,1,122,179.38,390.41,390.41,0,0,1,150,220.76,406.57,406.57,0,0,1,170,259.13a240.94,240.94,0,0,1,12,33.27,247.37,247.37,0,0,1,5.86,26c.34,2,.62,3.92.87,5.7.63,4.52,1,8.21,1.15,10.94.12,1.9.14,3.34.12,4.3s-.13,1.37,0,1.49.18,0,.39-.24a4,4,0,0,0,.53-1.08,20.38,20.38,0,0,0,.78-4.44,99.75,99.75,0,0,0-.35-17.12,201.54,201.54,0,0,0-4.44-26.81,225.51,225.51,0,0,0-11-34.55A379.31,379.31,0,0,0,156.55,217c-3.63-6.47-7.55-13.07-11.79-19.74,1.94-7.72,3.83-15.36,5.33-23a255.7,255.7,0,0,0,4.55-35.52c.16-2.89.28-5.75.31-8.62V129a6.33,6.33,0,0,0,0-.87l-.18-.8-.44-2-.87-4q-1.73-8-3.29-15.81Q147,89.91,144.46,75.59c-1.68-9.53-3.15-18.65-4.25-27.33-.55-4.33-1-8.56-1.25-12.64-.13-2-.2-4-.18-6,0-1,.07-1.9.11-2.84l.16-1.27a4.47,4.47,0,0,1,.16-.81c0-.51.47-.78.86-1a7.37,7.37,0,0,1,.67-.31l1.07-.38a41,41,0,0,1,4.58-1.19,79.15,79.15,0,0,1,9.19-1.27,105.53,105.53,0,0,1,17,.05A102.23,102.23,0,0,1,214,33.06c3.32,1.83,5,2.85,5.14,2.66s-1.34-1.5-4.5-3.7a82,82,0,0,0-15-8,100.7,100.7,0,0,0-26.73-6.84,105.63,105.63,0,0,0-17.6-.6,80.78,80.78,0,0,0-9.74,1.08,46.19,46.19,0,0,0-5.11,1.18c-.44.14-.88.28-1.32.45a16.5,16.5,0,0,0-1.67.72A7.27,7.27,0,0,0,136,21a2.92,2.92,0,0,0-.58.73c-.13.26-.23.56-.36.84a17.84,17.84,0,0,0-.51,2.07c-.08.55-.16,1.11-.25,1.68-.07,1.05-.19,2.13-.2,3.18-.07,2.11,0,4.22,0,6.34.17,4.25.53,8.57,1,13,.93,8.83,2.23,18.05,3.75,27.68s3.26,19.66,5.21,30.08q1.45,7.81,3.06,15.92c.27,1.35.54,2.71.82,4.07l.41,2.05a1.07,1.07,0,0,1,0,.4l0,.95c-.07,2.72-.22,5.51-.42,8.3a252,252,0,0,1-4.88,34.52c-1.1,5.28-2.42,10.62-3.82,16q-3.6-5.36-7.53-10.73c-1-1.33-2-2.66-3-4a201.94,201.94,0,0,0-18.33-21.28A87.61,87.61,0,0,0,99,143.16a40.83,40.83,0,0,0-7.12-4,18.88,18.88,0,0,0-9.46-1.62,12.35,12.35,0,0,0-5.4,2c-.42.28-.83.58-1.23.89s-.7.69-1,1a14.1,14.1,0,0,0-1.67,2.21,23.32,23.32,0,0,0-2.87,8.83,51.59,51.59,0,0,0-.45,8.25q.08,4,.49,8c.55,5.27,1.42,10.47,2.47,15.65l.41,1.95.09.43v.07s0,.05,0,.05l-.08-.08-2.07-1.27c-.88-.55-1.79-1.06-2.7-1.58-1.83-1-3.68-2-5.61-2.93a57.46,57.46,0,0,0-12.45-4.43,29.43,29.43,0,0,0-7.2-.71,19.88,19.88,0,0,0-7.86,1.79,14.79,14.79,0,0,0-2.46,1.44c-.38.28-.78.55-1.15.85l-1,1a12.81,12.81,0,0,0-2.05,2.52c-.28.48-.5,1-.73,1.48-.11.25-.23.5-.32.75l-.22.73c-.13.49-.28,1-.37,1.47l-.19,1.39-.08.7v2c0,.85.11,1.65.18,2.47l.37,2.32a54.3,54.3,0,0,0,2.49,8.44c1,2.66,2.12,5.21,3.3,7.7,2.38,5,5,9.67,7.75,14.24l.64,1.07.09.13,0,0,.1.11h-.18L39.84,228a85.79,85.79,0,0,0-15.29-2.69,41.61,41.61,0,0,0-8.17.18,21.12,21.12,0,0,0-8.64,2.9,14.33,14.33,0,0,0-2,1.56c-.32.3-.66.6-.94.9l-.74.89-.73.89-.65,1-.63,1c-.18.36-.34.74-.51,1.1a17.17,17.17,0,0,0-1.35,9.32,24.75,24.75,0,0,0,2.52,8.05c.28.61.6,1.18.92,1.74s.64,1.14,1,1.68c.71,1,1.36,2.15,2.12,3.11a86.44,86.44,0,0,0,9.5,10.68c3.32,3.23,6.75,6.18,10.2,9s6.93,5.44,10.39,8c4.26,3.1,8.5,6,12.7,8.83,9.54,6.38,18.9,12.12,27.88,17.4,12.93,7.6,25.12,14.36,36.53,20q4.61,2.24,9,4.24a198.62,198.62,0,0,0,8.84,42.54c1.11,3.79,2.6,7.47,4,11.21.64,1.88,1.49,3.68,2.25,5.53l2.35,5.52c.22.48.46.95.68,1.42a213.73,213.73,0,0,0,10.6,20,216.44,216.44,0,0,0,30.14,39.36,222.81,222.81,0,0,0,39.57,32.15,239.56,239.56,0,0,0,46.85,23,271.88,271.88,0,0,0,37.49,10.61c-.24,1.41-.5,2.88-.78,4.44-.16.93-.32,1.89-.49,2.88-.08.49-.16,1-.25,1.5l-.12.54-.46.23-1.25.73-2.64,1.6q-2.67,1.65-5.51,3.52a101.75,101.75,0,0,0-11.7,8.83c-.49.47-1,.93-1.48,1.45-.24.25-.49.51-.73.8-.09.11-.31.35-.49.58s-.34.48-.51.72l-.51.74a3.56,3.56,0,0,0-.27.51l-.12.26a7.67,7.67,0,0,0-.36.77l-.2.79a2.32,2.32,0,0,0-.09.78,2.27,2.27,0,0,0,0,.78,8.75,8.75,0,0,0,.45,1.52c1,2,3.27,2.86,5.83,2.84.32,0,.64,0,1,0l.75-.07c.41,0,.78-.1,1.17-.15.77-.13,1.51-.28,2.24-.45a66,66,0,0,0,8.41-2.72l2.06-.82,1-.43.5-.21h.13l0,.09v0l0,1.35c0,1.32.12,2.66.22,4,.06.85.13,1.71.22,2.58a45.68,45.68,0,0,0,1.17,6.9,18.48,18.48,0,0,0,.57,1.85,11.6,11.6,0,0,0,1.28,2.57,7.46,7.46,0,0,0,1,1.23c.19.18.39.32.59.48a2.35,2.35,0,0,0,.63.41,4.79,4.79,0,0,0,2.87.64c2,0,3.86-1.59,5.12-3.33a14.6,14.6,0,0,0,1.13-1.79c.31-.57.6-1.13.86-1.69a52.25,52.25,0,0,0,2.48-6.58c.5-1.56.92-3.12,1.33-4.66.16-.6.32-1.2.47-1.79l.22-.93s0,0,0-.06v-.1l.11,0,1.17.92,1.82,1.41.37.27a51.62,51.62,0,0,0,7.38,4.69,18.67,18.67,0,0,0,4.75,1.7c.22,0,.48.06.87.1a4.12,4.12,0,0,0,1,0c.32,0,.65,0,1-.08s.61-.15.91-.24a5.41,5.41,0,0,0,3.67-5.71c0-.3-.08-.62-.12-.93a4.35,4.35,0,0,0-.18-.86,10.82,10.82,0,0,0-.43-1.22,22.14,22.14,0,0,0-2.11-3.91,82.61,82.61,0,0,0-9.65-11.5q-2.42-2.47-4.73-4.66l-2.29-2.12-.56-.51-.28-.25-.11-.08-.42-.34.06-.53.18-1.29c.12-1,.23-1.89.3-2.8.05-.69.08-1.35.11-2,8.22,1.19,16.53,2.07,24.88,2.65q12.26.85,24.64.91l9.82-.22,4.14-.09c1.88,0,3.76-.11,5.64-.27l9.75-.65,2.43-.16,2.42-.26,4.84-.55c3.51-.35,7-.79,10.49-1.3,0,.64,0,1.28.1,2,.07.91.18,1.84.3,2.8l.18,1.29.06.53-.42.34-.11.08-.28.25-.56.51-2.29,2.12q-2.31,2.19-4.73,4.66a82.61,82.61,0,0,0-9.65,11.5,22.81,22.81,0,0,0-2.11,3.91c-.16.37-.29.78-.43,1.22a11,11,0,0,0-.3,1.79,5.67,5.67,0,0,0,.82,3.49,4.71,4.71,0,0,0,.44.56,5.68,5.68,0,0,0,2.41,1.66c.3.09.6.17.91.24s.64.05,1,.08a4.12,4.12,0,0,0,1,0c.39,0,.65-.06.87-.1a18.67,18.67,0,0,0,4.75-1.7,53.06,53.06,0,0,0,7.7-4.92l.06,0,1.81-1.41,1.17-.92.11,0v.1s0,0,0,.06l.22.93a2.68,2.68,0,0,1,.07.27c.51,2,1.07,4.1,1.73,6.18a52.25,52.25,0,0,0,2.48,6.58c.11.24.24.48.36.72s.32.64.5,1a15.92,15.92,0,0,0,1.13,1.79c1.26,1.74,3.08,3.28,5.12,3.33a4.84,4.84,0,0,0,2.88-.64,2.47,2.47,0,0,0,.62-.41c.2-.16.4-.3.59-.48a7.46,7.46,0,0,0,1-1.23,11.6,11.6,0,0,0,1.28-2.57c.18-.49.32-1,.45-1.42l.12-.43a45.68,45.68,0,0,0,1.17-6.9c.23-2.23.37-4.42.45-6.59l0-1.35v0l0-.09h.13l.5.21,1,.43,2.06.82a66,66,0,0,0,8.41,2.72c.73.17,1.47.32,2.24.45.39.05.76.11,1.17.15l.75.07c.33,0,.64,0,1,0,2.56,0,4.81-.88,5.83-2.84a8,8,0,0,0,.45-1.52,2.27,2.27,0,0,0,0-.78,2.32,2.32,0,0,0-.09-.78l-.2-.79a7.67,7.67,0,0,0-.36-.77,6.18,6.18,0,0,0-.39-.77l-.51-.74c-.17-.24-.33-.49-.51-.72s-.4-.47-.49-.58c-.24-.29-.49-.55-.73-.8-.49-.52-1-1-1.48-1.45-1.31-1.18-2.62-2.26-3.92-3.28-2.64-2.06-5.26-3.85-7.78-5.55q-2.83-1.87-5.51-3.52l-2.64-1.6-1.25-.73-.45-.23-.13-.54c-.09-.51-.17-1-.25-1.5-.17-1-.33-2-.49-2.88-.28-1.56-.54-3-.78-4.43,3-.64,6.06-1.31,9.08-2l9.28-2.44,2.32-.61,2.28-.72,4.56-1.45c6.11-1.8,12-4.19,17.94-6.39a262.28,262.28,0,0,0,33.7-16.74,238.55,238.55,0,0,0,30-21.65l6.85-6.08c2.21-2.1,4.35-4.26,6.51-6.38l1.62-1.59c.53-.54,1-1.11,1.54-1.67l3.06-3.33,3-3.34,2.87-3.47A212.82,212.82,0,0,0,611.9,390.9c1-2.69,2-5.35,2.91-8l2.57-8.11q1.1-4.11,2.18-8.17c.71-2.72,1.22-5.48,1.84-8.2a198.27,198.27,0,0,0,3.07-20.61c1.15-.52,2.31-1.06,3.47-1.6,1.84-.86,3.68-1.73,5.56-2.64,11.41-5.62,23.6-12.38,36.53-20s26.66-16.13,40.58-26.23c3.46-2.56,6.95-5.17,10.39-8,1.83-1.49,3.64-3,5.45-4.6,1.6-1.42,3.19-2.87,4.75-4.39a85.63,85.63,0,0,0,9.5-10.68c.76-1,1.41-2.07,2.12-3.11.33-.54.65-1.12,1-1.68s.64-1.13.92-1.74a24.75,24.75,0,0,0,2.52-8.05A17.17,17.17,0,0,0,745.88,235.74ZM320.69,542.12l.68.69.52.53,2.09,2.21c1.43,1.52,2.88,3.11,4.36,4.79a85.15,85.15,0,0,1,8.56,11.12,17.28,17.28,0,0,1,1.51,3,5,5,0,0,1,.21.67c0,.11,0,.1,0,.16a.34.34,0,0,1-.07.22.3.3,0,0,1-.2.1h-.14l-.16,0a13,13,0,0,1-3.09-1.25,48.82,48.82,0,0,1-6.73-4.54l-1.67-1.34-2.29-1.92c-2.22-1.91-4.52-4.15-6.82-6.29-.42,2.1-.85,4.21-1.27,6.33-.23,1-.47,2.06-.7,3.09l-.54,2.19c-.52,2-1.09,4.06-1.74,6.06a50.13,50.13,0,0,1-2.2,5.78c-.21.45-.44.88-.66,1.29s-.51.84-.65,1.06l0,0a16.2,16.2,0,0,1-.54-1.65,41.25,41.25,0,0,1-1-5.92c-.23-2-.37-4.11-.47-6.16l-.07-1.82c0-1,0-2.09,0-3.13l.06-6.33c-2.71,1.34-5.41,2.74-8,3.9L297.16,556l-1.93.82a65.09,65.09,0,0,1-7.57,2.63c-.61.15-1.21.29-1.79.4-.28,0-.58.11-.85.14l-.2,0h-.1a.42.42,0,0,1-.4-.08c-.09-.12,0-.27.06-.41l0-.05.13-.16a7.56,7.56,0,0,1,.54-.63c.37-.43.79-.84,1.19-1.26A106.41,106.41,0,0,1,297,548.68q2.67-2,5.2-3.73l2.49-1.72,1.25-.85,2-1.3c.1-.86.19-1.71.28-2.55.05-.51.1-1,.14-1.51q.13-1.5.27-2.91c.13-1.5.25-2.9.37-4.26,3.56.7,7.14,1.36,10.74,1.93l1,.15c-.09.67-.18,1.36-.3,2.07s-.31,1.71-.49,2.6c-.11.5-.23,1-.34,1.52-.19.77-.38,1.55-.58,2.34Zm118.07-8q.14,1.41.27,2.91c0,.5.09,1,.14,1.51.09.84.19,1.69.28,2.55l2,1.3,1.25.85L445.2,545q2.54,1.77,5.2,3.73a104.22,104.22,0,0,1,10.71,8.79c.4.42.82.83,1.19,1.26.2.21.38.42.55.63l.12.16,0,.05c.07.14.15.29.06.41a.42.42,0,0,1-.4.08h-.1l-.2,0c-.27,0-.57-.09-.85-.14-.58-.11-1.18-.25-1.79-.4a65.09,65.09,0,0,1-7.57-2.63l-1.93-.82L447.78,555c-2.59-1.16-5.29-2.56-8-3.9q0,3.15.06,6.33c0,1,0,2.09,0,3.13l-.07,1.82c-.1,2-.24,4.12-.47,6.16a39.91,39.91,0,0,1-1,5.92,16.2,16.2,0,0,1-.54,1.65l0,0c-.14-.22-.44-.68-.65-1.06s-.45-.84-.66-1.29a50.13,50.13,0,0,1-2.2-5.78c-.65-2-1.22-4-1.74-6.06l-.54-2.19c-.23-1-.47-2.06-.7-3.09-.42-2.12-.85-4.23-1.27-6.33-2.3,2.14-4.6,4.38-6.82,6.29l-2.29,1.92-1.67,1.34a48.82,48.82,0,0,1-6.73,4.54,13,13,0,0,1-3.09,1.25l-.16,0H409a.3.3,0,0,1-.2-.1.34.34,0,0,1-.07-.22c0-.06,0,0,0-.16a5,5,0,0,1,.21-.67,18,18,0,0,1,1.51-3A85.15,85.15,0,0,1,419,550.34c1.48-1.68,2.94-3.27,4.36-4.79l2.09-2.21.52-.53.68-.69,1.69-1.66c-.2-.79-.39-1.57-.58-2.34-.11-.51-.23-1-.34-1.52-.18-.89-.35-1.76-.49-2.6s-.2-1.36-.29-2q5.9-.94,11.72-2.12C438.51,531.21,438.63,532.62,438.76,534.11Z"/><path class="cls-7" d="M327.22,194.89a18,18,0,0,0-2.77-.85,48.57,48.57,0,0,0-5.07-.87l-2.11-.26-2.52-.3-1-.15-1.11-.19-.54-.09-1.66-.27c-2.89-.44-5.62-.76-8.18-1-5.11-.46-9.5-.63-13.08-.72-7.17-.15-11.14,0-11.17.44s3.88,1.16,11,2.08c3.54.48,7.86,1,12.83,1.82,2.48.4,5.12.87,7.89,1.45.7.15,1.4.3,2.1.47l1.08.24c.42.1.82.17,1.21.25l4.63.78c1.53.27,3.09.57,4.55,1a14.64,14.64,0,0,1,2,.72,1.13,1.13,0,0,1,.51.39.48.48,0,0,1,0,.55,1.29,1.29,0,0,1-.19.21l-.24.23-.14.12-.22.18a6.19,6.19,0,0,1-.92.67c-.32.21-.62.44-1,.63a22.93,22.93,0,0,1-2.22,1.1,53.79,53.79,0,0,1-10.6,3.05c-3.82.77-7.84,1.37-12,2-2.1.32-4.24.65-6.45,1.08l-6.43,1.31q-6.45,1.26-13.19,2.29c-4.48.66-9.06,1.23-13.72,1.64a94.15,94.15,0,0,1-13.87.46,26,26,0,0,1-6.32-1.21,23.68,23.68,0,0,1-5.58-2.88c-1.81-1.22-3.56-2.65-5.35-4.13s-3.56-3-5.28-4.43c-6.88-5.86-13-12-16.9-18.82l-.17-.31h0l0,0-.07-.12a2.11,2.11,0,0,1-.16-.3l0-.08h.2l.32,0h.11l.1,0,.36.07,1.47.29,2.89.56,5.67,1c7.44,1.31,14.4,2.36,20.76,3.18,12.73,1.65,23.09,2.42,30.26,2.73s11.15.13,11.18-.31c0-.12-.28-.26-.82-.42-1.48-.44-5-1-10.12-1.79-2-.31-4.2-.64-6.65-1l-3.23-.49c-5.69-.87-12.38-1.93-19.92-3.26q-4.69-.82-9.81-1.8c-3.41-.66-7-1.36-10.63-2.13l-5.58-1.19-6.64-1.47-1.51-.3c-1.27-.26-2.53-.5-3.83-.75l-2.7-.52-1.36-.27a10.48,10.48,0,0,0,.43,1.26c.64,1.74,1.29,3.5,2,5.21l.19.49c.27.71.54,1.41.88,2.14.19.44.43.9.67,1.35l.56,1.08a58.51,58.51,0,0,0,8,11.09c2.4,2.65,5,5.16,7.67,7.59.77.69,1.54,1.38,2.32,2.06,1.76,1.54,3.54,3,5.33,4.56s3.7,3.08,5.83,4.53a29.75,29.75,0,0,0,7.12,3.68,29.44,29.44,0,0,0,3.4.91,35.37,35.37,0,0,0,4.52.64,59.58,59.58,0,0,0,7.67,0c2.47-.13,4.88-.31,7.29-.53,4.8-.45,9.51-1.06,14.11-1.79,4.36-.7,8.63-1.5,12.79-2.37l.66-.13,6.42-1.41c2-.43,4.11-.79,6.18-1.15,3.78-.65,7.53-1.3,11.19-2.09l1.08-.23a57.05,57.05,0,0,0,11.64-3.74,25.74,25.74,0,0,0,2.73-1.47c.45-.26.88-.61,1.31-.91a10.87,10.87,0,0,0,1.25-1l.3-.26.34-.35a8.52,8.52,0,0,0,.69-.75l.72-1,.53-1a4.54,4.54,0,0,0-.31-4.21A7.14,7.14,0,0,0,327.22,194.89Z"/><path class="cls-7" d="M479.16,188.59c-6.31,1-9.79,1.61-9.76,2s4,.6,11.18.31,17.53-1.08,30.26-2.73c6.37-.82,13.32-1.87,20.76-3.18l5.67-1,2.89-.56,1.47-.29.37-.07.1,0h.1l.32,0h.2l0,.08q-.07.16-.15.3l-.08.12,0,0h0l-.17.31c-3.89,6.87-10,13-16.9,18.82-1.72,1.47-3.5,2.95-5.28,4.43s-3.54,2.91-5.35,4.13a23.68,23.68,0,0,1-5.58,2.88,26,26,0,0,1-6.32,1.21,94.2,94.2,0,0,1-13.87-.46c-4.66-.41-9.23-1-13.72-1.64s-8.89-1.45-13.19-2.29l-6.43-1.31c-2.21-.43-4.35-.76-6.44-1.08-4.2-.63-8.22-1.23-12-2a53.69,53.69,0,0,1-10.59-3.05,22,22,0,0,1-2.23-1.1c-.35-.19-.64-.42-1-.63a6.19,6.19,0,0,1-.92-.67l-.22-.18-.14-.12-.24-.23a1.29,1.29,0,0,1-.19-.21.48.48,0,0,1,0-.55,1.13,1.13,0,0,1,.51-.39,14.64,14.64,0,0,1,2-.72c1.46-.41,3-.71,4.55-1l4.63-.78c.39-.08.79-.15,1.21-.25l1.08-.24c.71-.17,1.41-.32,2.1-.47,2.77-.58,5.41-1,7.89-1.45,5-.8,9.29-1.34,12.83-1.82,7.09-.92,11-1.62,11-2.08s-4-.59-11.16-.44c-3.59.09-8,.26-13.09.72-1.06.1-2.15.22-3.26.34-1.59.19-3.22.4-4.92.66l-2.2.36-1.11.19-1,.15-4.63.56a48.57,48.57,0,0,0-5.07.87,18,18,0,0,0-2.77.85,7.18,7.18,0,0,0-3.44,2.62,4.54,4.54,0,0,0-.31,4.21l.54,1,.71,1a8.52,8.52,0,0,0,.69.75l.35.35.29.26a10.87,10.87,0,0,0,1.25,1c.43.3.86.65,1.31.91a25.74,25.74,0,0,0,2.73,1.47,57.05,57.05,0,0,0,11.64,3.74c1.5.34,3,.64,4.55.94,2.55.49,5.13.94,7.72,1.38,2.08.36,4.16.72,6.18,1.15l6.42,1.41.42.08c4.23.89,8.58,1.71,13,2.42s9.31,1.34,14.12,1.79c2.4.22,4.81.4,7.28.53a59.58,59.58,0,0,0,7.67,0,34.52,34.52,0,0,0,4.24-.58,28.52,28.52,0,0,0,3.68-1,29.82,29.82,0,0,0,7.13-3.68c2.12-1.45,4-3,5.82-4.53s3.58-3,5.33-4.56a117.05,117.05,0,0,0,10-9.65l.89-1a56.32,56.32,0,0,0,7.09-10l.56-1.08c.24-.45.48-.91.67-1.35.43-.9.73-1.76,1.07-2.63.69-1.71,1.34-3.47,2-5.21a10.48,10.48,0,0,0,.43-1.26l-1.36.27-2.7.52c-1.81.36-3.52.65-5.34,1l-2.73.61H540l-3.84.85-5.58,1.19c-7.32,1.53-14.17,2.82-20.43,3.93-4.58.81-8.85,1.52-12.77,2.14-5,.8-9.44,1.47-13.23,2l-3.81.58Z"/><path class="cls-14" d="M324.73,30.57,350,29.05c9.48-.48,19.88-.95,30.77-1.07s21.23.21,30.64.69c4.69.35,9.17.55,13.33,1,2.09.2,4.12.32,6.05.53l5.58.62c3.57.3,6.77.8,9.63,1.09l7.35.74c4.08.33,6.49.11,6.75-.75s-1.66-2.28-5.42-4.14q-1.41-.71-3.15-1.47c-1.17-.49-2.46-.95-3.85-1.46-2.78-1-6-2.14-9.56-3l-5.65-1.48c-2-.49-4-.87-6.19-1.32-4.28-.93-8.9-1.56-13.77-2.25A250.77,250.77,0,0,0,380.65,15a295.84,295.84,0,0,0-31.71,2.14c-4.83.64-9.42,1.26-13.68,2s-8.21,1.52-11.8,2.31c-14.36,3.22-22.93,6.5-22.62,8.23S310.28,31.43,324.73,30.57Z"/><path class="cls-14" d="M72.67,199.84c-1.49-.52-2.93-1-4.29-1.35a33.66,33.66,0,0,0-3.75-.81c-4.64-.77-7.87-.43-8.6,1.22s1.18,4.27,4.87,7.19c.9.73,2,1.48,3,2.24s2.22,1.52,3.44,2.28,2.6,1.48,3.81,2.27,2.51,1.63,3.82,2.48c5.23,3.44,9.7,6.82,13.42,9.34a15.32,15.32,0,0,0,5.8,2.79c1.72.29,2.83-.22,3.19-1a4.62,4.62,0,0,0-.19-3.07,29,29,0,0,0-1.87-4.76,33.62,33.62,0,0,0-5.57-7.73,42.22,42.22,0,0,0-7.59-6.41,46.93,46.93,0,0,0-4.11-2.39c-.25-.12-.49-.27-.74-.39A40.11,40.11,0,0,0,72.67,199.84Z"/><path class="cls-14" d="M117.73,199.54c4.52,7,9,15.06,13.48,23.75,8.82,17.39,16.07,34,22.13,45.64s10.6,18.54,12.28,17.88.12-8.76-3.76-21.38c-1-3.15-2.08-6.58-3.33-10.25s-2.62-7.56-4.2-11.63a270,270,0,0,0-11.53-26.18,167,167,0,0,0-15.23-24.7,113.75,113.75,0,0,0-16.2-17.55A64.82,64.82,0,0,0,98.11,166a18.33,18.33,0,0,0-4.18-1.6c-1-.22-1.7-.16-2,.21-1.08,1.57,4.84,7.12,12.79,17A201.45,201.45,0,0,1,117.73,199.54Z"/><path class="cls-14" d="M32.38,251.16c3.47,1.72,8.22,2.66,11.58,3.88.83.31,1.62.62,2.54,1l2.91,1.33a26.89,26.89,0,0,0,6.42,2.13,9.41,9.41,0,0,0,5.35-.39,2.78,2.78,0,0,0,1.92-2.31,4.65,4.65,0,0,0-1-2.68,36.28,36.28,0,0,0-2.29-2.94,37.85,37.85,0,0,0-3.93-3.93,28.15,28.15,0,0,0-3.14-2.35,23,23,0,0,0-4.36-2.15,25.42,25.42,0,0,0-8.57-1.39,29.18,29.18,0,0,0-6.07.66,16,16,0,0,0-4,1.34,3.75,3.75,0,0,0-2,2.06,3.07,3.07,0,0,0,.81,2.85A11.7,11.7,0,0,0,32.38,251.16Z"/><path class="cls-14" d="M650.15,223.4a4.69,4.69,0,0,0-.19,3.07c.36.8,1.47,1.31,3.19,1a15.32,15.32,0,0,0,5.8-2.79c3.72-2.52,8.19-5.9,13.42-9.34l3.83-2.48c1.2-.79,2.6-1.5,3.8-2.27s2.37-1.52,3.44-2.28,2.14-1.51,3-2.24c3.69-2.92,5.6-5.55,4.87-7.19s-4-2-8.6-1.22a33.66,33.66,0,0,0-3.75.81c-1.36.38-2.8.83-4.29,1.35a40.11,40.11,0,0,0-4.68,1.88c-.25.12-.49.27-.74.39a46.93,46.93,0,0,0-4.11,2.39,42.22,42.22,0,0,0-7.59,6.41,33.92,33.92,0,0,0-5.57,7.73A29,29,0,0,0,650.15,223.4Z"/><path class="cls-14" d="M581.76,286.81c1.68.66,6.25-6.24,12.28-17.88s13.31-28.25,22.13-45.64c4.44-8.69,9-16.73,13.48-23.75a201.45,201.45,0,0,1,13-18c7.95-9.84,13.87-15.39,12.8-17-.26-.37-.92-.43-2-.21a18.33,18.33,0,0,0-4.18,1.6A64.82,64.82,0,0,0,636,175.12a114.25,114.25,0,0,0-16.2,17.55,167,167,0,0,0-15.23,24.7,270,270,0,0,0-11.53,26.18c-1.58,4.07-3,8-4.2,11.63s-2.36,7.1-3.33,10.25C581.64,278.05,580.09,286.15,581.76,286.81Z"/><path class="cls-14" d="M686.2,259.14a9.41,9.41,0,0,0,5.35.39A26.89,26.89,0,0,0,698,257.4l2.91-1.33c.92-.41,1.71-.72,2.54-1,3.36-1.22,8.11-2.16,11.58-3.88a11.7,11.7,0,0,0,3.92-2.86,3.07,3.07,0,0,0,.81-2.85,3.75,3.75,0,0,0-2-2.06,16,16,0,0,0-4-1.34,29.18,29.18,0,0,0-6.07-.66,25.42,25.42,0,0,0-8.57,1.39,23,23,0,0,0-4.36,2.15,29.11,29.11,0,0,0-3.14,2.35,38.88,38.88,0,0,0-3.93,3.93,36.28,36.28,0,0,0-2.29,2.94,4.71,4.71,0,0,0-1,2.68A2.78,2.78,0,0,0,686.2,259.14Z"/><path class="cls-14" d="M365.14,223.05a30,30,0,0,0,7.27.95,29.47,29.47,0,0,0,7.32-.6c2-.48,3.52-1.29,3.9-2.6s-.53-2.84-2.51-4.16a17.66,17.66,0,0,0-17.05-.41c-2,1.21-3,2.73-2.7,4S363.15,222.47,365.14,223.05Z"/></g></g></svg>