<?xml version="1.0" standalone="no"?>
<!DOCTYPE svg PUBLIC "-//W3C//DTD SVG 20010904//EN"
 "http://www.w3.org/TR/2001/REC-SVG-20010904/DTD/svg10.dtd">
<svg version="1.0" xmlns="http://www.w3.org/2000/svg"
 width="1076.000000pt" height="1076.000000pt" viewBox="0 0 1076.000000 1076.000000"
 preserveAspectRatio="xMidYMid meet">
<metadata>
Created by potrace 1.14, written by Peter Selinger 2001-2017
</metadata>
<g transform="translate(0.000000,1076.000000) scale(0.100000,-0.100000)"
fill="#000000" stroke="none">
<path d="M1115 9941 c-46 -29 -125 -112 -125 -131 0 -6 -7 -13 -15 -16 -8 -4
-15 -11 -15 -18 0 -6 -11 -27 -23 -46 -73 -108 -204 -396 -299 -655 -53 -148
-158 -466 -161 -487 0 -10 -4 -18 -7 -18 -3 0 -6 -8 -7 -17 -1 -10 -14 -58
-28 -108 -15 -49 -29 -99 -31 -110 -10 -42 -13 -50 -14 -50 -1 0 -3 -7 -5 -15
-2 -8 -17 -69 -34 -135 -26 -98 -100 -418 -117 -500 -2 -11 -6 -29 -8 -40 -19
-93 -64 -333 -72 -385 -3 -19 -7 -42 -9 -50 -2 -8 -7 -37 -10 -65 -3 -27 -8
-61 -11 -75 -9 -48 -11 -65 -18 -115 -4 -27 -9 -61 -11 -75 -2 -14 -6 -47 -10
-75 -4 -27 -8 -63 -11 -80 -5 -38 -11 -93 -19 -170 -3 -33 -8 -80 -10 -105 -3
-25 -7 -76 -10 -115 -3 -38 -8 -90 -10 -115 -15 -157 -20 -359 -19 -755 2
-537 2 -1305 1 -1760 0 -306 8 -712 19 -950 2 -55 6 -149 9 -210 10 -239 14
-312 30 -530 10 -147 29 -344 41 -430 3 -22 7 -53 9 -70 9 -68 37 -165 53
-182 10 -10 26 -24 37 -30 24 -15 126 -65 140 -69 6 -2 37 -14 70 -27 84 -34
99 -40 110 -42 6 -2 35 -12 65 -23 45 -17 151 -50 183 -58 4 -1 9 -3 12 -4 3
-1 10 -4 15 -5 6 -1 11 -3 13 -5 1 -1 9 -3 17 -5 8 -1 60 -15 115 -29 55 -15
141 -36 190 -47 50 -11 97 -21 105 -23 17 -4 84 -16 120 -22 14 -3 36 -7 50
-9 51 -11 68 -13 121 -21 30 -4 66 -8 82 -8 15 -1 27 -3 27 -6 0 -3 17 -6 38
-7 20 -1 60 -4 87 -7 191 -21 519 -21 645 0 19 3 42 6 50 6 8 0 38 4 65 9 28
5 64 12 80 15 73 13 271 67 284 77 11 9 13 9 8 0 -6 -10 103 25 143 46 9 5 30
12 48 15 17 4 34 12 37 17 4 5 13 9 22 9 20 0 325 150 376 184 21 14 40 26 43
26 16 0 233 153 333 235 129 105 301 279 419 425 29 36 59 73 67 83 28 33 166
239 172 255 4 9 9 19 13 22 12 10 110 193 110 206 0 8 5 14 10 14 6 0 10 8 10
18 0 10 4 22 9 28 20 20 138 339 156 420 34 155 56 262 60 301 3 27 8 59 10
72 22 125 22 539 0 684 -3 18 -7 48 -9 67 -10 79 -27 183 -35 220 -5 22 -7 40
-4 40 3 0 0 7 -7 15 -7 8 -10 15 -7 15 8 0 -69 292 -98 370 -7 19 -25 69 -40
110 -36 101 -33 95 -116 265 -40 83 -76 152 -81 153 -4 2 -8 8 -8 12 0 28
-153 232 -235 315 -181 181 -348 226 -510 136 -28 -15 -36 -21 -69 -48 -8 -7
-18 -13 -22 -13 -7 0 -134 -128 -171 -173 -13 -15 -23 -31 -23 -36 0 -5 -4
-11 -8 -13 -5 -1 -25 -28 -45 -58 -20 -30 -40 -60 -44 -65 -44 -58 -218 -432
-227 -485 -1 -8 -5 -22 -9 -30 -20 -50 -70 -227 -82 -295 -2 -11 -8 -42 -13
-70 -13 -61 -23 -127 -28 -180 -2 -22 -6 -62 -9 -90 -11 -102 -6 -369 9 -445
3 -14 7 -43 10 -65 3 -22 9 -61 14 -87 5 -26 7 -50 4 -53 -3 -3 0 -5 5 -5 6 0
10 -8 9 -17 -2 -10 1 -31 5 -48 5 -16 11 -43 13 -60 3 -16 8 -39 10 -50 41
-188 40 -180 56 -250 7 -27 14 -60 15 -72 2 -12 8 -37 14 -55 6 -18 12 -44 15
-58 3 -14 9 -39 15 -57 5 -17 7 -34 4 -37 -3 -3 -1 -11 5 -19 6 -7 14 -28 17
-47 3 -19 9 -44 12 -55 4 -11 8 -27 9 -35 1 -8 14 -58 29 -110 14 -52 28 -108
31 -123 2 -16 7 -34 11 -40 4 -7 8 -16 8 -22 1 -14 14 -59 37 -133 11 -34 21
-68 22 -75 2 -6 9 -32 16 -57 8 -25 14 -47 15 -50 0 -3 9 -32 19 -65 28 -91
46 -165 48 -191 1 -13 5 -24 8 -24 5 0 5 -159 0 -170 -1 -3 -3 -17 -4 -31 -2
-14 -7 -32 -12 -40 -4 -8 -9 -19 -10 -26 -2 -14 -61 -100 -85 -124 -9 -9 -20
-15 -23 -12 -3 4 -6 1 -6 -5 0 -6 -19 -22 -41 -34 -23 -13 -53 -29 -66 -37
-14 -7 -30 -14 -37 -16 -6 -1 -20 -5 -31 -9 -55 -21 -75 -27 -135 -41 -36 -8
-82 -17 -103 -20 -20 -3 -54 -7 -74 -10 -134 -20 -226 -28 -415 -40 -147 -9
-175 -9 -323 -1 -118 7 -131 9 -207 20 -21 3 -55 8 -75 11 -114 16 -194 32
-372 76 -69 17 -130 34 -136 37 -5 4 -19 7 -30 7 -11 1 -27 4 -35 8 -18 7 -87
28 -103 31 -7 2 -19 5 -27 8 -8 4 -71 24 -140 46 -133 43 -342 116 -375 131
-11 5 -47 19 -80 31 -33 12 -87 33 -120 46 -33 13 -66 24 -73 24 -15 0 -17
-12 49 240 28 107 54 213 59 235 11 51 22 101 36 158 1 4 2 8 3 10 2 1 5 13 7
27 3 14 13 61 24 105 30 123 80 337 86 363 2 13 21 90 40 170 20 81 38 156 40
167 2 11 6 31 9 45 3 14 19 79 35 145 17 66 33 136 35 155 3 19 8 43 11 52 3
9 6 25 8 35 2 10 16 68 30 128 14 61 28 121 30 135 3 14 5 26 7 28 2 2 3 6 12
52 4 19 9 44 11 55 8 35 57 259 62 277 8 34 14 63 19 88 9 47 15 75 19 95 10
46 46 219 50 241 3 13 7 32 10 42 3 9 7 35 11 57 3 22 10 56 15 76 6 20 12 49
14 65 2 16 9 54 15 84 6 30 13 66 15 80 3 14 5 25 6 25 1 0 3 11 4 25 2 14 12
77 24 140 12 63 24 131 27 150 3 19 8 46 10 60 3 14 8 41 11 60 5 35 10 65 17
110 3 14 8 45 11 70 4 25 9 56 11 70 2 14 7 45 10 69 3 23 8 57 10 75 13 74
26 175 31 231 1 22 3 40 4 40 3 0 9 39 15 108 3 39 8 83 10 97 2 14 7 59 10
100 4 41 8 82 10 90 2 8 6 58 10 110 4 52 8 113 11 135 18 185 35 640 35 950
1 251 -15 898 -24 985 -1 14 2 31 7 38 4 6 5 12 0 12 -5 0 -10 35 -11 78 -2
89 -9 242 -18 363 -13 179 -35 367 -51 439 -3 14 -7 39 -10 55 -16 95 -66 206
-104 229 -36 21 -58 20 -95 -3z"/>
<path d="M6925 9934 c-41 -17 -103 -83 -164 -176 -28 -42 -51 -79 -51 -82 0
-4 -12 -25 -26 -48 -14 -23 -27 -47 -28 -53 -1 -7 -9 -24 -19 -38 -9 -15 -17
-32 -17 -40 0 -7 -4 -17 -9 -23 -10 -9 -91 -191 -95 -210 -1 -7 -7 -19 -14
-27 -7 -8 -12 -19 -11 -23 1 -5 -1 -18 -6 -29 -38 -94 -65 -168 -65 -180 0 -8
-5 -15 -12 -15 -6 0 -9 -3 -5 -6 3 -3 -13 -56 -35 -117 -22 -62 -41 -121 -44
-131 -2 -11 -15 -54 -28 -95 -29 -91 -61 -195 -71 -236 -5 -16 -9 -32 -10 -35
-5 -17 -17 -58 -19 -71 -1 -8 -10 -40 -20 -71 -10 -32 -19 -70 -21 -85 -2 -16
-4 -28 -5 -28 -1 0 -3 -7 -5 -15 -2 -8 -13 -53 -25 -100 -12 -47 -24 -96 -26
-110 -3 -14 -7 -31 -10 -39 -5 -16 -51 -225 -60 -274 -3 -18 -10 -52 -15 -77
-14 -58 -16 -71 -23 -111 -3 -19 -8 -47 -11 -64 -5 -28 -20 -114 -30 -175 -3
-14 -7 -36 -9 -50 -5 -22 -9 -51 -21 -125 -1 -11 -6 -47 -10 -80 -4 -33 -9
-69 -12 -80 -5 -22 -9 -55 -16 -125 -3 -25 -8 -63 -11 -85 -4 -36 -10 -89 -22
-203 -4 -36 -11 -119 -19 -212 -7 -87 -16 -236 -20 -337 -2 -56 -6 -106 -9
-112 -4 -5 -2 -12 3 -16 6 -3 7 -13 4 -21 -10 -28 -9 -334 2 -334 7 0 7 -3 0
-8 -11 -8 -13 -52 -3 -68 4 -5 3 -27 -2 -47 -4 -20 -5 -37 -1 -37 5 0 7 -1549
2 -1635 -2 -20 7 -426 13 -610 8 -233 19 -487 31 -690 3 -49 7 -126 10 -170 2
-44 7 -112 10 -150 4 -39 8 -97 11 -130 14 -187 19 -229 29 -245 3 -5 1 -10
-5 -10 -6 0 -8 -5 -5 -10 4 -6 9 -25 11 -43 3 -18 7 -45 9 -62 10 -74 38 -164
56 -184 19 -20 21 -20 45 -4 27 17 57 71 91 163 22 58 33 89 32 93 0 1 5 16
11 32 7 17 13 37 15 45 2 8 18 65 35 125 17 61 33 119 35 130 2 11 15 66 29
122 14 56 27 112 30 125 2 13 9 43 16 68 7 25 14 56 17 70 2 13 8 29 14 36 5
6 7 13 4 16 -3 3 6 54 21 114 34 143 34 145 40 174 3 14 9 41 15 60 6 19 12
49 15 65 3 17 12 53 19 80 8 28 16 61 19 75 2 14 16 74 31 134 15 60 28 118
29 130 2 11 6 28 9 36 8 22 26 102 33 147 3 21 8 42 12 47 3 5 6 19 8 30 2 12
13 59 24 106 12 47 24 99 27 115 4 25 38 177 59 260 2 11 7 36 10 55 3 19 8
38 10 41 2 3 6 20 9 37 3 18 12 60 20 94 8 35 16 74 19 88 3 14 10 48 16 75
12 54 16 73 25 120 3 17 8 37 10 45 2 8 7 31 10 50 3 19 15 73 25 120 20 90
27 123 36 180 3 19 7 37 9 40 2 3 6 26 10 50 3 25 8 53 11 63 3 10 7 30 9 45
3 15 7 38 10 52 3 14 7 42 10 64 3 21 8 42 11 47 3 5 6 23 8 41 2 18 6 47 10
63 12 57 16 80 21 120 3 22 7 51 10 65 9 45 13 65 19 110 3 25 8 56 11 70 3
14 8 39 10 55 2 17 7 48 10 70 6 41 12 84 20 144 6 47 14 101 20 131 2 14 7
50 10 80 3 30 8 69 10 85 2 17 7 59 11 95 3 36 9 86 13 111 4 25 7 56 6 67 -1
12 1 22 4 22 3 0 6 24 7 53 0 28 4 88 8 132 13 147 15 177 21 269 32 519 34
882 10 1676 -3 76 -6 149 -19 450 -7 146 -24 344 -41 480 -28 220 -73 362
-129 409 -22 19 -55 21 -91 5z"/>
<path d="M3791 9177 c-6 -6 -11 -8 -11 -5 0 4 -66 -16 -147 -43 -82 -28 -152
-52 -158 -53 -5 -2 -17 -5 -25 -8 -74 -27 -207 -70 -222 -71 -10 -1 -18 -5
-18 -9 0 -4 -3 -7 -7 -6 -5 0 -15 -1 -23 -5 -14 -5 -89 -30 -100 -32 -3 -1
-17 -7 -31 -12 -14 -6 -36 -13 -50 -15 -13 -1 -26 -5 -29 -8 -3 -3 -57 -23
-120 -44 -63 -21 -122 -40 -130 -43 -8 -3 -21 -8 -27 -10 -7 -1 -19 -5 -25 -6
-12 -4 -26 -9 -65 -24 -10 -3 -20 -7 -23 -8 -3 0 -30 -9 -60 -19 -30 -10 -59
-19 -65 -21 -23 -6 -35 -10 -137 -46 -58 -21 -109 -35 -112 -32 -3 4 -6 1 -6
-5 0 -7 -8 -12 -17 -12 -10 -1 -36 -8 -58 -16 -22 -9 -60 -21 -85 -28 l-45
-12 0 -52 c-1 -29 2 -52 5 -52 3 0 5 -15 6 -33 2 -49 16 -212 19 -215 2 -2 -1
-19 -7 -39 -7 -27 -6 -38 6 -52 14 -15 14 -19 0 -40 -12 -17 -22 -21 -40 -17
-26 7 -24 12 -70 -164 -13 -52 -27 -102 -31 -110 -3 -8 -7 -22 -8 -30 -1 -8
-7 -31 -13 -50 -6 -19 -13 -46 -16 -60 -2 -14 -11 -46 -19 -73 -14 -43 -14
-49 1 -68 17 -20 57 -23 279 -20 75 1 81 16 49 134 -24 90 -30 121 -41 217 -3
25 -8 65 -11 90 -3 25 -7 61 -9 80 -2 19 -4 35 -5 35 -1 0 -3 21 -4 46 -2 26
-6 51 -10 57 -11 18 -17 250 -6 257 5 3 23 -1 40 -10 16 -8 31 -15 32 -15 6 2
124 -42 198 -73 14 -5 34 -12 44 -14 11 -2 24 -7 30 -12 6 -4 40 -18 76 -30
36 -13 69 -27 75 -32 5 -5 16 -9 25 -9 9 0 36 -10 61 -22 40 -20 59 -22 206
-23 189 0 166 14 233 -140 28 -65 55 -110 77 -130 l33 -30 -27 -20 c-38 -29
-111 -107 -155 -168 -21 -28 -43 -57 -48 -64 -6 -7 -10 -15 -10 -17 0 -3 -13
-33 -29 -66 -16 -33 -27 -60 -24 -60 3 0 0 -7 -7 -15 -7 -8 -9 -15 -6 -15 4 0
2 -8 -3 -17 -24 -47 -37 -263 -20 -348 6 -27 12 -60 15 -73 14 -69 101 -259
130 -283 8 -6 14 -17 14 -23 0 -10 19 -33 99 -121 45 -49 196 -172 211 -171 3
0 27 -13 53 -28 177 -104 438 -144 657 -101 58 11 176 50 182 59 4 6 8 8 8 3
0 -11 115 48 195 102 63 41 178 147 230 211 11 14 37 52 57 85 90 150 126 281
123 445 -1 63 -5 126 -8 140 -4 14 -10 39 -13 55 -18 85 -105 255 -169 330
-62 74 -159 165 -174 165 -19 0 -17 26 4 42 13 10 30 32 39 50 9 18 22 42 29
53 61 98 77 127 77 134 0 16 22 18 160 15 74 -1 153 2 175 8 22 6 46 11 53 11
6 0 12 4 12 9 0 4 6 8 13 8 8 0 56 14 108 31 52 17 101 32 109 34 8 2 17 4 20
6 3 1 10 3 15 4 6 1 23 7 38 13 16 7 34 12 41 12 6 0 17 5 24 12 7 7 12 9 12
6 0 -4 44 8 98 26 53 18 101 33 105 34 4 0 19 9 34 20 30 22 34 63 9 91 -15
17 -92 47 -108 43 -5 -1 -8 2 -8 8 0 5 -11 10 -25 10 -14 0 -25 4 -25 8 0 5
-6 9 -12 9 -12 0 -164 52 -213 73 -21 9 -176 64 -185 66 -3 0 -14 4 -25 8 -40
16 -50 19 -55 21 -3 1 -18 7 -33 13 -16 7 -32 12 -36 12 -5 0 -30 9 -57 19
-27 11 -110 40 -184 66 -74 26 -144 51 -155 56 -11 5 -47 18 -80 30 -33 11
-67 23 -75 26 -8 3 -19 7 -25 9 -12 3 -203 72 -225 81 -8 3 -19 7 -25 8 -5 2
-40 14 -77 28 -36 14 -69 23 -72 20 -3 -4 -6 -1 -6 5 0 7 -3 11 -7 11 -5 -1
-11 0 -15 1 -5 1 -11 3 -15 4 -12 2 -76 27 -94 36 -10 5 -21 4 -28 -3z m-1785
-1210 c1 -7 11 -43 22 -82 11 -38 25 -92 32 -120 6 -27 16 -59 20 -70 10 -25
21 -72 23 -104 l2 -25 -110 1 c-60 1 -111 2 -112 2 -1 1 3 16 8 34 6 17 12 41
15 52 2 11 6 29 9 40 2 11 14 54 25 95 12 41 29 103 37 138 14 58 24 71 29 39z"/>
<path d="M9728 5785 c-2 -2 -17 -7 -33 -10 -65 -13 -96 -25 -113 -41 -7 -8
-20 -14 -28 -14 -8 0 -14 -4 -14 -9 0 -5 -8 -12 -18 -15 -44 -14 -239 -230
-293 -325 -8 -14 -18 -30 -22 -35 -20 -25 -133 -238 -142 -266 -1 -3 -6 -16
-12 -30 -6 -14 -24 -59 -40 -100 -17 -41 -34 -84 -38 -95 -9 -24 -12 -32 -19
-63 -3 -12 -8 -27 -11 -33 -4 -5 -9 -25 -12 -42 -3 -18 -9 -39 -13 -47 -5 -9
-16 -51 -25 -94 -9 -44 -17 -82 -19 -85 -2 -3 -7 -26 -10 -51 -6 -43 -9 -64
-21 -137 -22 -130 -22 -410 -1 -563 16 -116 25 -167 42 -232 3 -13 6 -37 8
-54 1 -16 6 -36 10 -42 4 -7 5 -12 2 -12 -3 0 -2 -10 3 -23 5 -13 12 -39 15
-58 3 -19 8 -45 12 -59 3 -14 6 -33 6 -42 -1 -10 2 -18 6 -18 4 0 8 -10 9 -22
1 -13 6 -44 12 -70 9 -43 136 -551 146 -588 3 -8 11 -40 19 -70 14 -50 50
-183 61 -220 2 -8 13 -44 23 -80 10 -36 21 -72 25 -80 9 -24 58 -200 63 -230
2 -8 6 -31 9 -50 38 -215 -41 -382 -223 -474 -81 -41 -159 -63 -352 -101 -38
-8 -131 -18 -167 -19 -18 -1 -33 -3 -33 -6 0 -3 -17 -6 -38 -6 -20 -1 -73 -4
-117 -8 -465 -36 -1026 -40 -1555 -9 -174 10 -310 11 -315 3 -7 -11 34 -50 51
-50 7 0 14 -4 16 -8 6 -14 134 -70 264 -115 71 -24 131 -45 134 -45 3 0 25 -5
50 -12 25 -7 50 -13 55 -14 6 -1 16 -5 23 -10 7 -4 16 -6 18 -3 3 2 22 1 42
-4 20 -5 44 -11 52 -13 21 -5 100 -18 127 -22 13 -1 41 -5 64 -9 102 -17 245
-25 439 -25 218 1 290 4 290 10 0 3 12 5 28 6 40 1 128 13 217 30 76 15 280
67 332 85 32 11 65 22 73 24 51 14 116 40 122 49 4 6 8 8 8 4 0 -4 29 6 65 22
36 16 65 26 65 22 0 -4 4 -2 8 3 4 6 48 30 97 54 50 25 123 64 163 88 41 24
77 43 82 43 5 0 10 3 12 8 2 4 46 36 98 71 52 36 100 70 107 75 6 6 26 22 44
36 77 58 181 153 284 260 82 84 94 98 205 234 42 51 110 145 110 151 0 3 8 14
18 25 29 31 167 269 212 365 50 108 130 309 136 343 3 14 9 32 13 41 7 13 23
72 37 134 1 4 2 8 4 10 1 1 3 9 5 17 1 8 7 40 14 70 14 72 20 106 27 160 3 25
7 56 10 70 21 115 20 546 -1 682 -3 20 -8 54 -10 75 -2 21 -6 49 -9 63 -2 14
-7 45 -10 70 -3 25 -22 110 -41 190 -19 80 -38 156 -41 170 -8 38 -90 280
-110 325 -10 22 -18 42 -19 45 -12 42 -119 257 -170 340 -113 188 -242 334
-363 413 -37 24 -85 47 -102 49 -3 0 -16 5 -29 10 -26 9 -97 18 -103 13z"/>
</g>
</svg>
