<?xml version="1.0" standalone="no"?>
<!DOCTYPE svg PUBLIC "-//W3C//DTD SVG 20010904//EN"
 "http://www.w3.org/TR/2001/REC-SVG-20010904/DTD/svg10.dtd">
<svg version="1.0" xmlns="http://www.w3.org/2000/svg"
 width="1248.000000pt" height="1248.000000pt" viewBox="0 0 1248.000000 1248.000000"
 preserveAspectRatio="xMidYMid meet">
<metadata>
Created by potrace 1.14, written by Peter Selinger 2001-2017
</metadata>
<g transform="translate(0.000000,1248.000000) scale(0.100000,-0.100000)"
fill="#000000" stroke="none">
<path d="M8371 9643 c-19 -15 -24 -29 -23 -57 2 -42 24 -77 94 -151 27 -27 50
-57 53 -65 3 -8 -9 -62 -25 -120 -17 -58 -32 -109 -34 -115 -1 -5 -6 -24 -10
-42 -4 -17 -18 -39 -32 -47 -13 -9 -24 -25 -24 -36 0 -11 -4 -21 -10 -21 -41
-5 -139 -53 -200 -98 -56 -41 -123 -116 -150 -168 -14 -26 -29 -54 -35 -62
-24 -34 -6 -113 35 -149 30 -26 96 -52 133 -52 83 0 143 47 192 155 32 68 45
112 51 165 1 14 3 27 4 30 1 3 2 9 1 13 -1 5 3 26 9 48 8 29 21 46 49 64 29
18 41 34 48 62 7 32 19 44 68 76 33 20 67 40 75 44 8 4 21 15 28 25 13 18 18
15 75 -48 95 -104 108 -119 159 -176 25 -29 67 -75 91 -103 25 -27 42 -54 38
-60 -9 -12 -37 -100 -40 -125 -2 -17 -22 -11 -53 15 -40 34 -79 32 -117 -5
-17 -17 -38 -44 -48 -60 -9 -17 -21 -30 -25 -30 -4 0 -8 -4 -8 -10 0 -5 -29
-51 -65 -102 -35 -51 -79 -115 -97 -141 -18 -26 -39 -54 -45 -62 -7 -7 -13
-16 -13 -20 0 -3 -4 -11 -10 -18 -17 -21 -74 -101 -105 -147 -16 -25 -33 -49
-38 -55 -4 -5 -51 -71 -104 -145 -52 -74 -104 -146 -114 -159 -38 -48 -17
-150 38 -187 15 -9 32 -21 38 -26 16 -13 152 -118 232 -177 43 -33 69 -60 66
-68 -3 -7 -9 -13 -14 -13 -5 0 -9 -4 -9 -10 0 -5 -22 -45 -50 -88 -27 -43 -50
-84 -50 -90 0 -7 -4 -12 -10 -12 -5 0 -10 -4 -10 -8 0 -4 -23 -50 -50 -102
-28 -52 -51 -97 -51 -100 -1 -3 -12 -28 -24 -55 -12 -28 -28 -69 -35 -90 -7
-22 -16 -44 -20 -50 -7 -10 -66 -212 -74 -255 -3 -14 -7 -34 -9 -45 -12 -51
-28 -178 -32 -255 -5 -86 -12 -102 -42 -106 -10 -2 -38 -6 -63 -10 -57 -10
-265 -10 -305 -1 -126 30 -231 120 -299 257 -34 68 -84 222 -102 315 -2 11 -6
31 -10 45 -9 38 -24 111 -30 145 -2 17 -7 37 -9 45 -2 8 -6 29 -9 45 -3 17 -8
46 -11 65 -4 19 -8 46 -10 60 -8 53 -15 90 -24 112 -11 28 -47 68 -64 69 -50
6 -89 4 -132 -7 -27 -7 -66 -16 -85 -19 -89 -15 -348 -75 -377 -87 -55 -23
-73 -56 -68 -124 3 -32 7 -70 10 -84 34 -161 47 -449 26 -553 -16 -74 -53
-139 -99 -175 -32 -25 -65 -42 -82 -44 -3 0 -12 -4 -20 -8 -18 -10 -82 -20
-155 -26 -27 -2 -88 -7 -135 -11 -47 -4 -218 -7 -380 -7 -299 0 -361 6 -394
39 -8 8 -18 15 -23 15 -12 0 -53 66 -67 109 -7 20 -14 59 -16 86 -5 76 -3 265
3 310 23 184 22 199 -19 240 -32 32 -77 51 -140 59 -97 12 -209 24 -224 25 -8
0 -41 2 -72 4 -63 4 -131 -15 -172 -49 -23 -18 -82 -131 -92 -176 -2 -10 -6
-27 -9 -38 -2 -12 -9 -35 -14 -53 -6 -18 -22 -71 -36 -120 -26 -89 -91 -227
-122 -258 -10 -10 -36 -36 -57 -58 -49 -50 -129 -93 -226 -122 -72 -21 -93
-22 -505 -25 -257 -1 -446 2 -469 8 -45 11 -85 37 -86 56 0 6 -4 12 -9 12 -9
0 -49 94 -56 132 -15 71 -93 320 -122 388 -9 19 -24 55 -35 80 -36 83 -133
270 -140 270 -5 0 -8 6 -8 14 0 8 -6 21 -13 28 -6 7 -18 25 -26 41 -8 15 -18
27 -23 27 -4 0 -8 5 -8 11 0 9 -27 46 -90 124 -57 70 -230 234 -290 276 -403
279 -861 238 -1179 -105 -20 -21 -40 -44 -46 -50 -31 -35 -139 -182 -180 -246
-26 -41 -55 -86 -64 -100 -105 -159 -253 -547 -286 -750 -3 -19 -10 -57 -15
-85 -29 -158 -39 -392 -26 -605 7 -108 9 -121 21 -205 18 -125 25 -160 41
-218 8 -29 16 -60 19 -70 6 -27 56 -128 80 -161 51 -74 162 -186 184 -186 4 0
16 -9 26 -20 10 -11 24 -20 32 -20 7 0 13 -5 13 -11 0 -5 4 -8 9 -4 5 3 12 1
16 -5 16 -25 221 -101 335 -124 14 -3 36 -8 50 -11 104 -23 391 -23 500 0 14
3 41 8 60 10 40 5 50 7 145 30 39 9 77 18 85 20 8 2 15 4 15 5 0 10 172 16
182 7 6 -7 -55 -93 -84 -119 -67 -61 -553 -225 -753 -253 -24 -4 -47 -8 -50
-10 -4 -2 -26 -6 -51 -9 -24 -3 -55 -8 -69 -11 -14 -2 -52 -7 -85 -11 -33 -3
-76 -8 -95 -10 -116 -12 -237 -20 -459 -29 -79 -3 -148 -8 -152 -11 -5 -3 -19
-7 -30 -9 -56 -11 -94 -56 -109 -131 -18 -92 -20 -99 -29 -119 -18 -38 -61
-136 -61 -140 0 -2 -5 -16 -12 -32 -21 -50 -32 -183 -14 -183 5 0 7 -3 3 -6
-10 -11 29 -77 70 -119 85 -88 165 -152 278 -224 22 -14 49 -32 60 -39 11 -7
32 -18 48 -25 15 -6 27 -15 27 -19 0 -4 4 -8 10 -8 5 0 38 -13 72 -28 65 -30
221 -85 273 -97 43 -10 69 -15 150 -31 127 -24 378 -24 550 1 198 28 394 98
554 198 36 23 68 44 71 47 3 3 23 19 45 35 76 57 232 223 263 281 7 13 17 24
23 24 6 0 8 4 5 9 -4 5 -2 11 2 13 21 8 169 272 164 291 -1 4 2 7 6 7 4 0 16
24 27 53 10 28 21 57 25 62 19 28 94 276 106 350 6 42 11 69 19 105 3 14 7 36
10 49 7 40 51 97 88 114 28 14 71 17 248 17 224 0 318 4 434 15 190 17 375 65
490 126 33 18 72 38 87 46 16 8 28 18 28 22 0 3 14 15 32 25 52 31 173 160
214 228 63 106 58 102 79 60 10 -20 25 -44 31 -52 7 -8 13 -18 13 -23 1 -17
88 -126 144 -179 70 -68 145 -119 225 -155 71 -31 166 -62 212 -69 19 -3 46
-7 60 -10 14 -2 35 -6 48 -9 40 -7 245 -18 342 -17 183 1 311 17 460 57 226
60 458 220 615 423 26 34 49 62 51 62 2 0 15 -23 30 -51 14 -29 30 -57 35 -63
5 -6 23 -32 39 -57 124 -192 326 -317 557 -344 27 -3 58 -7 71 -9 164 -32 546
-24 777 16 33 5 74 12 90 15 17 2 44 9 62 14 17 6 44 12 60 15 15 2 39 8 53
13 14 5 66 21 115 36 50 15 97 30 106 35 8 4 55 7 105 5 79 -2 106 -8 246 -58
132 -47 329 -102 428 -121 14 -3 34 -7 45 -9 34 -8 109 -20 130 -23 24 -2 100
-13 135 -19 139 -25 624 -25 775 0 17 3 49 7 73 10 108 13 130 17 174 31 65
21 131 88 158 161 83 220 275 785 351 1028 22 72 43 137 45 145 3 8 5 16 5 17
-1 2 6 20 14 40 11 31 71 230 80 268 1 6 5 21 8 35 29 111 41 333 25 460 -13
101 -65 294 -105 390 -3 8 -7 17 -8 20 -15 54 -104 213 -158 282 l-29 38 52
50 c55 53 48 52 147 36 28 -4 114 -20 168 -30 11 -2 40 -7 65 -11 25 -4 54 -9
65 -11 11 -2 45 -8 75 -14 30 -5 71 -12 90 -16 19 -3 44 -8 55 -9 11 -2 47 -8
80 -13 76 -14 128 -21 185 -28 25 -3 56 -7 70 -10 14 -2 48 -7 77 -10 47 -5
53 -4 68 20 21 31 15 63 -18 97 -12 13 -45 51 -72 84 -28 33 -64 76 -82 95
-17 19 -42 48 -55 65 -13 16 -30 37 -38 46 -8 8 -34 38 -57 65 -22 27 -73 87
-113 134 -39 47 -84 99 -98 116 -27 30 -49 56 -177 209 -37 44 -89 105 -115
135 -26 30 -78 91 -115 135 -36 44 -76 91 -88 105 -27 31 -143 168 -166 195
-23 29 -195 229 -201 235 -3 3 -38 45 -78 93 -120 143 -140 158 -233 171 -62
8 -109 15 -144 22 -16 3 -46 7 -65 10 -19 2 -75 11 -123 19 -49 9 -92 13 -97
10 -5 -3 -11 -1 -14 4 -3 4 -32 12 -63 16 -67 8 -89 11 -158 25 -27 5 -67 12
-89 15 -21 2 -46 7 -55 9 -9 3 -38 8 -65 11 -27 3 -51 7 -55 9 -3 2 -33 7 -66
10 -33 4 -67 9 -75 11 -17 5 -52 11 -120 20 -25 4 -112 17 -195 30 -82 14
-181 29 -220 35 -38 5 -83 12 -100 15 -77 13 -98 16 -133 21 -56 8 -131 19
-222 34 -30 5 -75 12 -100 15 -24 4 -47 8 -51 10 -3 2 -39 7 -80 11 -65 5 -77
4 -98 -13z m919 -2707 c107 -11 187 -45 250 -107 33 -33 71 -87 75 -109 1 -3
6 -23 13 -44 6 -22 9 -43 6 -47 -2 -4 0 -10 5 -13 11 -7 -12 -129 -34 -176
-48 -105 -146 -214 -230 -255 -65 -32 -114 -36 -183 -13 -194 64 -321 236
-317 428 2 75 6 96 35 155 48 100 144 168 255 182 22 3 41 6 43 8 2 2 11 1 20
-1 9 -2 37 -5 62 -8z m1216 -391 c30 -19 68 -47 86 -62 39 -33 169 -163 162
-163 -2 0 11 -19 29 -42 39 -52 114 -201 123 -244 l6 -31 -326 -1 c-300 0
-328 1 -349 18 -17 15 -22 27 -20 63 1 37 37 239 59 342 3 11 7 33 9 50 9 60
29 140 37 151 10 14 95 -24 184 -81z m-9018 -200 c35 -23 82 -76 130 -145 20
-30 40 -57 43 -60 12 -11 156 -230 194 -297 19 -32 19 -33 -2 -70 l-22 -38
-272 0 c-183 0 -285 4 -313 12 -41 12 -110 66 -99 77 4 3 2 6 -4 6 -23 0 -40
190 -20 218 5 6 7 12 4 12 -4 0 1 19 9 42 78 223 224 324 352 243z"/>
<path d="M5977 4144 c-2 -2 -139 -11 -297 -20 -142 -8 -287 -20 -363 -29 -84
-11 -170 -62 -215 -128 -16 -23 -31 -46 -32 -52 -2 -5 -23 -49 -47 -97 -23
-48 -43 -90 -43 -92 0 -3 -12 -31 -26 -63 -14 -32 -29 -67 -34 -78 -4 -11 -15
-36 -23 -55 -105 -245 -112 -272 -91 -352 33 -128 162 -245 276 -249 42 -2
211 8 293 16 22 3 81 7 130 10 50 3 113 8 140 10 28 3 84 7 125 9 78 5 175 12
270 21 58 6 165 14 265 20 33 2 60 5 60 5 0 1 20 3 45 5 96 7 197 16 231 20
73 8 149 58 164 106 4 13 11 29 15 34 18 25 92 247 104 310 3 17 13 62 21 100
24 104 21 242 -6 269 -5 6 -9 20 -9 33 0 13 -4 23 -10 23 -5 0 -10 7 -10 15 0
21 -88 108 -140 138 -52 30 -116 52 -180 63 -37 6 -607 13 -613 8z"/>
<path d="M3645 3962 c-2 -2 -17 -6 -32 -7 -118 -11 -271 -54 -323 -90 -72 -50
-74 -61 -76 -485 -1 -326 1 -378 15 -400 23 -36 34 -46 74 -67 29 -16 53 -19
144 -17 145 3 314 13 324 20 5 3 9 1 9 -4 0 -11 422 -9 461 2 15 4 35 23 47
45 21 36 21 48 20 413 -2 391 -6 438 -46 483 -31 35 -59 55 -81 60 -11 3 -29
7 -38 9 -62 15 -114 25 -158 31 -56 8 -333 14 -340 7z"/>
</g>
</svg>
