<svg xmlns="http://www.w3.org/2000/svg" viewBox="0 0 353.22 359.93"><defs><style>.cls-1{fill:#fff;}</style></defs><title>Asset 6</title><g id="Layer_2" data-name="Layer 2"><g id="Layer_1-2" data-name="Layer 1"><path class="cls-1" d="M6.43,141.69H6.15a13.45,13.45,0,0,1-3.76-.9,4.09,4.09,0,0,1-1.85-1.09,2.08,2.08,0,0,1-.12-2.64,428.43,428.43,0,0,1,21-44.35.94.94,0,1,1,1.65.89,426.78,426.78,0,0,0-21,44.33,1,1,0,0,1-.22.32.34.34,0,0,0,.09.23A2.56,2.56,0,0,0,3,139a11.85,11.85,0,0,0,3.23.8,4.61,4.61,0,0,0,3.23-1.22,306.47,306.47,0,0,1,42.8-33.24.94.94,0,0,1,1,1.58,303.52,303.52,0,0,0-42.55,33l0,0A6.51,6.51,0,0,1,6.43,141.69Z"/><path class="cls-1" d="M47.41,184.37A7.08,7.08,0,0,1,43,182.91C29,169.32,14.66,154.59.54,139.11a.23.23,0,1,1,.35-.31C15,154.26,29.28,169,43.35,182.56a7,7,0,0,0,8.28,0c10.54-9.92,22.51-20,36.57-30.82L64.74,122.44A137.06,137.06,0,0,1,53,106.13a.23.23,0,1,1,.4-.24,137.9,137.9,0,0,0,11.76,16.26l23.61,29.47a.23.23,0,0,1,0,.18.21.21,0,0,1-.09.15c-14.13,10.86-26.15,21-36.75,31A7.73,7.73,0,0,1,47.41,184.37Z"/><path class="cls-1" d="M9.12,139.79a.18.18,0,0,1-.1,0,20.52,20.52,0,0,0-4.15-1.41,5.13,5.13,0,0,0-3.55.19.24.24,0,0,1-.32-.09.24.24,0,0,1,.09-.32A5.51,5.51,0,0,1,5,137.91a20.09,20.09,0,0,1,4.25,1.44.22.22,0,0,1,.11.31A.23.23,0,0,1,9.12,139.79Z"/><path class="cls-1" d="M3.73,138.15a.16.16,0,0,1-.1,0,.23.23,0,0,1-.12-.31c6.47-14,12.78-22.2,18.36-29.46A110.75,110.75,0,0,0,32.36,92.91a.23.23,0,0,1,.31-.1.24.24,0,0,1,.1.32,109.58,109.58,0,0,1-10.53,15.51c-5.56,7.25-11.86,15.45-18.3,29.38A.23.23,0,0,1,3.73,138.15Z"/><path class="cls-1" d="M5.52,138.36l-.12,0a.23.23,0,0,1-.08-.32c10.39-17.79,20.92-31.11,34.15-43.18a.23.23,0,0,1,.33,0,.24.24,0,0,1,0,.33c-13.2,12-23.7,25.31-34.07,43.07A.23.23,0,0,1,5.52,138.36Z"/><path class="cls-1" d="M6.83,138.79a.24.24,0,0,1-.16-.07.23.23,0,0,1,0-.33,128.11,128.11,0,0,0,8.93-11,121.87,121.87,0,0,1,9.57-11.7,90.81,90.81,0,0,1,7.76-6.9c4.36-3.59,8.48-7,11.58-11.69a.22.22,0,0,1,.32-.06.23.23,0,0,1,.07.32c-3.13,4.76-7.47,8.33-11.67,11.79A91.79,91.79,0,0,0,25.49,116,121.28,121.28,0,0,0,16,127.64a128.77,128.77,0,0,1-9,11.07A.25.25,0,0,1,6.83,138.79Z"/><path class="cls-1" d="M8,139.16a.24.24,0,0,1-.17-.4l7.66-8c2-2,4-4.15,6.06-6.11a164,164,0,0,1,12.85-10.56A144.22,144.22,0,0,0,49.05,101.8a.23.23,0,0,1,.33,0,.25.25,0,0,1,0,.34,144.86,144.86,0,0,1-14.66,12.32A161.72,161.72,0,0,0,21.9,125c-2.08,2-4.09,4-6,6.08l-7.67,8A.25.25,0,0,1,8,139.16Z"/><path class="cls-1" d="M51.15,106.91a.24.24,0,0,1-.2-.11A15.42,15.42,0,0,1,49,102a.24.24,0,0,1,.18-.28.24.24,0,0,1,.28.18,15,15,0,0,0,1.9,4.64.24.24,0,0,1-.07.33A.31.31,0,0,1,51.15,106.91Z"/><path class="cls-1" d="M47.56,103.64a.23.23,0,0,1-.19-.11,19.45,19.45,0,0,1-2.8-6.27.23.23,0,1,1,.45-.12,19.27,19.27,0,0,0,2.74,6.14.23.23,0,0,1-.07.32A.2.2,0,0,1,47.56,103.64Z"/><path class="cls-1" d="M42.34,100.57a.24.24,0,0,1-.2-.11,31.43,31.43,0,0,1-2-3.81c-.26-.56-.5-1.08-.73-1.55a.23.23,0,0,1,.11-.31.23.23,0,0,1,.31.11c.23.46.48,1,.73,1.55a32.84,32.84,0,0,0,1.93,3.76.24.24,0,0,1-.06.32A.22.22,0,0,1,42.34,100.57Z"/><path class="cls-1" d="M36.35,98.11a.27.27,0,0,1-.16-.06,28.93,28.93,0,0,1-3.84-5,.24.24,0,0,1,.07-.33.23.23,0,0,1,.32.07,27.76,27.76,0,0,0,3.78,4.87.24.24,0,0,1,0,.33A.21.21,0,0,1,36.35,98.11Z"/><path class="cls-1" d="M28,100.16a.23.23,0,0,1-.16-.06A35.7,35.7,0,0,1,22.23,93a.23.23,0,1,1,.4-.24,35.35,35.35,0,0,0,5.56,7,.23.23,0,0,1-.16.4Z"/><path class="cls-1" d="M53.84,112.84a21.87,21.87,0,0,1-7.65-1.54.23.23,0,0,1-.14-.3.24.24,0,0,1,.3-.14c4,1.51,7.68,1.89,10.78,1.13a.23.23,0,0,1,.29.17.24.24,0,0,1-.17.28A14,14,0,0,1,53.84,112.84Z"/><path class="cls-1" d="M81.25,157.51a.22.22,0,0,1-.22-.18,17,17,0,0,1,2-12.22.23.23,0,1,1,.4.24,16.52,16.52,0,0,0-2,11.88.22.22,0,0,1-.18.27Z"/><path class="cls-1" d="M30.83,137.77a.25.25,0,0,1-.19-.09.24.24,0,0,1,.06-.33c5.55-4,11.13-8.1,16.59-12.25a.22.22,0,0,1,.32,0,.24.24,0,0,1,0,.33c-5.46,4.15-11,8.28-16.6,12.26A.23.23,0,0,1,30.83,137.77Z"/><path class="cls-1" d="M33.46,141.71a.21.21,0,0,1-.18-.09.24.24,0,0,1,0-.33L49.86,129a.22.22,0,0,1,.32,0,.23.23,0,0,1,0,.33L33.6,141.67A.23.23,0,0,1,33.46,141.71Z"/><path class="cls-1" d="M37.49,145.12a.23.23,0,0,1-.18-.09.24.24,0,0,1,0-.33l15.78-12.58a.23.23,0,1,1,.29.36L37.64,145.07A.3.3,0,0,1,37.49,145.12Z"/><path class="cls-1" d="M50.87,182.32a.27.27,0,0,1-.17-.06,557.84,557.84,0,0,1-39.57-41.51.24.24,0,0,1,0-.33.23.23,0,0,1,.33,0A557.15,557.15,0,0,0,51,181.92a.24.24,0,0,1,0,.33A.28.28,0,0,1,50.87,182.32Z"/><path class="cls-1" d="M8.59,146.63H8.46a.22.22,0,0,1-.22-.24.23.23,0,0,1,.24-.22c1.54.08,4.52-1.53,4.87-1.91a.24.24,0,0,1,.34,0,.23.23,0,0,1,0,.33A11.14,11.14,0,0,1,8.59,146.63Z"/><path class="cls-1" d="M10,148.49a.24.24,0,0,1,0-.47,13.8,13.8,0,0,0,2.55-.47,4.48,4.48,0,0,0,2.1-1.31.22.22,0,0,1,.32,0,.24.24,0,0,1,0,.33l-.07.08,0,0A5.13,5.13,0,0,1,12.67,148a14.13,14.13,0,0,1-2.63.48Z"/><path class="cls-1" d="M40.62,177.94c-.54,0-1.08,0-1.62-.07a.23.23,0,0,1-.22-.24.23.23,0,0,1,.25-.22,16.74,16.74,0,0,0,2.65,0,5.15,5.15,0,0,0,2.41-.83.24.24,0,0,1,.27.39,5.56,5.56,0,0,1-2.63.9A10.32,10.32,0,0,1,40.62,177.94Z"/><path class="cls-1" d="M42,179.62q-.6,0-1.2,0a.24.24,0,0,1-.22-.25.23.23,0,0,1,.24-.22,13.22,13.22,0,0,0,2.6-.06,4.65,4.65,0,0,0,2.3-1,.23.23,0,0,1,.33,0,.24.24,0,0,1,0,.33,5,5,0,0,1-2.53,1.07A9.33,9.33,0,0,1,42,179.62Z"/><path class="cls-1" d="M55.35,105.66a.22.22,0,0,1-.22-.16,24.49,24.49,0,0,0-6.19-9.66.23.23,0,1,1,.32-.34,24.85,24.85,0,0,1,6.31,9.85.23.23,0,0,1-.15.3Z"/><path class="cls-1" d="M58.49,103.74a.22.22,0,0,1-.22-.18A19.7,19.7,0,0,0,56,98.11a.25.25,0,0,1,.08-.33.24.24,0,0,1,.32.08,20.08,20.08,0,0,1,2.36,5.59.23.23,0,0,1-.17.28Z"/><path class="cls-1" d="M131.69,8.83a.24.24,0,0,1-.25-.38l4.33-5a.23.23,0,0,1,.33,0,.24.24,0,0,1,0,.33l-4.33,5A.23.23,0,0,1,131.69,8.83Z"/><path class="cls-1" d="M127.85,13.16a.23.23,0,0,1-.21,0,.24.24,0,0,1,0-.33l1.81-2.36a.24.24,0,1,1,.37.29L128,13.08A.25.25,0,0,1,127.85,13.16Z"/><path class="cls-1" d="M110.85,54.31l-.11,0C96.22,57.09,81,60.66,64.21,65.25a7.05,7.05,0,0,1-2.94.35c-2.54-.38-4-3-4.43-5.24a9.13,9.13,0,0,1,.4-5.75,5.57,5.57,0,0,1,5-3.39,8.37,8.37,0,0,1,1.71.28,5.33,5.33,0,0,0,3.4-.13l40.39-10.52C118.14,28,129.4,14.24,141.12.33a1,1,0,0,1,1.32-.11.94.94,0,0,1,.12,1.32c-11.79,14-23.11,27.84-33.59,40.73a.87.87,0,0,1-.49.32L67.8,53.18a8.69,8.69,0,0,1-2.76.4,9.28,9.28,0,0,1-1.55-.26,6.73,6.73,0,0,0-1.32-.22A3.69,3.69,0,0,0,59,55.38,7.31,7.31,0,0,0,58.67,60c.33,1.59,1.29,3.54,2.88,3.78a5.62,5.62,0,0,0,2.17-.31c16.72-4.57,31.89-8.13,46.38-10.88C121.93,40.19,133.31,27.12,144,13.71a.94.94,0,1,1,1.46,1.17c-10.73,13.53-22.22,26.71-34.17,39.19A.88.88,0,0,1,110.85,54.31Z"/><path class="cls-1" d="M64.74,50.66a.24.24,0,0,1-.23-.06.24.24,0,0,1,0-.33c6.23-6.74,12.71-13.42,19.26-19.85a.24.24,0,0,1,.33,0,.25.25,0,0,1,0,.34c-6.55,6.42-13,13.09-19.24,19.83Z"/><path class="cls-1" d="M87.71,26.76a.27.27,0,0,1-.24-.06.24.24,0,0,1,0-.33l6.64-6.92a.24.24,0,0,1,.33,0,.23.23,0,0,1,0,.33l-6.64,6.92Z"/><path class="cls-1" d="M57.91,55h-.08a.24.24,0,0,1-.22-.25c.2-3.56,25.11-29.31,40.6-42.8a44.9,44.9,0,0,1,5-3.93,17.55,17.55,0,0,1,5.29-2A205.37,205.37,0,0,1,141.69.29a.22.22,0,0,1,.25.21.23.23,0,0,1-.21.25,204.36,204.36,0,0,0-33.09,5.77,16.76,16.76,0,0,0-5.16,1.9,45.79,45.79,0,0,0-5,3.88C83.31,25.54,58.27,51.4,58.07,54.78A.23.23,0,0,1,57.91,55Z"/><path class="cls-1" d="M110.2,53.73a.25.25,0,0,1-.25-.08,13.49,13.49,0,0,1-2.83-11.3.23.23,0,0,1,.28-.18.23.23,0,0,1,.18.27,13,13,0,0,0,2.73,10.91.23.23,0,0,1,0,.33Z"/><path class="cls-1" d="M62.49,64.32a.24.24,0,0,1-.22,0,4.39,4.39,0,0,1-1.33-2.38A13.3,13.3,0,0,1,62,52.41a.22.22,0,0,1,.31-.1.23.23,0,0,1,.1.32,12.85,12.85,0,0,0-1,9.15,3.91,3.91,0,0,0,1.17,2.13.24.24,0,0,1,0,.33A.21.21,0,0,1,62.49,64.32Z"/><path class="cls-1" d="M71.91,56.79h0A83.22,83.22,0,0,0,62.64,59a.23.23,0,0,1-.13-.45h0a84.65,84.65,0,0,1,9.29-2.19.22.22,0,0,1,.27.19A.21.21,0,0,1,71.91,56.79Z"/><path class="cls-1" d="M102.66,49.22h0c-1.78.48-3.7,1-5.73,1.59-6.74,1.91-14.38,4.06-21.44,4.92a.22.22,0,0,1-.26-.2.23.23,0,0,1,.2-.26c7-.86,14.65-3,21.38-4.91,2-.57,3.94-1.11,5.73-1.59a.23.23,0,0,1,.13.45Z"/><path class="cls-1" d="M71.93,74.44h-.09a.23.23,0,0,1-.2-.15,6,6,0,0,1-.4-3.13,6.46,6.46,0,0,0-3.61,2.39.23.23,0,0,1-.28.07.23.23,0,0,1-.14-.25c.45-2.92,2.84-5,4.88-6.56l1-.7c1.88-1.36,3.82-2.77,4.94-4.78a15.91,15.91,0,0,0,1.5-6.49.24.24,0,0,1,.18-.21L81,54.36c1.37-.3,2.78-.61,4.21-.89a.21.21,0,0,1,.2.05.23.23,0,0,1,.08.18c-.07,3.14-.28,6.43-2,9.06a17.64,17.64,0,0,1-4.33,4.07c-.56.42-1.14.86-1.69,1.3a23.63,23.63,0,0,0-5.33,6.2A.28.28,0,0,1,71.93,74.44Z"/><path class="cls-1" d="M108.55,44.88a.23.23,0,0,1-.24-.38c6.61-7.27,13.06-14.86,19.16-22.57a.23.23,0,0,1,.36.3c-6.1,7.71-12.55,15.31-19.17,22.58A.26.26,0,0,1,108.55,44.88Z"/><path class="cls-1" d="M129.91,19.29a.23.23,0,0,1-.22-.05.23.23,0,0,1,0-.33c3.05-3.6,6.21-7.19,9.37-10.69a.23.23,0,0,1,.35.31c-3.16,3.5-6.31,7.09-9.37,10.68A.23.23,0,0,1,129.91,19.29Z"/><path class="cls-1" d="M109.55,47.62a.23.23,0,0,1-.22,0,.24.24,0,0,1,0-.33c5-5.71,9.78-11.29,14.36-16.69S132.49,20.14,137,15a.24.24,0,0,1,.33,0,.25.25,0,0,1,0,.34c-4.53,5.13-8.82,10.18-13.36,15.53s-9.31,11-14.35,16.7A.26.26,0,0,1,109.55,47.62Z"/><path class="cls-1" d="M110.76,49.75a.23.23,0,0,1-.22,0,.24.24,0,0,1,0-.33l10.17-12a.23.23,0,0,1,.36.3l-10.17,12A.28.28,0,0,1,110.76,49.75Z"/><path class="cls-1" d="M125.63,32.6a.24.24,0,0,1-.23,0,.25.25,0,0,1,0-.33c5.19-5.86,10.34-11.91,15.31-18a.23.23,0,0,1,.33,0,.23.23,0,0,1,0,.32c-5,6.08-10.13,12.13-15.33,18A.21.21,0,0,1,125.63,32.6Z"/><path class="cls-1" d="M144.55,14.81a.23.23,0,0,1-.21,0,9.14,9.14,0,0,1-3.5-6.08,21.72,21.72,0,0,1,.31-7.07.23.23,0,0,1,.46.08,21.06,21.06,0,0,0-.3,6.91,8.64,8.64,0,0,0,3.3,5.78.24.24,0,0,1,.06.33A.34.34,0,0,1,144.55,14.81Z"/><path class="cls-1" d="M86.09,51.12h0L65,55.94a.24.24,0,0,1-.28-.18.23.23,0,0,1,.18-.28L86,50.67a.23.23,0,0,1,.12.45Z"/><path class="cls-1" d="M104.66,46.2C99.83,47.71,94.9,49,90,50.18a.24.24,0,1,1-.1-.46c5.23-1.21,10.48-2.64,15.6-4.27h0a.24.24,0,0,1,.3.16.23.23,0,0,1-.15.29Z"/><path class="cls-1" d="M76.89,58.47h0c-4.51,1.12-9,2.38-13.48,3.75a.23.23,0,0,1-.14-.44h0c4.45-1.38,9-2.65,13.51-3.76a.23.23,0,0,1,.12.45Z"/><path class="cls-1" d="M107,51.32h0L88.83,55.47a.23.23,0,0,1-.28-.17.23.23,0,0,1,.17-.28l18.18-4.15a.23.23,0,0,1,.28.17A.24.24,0,0,1,107,51.32Z"/><path class="cls-1" d="M155.18,212.93a.93.93,0,0,1-.59-.21C142.56,203,130.12,193,115.65,187a.94.94,0,0,1,.73-1.73c14.48,6.09,26.86,16,38.82,25.59a219.42,219.42,0,0,1,37.33-22.19.91.91,0,0,1,1.13.27,4.84,4.84,0,0,0,8.64-2.51c0-.33,0-.69,0-1.06a5.61,5.61,0,0,1,.66-3.15,5.45,5.45,0,0,1,1.78-1.57A94.18,94.18,0,0,1,235,168.11a.93.93,0,1,1,.41,1.82,92.61,92.61,0,0,0-29.6,12.25,4,4,0,0,0-1.21,1,4,4,0,0,0-.35,2.13c0,.4,0,.82-.05,1.24a6.71,6.71,0,0,1-11.47,4.05,217.62,217.62,0,0,0-36.95,22.13A1,1,0,0,1,155.18,212.93Z"/><path class="cls-1" d="M200,188a.23.23,0,0,1-.23-.19,20.09,20.09,0,0,1,18.9-24,.23.23,0,0,1,.24.22.22.22,0,0,1-.22.24,19.62,19.62,0,0,0-18.46,23.4.25.25,0,0,1-.19.28Z"/><path class="cls-1" d="M224.91,163.77c-.3,0-.6,0-.91,0a.23.23,0,0,1-.22-.24.22.22,0,0,1,.25-.22,20.71,20.71,0,0,0,11.19-2.75.24.24,0,1,1,.23.41A21.25,21.25,0,0,1,224.91,163.77Z"/><path class="cls-1" d="M200.9,187.21h0a.22.22,0,0,1-.22-.24,20.85,20.85,0,0,1,14-18.41.23.23,0,0,1,.29.15.23.23,0,0,1-.15.3,20.38,20.38,0,0,0-13.7,18A.22.22,0,0,1,200.9,187.21Z"/><path class="cls-1" d="M227.85,166.74a.25.25,0,0,1-.23-.18.23.23,0,0,1,.18-.28c1.9-.44,4-1,6.08-1.7a.24.24,0,0,1,.3.15.24.24,0,0,1-.15.3c-2.1.68-4.22,1.27-6.13,1.7Z"/><path class="cls-1" d="M201.88,186.37h0a.24.24,0,0,1-.18-.28c.73-4,3.56-7.82,7.75-10.51a48.29,48.29,0,0,1,12.33-5.67c1.66-.48,3.17-.84,4.64-1.19a68,68,0,0,0,7.51-2.1.24.24,0,0,1,.3.14.23.23,0,0,1-.15.3,69,69,0,0,1-7.56,2.12c-1.45.34-3,.7-4.61,1.18A48,48,0,0,0,209.65,176c-4.08,2.62-6.83,6.34-7.54,10.21A.24.24,0,0,1,201.88,186.37Z"/><path class="cls-1" d="M218,168.4a.24.24,0,0,1-.24-.2.24.24,0,0,1,.2-.27c1.26-.21,2.43-.37,3.55-.54s2.28-.33,3.54-.54a.24.24,0,0,1,.27.2.24.24,0,0,1-.19.27c-1.27.21-2.43.37-3.55.54s-2.28.33-3.55.54Z"/><path class="cls-1" d="M174.87,190.84a.27.27,0,0,1-.18-.08.24.24,0,0,1,0-.33c2.68-2.25,6.2-2.76,10.19-3.15a24.46,24.46,0,0,1,4.77-.15,24,24,0,0,1,7.46,2.46.23.23,0,0,1,.12.31.24.24,0,0,1-.31.12,23.73,23.73,0,0,0-7.32-2.43,23.47,23.47,0,0,0-4.67.16c-3.92.38-7.36.88-9.94,3A.2.2,0,0,1,174.87,190.84Z"/><path class="cls-1" d="M152.57,207a.23.23,0,0,1-.06-.46c3.83-1,7-3.66,9.87-6.43l1.14-1.11c2.48-2.43,5-4.95,8.19-6.54a.23.23,0,0,1,.32.1.24.24,0,0,1-.11.31c-3.08,1.56-5.62,4.06-8.07,6.47l-1.14,1.11c-2.91,2.81-6.15,5.55-10.09,6.55Z"/><path class="cls-1" d="M168,199.81a.22.22,0,0,1-.17-.07.23.23,0,0,1,0-.33,46.84,46.84,0,0,1,20.91-10.69,10.93,10.93,0,0,1,3.38-.38,4.36,4.36,0,0,1,3.09,1.49.23.23,0,1,1-.36.29,4,4,0,0,0-2.77-1.32,10.56,10.56,0,0,0-3.23.38,46.3,46.3,0,0,0-20.7,10.57A.25.25,0,0,1,168,199.81Z"/><path class="cls-1" d="M154.16,209.16a.23.23,0,0,1-.1-.44,44.77,44.77,0,0,0,11.68-7.85.23.23,0,0,1,.33,0,.23.23,0,0,1,0,.33,44.78,44.78,0,0,1-11.8,7.93A.2.2,0,0,1,154.16,209.16Z"/><path class="cls-1" d="M196,190.47a2.94,2.94,0,0,1-2.31-1,.24.24,0,0,1,.37-.29,2.59,2.59,0,0,0,2.5.79,6.23,6.23,0,0,0,2.55-1.31,10.15,10.15,0,0,0,3.94-5.79.24.24,0,0,1,.27-.19.25.25,0,0,1,.19.28,10.56,10.56,0,0,1-4.11,6.07,6.49,6.49,0,0,1-2.76,1.4A3.47,3.47,0,0,1,196,190.47Z"/><path class="cls-1" d="M150.63,205.82a.23.23,0,0,1-.16-.06c-10.63-9.67-24.71-18.53-36.75-23.13a.24.24,0,0,1-.14-.18.2.2,0,0,1,.08-.22,69.53,69.53,0,0,0,9.78-10.29,48.32,48.32,0,0,1,10.09-10c6.15-4.39,12.46-4.2,19.76-4q1.52.06,3.09.09a21.89,21.89,0,0,1,7.46-13.3c6.31-5.23,12.62-8.36,18.76-9.31.89-.14,1.81-.24,2.7-.34,3-.32,6.12-.65,8.89-2.53a.21.21,0,0,1,.25,0A322.38,322.38,0,0,0,238.16,155a.23.23,0,0,1,.14.15.27.27,0,0,1-.05.21c-2.45,3.12-6.52,4-10.84,4.78l-7,1.2c-4.84.83-10.32,1.77-14.73,4.62a19.37,19.37,0,0,0-8.05,11,14,14,0,0,0,1.67,11.75.22.22,0,0,1,0,.27.22.22,0,0,1-.25.09,42,42,0,0,1-6.16-2.34,29.34,29.34,0,0,0-8.61-2.79c-4.91-.51-10.37,1.54-15.39,5.76a34,34,0,0,0-5.57,5.9c-.61.78-1.18,1.52-1.88,2.28l-.79.87c-2.23,2.48-5.28,5.87-10,7.09Zm-36.37-23.49c12,4.65,25.88,13.43,36.43,23,4.47-1.22,7.32-4.38,9.61-6.92.27-.31.54-.6.8-.88.68-.74,1.25-1.47,1.85-2.25a34,34,0,0,1,5.64-6c5.12-4.3,10.71-6.39,15.74-5.86a29.68,29.68,0,0,1,8.75,2.82,46.81,46.81,0,0,0,5.48,2.15,14.7,14.7,0,0,1-1.38-11.61,19.88,19.88,0,0,1,8.25-11.23c4.48-2.9,10-3.85,14.9-4.68l7-1.2c4.11-.71,8-1.58,10.36-4.37A323.67,323.67,0,0,1,194.32,133c-2.83,1.87-5.95,2.21-9,2.53-.88.09-1.8.19-2.68.33-6,.94-12.29,4-18.53,9.21a21.32,21.32,0,0,0-7.32,13.21.23.23,0,0,1-.24.2q-1.68,0-3.3-.09c-7.22-.22-13.46-.41-19.48,3.89a48.12,48.12,0,0,0-10,9.92A70.18,70.18,0,0,1,114.26,182.33Z"/><path class="cls-1" d="M115.86,186a.22.22,0,0,1-.22-.16,7.91,7.91,0,0,0-2-3.23.23.23,0,0,1,0-.33.24.24,0,0,1,.33,0,8.19,8.19,0,0,1,2.09,3.42.23.23,0,0,1-.16.29Z"/><path class="cls-1" d="M155.08,211.27a.23.23,0,0,1-.22-.15,11.29,11.29,0,0,0-4.35-5.32.24.24,0,0,1-.07-.33.23.23,0,0,1,.32-.07,11.74,11.74,0,0,1,4.53,5.55.22.22,0,0,1-.13.3Z"/><path class="cls-1" d="M234.45,169a.25.25,0,0,1-.22-.15c-1-2.51-.31-5.27.44-7.14a35.48,35.48,0,0,1,1.72-3.5c.5-.94,1-1.92,1.46-2.91a.24.24,0,0,1,.31-.12.23.23,0,0,1,.12.31c-.44,1-1,2-1.48,2.95a34.44,34.44,0,0,0-1.69,3.45c-.73,1.79-1.39,4.42-.44,6.79a.23.23,0,0,1-.14.3Z"/><path class="cls-1" d="M198.81,188.75a.3.3,0,0,1-.15-.05c-13-10-26.3-19.31-42.21-30.23a.24.24,0,1,1,.27-.39C172.63,169,185.91,178.34,199,188.33a.23.23,0,0,1,0,.32A.2.2,0,0,1,198.81,188.75Z"/><path class="cls-1" d="M191.23,171.42h-.07a.25.25,0,0,1-.16-.29c1-3.36,3.6-6,5.47-7.64A44.87,44.87,0,0,1,220,152.65a.23.23,0,0,1,.06.46,44.4,44.4,0,0,0-23.23,10.72c-1.83,1.63-4.38,4.18-5.33,7.42A.23.23,0,0,1,191.23,171.42Z"/><path class="cls-1" d="M183.29,167.08a.19.19,0,0,1-.12,0,.23.23,0,0,1-.08-.32,39.75,39.75,0,0,1,28.85-18.36.23.23,0,0,1,.26.2.24.24,0,0,1-.21.26A39.31,39.31,0,0,0,183.49,167,.22.22,0,0,1,183.29,167.08Z"/><path class="cls-1" d="M175.87,163.29h-.09a.24.24,0,0,1-.13-.31,17.29,17.29,0,0,1,5.84-7.62.23.23,0,0,1,.33.05.24.24,0,0,1,0,.33,16.86,16.86,0,0,0-5.69,7.41A.21.21,0,0,1,175.87,163.29Z"/><path class="cls-1" d="M189.94,148.24a.23.23,0,0,1-.21-.13.24.24,0,0,1,.11-.32c4.63-2.31,9.79-3.22,14.78-4.09a.24.24,0,0,1,.27.19.23.23,0,0,1-.19.27c-5,.87-10.08,1.77-14.66,4.05A.19.19,0,0,1,189.94,148.24Z"/><path class="cls-1" d="M169.78,159.15l-.1,0a.25.25,0,0,1-.12-.31,18.65,18.65,0,0,1,4.69-6.39.24.24,0,0,1,.33,0,.23.23,0,0,1,0,.33A18,18,0,0,0,170,159,.24.24,0,0,1,169.78,159.15Z"/><path class="cls-1" d="M184.24,144.17a.24.24,0,0,1-.2-.11.24.24,0,0,1,.07-.32c3.91-2.49,6.69-2.86,10.91-3.42l1.19-.16a.23.23,0,0,1,.26.2.24.24,0,0,1-.2.27l-1.19.16c-4.15.55-6.9.91-10.71,3.34A.33.33,0,0,1,184.24,144.17Z"/><path class="cls-1" d="M151.36,195.17a.3.3,0,0,1-.15,0,.24.24,0,0,1,0-.33,65.79,65.79,0,0,1,7.76-9.06,33.1,33.1,0,0,1,17-8.19.23.23,0,0,1,.26.19.23.23,0,0,1-.19.27,32.62,32.62,0,0,0-16.8,8.08,65.16,65.16,0,0,0-7.7,9A.21.21,0,0,1,151.36,195.17Z"/><path class="cls-1" d="M143,191.36a.22.22,0,0,1-.2-.12.24.24,0,0,1,.09-.32c2.51-1.41,4.33-3.78,6.09-6.07.62-.8,1.26-1.64,1.92-2.42A31.33,31.33,0,0,1,168.42,172a.23.23,0,1,1,.09.45,30.83,30.83,0,0,0-17.25,10.25c-.66.77-1.29,1.59-1.91,2.39-1.79,2.33-3.64,4.74-6.23,6.2Z"/><path class="cls-1" d="M135.54,186.2a.24.24,0,0,1-.08-.46c2.53-.92,4.37-3,6.34-5.41a.23.23,0,1,1,.36.29c-2,2.47-3.9,4.6-6.54,5.56Z"/><path class="cls-1" d="M144.62,177.89a.24.24,0,0,1-.16-.07.23.23,0,0,1,0-.33,37.08,37.08,0,0,1,16.87-9.79.23.23,0,0,1,.28.17.24.24,0,0,1-.16.29,36.49,36.49,0,0,0-16.65,9.66A.28.28,0,0,1,144.62,177.89Z"/><path class="cls-1" d="M129.21,181.86a.24.24,0,0,1-.2-.11.25.25,0,0,1,.08-.33,26,26,0,0,0,7-6.07l.31-.39a8.87,8.87,0,0,1,2.32-2.29.23.23,0,0,1,.32.09.24.24,0,0,1-.09.32,8.33,8.33,0,0,0-2.18,2.17l-.31.39a26.45,26.45,0,0,1-7.1,6.19A.24.24,0,0,1,129.21,181.86Z"/><path class="cls-1" d="M143,170.14a.23.23,0,0,1-.17-.08.23.23,0,0,1,0-.33A22.58,22.58,0,0,1,156,164.36a.24.24,0,0,1,.25.22.24.24,0,0,1-.22.25,22.15,22.15,0,0,0-12.9,5.25A.25.25,0,0,1,143,170.14Z"/><path class="cls-1" d="M162.11,146c1.63-3.07,4.13-6.22,7.6-6.44a13,13,0,0,1,8,2.37c4.85,3.39,9,6.39,14.47,8.69-2.36-.28-4.11.16-6.47-.12.37,1.43,1.79,4.82,1.79,4.82s-8.93-7-13.84-9.37a16.39,16.39,0,0,0-6-1.91A6.9,6.9,0,0,0,162.11,146Z"/><path class="cls-1" d="M187.49,155.58a.27.27,0,0,1-.15-.05c-.09-.07-9-7-13.8-9.35a16.13,16.13,0,0,0-5.86-1.89,6.66,6.66,0,0,0-5.39,1.88.23.23,0,0,1-.31,0,.22.22,0,0,1-.07-.3c2.22-4.17,4.84-6.38,7.78-6.56a13.14,13.14,0,0,1,8.14,2.41l.83.58c4.55,3.18,8.49,5.92,13.6,8.09a.23.23,0,0,1,.14.27.24.24,0,0,1-.25.18,20.64,20.64,0,0,0-3.21-.07,20.44,20.44,0,0,1-2.92,0c.46,1.53,1.67,4.43,1.68,4.46a.24.24,0,0,1-.07.28A.24.24,0,0,1,187.49,155.58Zm-20.36-11.77a5.72,5.72,0,0,1,.58,0,16.52,16.52,0,0,1,6,1.93c4.08,2,11,7.18,13.19,8.87a41.84,41.84,0,0,1-1.47-4,.25.25,0,0,1,.05-.22.24.24,0,0,1,.21-.08,20.49,20.49,0,0,0,3.2.07c.61,0,1.25,0,1.91,0a78.57,78.57,0,0,1-12.45-7.6l-.83-.58a12.67,12.67,0,0,0-7.84-2.32c-3,.18-5.22,2.68-6.73,5.14A7.69,7.69,0,0,1,167.13,143.81Z"/><path class="cls-1" d="M155.18,212.93a.93.93,0,0,1-.59-.21C142.56,203,130.12,193,115.65,187a.94.94,0,0,1,.73-1.73c14.48,6.09,26.86,16,38.82,25.59a219.42,219.42,0,0,1,37.33-22.19.91.91,0,0,1,1.13.27,4.84,4.84,0,0,0,8.64-2.51c0-.33,0-.69,0-1.06a5.61,5.61,0,0,1,.66-3.15,5.45,5.45,0,0,1,1.78-1.57A94.18,94.18,0,0,1,235,168.11a.93.93,0,1,1,.41,1.82,92.61,92.61,0,0,0-29.6,12.25,4,4,0,0,0-1.21,1,4,4,0,0,0-.35,2.13c0,.4,0,.82-.05,1.24a6.71,6.71,0,0,1-11.47,4.05,217.62,217.62,0,0,0-36.95,22.13A1,1,0,0,1,155.18,212.93Z"/><path class="cls-1" d="M200,188a.23.23,0,0,1-.23-.19,20.09,20.09,0,0,1,18.9-24,.23.23,0,0,1,.24.22.22.22,0,0,1-.22.24,19.62,19.62,0,0,0-18.46,23.4.25.25,0,0,1-.19.28Z"/><path class="cls-1" d="M224.91,163.77c-.3,0-.6,0-.91,0a.23.23,0,0,1-.22-.24.22.22,0,0,1,.25-.22,20.71,20.71,0,0,0,11.19-2.75.24.24,0,1,1,.23.41A21.25,21.25,0,0,1,224.91,163.77Z"/><path class="cls-1" d="M200.9,187.21h0a.22.22,0,0,1-.22-.24,20.85,20.85,0,0,1,14-18.41.23.23,0,0,1,.29.15.23.23,0,0,1-.15.3,20.38,20.38,0,0,0-13.7,18A.22.22,0,0,1,200.9,187.21Z"/><path class="cls-1" d="M227.85,166.74a.25.25,0,0,1-.23-.18.23.23,0,0,1,.18-.28c1.9-.44,4-1,6.08-1.7a.24.24,0,0,1,.3.15.24.24,0,0,1-.15.3c-2.1.68-4.22,1.27-6.13,1.7Z"/><path class="cls-1" d="M201.88,186.37h0a.24.24,0,0,1-.18-.28c.73-4,3.56-7.82,7.75-10.51a48.29,48.29,0,0,1,12.33-5.67c1.66-.48,3.17-.84,4.64-1.19a68,68,0,0,0,7.51-2.1.24.24,0,0,1,.3.14.23.23,0,0,1-.15.3,69,69,0,0,1-7.56,2.12c-1.45.34-3,.7-4.61,1.18A48,48,0,0,0,209.65,176c-4.08,2.62-6.83,6.34-7.54,10.21A.24.24,0,0,1,201.88,186.37Z"/><path class="cls-1" d="M218,168.4a.24.24,0,0,1-.24-.2.24.24,0,0,1,.2-.27c1.26-.21,2.43-.37,3.55-.54s2.28-.33,3.54-.54a.24.24,0,0,1,.27.2.24.24,0,0,1-.19.27c-1.27.21-2.43.37-3.55.54s-2.28.33-3.55.54Z"/><path class="cls-1" d="M174.87,190.84a.27.27,0,0,1-.18-.08.24.24,0,0,1,0-.33c2.68-2.25,6.2-2.76,10.19-3.15a24.46,24.46,0,0,1,4.77-.15,24,24,0,0,1,7.46,2.46.23.23,0,0,1,.12.31.24.24,0,0,1-.31.12,23.73,23.73,0,0,0-7.32-2.43,23.47,23.47,0,0,0-4.67.16c-3.92.38-7.36.88-9.94,3A.2.2,0,0,1,174.87,190.84Z"/><path class="cls-1" d="M152.57,207a.23.23,0,0,1-.06-.46c3.83-1,7-3.66,9.87-6.43l1.14-1.11c2.48-2.43,5-4.95,8.19-6.54a.23.23,0,0,1,.32.1.24.24,0,0,1-.11.31c-3.08,1.56-5.62,4.06-8.07,6.47l-1.14,1.11c-2.91,2.81-6.15,5.55-10.09,6.55Z"/><path class="cls-1" d="M168,199.81a.22.22,0,0,1-.17-.07.23.23,0,0,1,0-.33,46.84,46.84,0,0,1,20.91-10.69,10.93,10.93,0,0,1,3.38-.38,4.36,4.36,0,0,1,3.09,1.49.23.23,0,1,1-.36.29,4,4,0,0,0-2.77-1.32,10.56,10.56,0,0,0-3.23.38,46.3,46.3,0,0,0-20.7,10.57A.25.25,0,0,1,168,199.81Z"/><path class="cls-1" d="M154.16,209.16a.23.23,0,0,1-.1-.44,44.77,44.77,0,0,0,11.68-7.85.23.23,0,0,1,.33,0,.23.23,0,0,1,0,.33,44.78,44.78,0,0,1-11.8,7.93A.2.2,0,0,1,154.16,209.16Z"/><path class="cls-1" d="M196,190.47a2.94,2.94,0,0,1-2.31-1,.24.24,0,0,1,.37-.29,2.59,2.59,0,0,0,2.5.79,6.23,6.23,0,0,0,2.55-1.31,10.15,10.15,0,0,0,3.94-5.79.24.24,0,0,1,.27-.19.25.25,0,0,1,.19.28,10.56,10.56,0,0,1-4.11,6.07,6.49,6.49,0,0,1-2.76,1.4A3.47,3.47,0,0,1,196,190.47Z"/><path class="cls-1" d="M150.63,205.82a.23.23,0,0,1-.16-.06c-10.63-9.67-24.71-18.53-36.75-23.13a.24.24,0,0,1-.14-.18.2.2,0,0,1,.08-.22,69.53,69.53,0,0,0,9.78-10.29,48.32,48.32,0,0,1,10.09-10c6.15-4.39,12.46-4.2,19.76-4q1.52.06,3.09.09a21.89,21.89,0,0,1,7.46-13.3c6.31-5.23,12.62-8.36,18.76-9.31.89-.14,1.81-.24,2.7-.34,3-.32,6.12-.65,8.89-2.53a.21.21,0,0,1,.25,0A322.38,322.38,0,0,0,238.16,155a.23.23,0,0,1,.14.15.27.27,0,0,1-.05.21c-2.45,3.12-6.52,4-10.84,4.78l-7,1.2c-4.84.83-10.32,1.77-14.73,4.62a19.37,19.37,0,0,0-8.05,11,14,14,0,0,0,1.67,11.75.22.22,0,0,1,0,.27.22.22,0,0,1-.25.09,42,42,0,0,1-6.16-2.34,29.34,29.34,0,0,0-8.61-2.79c-4.91-.51-10.37,1.54-15.39,5.76a34,34,0,0,0-5.57,5.9c-.61.78-1.18,1.52-1.88,2.28l-.79.87c-2.23,2.48-5.28,5.87-10,7.09Zm-36.37-23.49c12,4.65,25.88,13.43,36.43,23,4.47-1.22,7.32-4.38,9.61-6.92.27-.31.54-.6.8-.88.68-.74,1.25-1.47,1.85-2.25a34,34,0,0,1,5.64-6c5.12-4.3,10.71-6.39,15.74-5.86a29.68,29.68,0,0,1,8.75,2.82,46.81,46.81,0,0,0,5.48,2.15,14.7,14.7,0,0,1-1.38-11.61,19.88,19.88,0,0,1,8.25-11.23c4.48-2.9,10-3.85,14.9-4.68l7-1.2c4.11-.71,8-1.58,10.36-4.37A323.67,323.67,0,0,1,194.32,133c-2.83,1.87-5.95,2.21-9,2.53-.88.09-1.8.19-2.68.33-6,.94-12.29,4-18.53,9.21a21.32,21.32,0,0,0-7.32,13.21.23.23,0,0,1-.24.2q-1.68,0-3.3-.09c-7.22-.22-13.46-.41-19.48,3.89a48.12,48.12,0,0,0-10,9.92A70.18,70.18,0,0,1,114.26,182.33Z"/><path class="cls-1" d="M115.86,186a.22.22,0,0,1-.22-.16,7.91,7.91,0,0,0-2-3.23.23.23,0,0,1,0-.33.24.24,0,0,1,.33,0,8.19,8.19,0,0,1,2.09,3.42.23.23,0,0,1-.16.29Z"/><path class="cls-1" d="M234.45,169a.25.25,0,0,1-.22-.15c-1-2.51-.31-5.27.44-7.14a35.48,35.48,0,0,1,1.72-3.5c.5-.94,1-1.92,1.46-2.91a.24.24,0,0,1,.31-.12.23.23,0,0,1,.12.31c-.44,1-1,2-1.48,2.95a34.44,34.44,0,0,0-1.69,3.45c-.73,1.79-1.39,4.42-.44,6.79a.23.23,0,0,1-.14.3Z"/><path class="cls-1" d="M198.81,188.75a.3.3,0,0,1-.15-.05c-13-10-26.3-19.31-42.21-30.23a.24.24,0,1,1,.27-.39C172.63,169,185.91,178.34,199,188.33a.23.23,0,0,1,0,.32A.2.2,0,0,1,198.81,188.75Z"/><path class="cls-1" d="M191.23,171.42h-.07a.25.25,0,0,1-.16-.29c1-3.36,3.6-6,5.47-7.64A44.87,44.87,0,0,1,220,152.65a.23.23,0,0,1,.06.46,44.4,44.4,0,0,0-23.23,10.72c-1.83,1.63-4.38,4.18-5.33,7.42A.23.23,0,0,1,191.23,171.42Z"/><path class="cls-1" d="M183.29,167.08a.19.19,0,0,1-.12,0,.23.23,0,0,1-.08-.32,39.75,39.75,0,0,1,28.85-18.36.23.23,0,0,1,.26.2.24.24,0,0,1-.21.26A39.31,39.31,0,0,0,183.49,167,.22.22,0,0,1,183.29,167.08Z"/><path class="cls-1" d="M175.87,163.29h-.09a.24.24,0,0,1-.13-.31,17.29,17.29,0,0,1,5.84-7.62.23.23,0,0,1,.33.05.24.24,0,0,1,0,.33,16.86,16.86,0,0,0-5.69,7.41A.21.21,0,0,1,175.87,163.29Z"/><path class="cls-1" d="M189.94,148.24a.23.23,0,0,1-.21-.13.24.24,0,0,1,.11-.32c4.63-2.31,9.79-3.22,14.78-4.09a.24.24,0,0,1,.27.19.23.23,0,0,1-.19.27c-5,.87-10.08,1.77-14.66,4.05A.19.19,0,0,1,189.94,148.24Z"/><path class="cls-1" d="M169.78,159.15l-.1,0a.25.25,0,0,1-.12-.31,18.65,18.65,0,0,1,4.69-6.39.24.24,0,0,1,.33,0,.23.23,0,0,1,0,.33A18,18,0,0,0,170,159,.24.24,0,0,1,169.78,159.15Z"/><path class="cls-1" d="M184.11,143.74c3.91-2.49,6.69-2.86,10.91-3.42l1.19-.16a.23.23,0,0,1,.26.2.24.24,0,0,1-.2.27l-1.19.16c-4.15.55-6.9.91-10.71,3.34a.33.33,0,0,1-.13,0"/><path class="cls-1" d="M151.36,195.17a.3.3,0,0,1-.15,0,.24.24,0,0,1,0-.33,65.79,65.79,0,0,1,7.76-9.06,33.1,33.1,0,0,1,17-8.19.23.23,0,0,1,.26.19.23.23,0,0,1-.19.27,32.62,32.62,0,0,0-16.8,8.08,65.16,65.16,0,0,0-7.7,9A.21.21,0,0,1,151.36,195.17Z"/><path class="cls-1" d="M143,191.36a.22.22,0,0,1-.2-.12.24.24,0,0,1,.09-.32c2.51-1.41,4.33-3.78,6.09-6.07.62-.8,1.26-1.64,1.92-2.42A31.33,31.33,0,0,1,168.42,172a.23.23,0,1,1,.09.45,30.83,30.83,0,0,0-17.25,10.25c-.66.77-1.29,1.59-1.91,2.39-1.79,2.33-3.64,4.74-6.23,6.2Z"/><path class="cls-1" d="M135.54,186.2a.24.24,0,0,1-.08-.46c2.53-.92,4.37-3,6.34-5.41a.23.23,0,1,1,.36.29c-2,2.47-3.9,4.6-6.54,5.56Z"/><path class="cls-1" d="M144.62,177.89a.24.24,0,0,1-.16-.07.23.23,0,0,1,0-.33,37.08,37.08,0,0,1,16.87-9.79.23.23,0,0,1,.28.17.24.24,0,0,1-.16.29,36.49,36.49,0,0,0-16.65,9.66A.28.28,0,0,1,144.62,177.89Z"/><path class="cls-1" d="M129.21,181.86a.24.24,0,0,1-.2-.11.25.25,0,0,1,.08-.33,26,26,0,0,0,7-6.07l.31-.39a8.87,8.87,0,0,1,2.32-2.29.23.23,0,0,1,.32.09.24.24,0,0,1-.09.32,8.33,8.33,0,0,0-2.18,2.17l-.31.39a26.45,26.45,0,0,1-7.1,6.19A.24.24,0,0,1,129.21,181.86Z"/><path class="cls-1" d="M143,170.14a.23.23,0,0,1-.17-.08.23.23,0,0,1,0-.33A22.58,22.58,0,0,1,156,164.36a.24.24,0,0,1,.25.22.24.24,0,0,1-.22.25,22.15,22.15,0,0,0-12.9,5.25A.25.25,0,0,1,143,170.14Z"/><path class="cls-1" d="M187.49,155.58a.27.27,0,0,1-.15-.05c-.09-.07-9-7-13.8-9.35a16.13,16.13,0,0,0-5.86-1.89,6.66,6.66,0,0,0-5.39,1.88.23.23,0,0,1-.31,0,.22.22,0,0,1-.07-.3c2.22-4.17,4.84-6.38,7.78-6.56a13.14,13.14,0,0,1,8.14,2.41l.83.58c4.55,3.18,8.49,5.92,13.6,8.09a.23.23,0,0,1,.14.27.24.24,0,0,1-.25.18,20.64,20.64,0,0,0-3.21-.07,20.44,20.44,0,0,1-2.92,0c.46,1.53,1.67,4.43,1.68,4.46a.24.24,0,0,1-.07.28A.24.24,0,0,1,187.49,155.58Z"/><path class="cls-1" d="M153.19,146.63h0a.24.24,0,0,1-.21-.26,26.06,26.06,0,0,1,3.93-11.43.23.23,0,0,1,.32-.07.24.24,0,0,1,.08.32,25.46,25.46,0,0,0-3.86,11.23A.25.25,0,0,1,153.19,146.63Z"/><path class="cls-1" d="M148.14,146.4a.23.23,0,0,1-.23-.2,44.74,44.74,0,0,0-1.54-7.25.24.24,0,0,1,.16-.29.23.23,0,0,1,.29.15,44.87,44.87,0,0,1,1.55,7.33.23.23,0,0,1-.2.26Z"/><path class="cls-1" d="M143.06,150.3a.22.22,0,0,1-.19-.1,7.17,7.17,0,0,0-5.79-3.2.23.23,0,0,1-.23-.24.23.23,0,0,1,.23-.23h0a7.56,7.56,0,0,1,6.18,3.41.24.24,0,0,1-.07.33A.28.28,0,0,1,143.06,150.3Z"/><path class="cls-1" d="M215.43,330.56a1,1,0,0,1-.61-1.22c6.77-18.76,10.57-37.74,14.5-58.83a.92.92,0,0,1,.61-.71,3.68,3.68,0,0,1,2.13-.12.92.92,0,0,1,.7,1.12.93.93,0,0,1-1.12.7,1.94,1.94,0,0,0-.59,0c-3.79,20.3-7.48,38.67-13.86,56.83,6.88-1.64,13.44-.45,20.11,1,7.56,1.69,15.35,3.82,20.31,9.44a14.79,14.79,0,0,0,6,1.16h.16c14.72.79,25.3,3.68,33.15,9.09,2.46-7,4.33-14.17,6.14-21.07,3.33-12.71,6.48-24.72,13-36.46a2.71,2.71,0,0,0-.57-.44.93.93,0,0,1-.36-1.28.92.92,0,0,1,1.27-.35,4.61,4.61,0,0,1,1.57,1.44,1,1,0,0,1,0,1c-6.6,11.71-9.77,23.78-13.12,36.57-1.92,7.32-3.91,14.9-6.6,22.41a.93.93,0,0,1-1.44.43c-7.63-5.65-18.17-8.66-33.16-9.45h-.16c-2.38-.13-4.83-.26-7-1.48a1,1,0,0,1-.25-.2c-4.57-5.28-12.1-7.32-19.41-9-7-1.57-13.82-2.79-20.91-.6A1,1,0,0,1,215.43,330.56Z"/><path class="cls-1" d="M263.71,340.61l-.06,0a18.21,18.21,0,0,0-8.53-2.95.23.23,0,0,1-.21-.25.22.22,0,0,1,.25-.21,18.57,18.57,0,0,1,8.74,3,.24.24,0,0,1,.07.33A.23.23,0,0,1,263.71,340.61Z"/><path class="cls-1" d="M259.37,338.18a.21.21,0,0,1-.1-.06.23.23,0,0,1-.06-.22c4.77-18.46,9.83-36.62,16-58.19a.25.25,0,0,1,.14-.16,33.27,33.27,0,0,1,20.54-1.32c6,1.41,12.19,4.25,18.78,8.67a2.08,2.08,0,0,1,.63.42.24.24,0,0,1,0,.31c-4.54,7.19-7.09,15.44-9.56,23.41-3.4,11-6.9,22.3-10.58,33a.25.25,0,0,1-.15.15.24.24,0,0,1-.2,0c-9.95-6.42-22.82-8.6-35.32-6A.17.17,0,0,1,259.37,338.18Zm16.22-58.24c-6.07,21.39-11.1,39.41-15.83,57.72,12.4-2.5,25.13-.33,35.05,6,3.64-10.64,7.11-21.84,10.47-32.68,2.47-8,5-16.2,9.52-23.4-.34-.27-.34-.2-.41-.24-6.55-4.4-12.64-7.22-18.65-8.63A32.93,32.93,0,0,0,275.59,279.94Z"/><path class="cls-1" d="M303.5,322.68a.23.23,0,0,1-.16-.29c1-3.63,2.14-7.17,3.27-10.6.75-2.26,1.52-4.6,2.25-7,1-2.63,2.2-5.31,3.37-7.91s2.37-5.27,3.35-7.86c.05-.14-.38-.63-.79-.76a.23.23,0,1,1,.13-.45h0c.55.17,1.26.84,1.11,1.36-1,2.62-2.2,5.31-3.37,7.9s-2.38,5.27-3.36,7.87c-.72,2.37-1.49,4.71-2.24,7-1.13,3.42-2.3,7-3.27,10.58a.24.24,0,0,1-.29.16Z"/><path class="cls-1" d="M261.57,339.16a.23.23,0,0,1-.17-.22.24.24,0,0,1,.24-.24c11.62,0,24.79.07,34.85,7.87l1.71-6.06q1.94-6.87,3.88-13.74a.24.24,0,0,1,.29-.16.24.24,0,0,1,.16.29q-1.95,6.87-3.88,13.74l-1.8,6.39a.23.23,0,0,1-.16.16.25.25,0,0,1-.22,0c-10-7.91-23.18-7.95-34.84-8Z"/><path class="cls-1" d="M259.48,338.16a.41.41,0,0,1-.11-.07,42.65,42.65,0,0,0-37.55-13.9.24.24,0,0,1-.26-.29c4.23-16.73,9-36.55,12.52-56.74a.21.21,0,0,1,.18-.18,44.21,44.21,0,0,1,41.16,12.6.23.23,0,0,1-.34.32,43.77,43.77,0,0,0-40.57-12.5c-3.47,20-8.21,39.65-12.41,56.27a43.2,43.2,0,0,1,37.63,14.11.25.25,0,0,1,0,.33A.28.28,0,0,1,259.48,338.16Z"/><path class="cls-1" d="M219.42,326.5a.26.26,0,0,1-.11-.07.25.25,0,0,1-.05-.22c4.05-14.69,8.23-29.88,11.25-45.09a125.32,125.32,0,0,0,2-12.58.23.23,0,0,1,.14-.19,4.38,4.38,0,0,1,1.51-.45.23.23,0,0,1,.25.21.24.24,0,0,1-.21.26,3.67,3.67,0,0,0-1.23.35c-.45,4.55-1.25,8.86-2,12.49-3,15.1-7.14,30.18-11.16,44.77,9.34-1.52,20.06.4,30.22,5.41,2.89,1.42,6.1,3.29,8,6.31a.23.23,0,0,1-.07.32.24.24,0,0,1-.33-.07c-1.81-2.92-5-4.75-7.78-6.14-10.2-5-21-6.92-30.29-5.3Z"/><path class="cls-1" d="M280.53,286.71a.23.23,0,0,1-.16-.21.24.24,0,0,1,.22-.25,46.54,46.54,0,0,1,15.08,1.67h0a.22.22,0,0,1,.15.28.23.23,0,0,1-.28.17,46,46,0,0,0-14.94-1.65Z"/><path class="cls-1" d="M307.59,293.76l-.06,0A35.18,35.18,0,0,0,300,290a.24.24,0,0,1-.14-.3.23.23,0,0,1,.3-.14,36,36,0,0,1,7.62,3.77.24.24,0,0,1,.07.33A.24.24,0,0,1,307.59,293.76Z"/><path class="cls-1" d="M279.21,293a.23.23,0,0,1,.06-.45,51.81,51.81,0,0,1,26.37,7,.23.23,0,0,1,.08.32.24.24,0,0,1-.32.09,51.41,51.41,0,0,0-26.12-6.93Z"/><path class="cls-1" d="M276.32,300.39a.24.24,0,0,1,0-.46,19.36,19.36,0,0,1,7.87.55.23.23,0,0,1,.16.29.24.24,0,0,1-.29.16,18.91,18.91,0,0,0-7.67-.53Z"/><path class="cls-1" d="M303.24,307h0a133.06,133.06,0,0,0-14.71-5.57.23.23,0,0,1-.15-.29.23.23,0,0,1,.29-.15h0a132,132,0,0,1,14.76,5.59.23.23,0,0,1,.12.31A.24.24,0,0,1,303.24,307Z"/><path class="cls-1" d="M275.4,307.19a.23.23,0,0,1-.16-.23.23.23,0,0,1,.24-.23,59.9,59.9,0,0,1,24.85,6.38.24.24,0,0,1,.1.32.23.23,0,0,1-.31.1,59.45,59.45,0,0,0-24.66-6.33Z"/><path class="cls-1" d="M272.79,313.33a.25.25,0,0,1-.17-.23.23.23,0,0,1,.24-.23,49.34,49.34,0,0,1,8.41.66.24.24,0,0,1-.08.47,48.41,48.41,0,0,0-8.33-.66Z"/><path class="cls-1" d="M298.21,319.33l0,0A36.46,36.46,0,0,0,286,315a.23.23,0,0,1,.08-.46,36.83,36.83,0,0,1,12.28,4.41.24.24,0,0,1,.09.32A.23.23,0,0,1,298.21,319.33Z"/><path class="cls-1" d="M271.34,320.39a.24.24,0,0,1-.17-.24.23.23,0,0,1,.24-.22,55.08,55.08,0,0,1,24.43,6.87.22.22,0,0,1,.09.32.23.23,0,0,1-.31.09,54.65,54.65,0,0,0-24.23-6.81Z"/><path class="cls-1" d="M268.56,327.94a.22.22,0,0,1-.16-.22.23.23,0,0,1,.23-.23A54.7,54.7,0,0,1,293,333a.23.23,0,0,1-.2.42A54.22,54.22,0,0,0,268.63,328Z"/><path class="cls-1" d="M262.94,299.8l-.07,0a44.75,44.75,0,0,0-24.51-8.44.31.31,0,0,1-.18-.09.26.26,0,0,1-.05-.19c1.05-5.62,2.21-11.18,3.46-16.51a.22.22,0,0,1,.23-.18,47.6,47.6,0,0,1,26.27,8.57.23.23,0,0,1,.08.26c-1.65,5.45-3.29,10.95-4.94,16.45a.22.22,0,0,1-.15.16Zm-13.1-7a44.86,44.86,0,0,1,13,6.4c1.6-5.34,3.19-10.68,4.8-16A47.24,47.24,0,0,0,242,274.83c-1.21,5.19-2.33,10.58-3.35,16A45.24,45.24,0,0,1,249.84,292.79Z"/><path class="cls-1" d="M260.91,307.62l-.06,0A58.48,58.48,0,0,0,236,299.15a.23.23,0,0,1-.21-.25.23.23,0,0,1,.26-.21,58.91,58.91,0,0,1,25,8.51.23.23,0,0,1-.19.42Z"/><path class="cls-1" d="M234,305.22a.23.23,0,0,1,.08-.46,45.94,45.94,0,0,1,10.41,1.66.24.24,0,0,1,.16.29.24.24,0,0,1-.29.16,45.53,45.53,0,0,0-10.3-1.64Z"/><path class="cls-1" d="M258.06,312.81l-.07,0a22,22,0,0,0-8.66-4.16.24.24,0,0,1-.18-.28.24.24,0,0,1,.28-.18,22.51,22.51,0,0,1,8.85,4.25.23.23,0,0,1,0,.33A.22.22,0,0,1,258.06,312.81Z"/><path class="cls-1" d="M233.21,313.63a.26.26,0,0,1-.17-.22.23.23,0,0,1,.23-.24,45,45,0,0,1,25,6.73.24.24,0,0,1-.25.4,44.53,44.53,0,0,0-24.75-6.66Z"/><path class="cls-1" d="M105.88,311.42a9.79,9.79,0,0,1-3.77-1.39,27.74,27.74,0,0,1-2.55-1.81,41.05,41.05,0,0,0-3.47-2.43c-16.88-2.27-36.26-3.58-61-4.14a1,1,0,0,1-.84-.55,1,1,0,0,1,.14-1c4.61-5.54,8.95-10.8,13.15-15.89,3.92-4.76,7.63-9.25,11.3-13.66a.94.94,0,1,1,1.44,1.2c-3.67,4.41-7.37,8.9-11.3,13.65s-7.76,9.41-11.91,14.41c24,.59,42.88,1.91,59.44,4.14a.92.92,0,0,1,.36.13,39.49,39.49,0,0,1,3.79,2.64,27,27,0,0,0,2.39,1.7c1.14.69,3.34,1.72,5.31.83a9.4,9.4,0,0,0,1.67-1.1,8.51,8.51,0,0,1,2.57-1.53,8.19,8.19,0,0,1,3.39-.12c20.73,2.33,37.53,4.94,50,7.76a183.74,183.74,0,0,1-11.76-33.17.93.93,0,0,1,.68-1.13.94.94,0,0,1,1.14.68,182.2,182.2,0,0,0,12.46,34.57.94.94,0,0,1-.11,1,.93.93,0,0,1-.95.32c-12.53-3-29.9-5.72-51.63-8.16a6.36,6.36,0,0,0-2.61.05,7,7,0,0,0-2,1.22,10.39,10.39,0,0,1-2,1.33A6.05,6.05,0,0,1,105.88,311.42Z"/><path class="cls-1" d="M105.94,306.82a.24.24,0,0,1-.2-.25l.19-2.57c.66-8.7,1.23-16.22,2.76-25.34a.26.26,0,0,1,.27-.19.23.23,0,0,1,.19.27c-1.52,9.1-2.06,16.24-2.75,25.29l-.19,2.57a.24.24,0,0,1-.26.22Z"/><path class="cls-1" d="M100.64,307.61a.22.22,0,0,1-.2-.17.24.24,0,0,1,.17-.29,15.1,15.1,0,0,1,5.34-.63h0a14.1,14.1,0,0,1,1.62.35c1,.27,2.09.57,3.12.88a.24.24,0,0,1,.16.3.23.23,0,0,1-.29.15c-1-.31-2.07-.61-3.11-.88a13.07,13.07,0,0,0-1.56-.33h0a14.29,14.29,0,0,0-5.17.62Z"/><path class="cls-1" d="M105.82,306.52l-.12,0a.23.23,0,0,1,0-.33,24.58,24.58,0,0,1,15.59-8.59,35.31,35.31,0,0,1,17.43,2.29c2.67,1,5.3,2.25,7.85,3.46,4.55,2.16,8.86,4.21,13.51,5-4.64-9-7.42-18.84-10.35-29.22l-.53-1.86c-2.83.31-5.54-.79-8.16-1.85-.49-.2-1-.4-1.46-.58-13.38-5.18-22.21-4-30.47,4.05a.24.24,0,0,1-.33,0,.23.23,0,0,1,0-.33c8.4-8.21,17.38-9.41,31-4.16l1.47.59c2.63,1.06,5.34,2.16,8.12,1.79a.23.23,0,0,1,.25.17l.59,2.06c3,10.51,5.78,20.43,10.53,29.54a.23.23,0,0,1,0,.24.23.23,0,0,1-.23.09c-4.89-.76-9.57-3-14.1-5.14-2.53-1.2-5.15-2.45-7.81-3.44A34.71,34.71,0,0,0,121.33,298a24.1,24.1,0,0,0-15.3,8.42A.22.22,0,0,1,105.82,306.52Z"/><path class="cls-1" d="M108.89,278.75a.23.23,0,0,1-.16-.1c-3-4.36-6.44-8.68-11.07-10.67-2.93-1.26-6.41-1.65-10.94-1.24-1.23.12-2.47.28-3.67.44a57.09,57.09,0,0,1-6.56.58,25.5,25.5,0,0,1-8.68-1.16.23.23,0,0,1-.15-.29.25.25,0,0,1,.3-.15,25.56,25.56,0,0,0,8.53,1.14,54.32,54.32,0,0,0,6.5-.59c1.2-.16,2.45-.32,3.68-.43,4.62-.43,8.17,0,11.17,1.27,4.75,2,8.22,6.41,11.27,10.84a.22.22,0,0,1-.06.32A.19.19,0,0,1,108.89,278.75Z"/><path class="cls-1" d="M105.63,306.57a.26.26,0,0,1-.19-.15c-1.29-3.48-4.13-6-6.16-7.62A44.25,44.25,0,0,0,56.73,292l-.33.12c-3.12,1.15-6.65,2.46-9.46.07a.24.24,0,0,1,0-.33C54,283.53,61,274.9,67.7,266.24a.24.24,0,1,1,.37.29c-6.68,8.6-13.63,17.17-20.65,25.47,2.58,2,5.89.78,8.82-.3l.33-.12a44.7,44.7,0,0,1,43,6.85c2.07,1.64,5,4.24,6.31,7.82a.22.22,0,0,1-.13.3A.25.25,0,0,1,105.63,306.57Z"/><path class="cls-1" d="M109.42,307.45a.21.21,0,0,1-.16-.1.25.25,0,0,1,.06-.33A19.54,19.54,0,0,1,121,304.33a59.86,59.86,0,0,1,10.69,1.82l1.14.27c9.46,2.18,29.25,5.89,32.3,6.34-2-4.32-3.77-8.72-5-12.13s-2.23-6.8-3.2-10.15c-1-3.59-2.12-7.28-3.45-10.83a2.37,2.37,0,0,1-1.18.13.24.24,0,0,1-.2-.27.22.22,0,0,1,.27-.19,1.76,1.76,0,0,0,1.13-.2.27.27,0,0,1,.2,0,.25.25,0,0,1,.13.14c1.38,3.63,2.48,7.43,3.55,11.09,1,3.35,2,6.81,3.19,10.13,1.27,3.5,3.15,8,5.17,12.47a.25.25,0,0,1,0,.22.27.27,0,0,1-.18.11c-.64,0-22.74-4.07-32.8-6.4l-1.15-.26a59.17,59.17,0,0,0-10.6-1.81,19,19,0,0,0-11.36,2.62A.22.22,0,0,1,109.42,307.45Z"/><path class="cls-1" d="M102.35,307.06a.27.27,0,0,1-.14-.07c-5.19-5.57-12.27-7.91-17.3-8.89-6.75-1.32-13.76-1.07-19.8-.73l-3.12.19a125.42,125.42,0,0,1-16.8.26,8.25,8.25,0,0,1-4.95-1.63.23.23,0,0,1,0-.32c3.51-4.62,7.36-9.23,11.09-13.68s7.28-8.68,10.52-12.94a.21.21,0,0,1,.19-.09,7.84,7.84,0,0,0,1.83-.14.23.23,0,0,1,.17.43,7.27,7.27,0,0,1-1.89.18c-3.23,4.23-6.74,8.43-10.46,12.87S44.18,291.42,40.71,296a8,8,0,0,0,4.51,1.39A126.37,126.37,0,0,0,62,297.09l3.12-.19c6.07-.34,13.11-.59,19.91.74,5.09,1,12.27,3.37,17.55,9a.24.24,0,0,1,0,.33A.24.24,0,0,1,102.35,307.06Z"/><path class="cls-1" d="M107.39,307a.24.24,0,0,1-.13-.41,25.87,25.87,0,0,1,19.24-6.68c5.18.4,10.11,2.4,14.88,4.32l1.55.62c6.15,2.46,12.76,4.76,19.45,5a259.72,259.72,0,0,1-10.72-31.13,4,4,0,0,1-1.86,0,.23.23,0,0,1-.17-.28.24.24,0,0,1,.29-.17,3.59,3.59,0,0,0,1.84,0,.22.22,0,0,1,.18,0,.19.19,0,0,1,.11.14A258.78,258.78,0,0,0,163,310.05a.24.24,0,0,1-.22.33c-6.88-.21-13.67-2.56-20-5.08l-1.56-.63c-4.73-1.91-9.62-3.88-14.74-4.28A25.35,25.35,0,0,0,107.58,307,.23.23,0,0,1,107.39,307Z"/><path class="cls-1" d="M103.61,306.81a.22.22,0,0,1-.16-.09,33.35,33.35,0,0,0-16.53-11.33,45.4,45.4,0,0,0-20.19-1.34c-1.38.21-2.81.46-4.19.7-6.55,1.15-13.33,2.33-19.63-.16a.25.25,0,0,1-.14-.16.23.23,0,0,1,0-.21c1.55-1.85,3.62-4.27,5.82-6.83,6.17-7.21,13.86-16.18,16-19.6a.2.2,0,0,1,.18-.11,4.07,4.07,0,0,1,.7,0,1.8,1.8,0,0,0,1.22-.17.23.23,0,0,1,.32.07.23.23,0,0,1-.06.32,2.23,2.23,0,0,1-1.52.25l-.51,0c-2.22,3.53-9.82,12.41-15.95,19.56-2.09,2.44-4.08,4.75-5.6,6.57,6.09,2.29,12.69,1.14,19.06,0,1.39-.24,2.83-.5,4.21-.7a45.75,45.75,0,0,1,20.4,1.35,33.78,33.78,0,0,1,16.76,11.5.24.24,0,0,1,0,.33A.21.21,0,0,1,103.61,306.81Z"/><path class="cls-1" d="M33.88,242.15a.24.24,0,0,1-.24-.23l-.19-5.79a.22.22,0,0,1,.22-.24.23.23,0,0,1,.24.22l.2,5.79a.25.25,0,0,1-.23.25Z"/><path class="cls-1" d="M33.81,251.47a.24.24,0,0,1-.24-.24l0-5.39a.23.23,0,0,1,.23-.24h0a.23.23,0,0,1,.23.23l0,5.4a.24.24,0,0,1-.23.24Z"/><path class="cls-1" d="M31.48,243.74h0a28.06,28.06,0,0,0-3.89-.05.22.22,0,0,1-.24-.22.24.24,0,0,1,.22-.25,30.5,30.5,0,0,1,3.94.05.25.25,0,0,1,.22.26A.23.23,0,0,1,31.48,243.74Z"/><path class="cls-1" d="M38,243.69c-.55,0-1.09,0-1.63,0a.22.22,0,0,1-.22-.24.23.23,0,0,1,.23-.23h0c1.12.05,2.26,0,3.38,0a.23.23,0,0,1,.25.22.23.23,0,0,1-.23.24C39.15,243.67,38.55,243.69,38,243.69Z"/><path class="cls-1" d="M302.76,242.47a.23.23,0,0,1-.23-.23l-.2-5.79a.23.23,0,0,1,.23-.24.24.24,0,0,1,.24.23l.2,5.78a.25.25,0,0,1-.23.25Z"/><path class="cls-1" d="M302.69,251.79a.23.23,0,0,1-.23-.24l0-5.39a.23.23,0,0,1,.23-.24h0a.24.24,0,0,1,.24.23l.05,5.4a.24.24,0,0,1-.24.24Z"/><path class="cls-1" d="M300.37,244.06h0a29.56,29.56,0,0,0-3.88-.05.23.23,0,0,1-.25-.22.22.22,0,0,1,.22-.24,27.42,27.42,0,0,1,3.95,0,.23.23,0,0,1,0,.46Z"/><path class="cls-1" d="M306.83,244c-.54,0-1.09,0-1.63,0a.23.23,0,1,1,0-.46h0c1.12.05,2.25,0,3.38,0a.22.22,0,0,1,.24.22.24.24,0,0,1-.22.25C308,244,307.43,244,306.83,244Z"/><path class="cls-1" d="M233.27,74.29a.28.28,0,0,1-.24-.14,4.79,4.79,0,0,1-.52-2.55,10.69,10.69,0,0,0-.08-1.27c-.33-2.07-2.38-3.7-4.89-3.88a.29.29,0,0,1,0-.57,5.55,5.55,0,0,0,4.11-3.78A11.07,11.07,0,0,0,232,60a10.74,10.74,0,0,1,.41-2.44.32.32,0,0,1,.32-.2.28.28,0,0,1,.24.27,14.16,14.16,0,0,0,.91,5.05,4.68,4.68,0,0,0,3.49,2.89l.23,0a.29.29,0,0,1,.25.31.28.28,0,0,1-.3.26l-.23,0a3.94,3.94,0,0,0-3.48,2.73,11.81,11.81,0,0,0-.24,5.15.3.3,0,0,1-.19.3Zm-4.48-8.22a5.5,5.5,0,0,1,4.14,3.85,7.18,7.18,0,0,1,.33-1.29,5,5,0,0,1,2.75-2.9,5.68,5.68,0,0,1-2.7-2.86,10.64,10.64,0,0,1-.77-3,.37.37,0,0,1,0,.11,11.69,11.69,0,0,1-.36,2.26A6.14,6.14,0,0,1,228.79,66.07Z"/><path class="cls-1" d="M202.63,359.93a.3.3,0,0,1-.25-.13,4.9,4.9,0,0,1-.52-2.55,8.84,8.84,0,0,0-.08-1.27,5.1,5.1,0,0,0-4.88-3.89.28.28,0,0,1-.27-.26.28.28,0,0,1,.23-.3,5.58,5.58,0,0,0,4.12-3.78,11.06,11.06,0,0,0,.33-2.15,10.4,10.4,0,0,1,.42-2.45A.28.28,0,0,1,202,343a.3.3,0,0,1,.25.27,13.93,13.93,0,0,0,.9,5,4.69,4.69,0,0,0,3.49,2.89h.23a.3.3,0,0,1,.25.31.28.28,0,0,1-.3.27l-.23,0a3.93,3.93,0,0,0-3.47,2.73,11.81,11.81,0,0,0-.25,5.15.29.29,0,0,1-.19.3Zm-4.49-8.21a5.53,5.53,0,0,1,4.15,3.85,6.43,6.43,0,0,1,.33-1.29,4.92,4.92,0,0,1,2.74-2.9,5.77,5.77,0,0,1-2.7-2.86,10.73,10.73,0,0,1-.77-3,.41.41,0,0,1,0,.11,11,11,0,0,1-.35,2.26A6.19,6.19,0,0,1,198.14,351.72Z"/><path class="cls-1" d="M260.83,42.11a2.67,2.67,0,0,1,.85,1.52,3.9,3.9,0,0,1-.67,3,9.41,9.41,0,0,1-4.35,2.77.2.2,0,0,1-.27-.11.2.2,0,0,1,.12-.26,9.32,9.32,0,0,0,4.18-2.64,3.62,3.62,0,0,0,.6-2.71,2.22,2.22,0,0,0-1-1.51.2.2,0,1,1,.21-.35A2.88,2.88,0,0,1,260.83,42.11Z"/><path class="cls-1" d="M274.61,51.54a.2.2,0,0,1-.18.35c-4.5-1.1-9-2.34-13.46-3.69a.2.2,0,0,1-.13-.25.19.19,0,0,1,.25-.13c4.43,1.34,8.94,2.58,13.43,3.67A.26.26,0,0,1,274.61,51.54Z"/><path class="cls-1" d="M314.23,56.1a.73.73,0,0,1,.14.16A91,91,0,0,0,324,67.89a230.86,230.86,0,0,0,21.35,19.78c1.9,1.4,1.64,3.46,1.43,5.11l0,.17c-1.57,12.48,2.45,25.06,6.33,37.22l.05.16a.82.82,0,0,1-1,1,42.18,42.18,0,0,1-7.18-2.44.82.82,0,1,1,.67-1.49,40.55,40.55,0,0,0,5.47,2c-3.8-11.94-7.56-24.26-6-36.67l0-.18c.21-1.71.29-2.8-.82-3.62A233.6,233.6,0,0,1,322.86,69a94,94,0,0,1-9.63-11.54,180.17,180.17,0,0,1-53-15.08.83.83,0,0,1-.4-1.08.81.81,0,0,1,1.08-.4,178.25,178.25,0,0,0,52.89,15A.78.78,0,0,1,314.23,56.1Z"/><path class="cls-1" d="M342.82,86.77a.2.2,0,0,1,.07.18,9.76,9.76,0,0,0,1.59,6.64,2.7,2.7,0,0,0,.89.89.2.2,0,0,1,.09.27.21.21,0,0,1-.28.09,3,3,0,0,1-1-1,10.21,10.21,0,0,1-1.67-6.92.21.21,0,0,1,.23-.18A.22.22,0,0,1,342.82,86.77Z"/><path class="cls-1" d="M343.32,91.37a.47.47,0,0,1,.06.09.22.22,0,0,1-.05.21c-7.54,7.34-10.73,18-13.06,28.31a72.63,72.63,0,0,0-2.16,16.35.22.22,0,0,1-.09.17.21.21,0,0,1-.19,0c-18.08-7.59-37.65-15-58.3-17.85a.2.2,0,0,1-.18-.16,34,34,0,0,1,2.22-19.88c2.11-5.12,5.68-12.28,10.73-17.53-13-7.28-21.91-18.28-25.83-31.84a.19.19,0,0,1,0-.19.18.18,0,0,1,.19-.06l50.42,12.32a.19.19,0,0,1,.14.12,52.31,52.31,0,0,0,20.31,25.24c4.54,3,9.77,3.84,15.63,4.64A.21.21,0,0,1,343.32,91.37ZM327.7,136a74.29,74.29,0,0,1,2.18-16.13c2.31-10.29,5.47-20.82,12.87-28.22C337,90.89,331.86,90,327.36,87A52.61,52.61,0,0,1,306.93,61.7L257,49.49c4,13.37,12.87,24.22,25.77,31.39a.16.16,0,0,1,.1.14.23.23,0,0,1-.05.18c-5.11,5.21-8.71,12.44-10.83,17.58a33.61,33.61,0,0,0-2.23,19.51C290.26,121.13,309.72,128.48,327.7,136Z"/><path class="cls-1" d="M313.66,57.22a.21.21,0,0,1,.06.17,4.42,4.42,0,0,1-2.61,3.37,9.42,9.42,0,0,1-4,1,.2.2,0,0,1-.2-.2.19.19,0,0,1,.19-.21,9.1,9.1,0,0,0,3.86-.92,4,4,0,0,0,2.39-3,.2.2,0,0,1,.22-.18A.22.22,0,0,1,313.66,57.22Z"/><path class="cls-1" d="M344,93a.23.23,0,0,1,.06.22,83.2,83.2,0,0,0-2.86,42.25.23.23,0,0,1-.08.2.2.2,0,0,1-.21,0,76.61,76.61,0,0,0-12.39-5,.2.2,0,0,1,.12-.39,77.08,77.08,0,0,1,12.08,4.88,83.74,83.74,0,0,1,2.95-42,.2.2,0,0,1,.26-.12A.15.15,0,0,1,344,93Z"/><path class="cls-1" d="M344.56,93.9a.2.2,0,0,1,.07.18,101.43,101.43,0,0,0-1.29,18.16c.11,3.68.53,7.5.87,10.58.39,3.56.84,7.61,2.37,11.25a.2.2,0,0,1-.05.22.19.19,0,0,1-.22,0A62.42,62.42,0,0,0,340.4,132a.2.2,0,0,1-.12-.26.21.21,0,0,1,.25-.13c1.85.62,3.69,1.34,5.48,2.13a42,42,0,0,1-2.2-10.89c-.34-3.08-.76-6.91-.88-10.61A104.13,104.13,0,0,1,344.22,94a.21.21,0,0,1,.24-.17A.16.16,0,0,1,344.56,93.9Z"/><path class="cls-1" d="M343.32,91.37a.24.24,0,0,1,.07.17.2.2,0,0,1-.21.19,227.85,227.85,0,0,1-60.61-10.48.22.22,0,0,1-.13-.26.21.21,0,0,1,.25-.13,227.51,227.51,0,0,0,60.5,10.47A.28.28,0,0,1,343.32,91.37Z"/><path class="cls-1" d="M342,89.83a.2.2,0,0,1-.19.35,54.32,54.32,0,0,1-25.43-16.86.2.2,0,1,1,.31-.26A53.91,53.91,0,0,0,341.9,89.79Z"/><path class="cls-1" d="M310,61.12l.06.08a33.34,33.34,0,0,0,4.36,8.34.19.19,0,0,1,0,.28.2.2,0,0,1-.29,0,33.92,33.92,0,0,1-4.42-8.43.2.2,0,0,1,.13-.26A.21.21,0,0,1,310,61.12Z"/><path class="cls-1" d="M308.34,59.7a.2.2,0,0,1,.07.18.2.2,0,0,1-.23.17c-5.46-.81-24.3-5.42-28.48-6.58a.2.2,0,0,1-.14-.25.2.2,0,0,1,.25-.14c4.18,1.16,23,5.76,28.43,6.57A.19.19,0,0,1,308.34,59.7Z"/><path class="cls-1" d="M311.15,58.26a.2.2,0,0,1,.07.18.2.2,0,0,1-.23.17A217.32,217.32,0,0,1,263,46a.2.2,0,0,1-.11-.26.2.2,0,0,1,.26-.12A216.57,216.57,0,0,0,311,58.21.22.22,0,0,1,311.15,58.26Z"/><path class="cls-1" d="M341.32,88.26a.2.2,0,0,1,.06.23.2.2,0,0,1-.26.12A58.77,58.77,0,0,1,323.73,77.9a.21.21,0,0,1,0-.29.22.22,0,0,1,.29,0h0a58.18,58.18,0,0,0,17.27,10.64Z"/><path class="cls-1" d="M312,61.91l.06.07a28.57,28.57,0,0,0,6.3,9,.22.22,0,0,1,0,.29.21.21,0,0,1-.29,0,29.19,29.19,0,0,1-6.4-9.11.19.19,0,0,1,.11-.26A.18.18,0,0,1,312,61.91Z"/><path class="cls-1" d="M313.63,60.64a.1.1,0,0,1,0,0,75.88,75.88,0,0,0,27.27,25.77.2.2,0,1,1-.2.35A76.33,76.33,0,0,1,313.33,60.9a.21.21,0,0,1,.06-.28A.19.19,0,0,1,313.63,60.64Z"/><path class="cls-1" d="M300.73,65.32a.17.17,0,0,1,.06.1,35.17,35.17,0,0,0,5.81,11.42.21.21,0,0,1,0,.29.2.2,0,0,1-.28,0,35.53,35.53,0,0,1-5.88-11.56.2.2,0,0,1,.14-.25A.21.21,0,0,1,300.73,65.32Z"/><path class="cls-1" d="M313.89,84a.2.2,0,0,1,0,.27.22.22,0,0,1-.29,0A35.68,35.68,0,0,1,309.69,81a.21.21,0,0,1,0-.29.2.2,0,0,1,.29,0,36.88,36.88,0,0,0,3.89,3.3Z"/><path class="cls-1" d="M272.65,60.85a.28.28,0,0,1,.06.08c3.41,8.66,7.79,14.26,13.77,17.62a.21.21,0,0,1,.08.28.21.21,0,0,1-.28.07c-6.07-3.4-10.5-9.07-13.95-17.83a.2.2,0,0,1,.32-.22Z"/><path class="cls-1" d="M280.37,62.37a.12.12,0,0,1,.06.08,49,49,0,0,0,2.17,4.73.21.21,0,0,1-.08.28.21.21,0,0,1-.28-.09,46.64,46.64,0,0,1-2.19-4.78.2.2,0,0,1,.12-.26A.18.18,0,0,1,280.37,62.37Z"/><path class="cls-1" d="M284.67,70.74l0,0c.6.94,1.26,1.87,1.94,2.78a.2.2,0,0,1,0,.28.2.2,0,0,1-.28,0c-.69-.91-1.34-1.85-1.95-2.8a.2.2,0,0,1,.3-.26Z"/><path class="cls-1" d="M294.34,80.5a.2.2,0,0,1,.06.22.2.2,0,0,1-.26.12,14.92,14.92,0,0,1-4.69-3.28.21.21,0,1,1,.3-.28,14.55,14.55,0,0,0,4.52,3.18Z"/><path class="cls-1" d="M290.81,64.83a.23.23,0,0,1,.07.1,25.61,25.61,0,0,0,1.75,4.69.21.21,0,0,1-.1.27.2.2,0,0,1-.27-.09A27.48,27.48,0,0,1,290.48,65a.21.21,0,0,1,.15-.25A.19.19,0,0,1,290.81,64.83Z"/><path class="cls-1" d="M294.65,73.24l0,0c1.63,2.54,4.41,5.06,6.85,7.29.64.58,1.26,1.14,1.84,1.68a.21.21,0,0,1,0,.29.19.19,0,0,1-.28,0l-1.83-1.68c-2.47-2.25-5.26-4.79-6.92-7.37a.21.21,0,0,1,.06-.28A.21.21,0,0,1,294.65,73.24Z"/><path class="cls-1" d="M330.05,95.59a.2.2,0,0,1,0,.27,55.34,55.34,0,0,0-11.46,29.88.21.21,0,0,1-.41,0,55.81,55.81,0,0,1,11.54-30.08.21.21,0,0,1,.29,0Z"/><path class="cls-1" d="M311.55,113.3a.21.21,0,0,1,.07.21,48.41,48.41,0,0,0-1.57,8.2.19.19,0,0,1-.22.18.2.2,0,0,1-.18-.22,49.2,49.2,0,0,1,1.57-8.27.22.22,0,0,1,.26-.14Z"/><path class="cls-1" d="M316.22,102.09a.21.21,0,0,1,0,.26,48.68,48.68,0,0,0-2.81,5.82.21.21,0,0,1-.27.11.21.21,0,0,1-.11-.27,50.19,50.19,0,0,1,2.84-5.86.21.21,0,0,1,.28-.08Z"/><path class="cls-1" d="M320.44,95.81a.2.2,0,0,1,0,.28c-.94,1.2-1.84,2.45-2.67,3.72a.19.19,0,0,1-.28.06.21.21,0,0,1-.06-.28c.84-1.28,1.74-2.55,2.69-3.75a.21.21,0,0,1,.29,0Z"/><path class="cls-1" d="M303.39,108.61a.2.2,0,0,1,.05.23,48.66,48.66,0,0,0-2.94,11,.2.2,0,0,1-.23.17.2.2,0,0,1-.17-.23,48.43,48.43,0,0,1,3-11.08.2.2,0,0,1,.26-.12Z"/><path class="cls-1" d="M311.73,94.83a.2.2,0,0,1,0,.28,48.14,48.14,0,0,0-6.53,9.79.21.21,0,0,1-.28.09.2.2,0,0,1-.09-.27,48.68,48.68,0,0,1,6.59-9.87.2.2,0,0,1,.29,0Z"/><path class="cls-1" d="M278.84,101.3a.21.21,0,0,1,.05.25,28.71,28.71,0,0,0-3.12,11.08.21.21,0,0,1-.22.19.2.2,0,0,1-.19-.22,29.1,29.1,0,0,1,3.17-11.23.2.2,0,0,1,.27-.1Z"/><path class="cls-1" d="M288.54,88.27h0a.21.21,0,0,1,0,.29,60.45,60.45,0,0,0-6.66,7.94.2.2,0,0,1-.33-.23,61.25,61.25,0,0,1,6.7-8A.2.2,0,0,1,288.54,88.27Z"/><path class="cls-1" d="M296.83,91h0a.21.21,0,0,1,0,.29A48.43,48.43,0,0,0,284,113.44a.2.2,0,0,1-.25.14.2.2,0,0,1-.15-.24A48.85,48.85,0,0,1,296.56,91,.2.2,0,0,1,296.83,91Z"/><path class="cls-1" d="M293.68,111.13a.2.2,0,0,1,.06.21,42.26,42.26,0,0,0-1.07,5,.2.2,0,0,1-.23.17.19.19,0,0,1-.17-.23,43.1,43.1,0,0,1,1.08-5.09.2.2,0,0,1,.25-.14A.12.12,0,0,1,293.68,111.13Z"/><path class="cls-1" d="M304.54,92.27h0a.21.21,0,0,1,0,.29,43.32,43.32,0,0,0-9.92,16,.21.21,0,0,1-.39-.13,43.89,43.89,0,0,1,10-16.11A.21.21,0,0,1,304.54,92.27Z"/></g></g></svg>