<svg xmlns="http://www.w3.org/2000/svg" viewBox="0 0 345.69 426.21"><defs><style>.cls-1{fill:#e0e0e0;}.cls-2,.cls-8,.cls-9{opacity:0.3;}.cls-15,.cls-3,.cls-6,.cls-8{fill:#fff;}.cls-4{fill:#ebebeb;}.cls-5{fill:#a42cd6;}.cls-6{opacity:0.7;}.cls-12,.cls-14,.cls-15,.cls-6,.cls-8,.cls-9{isolation:isolate;}.cls-7{fill:#263238;}.cls-10{fill:#bf5e60;}.cls-11{fill:#a74145;}.cls-12{opacity:0.4;}.cls-13,.cls-14{opacity:0.2;}.cls-15{opacity:0.8;}</style></defs><title>Asset 1</title><g id="Layer_2" data-name="Layer 2"><g id="Layer_1-2" data-name="Layer 1"><g id="freepik--background-complete--inject-114"><path class="cls-1" d="M34.44,224.66c11.09-5.35,17.72-15,17.7-27.3s-5.84-25-17-30.28c-5.68-2.72-12.34-3.75-18.36-1.89-8.55,2.64-14.66,10.9-16.2,19.72a35.47,35.47,0,0,0,4.13,24.64c4.39,7.7,12.8,16,25.52,16,0,0-1.49,7.51.53,7.89s2.88-4,2.88-4,5.46,3.57,5.11,1.13c-.52-3.61-4.36-6-4.36-6Z"/><g class="cls-2"><path class="cls-3" d="M10.1,203.4l-4.46,2.38A28.43,28.43,0,0,1,8,173.8s-2.42,9.08-1.67,16A47.32,47.32,0,0,0,10.1,203.4Z"/></g><path class="cls-1" d="M218.13,334.59c10.5,6.42,22.19,6.78,32.53.1S268.5,316.27,267,304.05c-.79-6.24-3.53-12.4-8.35-16.46-6.84-5.76-17.1-6.42-25.35-2.94a35.42,35.42,0,0,0-18.49,16.79c-4.09,7.87-6.56,19.46.34,30.14,0,0-7.12,2.81-6.34,4.71s4.88.29,4.88.29,0,6.52,1.82,4.9c2.75-2.38,2.67-6.89,2.67-6.89Z"/><g class="cls-2"><path class="cls-3" d="M222.83,302.61l-4.42-2.46a28.43,28.43,0,0,1,28.18-15.31s-8.94,2.88-14.33,7.23a47.33,47.33,0,0,0-9.43,10.54Z"/></g><path class="cls-4" d="M277.75,198.76c-9.65,4.11-15.69,12-16.17,22.52s4,21.5,13.21,26.47c4.72,2.54,10.35,3.68,15.55,2.34,7.39-1.9,12.92-8.69,14.59-16.13a30.19,30.19,0,0,0-2.52-21.14c-3.43-6.73-10.25-14.18-21.08-14.67,0,0,1.58-6.34-.13-6.73s-2.61,3.24-2.61,3.24-4.5-3.26-4.3-1.17c.29,3.1,3.46,5.27,3.46,5.27Z"/><g class="cls-2"><path class="cls-3" d="M297.61,217.84l3.9-1.85a24.23,24.23,0,0,1-3.32,27.13s2.43-7.63,2.07-13.52a40.24,40.24,0,0,0-2.65-11.76Z"/></g><path class="cls-4" d="M133,49.93c8.76-5.78,13.26-14.67,11.84-25.06S137,4.44,127.06,1.22c-5.11-1.65-10.85-1.76-15.72.5-6.93,3.2-11.14,10.88-11.44,18.5a30.19,30.19,0,0,0,6.29,20.34c4.59,6,12.64,12.09,23.38,10.62,0,0-.41,6.52,1.34,6.6s2-3.66,2-3.66,5,2.39,4.44.37c-.85-3-4.36-4.56-4.36-4.56Z"/><g class="cls-2"><path class="cls-3" d="M110,34.75l-3.49,2.53A24.21,24.21,0,0,1,104.87,10s-1,7.94.41,13.68A40.1,40.1,0,0,0,110,34.75Z"/></g><path class="cls-1" d="M264.05,100.51c10.79,6.18,22.6,6.2,32.85-.84s17.47-19.13,15.56-31.42c-1-6.29-3.93-12.42-8.91-16.38-7.09-5.62-17.46-6-25.69-2.23a35.71,35.71,0,0,0-18.17,17.5c-3.91,8.06-6.07,19.83,1.22,30.42,0,0-7.12,3-6.27,4.94s4.94.15,4.94.15.14,6.58,2,4.9c2.71-2.49,2.5-7,2.5-7Z"/><g class="cls-2"><path class="cls-3" d="M267.86,68.08l-4.53-2.36a28.72,28.72,0,0,1,28-16.27s-8.95,3.16-14.26,7.72A47.79,47.79,0,0,0,267.86,68.08Z"/></g></g><g id="freepik--Confetti--inject-114"><path class="cls-5" d="M110.52,56.12l1,3.25s-3.32-1-4.59,3.42l-1.88-3S106.74,56,110.52,56.12Z"/><path class="cls-5" d="M86.61,164.54l.28-2.34s1.81,1.58,3.85-.9l.36,2.44s-2.13,1.93-4.49.8Z"/><path class="cls-5" d="M43.78,30.05l.28-2.34s1.81,1.58,3.86-.9l.35,2.44s-2.13,1.93-4.49.8Z"/><path class="cls-5" d="M16.33,90.66l3-1.59s-.4,3.46,4.23,3.85L21,95.35S16.92,94.4,16.33,90.66Z"/><path class="cls-6" d="M16.33,90.66l3-1.59s-.4,3.46,4.23,3.85L21,95.35S16.92,94.4,16.33,90.66Z"/><path class="cls-5" d="M152.7,51.42l3-1.59s-.39,3.46,4.24,3.85l-2.61,2.43s-4-1-4.64-4.69Z"/><path class="cls-6" d="M152.7,51.42l3-1.59s-.39,3.46,4.24,3.85l-2.61,2.43s-4-1-4.64-4.69Z"/><path class="cls-5" d="M264.5,154.47l1,3.26s-3.31-1-4.59,3.42l-1.88-3s1.71-3.79,5.49-3.65Z"/><path class="cls-5" d="M301.06,293.63l-.3-3.39s3,1.7,5.19-2.41l1.23,3.34s-2.44,3.36-6.12,2.46Z"/><path class="cls-5" d="M324.22,99.81l-.3-3.39s3,1.7,5.18-2.41l1.23,3.34s-2.44,3.36-6.11,2.46Z"/><path class="cls-5" d="M3.89,249.12l-.31-3.4s3,1.71,5.19-2.41L10,246.65S7.56,250,3.88,249.12Z"/><path class="cls-5" d="M26.37,380.14l-.3-3.39s3,1.7,5.19-2.42l1.23,3.34s-2.44,3.37-6.12,2.47Z"/><path class="cls-5" d="M297.27,38.72l.28-2.34s1.81,1.58,3.85-.9l.36,2.44s-2.13,1.93-4.49.8Z"/><path class="cls-5" d="M226.59,67.49l.28-2.34s1.81,1.58,3.85-.9l.36,2.44s-2.13,1.93-4.49.8Z"/><path class="cls-5" d="M335.07,193.23l3-1.59s-.4,3.46,4.23,3.85l-2.6,2.43s-4-.95-4.64-4.69Z"/><path class="cls-6" d="M335.07,193.23l3-1.59s-.4,3.46,4.23,3.85l-2.6,2.43s-4-.95-4.64-4.69Z"/><path class="cls-5" d="M219.59,239.11l3-1.59s-.4,3.45,4.24,3.85l-2.61,2.42s-4-.95-4.64-4.68Z"/><path class="cls-6" d="M219.59,239.11l3-1.59s-.4,3.45,4.24,3.85l-2.61,2.42s-4-.95-4.64-4.68Z"/><path class="cls-5" d="M338.44,344.51l3-1.59s-.4,3.46,4.24,3.85l-2.61,2.43s-4.05-.95-4.64-4.69Z"/><path class="cls-6" d="M338.44,344.51l3-1.59s-.4,3.46,4.24,3.85l-2.61,2.43s-4.05-.95-4.64-4.69Z"/><path class="cls-5" d="M67.94,291.14l3-1.59s-.39,3.46,4.24,3.85l-2.61,2.43S68.54,294.88,67.94,291.14Z"/><path class="cls-6" d="M67.94,291.14l3-1.59s-.39,3.46,4.24,3.85l-2.61,2.43S68.54,294.88,67.94,291.14Z"/><path class="cls-5" d="M231.24,355.07l1-3.26s2.19,2.7,5.72-.33l-.09,3.56s-3.51,2.22-6.6,0Z"/><path class="cls-6" d="M231.24,355.07l1-3.26s2.19,2.7,5.72-.33l-.09,3.56s-3.51,2.22-6.6,0Z"/><path class="cls-5" d="M161.79,27.07l1-3.26s2.19,2.7,5.71-.33L168.38,27s-3.51,2.23-6.59,0Z"/><path class="cls-6" d="M161.79,27.07l1-3.26s2.19,2.7,5.71-.33L168.38,27s-3.51,2.23-6.59,0Z"/></g><g id="freepik--Character--inject-114"><polygon class="cls-7" points="124 387.03 120.35 413.78 111.63 414.23 108.81 388.43 124 387.03"/><path class="cls-7" d="M104.21,426.21h19.5s.43-.82-.06-3a10.55,10.55,0,0,0-.3-1.12s0,0,0-.06c-.19-.61-.4-1.35-.62-2.15-.89-3.27-1.94-7.53-1.94-7.53s-3.25-7-7-5.22c-3.33,1.53-2.54,5.88-2.54,5.88a8.56,8.56,0,0,1-2.86,4.81c-1.56,1.39-3.11,2.47-3.86,4.21a5.28,5.28,0,0,0-.33,1,.78.78,0,0,1,0,.14,7.9,7.9,0,0,0,.08,3Z"/><path class="cls-8" d="M123.65,423.21c.49,2.18.06,3,.06,3h-19.5a7.9,7.9,0,0,1-.08-3Z"/><path class="cls-5" d="M112,414.1a2.63,2.63,0,0,1,3.52.22c.27.26.68-.15.41-.41a3.22,3.22,0,0,0-4.34-.21c-.29.22.12.63.41.4Z"/><path class="cls-5" d="M111.43,415.93a2.61,2.61,0,0,1,3.52.21c.27.26.68-.14.41-.4a3.22,3.22,0,0,0-4.34-.22c-.29.23.12.63.41.41Z"/><path class="cls-5" d="M110.88,417.6a2.63,2.63,0,0,1,3.52.22c.26.26.67-.15.41-.41a3.22,3.22,0,0,0-4.34-.22c-.29.23.12.63.41.41Z"/><polygon class="cls-7" points="160.61 385.35 164.25 412.11 172.97 412.55 175.8 386.76 160.61 385.35"/><path class="cls-7" d="M180.4,424.53H160.89s-.42-.82.06-3c.08-.34.18-.71.3-1.12,0,0,0,0,0-.06.18-.6.39-1.35.61-2.15.9-3.26,2-7.53,2-7.53s3.24-6.95,7-5.21c3.33,1.52,2.54,5.87,2.54,5.87a8.62,8.62,0,0,0,2.85,4.82c1.56,1.39,3.12,2.47,3.86,4.2a5.5,5.5,0,0,1,.33,1l0,.14A8.33,8.33,0,0,1,180.4,424.53Z"/><path class="cls-8" d="M161,421.53c-.48,2.18-.06,3-.06,3H180.4a8.33,8.33,0,0,0,.08-3Z"/><path class="cls-5" d="M172.62,412.43a2.62,2.62,0,0,0-3.52.22c-.26.26-.67-.15-.41-.41A3.22,3.22,0,0,1,173,412c.29.23-.12.63-.41.41Z"/><path class="cls-5" d="M173.17,414.25a2.63,2.63,0,0,0-3.52.22c-.26.26-.67-.15-.41-.41a3.22,3.22,0,0,1,4.34-.22c.29.23-.12.63-.41.41Z"/><path class="cls-5" d="M173.73,415.93a2.63,2.63,0,0,0-3.53.21c-.26.26-.67-.14-.4-.4a3.2,3.2,0,0,1,4.33-.22c.3.23-.11.63-.4.41Z"/><path class="cls-7" d="M102.88,271.28h0s.85,105.39,3.36,134.33l20.33,1c.77-21.08,6.18-95.37,6.18-95.37,1.09-9.25,2.27-43.6,3.7-57.83,3,17.07,6.67,52.77,7.67,57.52,1.66,7.91,12.49,98.44,12.49,98.44l21.81-2.22s-3.88-87.29-4.34-102c-2.12-67.34-3.81-95.68-3.81-95.68l-24.81,4.29-40.56-2.42S101.48,249.2,102.88,271.28Z"/><path class="cls-8" d="M102.88,271.28h0s.85,105.39,3.36,134.33l20.33,1c.77-21.08,6.18-95.37,6.18-95.37,1.09-9.25,2.27-43.6,3.7-57.83,3,17.07,6.67,52.77,7.67,57.52,1.66,7.91,12.49,98.44,12.49,98.44l21.81-2.22s-3.88-87.29-4.34-102c-2.12-67.34-3.81-95.68-3.81-95.68l-24.81,4.29-40.56-2.42S101.48,249.2,102.88,271.28Z"/><path class="cls-9" d="M147.3,333.77a71.22,71.22,0,0,0,19.54-1.17c9.47-2.13,8.24-2.29,8.24-2.29l-.2-4.75-28.4,3.13.82,5.08Z"/><path class="cls-9" d="M103.67,330.31s17.18,4.94,27.51,3l.28-4-27.86-3.09Z"/><path class="cls-10" d="M73.49,54.27s2.89-7.75,1.94-9.25a6.1,6.1,0,0,0-2.35-2.14s-.29-3.73-2.23-4.29c-1.65-.47-2,1.63-2,1.63s-3.12-1.57-3.63.7a2.44,2.44,0,0,0-3.33,1.57s-2.3.64-2.34,2.58,1.7,9.29,3.89,12.45a2.62,2.62,0,0,0,2.48,1.3s.2,16.81-.26,17.16l10.55-7.82L73.49,54.28Z"/><path class="cls-10" d="M72.79,43c-1.28-.33-2.59-.49-3.86-.82-.47-.12-1.54-.55-2-.36a1.15,1.15,0,0,0-.75,1.55c.34,1.43,2.58,2.73,4.06,2.77a9.58,9.58,0,0,0-2.06,3.54,3.51,3.51,0,0,0,.69,3.22"/><path class="cls-11" d="M68.88,53.12A.27.27,0,0,1,68.7,53a3.74,3.74,0,0,1-.76-3.45,9.92,9.92,0,0,1,1.8-3.28C68.2,46,66.27,44.77,66,43.39a1.39,1.39,0,0,1,.9-1.83,3,3,0,0,1,1.77.24l.37.11c.63.16,1.29.28,1.92.4s1.3.25,1.94.41a.25.25,0,0,1-.12.49c-.63-.16-1.28-.29-1.91-.4s-1.31-.25-1.95-.42c-.11,0-.25-.07-.4-.11A3.29,3.29,0,0,0,67,42c-.61.25-.76.58-.61,1.26.31,1.29,2.41,2.55,3.82,2.58a.25.25,0,0,1,.23.15.27.27,0,0,1,0,.27,9.58,9.58,0,0,0-2,3.43,3.26,3.26,0,0,0,.63,3,.24.24,0,0,1,0,.35.28.28,0,0,1-.17.07Z"/><path class="cls-10" d="M60.31,46.93a4.2,4.2,0,0,0,.38,1.23,1.39,1.39,0,0,0,1,.75,1.6,1.6,0,0,0,1.51-1.18A3.28,3.28,0,0,0,63,45a3.57,3.57,0,0,0,1.17,1.81,2.14,2.14,0,0,0,2.06.34c.67-.28,0-2.65-.17-3.35"/><path class="cls-11" d="M61.81,49.17h-.15a1.61,1.61,0,0,1-1.18-.88,4,4,0,0,1-.41-1.3.24.24,0,0,1,.2-.29.25.25,0,0,1,.29.19A4.11,4.11,0,0,0,60.91,48a1.16,1.16,0,0,0,.81.62c.54.06,1-.46,1.25-1a3,3,0,0,0,.09-1.83,5.75,5.75,0,0,1-.31-.76.25.25,0,0,1,.46-.2,3.48,3.48,0,0,1,.32.77,2.91,2.91,0,0,0,.78,1,1.89,1.89,0,0,0,1.82.31c.29-.12.14-1.6-.32-3a.25.25,0,1,1,.48-.15c.17.54,1,3.26,0,3.66A2.42,2.42,0,0,1,64,47a3.49,3.49,0,0,1-.35-.32,3.5,3.5,0,0,1-.22,1.15,1.94,1.94,0,0,1-1.63,1.35Z"/><path class="cls-7" d="M76,58.91C75.39,60.05,82.09,98,82.09,98l21.12,18.09,9,.11c4.72,2.58-8.2,39.79-9.71,39.79s-38.73-36.92-44.45-44.71c-4.54-6.17-8.24-45.95-8.24-45.95L76,58.91Z"/><polygon class="cls-9" points="101.64 155.41 102.03 149.16 99.98 129.92 95.69 150.03 101.64 155.41"/><polygon class="cls-5" points="116.34 55.05 116.89 53.55 151 50 177.92 75.63 177.38 77.13 116.34 55.05"/><path class="cls-5" d="M116.35,55.05S144,78,144.23,77.81s33.15-.68,33.15-.68L150.61,51.39Z"/><path class="cls-12" d="M116.35,55.05S144,78,144.23,77.81s33.15-.68,33.15-.68L150.61,51.39Z"/><path class="cls-7" d="M121.72,66.16l-.71-.23c.36-1.14.71-2.53,1.08-4,1.08-4.33,2.31-9.24,4.59-10.4a1.2,1.2,0,0,1,1.09,0,1.3,1.3,0,0,1,.7.9l-.74.15a.52.52,0,0,0-.29-.37.44.44,0,0,0-.41,0c-2,1-3.22,5.94-4.22,9.91-.37,1.49-.72,2.88-1.09,4Z"/><path class="cls-7" d="M122.07,67a.91.91,0,1,1-.39-1.23A.92.92,0,0,1,122.07,67Z"/><path class="cls-7" d="M121.05,66.65a4.56,4.56,0,0,0-2,2.74,6.82,6.82,0,0,1-1.69,3,2.47,2.47,0,0,0-.72.72c-.15.3,0,.77.3.82a6.15,6.15,0,0,0,1.64-1.77,15.37,15.37,0,0,1-1.23,3,8.51,8.51,0,0,0,2,.82c.51.14.48,0,.86-.35a2.12,2.12,0,0,0,.45-.75,15,15,0,0,0,.9-8.39"/><polygon class="cls-9" points="165.62 77.43 162.63 71.36 160.41 77.5 165.62 77.43"/><path class="cls-10" d="M145.54,119.75s-6.62,4.26-8.22,4.44c-2.16.24-11.35-8.55-11.35-8.55,5.59-1.79,5.74-9.68,5.67-13.59l18.47-8.71,0,0c-.6,1.32-7.67,10.6-6.88,17.72l2.33,8.64Z"/><g class="cls-13"><path d="M140,107.48c-2.28,2-6,2.81-9.18,2.46.09-.28.18-.7.25-1s.21-1.14.29-1.6.13-1.15.18-1.74c0-.23,0-.19,0-.43v-.49l10-2C142.3,103.39,141.87,105.85,140,107.48Z"/></g><path class="cls-10" d="M155.11,85.6a14.48,14.48,0,0,0-15-19.55c-11.14,1.08-17,15.73-17.56,25.5-.6,10.86,10.54,19.24,20.59,13.71,6.68-3.68,8.31-9.7,12-19.66Z"/><path class="cls-7" d="M140.69,85.28c-.23,1.06-1,1.79-1.68,1.63s-1.06-1.15-.82-2.21,1-1.79,1.68-1.62S140.93,84.23,140.69,85.28Z"/><path class="cls-7" d="M130.16,83.89c-.24,1-1,1.78-1.68,1.62s-1.06-1.15-.83-2.21,1-1.78,1.68-1.62,1.06,1.15.82,2.21Z"/><path class="cls-11" d="M132.92,83s-4.53,4.5-6.08,6.4C128,91,130.69,91,130.69,91Z"/><path class="cls-7" d="M143.44,80.91a.51.51,0,0,1-.48-.18,4,4,0,0,0-3.32-1.58.52.52,0,0,1-.57-.45.51.51,0,0,1,.45-.56,5.11,5.11,0,0,1,4.22,2,.49.49,0,0,1-.3.82Z"/><path class="cls-7" d="M126.89,78.61a.47.47,0,0,1-.22-.2.5.5,0,0,1,.16-.7,5,5,0,0,1,4.58-.46.51.51,0,0,1,.25.68.52.52,0,0,1-.67.25,3.88,3.88,0,0,0-3.63.4.49.49,0,0,1-.47,0Z"/><path class="cls-3" d="M138.08,94.23c.76-2.73-7.33.67-7.33.67s.41,3.21,3.35,3.34C137.65,98.39,138.08,94.23,138.08,94.23Z"/><path class="cls-7" d="M149.84,90.41s5.11-17.3.14-20-7.69,1.85-11.16.63-2.42-3.73-2.42-3.73c-2.55.63-5.5,4.18-8.14,6.77,0,0,4.35-7.44,9.08-8.81,9.21-2.66,18.72.81,21.57,6.73s-.64,14.66-.64,14.66c-3.12,6.61-5.13,10.22-9.48,13.53l1.05-9.79Z"/><path class="cls-10" d="M157,93.44a10.31,10.31,0,0,1-6.36,4.78c-3.55.88-4-2.89-2.9-6.19.95-3,2.66-6.49,6.19-5.89S158.67,90.5,157,93.44Z"/><path class="cls-14" d="M149.59,92.3l-.08,0a.25.25,0,0,1-.16-.32A5.82,5.82,0,0,1,151,89.52a3.68,3.68,0,0,1,2.28-1,2.26,2.26,0,0,1,2.15,1.31.24.24,0,0,1-.14.32A.25.25,0,0,1,155,90a1.73,1.73,0,0,0-1.62-1h0a3.19,3.19,0,0,0-2,.87,5.32,5.32,0,0,0-1.5,2.23.24.24,0,0,1-.23.16Z"/><path class="cls-7" d="M153.51,74.92a8.12,8.12,0,0,0-2-6.21A9.82,9.82,0,0,0,148.85,67c-2.53-1.25-.45-1.45-3.15-2.27L143,64.33a39.76,39.76,0,0,0-8.41,1.2c-3.28,1-6.87,5.2-7.3,5.47s-2.08.06-2.65.16c-1.81.33.36,2.92,2.89,3.17,2.83.27,4-.9,5.87-2.21-1.44,1.69-3.88,2.1-2.53,2.81,3.41.64,7.58,1.9,11.73-.36a4.4,4.4,0,0,0-.44,1.77,1.52,1.52,0,0,0,.94,1.43,1.85,1.85,0,0,0,1.42-.27,11.05,11.05,0,0,0,3.52-3.79c1.07,2.67.95,11,2.42,13.5,5.53-3.41,2.9-10,3-12.29Z"/><path class="cls-5" d="M127.31,71c-.22.28,2.85-9.7,2.85-9.7s.78-6.65,16.6-2.91c0,0,17.83,5.29,15.7,14.42l-2.59,8.64S138.55,57.25,127.31,71Z"/><path class="cls-14" d="M127.31,71c-.22.28,2.85-9.7,2.85-9.7s.78-6.65,16.6-2.91c0,0,17.83,5.29,15.7,14.42l-2.59,8.64S138.55,57.25,127.31,71Z"/><path class="cls-5" d="M160.74,78.56s-9.78-13.32-23.91-14c0,0-7.35-.4-8.92,4.21l-.6,2.26s2.81-5.57,11.61-3.8,21,14.25,21,14.25l.86-2.89Z"/><polygon class="cls-5" points="122.47 117.38 125.1 116.72 129.58 110.74 136.68 115.87 143.17 112.03 146.09 116.2 152.15 116.71 136.8 146.03 122.47 117.38"/><polygon class="cls-15" points="122.47 117.38 125.1 116.72 129.58 110.74 136.68 115.87 143.17 112.03 146.09 116.2 152.15 116.71 136.8 146.03 122.47 117.38"/><path class="cls-14" d="M125.1,116.72l7,6,4.62-6.48L141,121.9l5.08-5.7s-5,7-5.13,7-4.27-6.13-4.27-6.13L132,124.14l-6.91-7.41Z"/><polygon class="cls-5" points="133.18 121.19 135.04 124.53 138.55 124.53 140.26 120.93 137.58 117.45 135.81 117.52 133.18 121.19"/><polygon class="cls-5" points="135.04 124.53 133.18 133.74 138.32 141.63 141.56 133.75 138.55 124.53 135.04 124.53"/><path class="cls-7" d="M111.06,116.2l11.77.57,15.49,24.86,10.52-25.55,24.14,5.3-3.52,51.54L186.4,321.43s-23.55,10.56-46.88,8.64-48.42-5.43-48.42-5.43L102,149.16l9-33Z"/><path d="M99.41,124.53c.75,6.13,2.12,18.48,2.79,24.62L102,149c15.21-.08,47.75-.83,62.19-.47.69-6.39,2.23-19.25,3-25.63-.64,6.41-2,19.27-2.67,25.67-15.28.65-47,.54-62.51.76h-.16v-.15c-.64-6.14-1.9-18.5-2.46-24.65Z"/><path d="M120.5,149.51a20.27,20.27,0,0,1,0,6.41,20.27,20.27,0,0,1,0-6.41Z"/><path d="M125.52,149.28c1.14,21.88,2,46,2.51,67.86-1.14-21.88-2-46-2.51-67.86Z"/><path d="M143.84,148.42c.33,16.27.33,34.17,0,50.44-.33-16.27-.33-34.17,0-50.44Z"/><path d="M148.86,148.19c.95,10.24,1.64,21.53,1.93,31.81-.95-10.24-1.63-21.53-1.93-31.81Z"/><g class="cls-2"><path d="M134.77,322.16C130.25,311,128,282.94,128,270.44c2.76,12.85,10.72,41,19.23,51.17a25.9,25.9,0,0,1-12.49.55"/></g><path class="cls-10" d="M204.82,149.45s-.32-8.25,1.05-9.37a6.15,6.15,0,0,1,2.9-1.3s1.44-3.44,3.44-3.36c1.71.07,1.38,2.16,1.38,2.16s3.45-.52,3.22,1.8a2.42,2.42,0,0,1,2.66,2.52s2,1.32,1.42,3.17-4.52,8.27-7.57,10.58a2.64,2.64,0,0,1-2.76.46s-4.49,13.66-7.39,13.66l-3-14.78,4.69-5.54Z"/><path class="cls-5" d="M210.75,132.05a10.53,10.53,0,0,0,5.56-3.68,2.58,2.58,0,0,0,.71-2.15,2.44,2.44,0,0,0-1.22-1.33,7.79,7.79,0,0,0-2.63-1,2.78,2.78,0,0,0-2.26.4,3.35,3.35,0,0,0-.86,2.29c-.12,1.2-.24,2.4-.37,3.6a2,2,0,0,0,0,.85.67.67,0,0,0,.63.48c.47,0,.61-.66.64-1.13a6.12,6.12,0,0,1,.87-3.09,2.78,2.78,0,0,1,2.77-1.29c.29.06.61.25.61.55a.8.8,0,0,1-.28.51l-4.59,4.74"/><path class="cls-5" d="M204.69,110.43l14.15,43.22-4.57,1.55-13.9-43.54s1.17-1.51,4.32-1.23Z"/><path class="cls-15" d="M204.69,110.43l14.15,43.22-4.57,1.55-13.9-43.54s1.17-1.51,4.32-1.23Z"/><path class="cls-5" d="M211.77,132.06s-1.18,3.13-4.2,2.14l-1.13-3.53s3.78-.19,4.11-2.34l1.22,3.73Z"/><path class="cls-5" d="M208,132a10.55,10.55,0,0,0-6.41-1.85,2.56,2.56,0,0,0-2.1.86,2.5,2.5,0,0,0-.22,1.79,7.54,7.54,0,0,0,1,2.63,2.77,2.77,0,0,0,1.76,1.46,3.38,3.38,0,0,0,2.3-.84l3-2.05a1.82,1.82,0,0,0,.62-.58.66.66,0,0,0,0-.79c-.34-.34-.89,0-1.27.24a6.17,6.17,0,0,1-2.92,1.35,2.78,2.78,0,0,1-2.78-1.28c-.14-.26-.2-.63,0-.82a.83.83,0,0,1,.58-.11l6.59.42"/><path class="cls-10" d="M209,139c1.31.08,2.6.34,3.91.43.49,0,1.63,0,2,.27a1.14,1.14,0,0,1,.23,1.7c-.76,1.26-3.29,1.79-4.7,1.36a9.91,9.91,0,0,1,.85,4,3.52,3.52,0,0,1-1.67,2.83"/><path class="cls-11" d="M209.62,149.8a.27.27,0,0,1-.22-.13.26.26,0,0,1,.1-.34A3.25,3.25,0,0,0,211,146.7a9.45,9.45,0,0,0-.83-3.87.26.26,0,0,1,.3-.35c1.35.42,3.73-.12,4.42-1.25a.9.9,0,0,0-.18-1.38,3.47,3.47,0,0,0-1.43-.2h-.41c-.67,0-1.33-.13-2-.22s-1.29-.17-1.94-.21a.26.26,0,0,1-.23-.27.24.24,0,0,1,.27-.23c.66,0,1.33.13,2,.22s1.29.17,1.94.21h.38a3,3,0,0,1,1.76.33,1.39,1.39,0,0,1,.28,2c-.73,1.2-3,1.8-4.5,1.57a10,10,0,0,1,.68,3.67,3.74,3.74,0,0,1-1.8,3,.21.21,0,0,1-.12,0Z"/><path class="cls-10" d="M219.59,146.6a4.14,4.14,0,0,1-.74,1.05,1.42,1.42,0,0,1-1.18.4,1.63,1.63,0,0,1-1.07-1.59,3.3,3.3,0,0,1,1.06-2.54,3.61,3.61,0,0,1-1.67,1.35,2.11,2.11,0,0,1-2.06-.32c-.55-.47.79-2.53,1.21-3.12"/><path class="cls-11" d="M217.87,148.32a1.07,1.07,0,0,1-.25,0,1.86,1.86,0,0,1-1.27-1.82,3.53,3.53,0,0,1,.15-1.16,2.53,2.53,0,0,1-2.73-.17c-.76-.65.7-2.81,1.17-3.46a.25.25,0,0,1,.4.3c-.88,1.22-1.49,2.57-1.25,2.78a1.9,1.9,0,0,0,1.82.27,3,3,0,0,0,1-.66,3,3,0,0,1,.55-.63.24.24,0,0,1,.33,0,.24.24,0,0,1,0,.33,4,4,0,0,1-.53.62,3,3,0,0,0-.48,1.76c0,.59.34,1.24.87,1.35a1.15,1.15,0,0,0,1-.33,4.08,4.08,0,0,0,.69-1,.25.25,0,0,1,.34-.09.26.26,0,0,1,.1.34,4.28,4.28,0,0,1-.8,1.1,1.72,1.72,0,0,1-1.14.49Z"/><path class="cls-7" d="M172.53,121.22a5.81,5.81,0,0,1,3.47,1.57c1.66,1.52,18.56,38,18.56,38l8-9.92L218,187.63s-11.22,12.61-23.69,13.72S169.08,172,169.08,172l-4.7-23.48,8.15-27.33Z"/><path d="M194.47,160.86a55.14,55.14,0,0,0-2.38,22.35,38.89,38.89,0,0,1,2.38-22.35Z"/><path class="cls-9" d="M166.43,149.16c.17.83,3,23.76,3,23.76s-.34-23.1-1.51-30.23l-1.51,6.47Z"/><path class="cls-5" d="M109.81,116.2S103,231.65,113.28,262.64c0,0,.57-6.39,13.54-9.73a14.63,14.63,0,0,1,9.63.51s-14.42-41-15.95-65.8c-1.28-20.69.66-71.42.66-71.42S116.73,113.21,109.81,116.2Z"/><path class="cls-8" d="M134.75,248.39c0,.08-4.3-2-12.34.64s-10.68,7.67-10.68,7.68a54.85,54.85,0,0,0,1.55,5.93s.57-6.39,13.54-9.73a14.63,14.63,0,0,1,9.63.51s-.65-1.86-1.7-5Z"/><g class="cls-2"><path d="M111.16,187.86a114.85,114.85,0,0,0,11.56,55.52c-9.45-20.71-7.44-38.09-11.56-55.52"/></g><path class="cls-5" d="M152.12,116.32s-6,116,7.51,135.6c0,0-.43-4.32,10.66-3.08,11.48,1.29,10-1.76,11.12-4,1.36-2.68-15.28-46.73-17.26-69.61-2-23.41-1.47-56.33-1.47-56.33s-1.37-3.35-10.56-2.56Z"/><path class="cls-8" d="M181.42,244.82c.21-.43,0-1.9-.59-4.16-7.24,5.55-5,.94-18.08,2.21a21.36,21.36,0,0,0-6.35,1.44,27,27,0,0,0,3.23,7.61s-.43-4.32,10.66-3.08c11.48,1.29,10-1.76,11.13-4Z"/><path class="cls-9" d="M159.19,186.64l11.66,23s-10.64-25.67-12.72-37-3.7-17.32-3.7-17.32L156.16,176a28.81,28.81,0,0,0,3,10.67Z"/><path class="cls-5" d="M175.47,69.46a.39.39,0,0,1-.25-.1l-12.3-11.75a.38.38,0,1,1,.51-.55l12.3,11.75a.38.38,0,0,1,0,.53A.39.39,0,0,1,175.47,69.46Z"/><path class="cls-5" d="M161.81,56.4a.39.39,0,0,1-.26-.1l-1.66-1.6a.37.37,0,0,1,.52-.54l1.66,1.6a.37.37,0,0,1,0,.53.39.39,0,0,1-.27.11Z"/><path class="cls-9" d="M149.54,261.78s22.05,40.76,23.3,42.08,8.65,8.27,8.65,8.27-24.81-43.77-32-50.35Z"/></g></g></g></svg>