<svg xmlns="http://www.w3.org/2000/svg" viewBox="0 0 387.78 296.42"><defs><style>.cls-1{fill:#ebebeb;}.cls-2{fill:#e6e6e6;}.cls-3{fill:#f5f5f5;}.cls-4{fill:#f0f0f0;}.cls-5,.cls-9{fill:#379634;}.cls-6{opacity:0.2;}.cls-10,.cls-11,.cls-12,.cls-14,.cls-6,.cls-7,.cls-9{isolation:isolate;}.cls-11,.cls-14,.cls-15,.cls-7{fill:#fff;}.cls-7{opacity:0.9;}.cls-12,.cls-8{fill:#263238;}.cls-10,.cls-11,.cls-9{opacity:0.3;}.cls-12{opacity:0.4;}.cls-13{fill:#ffc3bd;}.cls-14{opacity:0.8;}.cls-16{fill:#ed847e;}</style></defs><title>boy-reading</title><g id="Layer_2" data-name="Layer 2"><g id="Layer_1-2" data-name="Layer 1"><g id="freepik--background-complete--inject-7"><rect class="cls-1" x="266.42" y="264.1" width="34.23" height="0.25"/><rect class="cls-1" x="75.36" y="263.97" width="56.2" height="0.25"/><rect class="cls-2" x="138.35" y="153.19" width="33.55" height="98.07"/><polygon class="cls-3" points="173.03 251.26 164.08 251.26 164.08 234.34 182.43 234.34 173.03 251.26"/><rect class="cls-3" x="86.96" y="169.58" width="8.63" height="81.68"/><rect class="cls-4" x="91.84" y="169.58" width="7.51" height="81.68"/><rect class="cls-3" x="119.68" y="169.58" width="8.63" height="81.68"/><rect class="cls-4" x="124.55" y="169.58" width="7.51" height="81.68"/></g><g id="freepik--Shadow--inject-7"><ellipse id="freepik--path--inject-7" class="cls-3" cx="193.89" cy="285.1" rx="193.89" ry="11.32"/></g><g id="freepik--Books--inject-7"><path class="cls-5" d="M331.52,285.35H131.58V235.21H331.52a3.88,3.88,0,0,1,3.88,3.88h0v42.38a3.88,3.88,0,0,1-3.88,3.88Z"/><path class="cls-6" d="M331.52,285.35H131.58V235.21H331.52a3.88,3.88,0,0,1,3.88,3.88h0v42.38a3.88,3.88,0,0,1-3.88,3.88Z"/><rect class="cls-6" x="180.6" y="235.21" width="30.59" height="50.14"/><rect class="cls-6" x="224.33" y="235.21" width="15.51" height="50.14"/><path class="cls-5" d="M65.35,235.21h66.22v50.14H65.35a3.91,3.91,0,0,1-3.9-3.9V239.11A3.91,3.91,0,0,1,65.35,235.21Z"/><path class="cls-7" d="M61.45,240.6h57.93a5.09,5.09,0,0,1,5.09,5.09v29.17a5.09,5.09,0,0,1-5.09,5.09H61.45V240.6Z"/><circle class="cls-6" cx="307.38" cy="260.28" r="14.34"/><path class="cls-8" d="M346,235.17H146V198.78H346a3.88,3.88,0,0,1,3.88,3.88h0v28.67A3.88,3.88,0,0,1,346,235.17Z"/><path class="cls-6" d="M346,235.17H146V198.78H346a3.88,3.88,0,0,1,3.88,3.88h0v28.67A3.88,3.88,0,0,1,346,235.17Z"/><path class="cls-8" d="M79.82,198.86H146v36.39H79.82a3.91,3.91,0,0,1-3.9-3.9V202.72A3.9,3.9,0,0,1,79.82,198.86Z"/><path class="cls-7" d="M75.89,204.21h58A5.09,5.09,0,0,1,139,209.3v15.45a5.09,5.09,0,0,1-5.07,5.11h-58V204.21Z"/><rect class="cls-9" x="183.71" y="207.43" width="148.28" height="19.16" rx="4.19"/><rect class="cls-9" x="153.63" y="198.82" width="5.31" height="36.39"/><rect class="cls-9" x="163.32" y="198.82" width="5.31" height="36.39"/><path class="cls-5" d="M323.86,198.82H123.93V161.24H323.86a3.88,3.88,0,0,1,3.88,3.88h0v29.82A3.88,3.88,0,0,1,323.86,198.82Z"/><path class="cls-10" d="M323.86,198.82H123.93V161.24H323.86a3.88,3.88,0,0,1,3.88,3.88h0v29.82A3.88,3.88,0,0,1,323.86,198.82Z"/><rect class="cls-7" x="172.95" y="161.28" width="69.42" height="37.54"/><rect class="cls-7" x="272.19" y="161.28" width="35.2" height="37.54"/><path class="cls-5" d="M57.71,161.28h66.18v37.58H57.71a3.91,3.91,0,0,1-3.9-3.9V165.18A3.91,3.91,0,0,1,57.71,161.28Z"/><path class="cls-7" d="M53.81,166.66h57.93a5.09,5.09,0,0,1,5.09,5.09v16.59a5.09,5.09,0,0,1-5.09,5.09H53.81V166.66Z"/><path class="cls-5" d="M338.32,161.28H138.39v-24.9H338.32a3.88,3.88,0,0,1,3.88,3.88h0V157.4a3.88,3.88,0,0,1-3.88,3.88Z"/><path class="cls-11" d="M338.32,161.28H138.39v-24.9H338.32a3.88,3.88,0,0,1,3.88,3.88h0V157.4a3.88,3.88,0,0,1-3.88,3.88Z"/><path class="cls-6" d="M338.32,161.28H138.39v-24.9H338.32a3.88,3.88,0,0,1,3.88,3.88h0V157.4a3.88,3.88,0,0,1-3.88,3.88Z"/><path class="cls-5" d="M72.17,136.38h66.22v24.9H72.17a3.91,3.91,0,0,1-3.9-3.9v-17.1A3.91,3.91,0,0,1,72.17,136.38Z"/><path class="cls-11" d="M72.17,136.38h66.22v24.9H72.17a3.91,3.91,0,0,1-3.9-3.9v-17.1A3.91,3.91,0,0,1,72.17,136.38Z"/><path class="cls-7" d="M68.27,141.77h57.92a5.09,5.09,0,0,1,5.09,5.09v4a5.09,5.09,0,0,1-5.09,5H68.27V141.77Z"/><rect class="cls-12" x="156.28" y="142.95" width="90.62" height="11.77"/><path class="cls-5" d="M172.79,128.14h28.59v8.25H172.79a.64.64,0,0,1-.64-.64h0v-7A.65.65,0,0,1,172.79,128.14Z"/><path class="cls-6" d="M172.79,128.14h28.59v8.25H172.79a.64.64,0,0,1-.64-.64h0v-7A.65.65,0,0,1,172.79,128.14Z"/><path class="cls-5" d="M212.28,136.4H201.42v-8.25h10.9a.64.64,0,0,1,.64.64h0v7a.64.64,0,0,1-.67.61Z"/><path class="cls-7" d="M212.93,135.51H203.4a.85.85,0,0,1-.84-.84v-4.8a.85.85,0,0,1,.84-.84h9.53v6.48Z"/><path class="cls-8" d="M170.41,122.15H199v6H170.41a.64.64,0,0,1-.64-.64h0V122.8a.64.64,0,0,1,.63-.65Z"/><path class="cls-6" d="M170.41,122.15H199v6H170.41a.64.64,0,0,1-.64-.64h0V122.8a.64.64,0,0,1,.63-.65Z"/><path class="cls-8" d="M209.9,128.15H199v-6h10.9a.64.64,0,0,1,.64.64h0v4.71a.64.64,0,0,1-.63.65Z"/><path class="cls-7" d="M210.55,127.26H201a.85.85,0,0,1-.84-.84v-2.54A.85.85,0,0,1,201,123h9.53v4.22Z"/><path class="cls-5" d="M174.05,116h28.59v6.18H174.05a.64.64,0,0,1-.64-.64v-4.9A.64.64,0,0,1,174.05,116Z"/><path class="cls-10" d="M174.05,116h28.59v6.18H174.05a.64.64,0,0,1-.64-.64v-4.9A.64.64,0,0,1,174.05,116Z"/><path class="cls-5" d="M213.54,122.15h-10.9V116h10.9a.64.64,0,0,1,.64.64h0v4.89a.64.64,0,0,1-.63.65Z"/><path class="cls-7" d="M214.18,121.27h-9.53a.85.85,0,0,1-.84-.84V117.7a.85.85,0,0,1,.84-.84h9.53v4.41Z"/><path class="cls-5" d="M171.67,111.86h28.59V116H171.67a.64.64,0,0,1-.64-.64V112.5A.64.64,0,0,1,171.67,111.86Z"/><path class="cls-11" d="M171.67,111.86h28.59V116H171.67a.64.64,0,0,1-.64-.64V112.5A.64.64,0,0,1,171.67,111.86Z"/><path class="cls-6" d="M171.67,111.86h28.59V116H171.67a.64.64,0,0,1-.64-.64V112.5A.64.64,0,0,1,171.67,111.86Z"/><path class="cls-5" d="M211.17,116h-10.9v-4.1h10.9a.64.64,0,0,1,.64.64h0v2.81a.64.64,0,0,1-.63.65Z"/><path class="cls-11" d="M211.17,116h-10.9v-4.1h10.9a.64.64,0,0,1,.64.64h0v2.81a.64.64,0,0,1-.63.65Z"/><path class="cls-7" d="M211.8,115.09h-9.53a.85.85,0,0,1-.84-.84v-.65a.85.85,0,0,1,.84-.84h9.53v2.32Z"/><path class="cls-8" d="M170.41,105.86H199v6H170.41a.64.64,0,0,1-.64-.64v-4.71a.64.64,0,0,1,.63-.65Z"/><path class="cls-6" d="M170.41,105.86H199v6H170.41a.64.64,0,0,1-.64-.64v-4.71a.64.64,0,0,1,.63-.65Z"/><path class="cls-8" d="M206.27,111.91H199v-6h7.27a.64.64,0,0,1,.64.64v4.71a.64.64,0,0,1-.63.65Z"/><path class="cls-7" d="M206.92,111H201a.85.85,0,0,1-.84-.84v-2.54a.85.85,0,0,1,.84-.84h5.9V111Z"/><path class="cls-5" d="M174.05,99.71h28.59v6.15H174.05a.64.64,0,0,1-.64-.64v-4.9A.65.65,0,0,1,174.05,99.71Z"/><path class="cls-10" d="M174.05,99.71h28.59v6.15H174.05a.64.64,0,0,1-.64-.64v-4.9A.65.65,0,0,1,174.05,99.71Z"/><path class="cls-5" d="M209.91,105.89h-7.27V99.74h7.27a.64.64,0,0,1,.64.64h0v4.89A.63.63,0,0,1,209.91,105.89Z"/><path class="cls-7" d="M210.55,105h-5.9a.85.85,0,0,1-.84-.84v-2.73a.85.85,0,0,1,.84-.84h5.9V105Z"/><path class="cls-5" d="M171.67,95.62h28.59v4.1H171.67a.64.64,0,0,1-.64-.64V96.26A.64.64,0,0,1,171.67,95.62Z"/><path class="cls-11" d="M171.67,95.62h28.59v4.1H171.67a.64.64,0,0,1-.64-.64V96.26A.64.64,0,0,1,171.67,95.62Z"/><path class="cls-6" d="M171.67,95.62h28.59v4.1H171.67a.64.64,0,0,1-.64-.64V96.26A.64.64,0,0,1,171.67,95.62Z"/><path class="cls-5" d="M207.54,99.71h-7.27v-4.1h7.27a.64.64,0,0,1,.64.64h0v2.82a.64.64,0,0,1-.64.64Z"/><path class="cls-11" d="M207.54,99.71h-7.27v-4.1h7.27a.64.64,0,0,1,.64.64h0v2.82a.64.64,0,0,1-.64.64Z"/><path class="cls-7" d="M208.17,98.83h-5.9a.85.85,0,0,1-.84-.84v-.65a.85.85,0,0,1,.84-.84h5.9v2.32Z"/></g><g id="freepik--Character--inject-7"><polygon class="cls-13" points="50.64 205.36 44.04 202.05 49.4 185.65 56 188.96 50.64 205.36"/><path class="cls-8" d="M44.62,199.47l8.1,1.7a.54.54,0,0,1,.44.61l-1,6.49a1.3,1.3,0,0,1-1.53,1c-2.81-.64-4.13-1.09-7.69-1.84-2.19-.46-9.76-2-12.68-3s-1.85-3.87-.52-3.7c6,.74,11.13.07,13.5-1.1A2.12,2.12,0,0,1,44.62,199.47Z"/><polygon class="cls-6" points="56 188.97 49.4 185.66 46.33 195.07 53.24 197.42 56 188.97"/><path class="cls-5" d="M122.89,106.29s-56.59,5.48-61.32,26.09c-6.81,29.61-16,57.75-16,57.75l12.66,2.23c1.94-8.43,16.37-38,23.14-57.93,15.33-2.29,56.31,6.41,62.45-5.25a44.18,44.18,0,0,0,4.89-19.11Z"/><path class="cls-10" d="M122.89,106.29s-56.59,5.48-61.32,26.09c-6.81,29.61-16,57.75-16,57.75l12.66,2.23c1.94-8.43,16.37-38,23.14-57.93,15.33-2.29,56.31,6.41,62.45-5.25a44.18,44.18,0,0,0,4.89-19.11Z"/><polygon class="cls-5" points="58.98 196.84 44.18 191.48 44.89 185.53 60.38 189.61 58.98 196.84"/><path class="cls-5" d="M41.8,200.19a8.94,8.94,0,0,0,2,.14.18.18,0,0,0,.16-.1.19.19,0,0,0,0-.18c-.2-.21-2-2-2.9-1.88a.68.68,0,0,0-.5.4,1,1,0,0,0,0,1A2,2,0,0,0,41.8,200.19Zm1.56-.2c-1.34,0-2.28-.25-2.55-.66a.58.58,0,0,1,0-.62.3.3,0,0,1,.23-.2c.53-.09,1.6.77,2.32,1.48Z"/><path class="cls-5" d="M43.74,200.33h.08a.17.17,0,0,0,.11-.12c0-.08.63-2.13,0-3a.84.84,0,0,0-.67-.38.63.63,0,0,0-.71.38c-.33.75.43,2.48,1.05,3.06Zm-.38-3.13a.54.54,0,0,1,.33.22,3.76,3.76,0,0,1,0,2.39,3.46,3.46,0,0,1-.8-2.45c0-.09.12-.19.37-.17Z"/><path class="cls-13" d="M129,54.48c-.34,3.72-.88,7.22-1.46,10.81s-1.34,7.13-2.27,10.7a76.05,76.05,0,0,1-3.52,10.73,34.45,34.45,0,0,1-2.81,5.47A20.43,20.43,0,0,1,116.82,95a13.93,13.93,0,0,1-3.27,2.7l-.42.24-.23.08a11.53,11.53,0,0,1-6.73.22,20.61,20.61,0,0,1-4.72-1.86,30.68,30.68,0,0,1-3.86-2.5c-.6-.45-1.16-.94-1.72-1.43a22.2,22.2,0,0,1-1.66-1.56l3.14-4.55c1.17.38,2.43.87,3.64,1.23s2.41.75,3.56,1a15.13,15.13,0,0,0,3.14.44c.89,0,1.52-.24,1.36-.31l-.65.32a8.18,8.18,0,0,0,1.65-2.22,29.23,29.23,0,0,0,1.79-4,81.09,81.09,0,0,0,2.67-9.4c.73-3.27,1.36-6.6,1.91-10s1-6.8,1.46-10.06Z"/><path class="cls-8" d="M119.11,49c-6.88,6-6.5,20.6-6.5,20.6l18.18,6.56c3.85-6,5.74-17.46,5.4-22.38C135.66,46.22,127.27,41.86,119.11,49Z"/><path class="cls-6" d="M136.2,54.06c-3.27-1.57-7.74-1.07-12.16,2.79-4,3.49-5.55,9.92-6.13,14.67l12.88,4.64C134.57,70.26,136.46,59.11,136.2,54.06Z"/><polygon class="cls-13" points="24.56 187.88 22.36 180.84 37.66 172.54 39.85 179.58 24.56 187.88"/><path class="cls-8" d="M22.89,180.18l5.54,6.15a.52.52,0,0,1,0,.74h0l-4.6,4.69a1.3,1.3,0,0,1-1.84-.08h0c-1.89-2.17-2.69-3.31-5.13-6-1.5-1.66-6.77-7.15-8.84-9.45s.26-4.28,1.34-3.49c4.86,3.53,9.73,6.36,12.34,6.81A2.2,2.2,0,0,1,22.89,180.18Z"/><polygon class="cls-6" points="39.85 179.58 37.66 172.54 26.5 178.6 31.15 184.31 39.85 179.58"/><path class="cls-5" d="M135.69,108.36s-38.8,5.2-46.8,15.82c-13.93,18.49-58,49-58,49l4,12.89S95,160.74,105.63,139.56c19.62-1.51,51.54,4.95,56.57-7.23,3.35-8.11,1.71-20.22,1.71-20.22Z"/><path class="cls-6" d="M135.69,108.36s-38.8,5.2-46.8,15.82c-13.93,18.49-58,49-58,49l4,12.89S95,160.74,105.63,139.56c19.62-1.51,51.54,4.95,56.57-7.23,3.35-8.11,1.71-20.22,1.71-20.22Z"/><polygon class="cls-5" points="35.67 187.94 27.13 174.17 32.59 169.68 40.81 184.5 35.67 187.94"/><path class="cls-5" d="M20.13,179.1a9.22,9.22,0,0,0,1.51,1.28.17.17,0,0,0,.19,0,.16.16,0,0,0,.08-.17c0-.28-.37-2.79-1.24-3.22a.64.64,0,0,0-.63,0,1,1,0,0,0-.55.78A2,2,0,0,0,20.13,179.1Zm1.38.77c-1.08-.81-1.7-1.55-1.67-2a.62.62,0,0,1,.37-.5.29.29,0,0,1,.31,0c.46.17.82,1.49,1,2.49Z"/><path class="cls-5" d="M21.61,180.36h.07a.12.12,0,0,0,.16,0c.08,0,1.76-1.35,1.8-2.38a.92.92,0,0,0-.31-.71.68.68,0,0,0-.81-.11c-.71.41-1.11,2.26-.95,3.1A.18.18,0,0,0,21.61,180.36Zm1.55-2.75a.5.5,0,0,1,.13.37c0,.62-.88,1.48-1.41,1.93a3.48,3.48,0,0,1,.81-2.43.32.32,0,0,1,.41.07Z"/><path class="cls-13" d="M99.28,87.7,93.4,82l-4.08,8s7.14,3.91,8.93,2.12Z"/><polygon class="cls-13" points="85.59 81.96 84.53 88.52 89.32 89.97 93.4 82.02 85.59 81.96"/><path class="cls-8" d="M163.51,44.06c-.74-2-2.06-3.88-4.15-3.85-.43,0-3,0-3.46.06-2.4.06-5.4.22-8.3.59a146.49,146.49,0,0,0-16.51,2.87c-2.5.68-4.9,1.53-6.82,2.26h-.07a5.37,5.37,0,0,0-3.39,5.53c1,10.57,3.48,39.92,2,55.12l41,5.4c2.46-7.82,3.44-25.73,3.46-40.33C167.35,62.94,166.56,52,163.51,44.06Z"/><path class="cls-6" d="M167.13,64.2l-.81.06-5.2,4.5-5.38,18.53-18.48,3.23c4.49,2.27,17.55,2.73,25.27.68a6.14,6.14,0,0,0,4.52-5.72c.19-4.63.28-9.33.28-13.74C167.33,69.35,167.28,66.8,167.13,64.2Z"/><path class="cls-5" d="M100.78,70.25s3.61-2,10.38-.06a17.47,17.47,0,0,0,11.53-.33l2.53,4.74-23,.8Z"/><path class="cls-14" d="M100.78,70.25s3.61-2,10.38-.06a17.47,17.47,0,0,0,11.53-.33l2.53,4.74-23,.8Z"/><path class="cls-5" d="M100.78,70.25s-.15-1.45-4.52-1.6c-8.79-.29-12.5-2.54-12.5-2.54l-.36,2.27,18.81,7Z"/><path class="cls-14" d="M100.78,70.25s-.15-1.45-4.52-1.6c-8.79-.29-12.5-2.54-12.5-2.54l-.36,2.27,18.81,7Z"/><path class="cls-5" d="M108.17,104,91.89,99.35a1.33,1.33,0,0,1-.86-.87L82.7,68.32a.79.79,0,0,1,.5-1,.85.85,0,0,1,.5,0l15.51,4.43Z"/><path class="cls-5" d="M133.5,105.4l-21.4-1.19L103.19,72l21.7,1.21A1.21,1.21,0,0,1,126,74l8.38,30.32a.78.78,0,0,1-.44,1A.86.86,0,0,1,133.5,105.4Z"/><polygon class="cls-5" points="108.17 103.99 112.1 104.21 103.19 71.95 99.26 71.73 108.17 103.99"/><polygon class="cls-10" points="108.17 103.99 112.1 104.21 103.19 71.95 99.26 71.73 108.17 103.99"/><path class="cls-13" d="M165.52,51.39c.21,1.44.35,2.66.45,4s.17,2.58.23,3.88c.09,2.58.07,5.17-.09,7.77a59.44,59.44,0,0,1-2.89,15.69,7.1,7.1,0,0,1-.3.84,10.3,10.3,0,0,1-.47.94,9.14,9.14,0,0,1-1.12,1.57,10.79,10.79,0,0,1-2.47,2,18,18,0,0,1-4.54,1.92,38.41,38.41,0,0,1-8.12,1.23,74.43,74.43,0,0,1-15.28-.85l.26-5.53a140.39,140.39,0,0,0,14-2,35.1,35.1,0,0,0,6.2-1.77A8.47,8.47,0,0,0,153.46,80c.21-.18.31-.33.29-.35s-.05,0-.08.07a.76.76,0,0,0-.08.11h0a56.42,56.42,0,0,0,1.1-6.45c.21-2.22.36-4.47.39-6.75s0-4.58-.1-6.88c0-1.15-.11-2.3-.2-3.44l-.14-1.71-.15-1.6Z"/><path class="cls-8" d="M165.52,42.55C160.66,38.84,154,39,151.2,48.72c-1.8,6.4-.84,19.28-.84,19.28l19.41-.39C171.94,57.37,170.44,46.31,165.52,42.55Z"/><path class="cls-13" d="M145.69,24.54l-4.08,4.79-5.56,6.53a19.29,19.29,0,0,1,.87,2.56c1,3.46-2.15,4.16-5,5.91,0,0-4.27,5.65,6,4s11.73-7,11.73-7C145,38.2,145.37,30.52,145.69,24.54Z"/><path class="cls-5" d="M141,47.66a24.24,24.24,0,0,1-3.15.69,17.06,17.06,0,0,1-4.16.25l-.24,1.19c-.37.26-.46,1.65,1.88,3.3C137.81,52.58,141.64,50.47,141,47.66Z"/><path class="cls-8" d="M147.83,39.61s-1.94,5.19-9,7.09c1,2.75-.64,5.88-.64,5.88s9.85-3.37,11.9-6.74,1.17-5.34,1.17-5.34A8.55,8.55,0,0,0,147.83,39.61Z"/><path class="cls-8" d="M133.89,52.35s.07-4.3,1.33-5.74c-.66-1.94-.31-3,.71-4.69a8.46,8.46,0,0,0-5.31,3.46C129.27,47.63,130.21,52.41,133.89,52.35Z"/><path class="cls-6" d="M136.05,35.86a19.29,19.29,0,0,1,.87,2.56c2.34-.91,5.13-4.06,5-6.6a11.68,11.68,0,0,0-.35-2.49Z"/><path class="cls-8" d="M122.5,13.06c-1.93,4-.27,13.67,8.88,9.84S125.64,6.49,122.5,13.06Z"/><path class="cls-8" d="M142.58,21.47c-.84,1.75-.12,5.91,3.83,4.26S143.89,18.63,142.58,21.47Z"/><path class="cls-8" d="M143.69,24.27c-1.28,1.46-1.71,5.66,2.55,5.13S145.76,21.86,143.69,24.27Z"/><path class="cls-13" d="M144.69,13.35c1.66,7.75,3,12.18.31,17.29a10.29,10.29,0,0,1-18.24.12c-3.52-6.32-5.65-17.93.87-23.29a10.43,10.43,0,0,1,17.06,5.88Z"/><path class="cls-8" d="M143.31,4.34c-1.58-6.88-10.8-4.49-15.5-.33s-5.91,7.43-9.87,9.89c7.31,1,17.66-1.9,19.6-4.36a7.74,7.74,0,0,0,3.16,6.26,49.89,49.89,0,0,0,0,6.47l3.34-1.7L147.93,19C153.67,9.31,150.28,3.32,143.31,4.34Z"/><path class="cls-15" d="M135,18.68a.26.26,0,0,1-.26-.22.26.26,0,0,1,.2-.31h0l10.84-1.85a.27.27,0,0,1,.31.22.26.26,0,0,1-.21.3h0L135,18.67Z"/><path class="cls-15" d="M133.53,25.11h0c-2,0-4.2-2.15-4.91-4.76a4.42,4.42,0,0,1,.45-3.89,2.42,2.42,0,0,1,2-1h0c2,0,4.21,2.15,4.92,4.76h0a4.51,4.51,0,0,1-.46,3.9A2.39,2.39,0,0,1,133.53,25.11ZM131,16a1.91,1.91,0,0,0-1.55.75,4,4,0,0,0-.36,3.43c.65,2.4,2.63,4.36,4.41,4.37a1.81,1.81,0,0,0,1.56-.75,4,4,0,0,0,.37-3.43C134.8,18,132.82,16,131,16Z"/><path class="cls-15" d="M127.34,21.86a.33.33,0,0,1-.14,0,.25.25,0,0,1-.1-.35v0a2,2,0,0,1,2-.73.28.28,0,0,1,.2.32.27.27,0,0,1-.32.2,1.48,1.48,0,0,0-1.47.49A.24.24,0,0,1,127.34,21.86Z"/><path class="cls-13" d="M149.34,19.28a8.34,8.34,0,0,1-3.29,4.91c-2.17,1.48-3.87-.36-3.78-2.94.08-2.32,1.3-5.88,3.73-6.33S149.89,16.86,149.34,19.28Z"/><path class="cls-8" d="M132.33,19.86c.29.57.22,1.2-.15,1.4s-.9-.1-1.19-.68-.21-1.2.15-1.4S132,19.28,132.33,19.86Z"/><path class="cls-8" d="M126,22.46c.26.59.16,1.21-.22,1.39s-.9-.15-1.15-.74-.15-1.22.23-1.39S125.74,21.86,126,22.46Z"/><path class="cls-8" d="M122.79,18.93a.38.38,0,0,0,.26-.25,3.14,3.14,0,0,1,1.88-2,.38.38,0,0,0,.25-.47.37.37,0,0,0-.44-.26h0a3.86,3.86,0,0,0-2.39,2.54.36.36,0,0,0,.21.46h0A.34.34,0,0,0,122.79,18.93Z"/><path class="cls-15" d="M125.82,27.17h0c-1.82,0-3.83-2-4.48-4.34a4.07,4.07,0,0,1,.42-3.56,2.18,2.18,0,0,1,1.8-.87h0c1.83,0,3.84,2,4.49,4.34h0a4.09,4.09,0,0,1-.42,3.55A2.18,2.18,0,0,1,125.82,27.17Zm-2.28-8.25a1.67,1.67,0,0,0-1.38.68,3.55,3.55,0,0,0-.33,3.09c.59,2.17,2.37,3.94,4,3.95h0a1.72,1.72,0,0,0,1.39-.67,3.62,3.62,0,0,0,.33-3.09h0c-.59-2.17-2.38-3.94-4-4Z"/><path class="cls-16" d="M128.09,21.54a20.3,20.3,0,0,1-.88,5.36,3.12,3.12,0,0,0,2.6-.49Z"/><path class="cls-8" d="M131.11,28.71A5.54,5.54,0,0,0,134.49,26a.19.19,0,0,0-.1-.25h0a.2.2,0,0,0-.25.09,5.27,5.27,0,0,1-3.82,2.68.21.21,0,0,0-.16.22.19.19,0,0,0,.22.15A6,6,0,0,0,131.11,28.71Z"/><path class="cls-8" d="M133.25,15.18a.33.33,0,0,0,.13-.13.38.38,0,0,0-.13-.52,3.63,3.63,0,0,0-3.4-.21.38.38,0,0,0-.17.5h0a.38.38,0,0,0,.51.16,2.87,2.87,0,0,1,2.67.19A.33.33,0,0,0,133.25,15.18Z"/><path class="cls-13" d="M133.16,85.21l-6.27-2.66.21,8s6.21,2.51,7.24-.8Z"/><polygon class="cls-13" points="119.1 84.34 120.48 90.03 127.11 90.52 126.9 82.55 119.1 84.34"/></g></g></g></svg>