<svg xmlns="http://www.w3.org/2000/svg" viewBox="0 0 428.72 424.65"><defs><style>.cls-1{fill:#f0f0f0;}.cls-2{fill:#f5f5f5;}.cls-3{fill:#246eb9;}.cls-4,.cls-5{fill:#fff;}.cls-4{opacity:0.2;}.cls-14,.cls-4,.cls-5{isolation:isolate;}.cls-5{opacity:0.5;}.cls-6{fill:#f28f8f;}.cls-7{fill:#ebebeb;}.cls-8{fill:#e0e0e0;}.cls-9{fill:#ffbda7;}.cls-10{fill:#455a64;}.cls-11{fill:#263238;}.cls-12{fill:#37474f;}.cls-13{fill:#f0997a;}.cls-14{opacity:0.15;}.cls-15{fill:#ffa8a7;}.cls-16{fill:#b16668;}</style></defs><title>Asset 1</title><g id="Layer_2" data-name="Layer 2"><g id="Layer_1-2" data-name="Layer 1"><g id="freepik--Shadows--inject-3"><polygon id="freepik--Shadow--inject-3" class="cls-1" points="203.65 292.87 255.25 322.63 78.55 424.65 26.95 394.88 203.65 292.87"/><ellipse id="freepik--shadow--inject-3-2" data-name="freepik--shadow--inject-3" class="cls-1" cx="289.98" cy="386.22" rx="23.33" ry="13.47"/></g><g id="freepik--Clouds--inject-3"><path id="freepik--Cloud--inject-3" class="cls-2" d="M63.19,50.75a13.25,13.25,0,0,0,18.42.74,13.23,13.23,0,0,0,13.92,1,1.72,1.72,0,0,1,.91-.32,2,2,0,0,1,1.06.59c2.22,1.88,6.24,2.41,9.09,2.11a17,17,0,0,0,4.89-1.31,34,34,0,0,0,4.21-2.72,17.87,17.87,0,0,0,20.34.49A25.34,25.34,0,0,0,146,52c1.68-.24,3.58-.84,4.14-2.37.75-2-1.38-4-3.43-4.81a17.62,17.62,0,0,0-5.66-1.31,6.81,6.81,0,0,0-3.19-6.11,8.25,8.25,0,0,0-8.78.47,18.66,18.66,0,0,0-1.44-6.51,16.46,16.46,0,0,0-8.52-8c-9.44-3.77-18.64-.32-21.72,5.45-4.64-4.25-10.72-3.62-13.64-2.62-5.33,1.85-8.73,4.44-9.52,9.73C71.53,33.62,66.67,34,64,35.45s-5.4,5-5.1,7.91A14.22,14.22,0,0,0,52,44.2c-1.67.67-3.1,2.86-2.67,4.56s2.58,2.73,5.79,3.21A14.68,14.68,0,0,0,63.19,50.75Z"/><path id="freepik--cloud--inject-3-2" data-name="freepik--cloud--inject-3" class="cls-2" d="M293.67,28.24a12.74,12.74,0,0,0,17.74.72,12.74,12.74,0,0,0,13.41,1l.11-.09a1.29,1.29,0,0,1,1.78.36c2.14,1.78,6,2.3,8.76,2a15.74,15.74,0,0,0,4.7-1.26,32.67,32.67,0,0,0,4-2.61,17.23,17.23,0,0,0,19.58.5,24.28,24.28,0,0,0,9.6.6c1.62-.22,3.45-.81,4-2.28.69-1.95-1.31-3.8-3.31-4.63a16.64,16.64,0,0,0-5.46-1.26,6.54,6.54,0,0,0-3.06-5.88,8,8,0,0,0-8.43.4,17.7,17.7,0,0,0-1.39-6.26,15.75,15.75,0,0,0-8.2-7.67c-9.09-3.64-17.92-.31-20.92,5.24C322.1,3,316.26,3.6,313.45,4.6c-5.17,1.78-8.4,4.28-9.17,9.37-2.63-2.18-7.32-1.85-9.9-.42s-5.19,4.79-4.91,7.63a13.66,13.66,0,0,0-6.67.81c-1.63.64-3,2.76-2.56,4.39s2.48,2.63,5.57,3.1A14.1,14.1,0,0,0,293.67,28.24Z"/><path class="cls-2" d="M1.21,96.36c-2,1.24-1.31,2.9.78,3.46a12.47,12.47,0,0,0,7.61-.51,1.11,1.11,0,0,1,.54-.13,1.33,1.33,0,0,1,.51.27,10.48,10.48,0,0,0,6.65,2,15.79,15.79,0,0,0,6.78-1.87,1.13,1.13,0,0,1,.76-.19,1.19,1.19,0,0,1,.44.27c3.84,3.21,9.87,2.9,13.76-.1a1.24,1.24,0,0,1,.82-.38,1.38,1.38,0,0,1,.64.26A15.22,15.22,0,0,0,48,101.75c1.81.08,5.67.17,6.67-1.65a8.47,8.47,0,0,0,9.87-.33,10.51,10.51,0,0,0,7.76.86A3.81,3.81,0,0,0,74,99.79a1.47,1.47,0,0,0,.38-1.64A2.23,2.23,0,0,0,73,97.21a9.58,9.58,0,0,0-3.23-.43,3.9,3.9,0,0,0-1.67-4.31,6,6,0,0,0-5-.63c.3-1.94-1.24-3.82-3.17-4.55a10.18,10.18,0,0,0-6.13,0c-.76-8.48-15-9.4-20-4a9.72,9.72,0,0,0-7.59-.77,9,9,0,0,0-5.56,4.91,7.14,7.14,0,0,0-5.45.6,5.8,5.8,0,0,0-2.91,3.64,5.36,5.36,0,0,0-4.91-.26,4.41,4.41,0,0,0-2.4,4,6.35,6.35,0,0,0-3.35.66Z"/><path class="cls-2" d="M358.45,145.39c-1.94,1.38-1.25,3.22.75,3.84a10.29,10.29,0,0,0,7.3-.57.92.92,0,0,1,.52-.14,1.06,1.06,0,0,1,.49.3,9.15,9.15,0,0,0,6.38,2.21,13.67,13.67,0,0,0,6.48-2.14.43.43,0,0,1,.12-.11.74.74,0,0,1,1,.2c3.69,3.57,9.47,3.24,13.2-.11a1.22,1.22,0,0,1,.79-.43,1.25,1.25,0,0,1,.61.3,13.36,13.36,0,0,0,7.23,2.56c1.74.09,5.47.17,6.4-1.83a7.28,7.28,0,0,0,9.47-.36,8.93,8.93,0,0,0,7.45.95,3.41,3.41,0,0,0,1.58-.94,1.79,1.79,0,0,0,.36-1.82,2.14,2.14,0,0,0-1.32-1,7.94,7.94,0,0,0-3.09-.48,4.76,4.76,0,0,0-1.61-4.8,5.14,5.14,0,0,0-4.79-.7,5.09,5.09,0,0,0-3-5,8.49,8.49,0,0,0-5.88,0c-.72-9.44-14.35-10.44-19.19-4.44a8.24,8.24,0,0,0-7.28-.86,9.16,9.16,0,0,0-5.33,5.46,6,6,0,0,0-5.23.66,6.31,6.31,0,0,0-2.77,4.05,4.52,4.52,0,0,0-4.72-.29,5,5,0,0,0-2.3,4.48,5.44,5.44,0,0,0-3.21.74A3.23,3.23,0,0,0,358.45,145.39Z"/></g><g id="freepik--Characters--inject-3"><g id="freepik--arrow--inject-3"><polygon class="cls-3" points="179.6 359.86 261.36 218.33 278.83 228.42 278.83 129.71 193.35 179.07 210.82 189.15 78.53 418.21 179.6 359.86"/><polygon class="cls-4" points="179.6 359.86 261.36 218.33 278.83 228.42 278.83 129.71 193.35 179.07 210.82 189.15 78.53 418.21 179.6 359.86"/><polygon class="cls-3" points="193.35 179.07 153.46 156.03 238.94 106.68 278.83 129.71 193.35 179.07"/><polygon class="cls-5" points="193.35 179.07 153.46 156.03 238.94 106.68 278.83 129.71 193.35 179.07"/><rect class="cls-3" x="-7.52" y="269.12" width="264.51" height="46.06" transform="translate(-190.65 254.1) rotate(-60)"/></g><g id="freepik--characters--inject-3-2" data-name="freepik--characters--inject-3"><path class="cls-6" d="M226.2,63.45l3.89,19c1,5,1.33,6.85,7,14.62,4.81,6.61,8.16,11.37,8.16,11.37h0a14.75,14.75,0,0,0,.47,2.07,10,10,0,0,0,3.61,3.52c5.76,2,7,2.26,7,2.26l1.93.69c.05,0,1-6.19,1-6.5s.05-.66.1-1,.15-.54.21-.81a.75.75,0,0,0-.25-.45,20.47,20.47,0,0,1-4.43-5.86c-3.45-7.3-10.75-23.13-10.75-23.13s-3.33-18.79-4.91-26c-2.12-9.66-6.24-11.73-9.44-12.43Z"/><path class="cls-7" d="M225.39,63.51s3.15,18.42,4.72,22.57a11.74,11.74,0,0,0,2.76,4.62,11.75,11.75,0,0,1,5.5-6,15.65,15.65,0,0,1,7.74-1.21l-1.74-4.39s-2.6-16.12-4.73-25.67-5.32-11.91-10.38-13.55Z"/><path class="cls-8" d="M230.79,89.44c.78,1.45,1.48,1.42,1.78,2.11a7.65,7.65,0,0,0,1,2,2.14,2.14,0,0,0,1.55.75l-.65-1s.4-3.31,5.46-5.92c3.08-1.58,7.53-.79,7.53-.79l.69,1.31a2.25,2.25,0,0,0-.43-2.81c-.64-.76.34-1.43-1-2.9s-5.64-1.65-9.2-.26C231.89,84,230.1,88.1,230.79,89.44Z"/><g id="freepik--Character--inject-3"><g id="freepik--Bottom--inject-3"><path class="cls-9" d="M288.94,321.72c0-2.74-2.61-16.14-2.61-16.14l15.3-1.81c-.76,8.36-.86,13.12.14,15.71C301.77,319.48,288.82,328.7,288.94,321.72Z"/><path class="cls-10" d="M304.42,324.47c-.4.86-1.58,2.46-2.08,3.28a44.11,44.11,0,0,0-3,5.48c-.62,1.4-1.14,2.83-1.85,4.18a9.47,9.47,0,0,1-2.89,3.48,10.76,10.76,0,0,1-4.06,1.49,28.87,28.87,0,0,1-6.94.48,10.6,10.6,0,0,1-3.32-.38,4.94,4.94,0,0,1-2-2,3.75,3.75,0,0,1,.15-3.49,5.09,5.09,0,0,1,2-1.49,24.93,24.93,0,0,0,4.54-2.18c2.11-1.39,2.95-4.34,3.5-6.72a19.15,19.15,0,0,0,.36-3.54,10.52,10.52,0,0,0,.2-1.37s.33,1.26,1,1.51.45-.67.45-2.1c0-1.88,2-3.56,4.9-4.49a9.09,9.09,0,0,1,5.83-.09c.48.24.56.88.84,1.55a7.22,7.22,0,0,0,1.41,2.56,6,6,0,0,1,1.56,2.78c0,.18-.43.74-.6,1Z"/><path d="M299.84,335.82a18.31,18.31,0,0,1,.49-2.07,9.45,9.45,0,0,1,1.53-2.67c.41-.55.83-1.1,1.27-1.63a23.88,23.88,0,0,0,2.32-3.24c.31-.59.52-1.91.1-2.18,0,0-2.95-.74-6.63,2.26a11.38,11.38,0,0,0-2.41,2.39,14.8,14.8,0,0,0-1.51,3,39.62,39.62,0,0,1-2.63,6.36q-.21.3-.42.63a9.19,9.19,0,0,1-2.15,2.16,14.13,14.13,0,0,1-5.42,2.54,26,26,0,0,0,4.67,0,20.65,20.65,0,0,0,6-1.35,13.83,13.83,0,0,0,2-1,5.71,5.71,0,0,0,2-2.48,11.15,11.15,0,0,0,.64-1.87A4.34,4.34,0,0,0,299.84,335.82Z"/><path class="cls-11" d="M277.77,340.7c0,.56,1.53,1.67,2.59,2a12,12,0,0,0,8.71-.31,9.25,9.25,0,0,0,3.35-2.86c2.08-2.75,2.48-6.06,3.79-9.15a8.74,8.74,0,0,1,3-3.9c3.69-2.59,6.41-2.46,6.41-2.46a2.15,2.15,0,0,0-1.15-1.07c-2.21-.38-5.76,1.51-7.76,4.12a14,14,0,0,0-2.38,5.64,22.81,22.81,0,0,1-1.08,2.89,12.24,12.24,0,0,1-1.71,3.16,9.51,9.51,0,0,1-5,3.18,12,12,0,0,1-5.94,0,4.75,4.75,0,0,1-2.37-1.49,2.84,2.84,0,0,1-.4-.91A4.17,4.17,0,0,0,277.77,340.7Z"/><path class="cls-12" d="M301.17,204.22l-10.5,24.4s-5.44,18-9.34,30.88c-2.82,9.33-2.27,12.3-.91,20.4,2.87,17.18,7.23,33.51,7.23,33.51s.82-2.39,7.14-3.57a17,17,0,0,1,6.59.12s.71-9.17,1.11-19.47c.47-12.3-1.37-18.22-1.37-18.22s9.27-16.58,14.39-25.09a45.16,45.16,0,0,1,4.38-6,38.5,38.5,0,0,0,8.87-24.2Z"/><path class="cls-11" d="M300.82,239.93c5.13-1.76,10.05-7,11.92-12.7l-11.57-23h0l-10.5,24.4s-5.44,18-9.34,30.88c-.46,1.52-.81,2.86-1.1,4.09,4.41-10.92,8.2-16.16,9.46-17.92S295.21,241.87,300.82,239.93Z"/><path class="cls-11" d="M212.86,262.65a9.48,9.48,0,0,0-1.63,6.2c.16,4,3.53,7.14,5.16,8.68s3.26,3.28,3.49,4,.6,2.18,1.29,4a8.27,8.27,0,0,0,3.29,4.5c2.23,1.41,5,2.13,6.87,1.41s2.11-1.78,2.56-3.08Z"/><path class="cls-10" d="M213.34,261.93c-1.9,2.57-2,7.12.82,11.32a40.53,40.53,0,0,0,3.75,4.22,14.39,14.39,0,0,1,3,3.72c.94,1.84,1.23,3.65,2.23,5.42,2.16,3.08,7.09,5,10.43,2.66,1.89-3.1,5-7.54,4.48-9.22-3-3.19-8.58-7.75-11.73-11.58C219.29,259.93,215.72,258.67,213.34,261.93Z"/><path class="cls-9" d="M228.19,270.15c-.88,1.91-2.41,5.35-2.41,5.35.1,1.36,2,4.21,5.88,5.95s5,.66,5,.66,3.39-5,3.46-5.15Z"/><path class="cls-12" d="M319.55,206.83l-32.61-3.19c-1.7,1.82-27.46,15.2-35.34,20.36-8.32,5.45-9.78,9.26-11.86,14.61-3,7.63-12.34,32.63-12.34,32.63s1,2.22,4.48,4.86a13.06,13.06,0,0,0,7.77,2.39s8-10.37,13.66-17.86A32.2,32.2,0,0,0,259,248s6.53-2.43,13.29-4.53a105.79,105.79,0,0,1,16-3.91c12-.52,20.72-5,25.13-13.75A75.74,75.74,0,0,0,319.55,206.83Z"/></g><g id="freepik--Top--inject-3"><path class="cls-9" d="M350.7,193.68c-3.41-7.93-7.36-18.65-10.41-25.14s-5.7-10.42-11.84-10.75L324.89,171l12.53,30.76c.12,5.54.69,24.91-.21,27.24s-3.66,5.36-3.52,8.13a75.91,75.91,0,0,1,.31,8.12c-.23,1.63,1.87.78,2.77-.31s1.11-4.21,1.51-5,1.23-.31,1.66,1.3a7.63,7.63,0,0,1,0,4.44,19.8,19.8,0,0,1-1.28,2.86c-.54,1-1.21,2-1.65,3.06-.75,1.93-.38,3.56,1,2.78.38-.21,1.7-1.07,1.7-1.07a4.22,4.22,0,0,0,.11,1.5c.08.41.61,1,1.08.91a1.35,1.35,0,0,0,.69-.6c1.21-1.74,2.36-3.53,3.45-5.35a24.75,24.75,0,0,0,2.75-5.52,17.67,17.67,0,0,0,.5-4.91c-.07-1.63-.07-3.25-.07-4.87a38,38,0,0,1,.35-7.54c.47-2.72,2.34-12.06,3.53-20.58C352.73,201.79,353.42,200,350.7,193.68Z"/><path class="cls-7" d="M326.32,177.57l10.84,24.25.39,4.07c4,1.77,10.95,1.46,14.71-.72.5-3.38.91-5.84-.27-9.24s-4.38-11.77-8.89-23.06-7.48-14.29-12.67-15.72Z"/><path class="cls-8" d="M353.6,203.16c-.5,1.61-.16,1.66,0,3.66s-1.16,4-7.63,5-9.49-2.36-9.24-3.72a7.25,7.25,0,0,0-.2-3.67c-.4-2,.65-2.39.65-2.39l.14,1.61s2.24,1.34,7.56,1,7.73-2,7.73-2l.14-1.89C354,200.83,354.1,201.55,353.6,203.16Z"/><polygon class="cls-9" points="323.48 150.23 324.08 162.06 308.37 161.72 307.79 150.79 323.48 150.23"/><path class="cls-13" d="M300.16,138.15l-2.73-2c.21-.82,4.08-4.86,5.32-6.2Z"/><path class="cls-9" d="M332.67,130c3.15,4.28-2,12.57-7.36,17.28-4.52,4-11.75,3.69-15,3.69-4.26,0-8-1.16-10.44-3.49-.91-1.69-1.44-7.64.89-13.69.54-1.41,1.15-2,1.23-2.33,2.12-9.54,6.31-12.64,10.8-11.78C315.27,120.11,328.24,123.91,332.67,130Z"/><path class="cls-13" d="M307.81,149.29l.08,2.06c-2.64-.39-7.49-3-8-3.92A34.07,34.07,0,0,0,307.81,149.29Z"/><path class="cls-11" d="M309,124.79c-.28,1-1.2,2.86-.56,3.86,1.08,1.72,4.62,1.27,3,5.27a6.13,6.13,0,0,0-.15,2.76.81.81,0,0,0,.32.54.84.84,0,0,0,1.18-.16,10.89,10.89,0,0,1,1.81-1.78,4.12,4.12,0,0,1,2.89-.72c3.78.61,2.42,5.55.42,7.14-3.3,2.6-4.72,0-4.72,0s-1.75,4.72,1.25,7.82a11.35,11.35,0,0,0,9,.77c2.46-3.33,4.41-4.17,6.84-7,5.77-6.7,4.61-13.64,1.46-15.93C331.78,127.36,312.79,123.78,309,124.79Z"/><path class="cls-11" d="M333,128.71c1.08-3.35-.62-7.06-4.55-9.22-4.58-2.51-7.95-3.89-13.13-4.16-5.47-.28-9.4,2.49-11,.72-.23,1.12-.17,2.08,1.25,2.44-2.53,1-2.59,4.31-.47,4.78a8.56,8.56,0,0,1,1-1.25c.94-.43,3.07,1.85,3,2.71C313.53,127.49,329.25,130.93,333,128.71Z"/><path class="cls-2" d="M333.43,194.57a73.51,73.51,0,0,0-3.18,12.74,98.92,98.92,0,0,0-1.21,11s-.4.75-6.48,2.1-16.88.64-24-2.54c-10.24-4.56-13.95-10.07-14.87-12.15a44.42,44.42,0,0,0,3.39-12.22c.4-3.29.67-7.19,1-11.94.66-9.4,1.35-14.66,3.42-18.34,2-3,1.31-6.84,4.44-5.92s12.47.49,12.47.49c3.21,1.08,13.11.7,15.37-.92v-.81a24.72,24.72,0,0,1,9.16,2c3.83,2,6.1,8.63,5.83,14.3C338.44,179.66,336.59,185.18,333.43,194.57Z"/><path class="cls-8" d="M324.86,157.13a21.33,21.33,0,0,1,7.65,1.83c3.19,1.62,5.56,7.62,5.3,13.36-.33,7.15-2.19,12.71-5.26,21.91l-.07.19a74,74,0,0,0-3.16,12.71c-.82,4.94-1.11,9.21-1.2,10.63a29.37,29.37,0,0,1-5.71,1.66,32.87,32.87,0,0,1-6.71.62,43.33,43.33,0,0,1-16.65-3.1c-9.95-4.44-13.34-9.69-14.16-11.25a46.35,46.35,0,0,0,3.23-12.07c.36-3.06.61-6.68.91-10.88l.08-1.11c.66-9.32,1.28-14.39,3.28-17.89a15.11,15.11,0,0,0,1.52-3.47c.53-1.6.77-2.1,1.25-2.1a1.64,1.64,0,0,1,.53.09,33.52,33.52,0,0,0,8,.63c2.15,0,4-.09,4.61-.09a22.82,22.82,0,0,0,5.89.62c2.89,0,8.29-.37,10.2-1.74l.44-.32v-.23m-1-1.11v.81c-1.41,1-5.76,1.55-9.62,1.55a19.87,19.87,0,0,1-5.75-.63s-2.16.1-4.75.1a35,35,0,0,1-7.72-.59,2.85,2.85,0,0,0-.81-.13c-2.11,0-1.83,3.32-3.63,6.05-2.07,3.68-2.76,8.94-3.42,18.34-.35,4.75-.62,8.65-1,11.94a44.42,44.42,0,0,1-3.39,12.22c.92,2.08,4.63,7.59,14.87,12.15C303.51,220,310.09,221,315.7,221a32.85,32.85,0,0,0,6.92-.65c6.17-1.37,6.48-2.1,6.48-2.1a98.92,98.92,0,0,1,1.21-11,73.51,73.51,0,0,1,3.18-12.74c3.13-9.38,5-14.9,5.31-22.19.27-5.67-2-12.3-5.83-14.3a24.72,24.72,0,0,0-9.16-2Z"/><path class="cls-9" d="M258.19,142.18c-2-8-4.34-16.28-5.28-20.94s-5.79-5.27-8.74-8.1-2.82-4.75-3.95-8.27c-.08-.26-.1-.48-.21-.77a5.86,5.86,0,0,0-.42-.78c-.19-.35-.58-1.14-.78-1.48a1,1,0,0,1-.13-.9c.1-.24.16-.24.28-.24a2.93,2.93,0,0,1,2.63.46,11.75,11.75,0,0,1,2.07,1.59c.64.6,1.18,1.26,1.83,1.84a6.28,6.28,0,0,0,.7.55,4.29,4.29,0,0,0,.79.43c.28.11.52.16.79.27a2.19,2.19,0,0,0,.58.19,8.55,8.55,0,0,0,1.24.27,7.49,7.49,0,0,0,2.22.12c.87-.15,2-.09,2.87-1.09,1.41-1.67-.39-4.91,1.81-6.5s2.39.17,2.59,2.74.85,4.13,1.67,7.67a42.87,42.87,0,0,0,4,11.12c2.49,5,9.32,20,9.32,20s3.31,3.17,6.76,6.08c2.66,2.25,5,3.95,8.22,6.7,3.67,3.17,4.8,3.5,6.8,6.64a19.41,19.41,0,0,1-.72,12.25c-2,5.55-5.94,11.34-7,6.8s-5.32-8.07-11.42-13.63-8.4-7.26-12.55-11.42C260.32,149.92,259.62,147.74,258.19,142.18Z"/><path class="cls-7" d="M258.42,143.84c.43,1.48.73,2.76,1,3.62,1,3.34,4.42,6.87,9.62,11.43s16,14.75,17.29,17.23a27.27,27.27,0,0,1,2,5.78s4.38.27,7.69-5.27,3.06-15.73,1.06-19.14c-2.7-1.15-6.51-3.83-11.23-7.77s-11.59-9.44-11.59-9.44l-.5-.88c-3.83,2.21-7,4.2-11.57,4.43C261,143.89,259.7,143.9,258.42,143.84Z"/><path class="cls-8" d="M273.73,137.14c.41,1.69,1,.81,1.58,2.69s-.66,5.59-6.73,8-10.33,0-10.39-1.38a6.63,6.63,0,0,0-.84-3.49,2,2,0,0,1,.43-2.64l.38,1.5s2.62.8,7.72-.72,6.76-4,6.76-4l-.64-1.4C272.89,135.46,273.32,135.45,273.73,137.14Z"/><path class="cls-7" d="M304.72,157.85c.8-1.74,1.78-4.18,3.18-5L308,154a34.37,34.37,0,0,0,10.89.88c3.53-.44,4.81-1.83,4.81-1.83l-.11-1.32c1.29.51,2.15,4.12,2.15,4.12s1.14,2.39-5.61,3.82c-7.2,1.52-14.3-1.77-14.3-1.77Z"/></g></g><path class="cls-6" d="M249.19,120.68c.34.28.68.57,1,.89s.56,1,.95,1.33c.62.61,1.59.69,2.3,1.2.34.25.6.59.94.84a3.84,3.84,0,0,0,.93.46,2.18,2.18,0,0,0,1.7,0,3.17,3.17,0,0,0,.57-.47l2.08-2.1a1.53,1.53,0,0,0,.29-.38c.25-.55-.57-1-1-1.14a3.72,3.72,0,0,0-1.24-.09c.16-.35-.16-.68-.43-.83-.55-.32-1.14-.49-1.69-.77a4.33,4.33,0,0,0-1.84-.59,6.78,6.78,0,0,0-1.2.11,9.59,9.59,0,0,1-2.92-.46,3.23,3.23,0,0,1-1.51-1.32A11.83,11.83,0,0,0,249.19,120.68Z"/><path class="cls-6" d="M261.18,111.43c-.13-.54-.25-1.09-.36-1.64a7.56,7.56,0,0,1-.15-1.14c.92.72,2.17,1.81,3.09,2.54a6.67,6.67,0,0,1,1.65,1.66,7.31,7.31,0,0,1,.5,1.19,15.67,15.67,0,0,1,.72,2.89,6.91,6.91,0,0,1-.35,2.47c-.22.85-.47,1.7-.76,2.53a.87.87,0,0,1-.36.53c-.63.35-1.3-.56-1.56-1a6.26,6.26,0,0,1-.69-2.13c-.18-1.14-.18-2.31-.47-3.43-.11-.43-.26-.84-.4-1.26A30.42,30.42,0,0,1,261.18,111.43Z"/><g id="freepik--character--inject-3-2" data-name="freepik--character--inject-3"><g id="freepik--bottom--inject-3-2" data-name="freepik--bottom--inject-3"><g id="freepik--Leg--inject-3"><path d="M196.27,135l.7-24.92a5.12,5.12,0,0,0-5.84,2c-1.18,1.67-1.52,3.85-1.07,7.48.26,2.13.7,5,.06,7.08a14.45,14.45,0,0,0-.48,8.36c.69,2.42,2.29,4.27,5.84,5.37a12.69,12.69,0,0,0,9.41-.78,2.71,2.71,0,0,0,1.17-2.26Z"/><path class="cls-11" d="M198.94,123.79a7.46,7.46,0,0,1,.07-8,4.62,4.62,0,0,1,4.87-2.09l.62.29c.1-.35-.11-.93-2.66-2.24-3.67-1.87-4.43-1.92-6.77-1.38-4.28,1-4.6,7.42-4.18,11.11.62,5.49-1.91,9.41-.23,13.6,2.16,5.43,10.27,5.6,13.53,4,4.18-2.06.91-4.74-.34-6.45a8.59,8.59,0,0,1-2.16-6.38Z"/><path class="cls-10" d="M198.2,127.19s16,9.42,25.92,15.41,16.23,7.85,21.66,3.52c3.21-2.56,3.89-7.31,2.65-14.11-2.11-11.52-18.28-44.59-18.28-44.59l-20.74-1.57c-.91,3.89-1.49,11.55.09,17.4s7,15.63,7,15.63l-13.35-6.8s-2.8-.25-4.8,3.44C195.12,121.36,198.2,127.19,198.2,127.19Z"/><path class="cls-12" d="M224.1,142.64a64.42,64.42,0,0,0,7.58,4c.49.22,1,.42,1.49.6.73.27,1.43.5,2.12.69a16,16,0,0,0,2.66.5,6.68,6.68,0,0,0,1.17.07h0a11.73,11.73,0,0,0,1.77-.14,9.24,9.24,0,0,0,1.26-.22,10.87,10.87,0,0,0,1.64-.63,13.4,13.4,0,0,0,2.08-1.34c.2-.16.38-.33.56-.5l.27-.28c.07-.09.12-.13.23-.26s.22-.28.32-.42l.12-.16c.12-.17.23-.36.34-.54a.2.2,0,0,1,0-.09c.11-.21.22-.42.32-.64h0c.1-.24.19-.48.28-.72h0a12.75,12.75,0,0,0,.43-1.58h0a6.69,6.69,0,0,1-5,4.25c-4.3,1.05-10.27-.95-12.86-7.69-3.3-8.59-10-26.12-10-26.12s4.92-5.63,5.92-11.63l-16.72,5.41c.1.26.19.53.3.8v.06c.27.83.62,1.7,1,2.56h0l.24.55h0l.26.57h0c2.1,4.69,4.56,9.13,4.56,9.13h0l-13.35-6.8h0s-2.79-.21-4.79,3.45c-3.19,5.82-.19,11.67-.19,11.67s15.86,9.36,25.92,15.41Z"/><path class="cls-14" d="M228.2,135c-5.25-2.08-11.71-16.08-11.71-16.08l-6.67-3.41-6.68-3.39h0a4.58,4.58,0,0,0-3.3,1.47c2.4,1.57,13.33,8.51,17.28,13.57A24.87,24.87,0,0,0,228.2,135Z"/></g><g id="freepik--Le--inject-3"><path class="cls-11" d="M179.09,145.42l.7-24.91a5.12,5.12,0,0,0-5.84,2c-1.18,1.67-1.52,3.85-1.07,7.48.26,2.13.7,5,.06,7.07a14.48,14.48,0,0,0-.48,8.37c.69,2.42,2.29,4.27,5.84,5.37a12.69,12.69,0,0,0,9.41-.78,2.75,2.75,0,0,0,1.18-2.26Z"/><path class="cls-12" d="M181.78,134.24a7.46,7.46,0,0,1,.07-8,4.65,4.65,0,0,1,4.87-2.08l.62.28c.1-.34-.11-.93-2.66-2.23-3.66-1.88-4.43-1.92-6.76-1.38-4.28,1-4.61,7.42-4.19,11.1.63,5.5-1.91,9.42-.23,13.61,2.17,5.43,10.27,5.6,13.53,4,4.18-2.06.91-4.75-.34-6.45-1.47-1.94-1-4-1-7.27Z"/><path class="cls-10" d="M180.05,137.28s14.22,10,24.16,16,17,6.67,22.42,2.33c3.21-2.53,4.42-7.88,2.71-15-1.87-7.55-10.87-29.91-10.87-29.91a25.9,25.9,0,0,0,10.14-20H185.46c-.73,9.69,1.24,15.83,3.86,22.53,2.22,5.65,8.05,15.2,8.05,15.2l-10-5.52a5.59,5.59,0,0,0-6.71,2.91A13,13,0,0,0,180.05,137.28Z"/><path class="cls-12" d="M209.08,144.52c-5.25-2.09-11.71-16.09-11.71-16.09l-10-5.52h0a5.93,5.93,0,0,0-3.79.14c2.82,1.72,8.31,5.2,14.43,13.62A22.54,22.54,0,0,0,209.08,144.52Z"/></g></g><g id="freepik--top--inject-3-2" data-name="freepik--top--inject-3"><g id="freepik--Chest--inject-3"><path class="cls-2" d="M231.41,76.53c-1.26,6.17-1.26,10.53.34,14.17C222,101.84,192.69,102.09,185.1,97a172,172,0,0,1,1.28-27.32c1.06-8.69,1.22-10.76,3-16.85,2.18-7.5,3.12-9.13,5.89-10.3,8.21-3.47,15.8-5,22.43-4.78a38.37,38.37,0,0,1,11.56,2.15c2.83,2.19,6,5.66,5.46,18.31C234.51,63.21,233.19,67.49,231.41,76.53Z"/><path class="cls-8" d="M216.41,37.76v1h1.21a38.59,38.59,0,0,1,11.1,2c2.73,2.12,5.5,5.46,5,17.39a65.87,65.87,0,0,1-1.86,11.25c-.47,2-.93,4.25-1.47,6.93-1.27,6.29-1.23,10.58.15,14.17-6.11,6.4-19.25,8.69-28.81,8.69-6.82,0-12.69-1.06-15.69-2.78a171.55,171.55,0,0,1,1.29-26.62l.27-2.11c.87-7,1.14-9.1,2.74-14.59,2.22-7.66,3-8.66,5.32-9.66,7.42-3.13,14.41-4.72,20.8-4.72v-1m-.11,0c-6.33,0-13.49,1.55-21.19,4.8-2.77,1.17-3.71,2.8-5.89,10.3-1.74,6.09-1.9,8.16-3,16.85A172,172,0,0,0,185,97c3,2,9.42,3.21,16.67,3.21,11.08,0,24.11-2.76,30-9.49-1.6-3.64-1.6-8-.34-14.17,1.82-9,3.14-13.34,3.35-18.34.54-12.65-2.63-16.12-5.46-18.31a38.37,38.37,0,0,0-11.56-2.15h-1.24Z"/></g><g id="freepik--Head--inject-3"><path class="cls-11" d="M220,23.09c.14-.14,1.08,0,1.27,0h3.2a33.75,33.75,0,0,0,8.09-.38,5.41,5.41,0,0,0,2.23-1.27,5.43,5.43,0,0,0,1.2-2.08,3.08,3.08,0,0,0,3.19-1.5,3.42,3.42,0,0,0,.2-2.88c1.57.43,2.38-.56,2.46-2.07-.59.74-2.12.36-2.59-.76s-.06-1.94,0-3a3.38,3.38,0,0,0-.2-.89,3.25,3.25,0,0,0-4.18-1.9,3.11,3.11,0,0,0-1.59-3.85c-1.65-.84-3.2-1.21-4.65,0-.61-2.47-3.5-3.07-5.5-2-1.16.63-1.66,1.55-3,1.8-.9.16-2.85.21-3.75.32-2.06.26-6.74,1.55-6.68,7.55-1.22.18-2.63,2-3.06,3.54-.72,2.53-.38,4.71.46,7.87s3.33,7.26,3.17,10.63Z"/><path class="cls-15" d="M207.1,18.8c1.48-1.65,4.16-.7,5.06.83s.67,3,1.81,3.27c1.59.4,2-2.08,2.09-3.08,2.89-.8,4.92-3.35,5-7.1,6.86-2.35,13.18-.16,15.49,2.71a13.05,13.05,0,0,1-.47,5.92,9.48,9.48,0,0,0-.44,2.7c-.13,3.6-.84,7.75-2.23,10.47a7.43,7.43,0,0,1-6.3,4.23,12.11,12.11,0,0,1-3.75-.31L223,41A21.09,21.09,0,0,1,222,52.64c-3.49-4.67-5.65-5-8.4-7.75-2.27-2.28-4.12-4.5-4.57-6.18l1.8-11.52a3,3,0,0,1-3.7-.67A5.58,5.58,0,0,1,207.1,18.8Z"/><path class="cls-11" d="M225.16,18A1.38,1.38,0,0,0,223.52,17a1.49,1.49,0,0,0-1.12,1.74l2.78-.61S225.17,18.06,225.16,18Z"/><path class="cls-11" d="M235,19.11l-.06-.05a1.38,1.38,0,0,0-1.94.2l2.13,1.92A1.52,1.52,0,0,0,235,19.11Z"/><path class="cls-6" d="M223.16,40c-7-2-9.65-4.84-10.5-6.84A10.11,10.11,0,0,1,212,27.3a10.49,10.49,0,0,0,1.74,5.36c2,2.72,5.71,4.42,9.65,5.78Z"/><path class="cls-11" d="M225.14,22.12a1.17,1.17,0,0,0-.94-1.37,1.16,1.16,0,0,0-.44,2.28,1.18,1.18,0,0,0,1.38-.89Z"/><path class="cls-16" d="M223.31,29.07a1.66,1.66,0,0,0,.58,2.29,1.8,1.8,0,0,0,2.44-.68l-3-1.64Z"/><path class="cls-6" d="M223.89,31.36a1.63,1.63,0,0,1-.71-1.87,2,2,0,0,1,1.71,2.08A1.73,1.73,0,0,1,223.89,31.36Z"/><path class="cls-11" d="M234.21,23.93a1.2,1.2,0,0,0-.82-1.47,1.17,1.17,0,1,0,.82,1.47Z"/></g><path class="cls-6" d="M227.4,28.68l4-.54A17.6,17.6,0,0,0,228,20Z"/><path class="cls-7" d="M217.26,49.92c-.5,1.7-1,3.7-1,3.7a23.75,23.75,0,0,1-8.61-6.78,28,28,0,0,1-4-7.27s3.7-2.23,4.43-2.76a1.94,1.94,0,0,1,1.27-.46l-.21,1.3c1.19,3.66,6.72,7.61,7.92,8.4s3.53,4.23,4.89,6.59C218.66,49.36,217.89,47.78,217.26,49.92Z"/><path class="cls-7" d="M224,48.11c.31-1.06,1.81.18,2.68,3.76,1.33-5.7-1.36-13.14-1.36-13.14a12.05,12.05,0,0,1-2-.29L223,41A38.92,38.92,0,0,1,222,52.64,21.87,21.87,0,0,0,224,48.11Z"/><path class="cls-15" d="M191.41,60c-3.33-8.15-.65-15.38,5.72-17.73,0,0,5.25.73,8.47,6.89a63.2,63.2,0,0,1,5.19,13.29l6.37,16c1,1.28,6.17,6.14,13.71,14.8,3.31,3.81,6.74,6.94,10.07,7.49s5.62,1,8.41,3a27.33,27.33,0,0,0,2.88,1.67c1,.5,2,1,3,1.5a.94.94,0,0,1,.37.29c.55.83-1.21,2-1.81,2.17a4.7,4.7,0,0,1-1.83,0,13.87,13.87,0,0,1-2.14-.37c-.87-.32-1.75-.6-2.64-.83a1.07,1.07,0,0,0-.84.11c-.69.55,1.2,1.89,1.6,2.26a87.41,87.41,0,0,0,7.22,5.78,17.24,17.24,0,0,1,2.78,2.41c.8.86,2.59,3.74,0,3.16-1-.22-2.91-1-3.91-1.35-1.46.4-2.71,1.17-4.71,1-1.12-.1-2-.83-3-1.1a14.14,14.14,0,0,1-2.88-.73c-1.23-.61-2.35-1.51-3.55-2.21-1.75-1-2.69-2.15-4.69-4.07-1.28-1.2-2.71-2.8-4.28-4.2-4-3.52-6.33-4.8-11.79-8.92s-8.25-6.22-11-8.44c-3.79-3.07-5.38-6-8.38-12.67C196.89,73,194.2,66.61,191.41,60Z"/><path class="cls-7" d="M211,60.45c2,5.51,6.37,18,6.37,18l3.3,3.65A15.75,15.75,0,0,1,216.15,90c-3.7,3.37-6.7,3-6.7,3-4.26-3.27-4.86-3.76-6.4-6s-7.49-16.32-10.79-24.16-2.87-10-1.89-13.68,2.8-5.89,7.15-7.54C206.08,43.8,209,54.94,211,60.45Z"/><path class="cls-8" d="M222.17,81.79c.43.91,2.12.34,2.57,2.81S224,90.7,221,93.87c-2.11,2.25-4.45,3.66-7,3.72s-3.49-.91-3.76-1.94-.79-.87-2-1.74a2.61,2.61,0,0,1-.84-2.57l1.11.86S214.39,91,217,88a13.93,13.93,0,0,0,3-6.67l-.77-.85C220.3,79.47,221.74,80.88,222.17,81.79Z"/></g></g></g></g></g></g></svg>