<svg xmlns="http://www.w3.org/2000/svg" viewBox="0 0 470.78 378.86"><defs><style>.cls-1{fill:#263238;}.cls-2{fill:#e0e0e0;}.cls-12,.cls-3{opacity:0.3;}.cls-3{isolation:isolate;}.cls-4{fill:#fafafa;}.cls-5{fill:#fde74c;}.cls-6{fill:#fff;}.cls-7{fill:#455a64;}.cls-8{fill:#f5f5f5;}.cls-9{opacity:0.7;}.cls-10{fill:#ffbf9d;}.cls-11{fill:#ff9a6c;}.cls-13{opacity:0.2;}</style></defs><title>girl-studying</title><g id="Layer_2" data-name="Layer 2"><g id="Layer_1-2" data-name="Layer 1"><g id="freepik--Floor--inject-12"><path class="cls-1" d="M470.78,378.6c0,.14-105.4.26-235.38.26S0,378.74,0,378.6s105.37-.27,235.4-.27S470.78,378.45,470.78,378.6Z"/></g><g id="freepik--Thesis--inject-12"><polygon class="cls-2" points="28.33 44.05 70.49 285.47 248.27 257.56 256.51 237.65 208.41 14.42 41.77 24.36 28.33 44.05"/><polygon class="cls-3" points="70.49 285.47 83.12 266.12 40.96 24.69 28.33 44.05 70.49 285.47"/><polygon class="cls-4" points="40.96 24.69 83.12 266.12 256.51 237.65 212.7 0.2 40.96 24.69"/><path class="cls-1" d="M41,24.7,212.67,0h.21V.2c12.29,66.31,27.51,148.5,43.89,237.4l.05.27-.27,0-2.86.47-170.53,28h-.24v-.24C58.12,123.56,41.33,26.82,41,24.7c.37,2.13,17.36,98.83,42.4,241.38l-.28-.19,170.52-28,2.86-.47-.22.31C239.86,148.82,224.72,66.63,212.49.27l.24.17Z"/><circle class="cls-5" cx="150.69" cy="135.13" r="29.55"/><path class="cls-6" d="M137.13,142.88l-1.34-8.51,29.47-4.67,1.26,8s-1.8,6.88-13.72,8.76S137.13,142.88,137.13,142.88Z"/><polygon class="cls-6" points="131.14 134.42 152.17 138.16 170.41 127.9 149.35 124.57 131.14 134.42"/><rect class="cls-2" x="83.03" y="60.09" width="110.49" height="6.96" rx="2.35" transform="translate(-8.23 22.36) rotate(-8.98)"/><rect class="cls-2" x="104.96" y="74.45" width="71.79" height="6.96" rx="2.35" transform="translate(-10.44 22.94) rotate(-8.98)"/><rect class="cls-2" x="128.83" y="222.58" width="71.79" height="6.96" rx="2.35" transform="translate(-33.27 28.48) rotate(-8.98)"/><path class="cls-1" d="M247.58,244.36l-.84.16-2.48.43-9.59,1.6-35.61,5.84L78.76,271.94l-.26.05v-.26c-1.68-9.55-3.45-19.55-5.25-29.74-9.68-54.75-18.4-104.29-24.71-140.18-3.13-17.94-5.66-32.45-7.42-42.49-.86-5-1.53-8.91-2-11.56q-.33-2-.51-3c-.12-.68-.15-1-.15-1s.08.35.21,1,.31,1.69.55,3c.48,2.65,1.18,6.54,2.09,11.54,1.79,10,4.38,24.54,7.58,42.46C55.24,137.64,64,187.18,73.71,241.92c1.8,10.18,3.56,20.19,5.25,29.74l-.31-.22L199,252.06l35.63-5.68,9.6-1.51,2.49-.38Z"/><path class="cls-1" d="M234.39,253.44l-.79.16-2.34.41-9.06,1.54-33.68,5.62L74.22,280.09H74v-.25l-6.57-35.67c-9.79-54-18.65-102.85-25.07-138.23L34.78,64c-.87-4.94-1.56-8.78-2-11.4-.22-1.29-.4-2.28-.51-3s-.16-1-.16-1,.08.33.21,1l.57,3c.48,2.61,1.2,6.44,2.12,11.37l7.7,41.87c6.46,35.38,15.38,84.23,25.23,138.2,2.22,12.23,4.4,24.2,6.49,35.71l-.3-.21,114.31-18.74,33.7-5.47,9.07-1.45,2.35-.36Z"/><polygon class="cls-1" points="45.15 126.93 41.24 132.45 50.73 189.34 56.38 191.26 45.15 126.93"/><rect class="cls-1" x="50.57" y="124.07" width="27.48" height="65.3" transform="translate(-26.01 13.41) rotate(-9.91)"/><rect class="cls-1" x="75.47" y="119.33" width="5.49" height="69.84" rx="1.85" transform="translate(-25.36 15.74) rotate(-9.9)"/><path class="cls-7" d="M40.47,173.47A12.42,12.42,0,1,1,49,152l16.9-9.6a2.32,2.32,0,0,1,3.16.87,2.6,2.6,0,0,1,.27.75l4,22.89a2.3,2.3,0,0,1-1.86,2.68,2.33,2.33,0,0,1-.79,0l-19.08-3a12.44,12.44,0,0,1-11.13,6.88Zm0-22.81a9.47,9.47,0,0,0-1.5.11,10.58,10.58,0,0,0-8.81,11.68,10.4,10.4,0,0,0,19.9,2.64l.3-.72L71,167.7a.28.28,0,0,0,.27-.09.3.3,0,0,0,.09-.27l-4-22.9a.33.33,0,0,0-.18-.23.3.3,0,0,0-.29,0L48.64,154.53,48.1,154a10.42,10.42,0,0,0-7.6-3.26Z"/><path class="cls-7" d="M81.07,186.45a3.48,3.48,0,0,1-.14-.64c-.09-.48-.2-1.09-.35-1.84-.3-1.67-.72-4-1.24-6.8-1-5.79-2.44-13.69-4-22.42s-2.89-16.65-3.89-22.46c-.47-2.82-.85-5.13-1.12-6.81-.12-.76-.21-1.38-.28-1.86A2.35,2.35,0,0,1,70,123a4.85,4.85,0,0,1,.16.63c.1.48.23,1.09.38,1.84.32,1.67.76,4,1.29,6.79,1.07,5.73,2.5,13.66,4,22.42s2.9,16.71,3.84,22.46c.48,2.88.84,5.21,1.08,6.82.11.81.21,1.43.25,1.87A2.82,2.82,0,0,1,81.07,186.45Z"/><path class="cls-7" d="M55.84,191.48a4.69,4.69,0,0,1-.14-.65c-.09-.47-.2-1.08-.34-1.84-.31-1.67-.73-4-1.25-6.79-1-5.8-2.44-13.7-4-22.43s-2.88-16.65-3.89-22.45c-.47-2.83-.85-5.14-1.12-6.81-.12-.77-.21-1.38-.28-1.86a2.46,2.46,0,0,1-.06-.66,3.55,3.55,0,0,1,.17.64c.09.48.22,1.09.37,1.84.32,1.67.76,4,1.29,6.78,1.07,5.74,2.5,13.66,4,22.43s2.9,16.7,3.85,22.45c.47,2.88.84,5.21,1.07,6.83.11.81.21,1.43.25,1.86A3,3,0,0,1,55.84,191.48Z"/><path class="cls-1" d="M170.39,127.9a11.18,11.18,0,0,1-1.38.89l-3.86,2.27c-3.28,1.9-7.83,4.49-12.87,7.33l-.09.05h-.3c-5.75-1-11-2-14.7-2.69l-4.45-.87a9.13,9.13,0,0,1-1.62-.4,13.18,13.18,0,0,1,1.66.19l4.47.71c3.78.62,9,1.52,14.74,2.54h0c5.05-2.83,9.63-5.37,13-7.19l4-2.12A8.28,8.28,0,0,1,170.39,127.9Z"/></g><g id="freepik--Books--inject-12"><path class="cls-5" d="M185.57,244.49h85.26v44.74H185.57a17.65,17.65,0,0,1-17.65-17.65v-9.45a17.65,17.65,0,0,1,17.65-17.65Z"/><path class="cls-5" d="M248.54,244.49H428.39a2.93,2.93,0,0,1,2.93,2.93V249a2.93,2.93,0,0,1-2.93,2.93H248.54v-7.43Z"/><path class="cls-5" d="M248.54,281.81H428.39a2.93,2.93,0,0,1,2.93,2.93v1.57a2.93,2.93,0,0,1-2.93,2.93H248.54v-7.43Z"/><path class="cls-8" d="M425.85,281.81H268.94A14.94,14.94,0,0,1,254,266.87h0a14.94,14.94,0,0,1,14.94-14.94H425.85A37,37,0,0,0,425.85,281.81Z"/><path class="cls-3" d="M254,289.24H185.92a18,18,0,0,1-18-18v-8.89a17.86,17.86,0,0,1,17.86-17.86h69.91C239.5,254.31,240.71,277.81,254,289.24Z"/><path class="cls-1" d="M406.79,268.25c0,.15-32.21.27-71.93.27s-71.93-.12-71.93-.27,32.2-.27,71.93-.27S406.79,268.1,406.79,268.25Z"/><path class="cls-1" d="M421.59,274.89c0,.15-32.21.27-71.93.27s-71.93-.12-71.93-.27,32.2-.26,71.93-.26S421.59,274.75,421.59,274.89Z"/><path class="cls-1" d="M417.23,258.83c0,.15-32.21.27-71.93.27s-71.94-.12-71.94-.27,32.2-.27,71.94-.27S417.23,258.7,417.23,258.83Z"/><path class="cls-1" d="M246.12,286.1c0,.15-15.08.27-33.67.27s-33.67-.12-33.67-.27,15.07-.27,33.67-.27S246.12,286,246.12,286.1Z"/><path class="cls-1" d="M246.12,248.21c0,.15-15.08.27-33.67.27s-33.67-.12-33.67-.27,15.07-.27,33.67-.27S246.12,248.06,246.12,248.21Z"/><path class="cls-5" d="M147.93,320.64H262.82v57.62H147.93a17.65,17.65,0,0,1-17.65-17.65V338.29A17.65,17.65,0,0,1,147.93,320.64Z"/><path class="cls-5" d="M234.11,320.64H466.54a2.93,2.93,0,0,1,2.93,2.93v3.71a2.93,2.93,0,0,1-2.93,2.93H234.11v-9.57Z"/><path class="cls-5" d="M234.11,368.7H466.54a2.93,2.93,0,0,1,2.93,2.93v3.71a2.93,2.93,0,0,1-2.93,2.93H234.11V368.7Z"/><path class="cls-8" d="M462.45,368.7H260.39a19.25,19.25,0,0,1-19.24-19.25h0a19.23,19.23,0,0,1,19.24-19.24H462.45A47.59,47.59,0,0,0,462.45,368.7Z"/><path class="cls-3" d="M241.13,378.26H147.7a17.4,17.4,0,0,1-17.41-17.41h0V338.7a18,18,0,0,1,18-18h95C222.46,333.28,224,363.55,241.13,378.26Z"/><path class="cls-1" d="M437.9,351.24c0,.15-41.48.27-92.63.27s-92.64-.12-92.64-.27,41.47-.27,92.64-.27S437.9,351.09,437.9,351.24Z"/><path class="cls-1" d="M457,359.79c0,.15-41.48.27-92.64.27s-92.64-.12-92.64-.27,41.47-.26,92.64-.26S457,359.7,457,359.79Z"/><path class="cls-1" d="M451.39,343.3c0,.15-41.47.27-92.63.27s-92.64-.12-92.64-.27,41.47-.27,92.64-.27S451.39,343.15,451.39,343.3Z"/><path class="cls-1" d="M231,374.22c0,.15-19.41.27-43.36.27s-43.36-.12-43.36-.27,19.41-.26,43.36-.26S231,374.08,231,374.22Z"/><path class="cls-1" d="M231,325.43c0,.14-19.41.26-43.36.26s-43.36-.12-43.36-.26,19.41-.27,43.36-.27S231,325.28,231,325.43Z"/><path class="cls-7" d="M202.57,287.86h94.66v33H202.57a13,13,0,0,1-13-13v-7a13,13,0,0,1,13-13Z"/><path class="cls-7" d="M273.91,287.86H462.07a3.06,3.06,0,0,1,3.07,3.07h0v1.64a3.06,3.06,0,0,1-3.07,3.07H273.91v-7.77Z"/><path class="cls-7" d="M273.91,313.08H462.07a3.06,3.06,0,0,1,3.07,3.07h0v1.64a3.06,3.06,0,0,1-3.07,3.07H273.91v-7.77Z"/><path class="cls-8" d="M459.39,313.08h-171a8.73,8.73,0,0,1-8.73-8.72h0a8.73,8.73,0,0,1,8.73-8.73h171Q452.84,304.36,459.39,313.08Z"/><path class="cls-3" d="M279.61,320.85h-77a13.09,13.09,0,0,1-13.09-13.09h0v-6.52a13.36,13.36,0,0,1,13.35-13.37h78.52C264.44,295.1,265.71,312.43,279.61,320.85Z"/><path class="cls-1" d="M439.48,303c0,.15-33.7.27-75.26.27S289,303.13,289,303s33.69-.26,75.26-.26S439.48,302.84,439.48,303Z"/><path class="cls-1" d="M455,307.7c0,.15-33.7.27-75.26.27s-75.26-.12-75.26-.27,33.69-.27,75.26-.27S455,307.53,455,307.7Z"/><path class="cls-1" d="M271.39,317.57c0,.15-15.77.27-35.23.27s-35.23-.12-35.23-.27,15.77-.27,35.23-.27S271.39,317.42,271.39,317.57Z"/><path class="cls-1" d="M271.39,291.75c0,.15-15.77.26-35.23.26s-35.23-.11-35.23-.26,15.77-.27,35.23-.27S271.39,291.6,271.39,291.75Z"/><path class="cls-1" d="M462.89,287.86c0,.15-57.87.27-129.23.27s-129.27-.12-129.27-.27,57.85-.27,129.24-.27S462.89,287.7,462.89,287.86Z"/><polygon class="cls-5" points="359.12 258.34 359.12 276.26 365.33 272.28 372.25 276.26 372.25 258.34 359.12 258.34"/></g><g id="freepik--Pencil--inject-12"><polygon class="cls-5" points="422.23 80.47 390.96 106.52 343.4 200.48 373.05 213.88 419.31 121.73 422.23 80.47"/><g class="cls-9"><path class="cls-6" d="M419.31,121.7a2.42,2.42,0,0,1-2.93-1.77,2.36,2.36,0,0,1-.07-.65,7.24,7.24,0,0,1-12.72-5.13,8.44,8.44,0,0,1-12.43-7.86l31-25.85Z"/></g><path class="cls-5" d="M409.65,91s.48,7.78,11.38,6.42l1.2-16.9Z"/><path class="cls-3" d="M403.63,114.18l-45.85,92.29-14.38-6,47.56-94,.24-.2a8.2,8.2,0,0,0,.64,3.66,8.83,8.83,0,0,0,3.08,3.76,8.33,8.33,0,0,0,5.69,1.39A8.65,8.65,0,0,0,403.63,114.18Z"/><path class="cls-3" d="M416.39,119.31l-47.1,92.85,3.8,1.72,46.22-92.18a2.56,2.56,0,0,1-2.93-1.82A2.72,2.72,0,0,1,416.39,119.31Z"/><path class="cls-6" d="M403.39,105.22a.67.67,0,0,0-.16.41.88.88,0,0,0,.8.87,3.3,3.3,0,0,0,2-.56,2.15,2.15,0,0,0,.85-.94,1.39,1.39,0,0,0-.09-1.34,1.89,1.89,0,0,0-1.36-.69,5.91,5.91,0,0,0-1.73.1,9.41,9.41,0,0,0-3.57,1.39,2.37,2.37,0,0,0-1.1,1.63,2.14,2.14,0,0,0,.87,1.81,5.69,5.69,0,0,0,4.38.54,8,8,0,0,0,6.11-5.74,2.07,2.07,0,0,0-.46-1.8,3.77,3.77,0,0,0-1.54-1,10.94,10.94,0,0,0-3.29-.66,12.16,12.16,0,0,0-4.82.72,10.26,10.26,0,0,0-1.23.52,3.2,3.2,0,0,1-.42.2,8.76,8.76,0,0,1,1.62-.81,12.18,12.18,0,0,1,4.85-.79,11,11,0,0,1,3.36.64,4,4,0,0,1,1.62,1,2.31,2.31,0,0,1,.52,2,8.36,8.36,0,0,1-8.64,6.09,4.1,4.1,0,0,1-2.19-.76,2.33,2.33,0,0,1-1-2,2.57,2.57,0,0,1,1.2-1.78,9.52,9.52,0,0,1,3.66-1.41,6.32,6.32,0,0,1,1.79-.08,2,2,0,0,1,1.46.77,1.58,1.58,0,0,1,.09,1.49,2.2,2.2,0,0,1-.91,1,3.38,3.38,0,0,1-2.05.53.93.93,0,0,1-.84-1C403.22,105.3,403.39,105.21,403.39,105.22Z"/><path class="cls-6" d="M420.17,104.7a6,6,0,0,0-1.28,0,8.93,8.93,0,0,0-3.36.9,22.73,22.73,0,0,0-4.32,2.88,19.39,19.39,0,0,1-5.44,3.38,11,11,0,0,1-6.36.24,10.72,10.72,0,0,1-4.57-2.52,10.48,10.48,0,0,1-2.15-2.88,7.29,7.29,0,0,1-.52-1.18,1.59,1.59,0,0,1,.15.29c.09.2.24.49.44.85a11.24,11.24,0,0,0,2.19,2.71,10.58,10.58,0,0,0,4.51,2.44,11,11,0,0,0,6.24-.26,19.64,19.64,0,0,0,5.38-3.32,21.43,21.43,0,0,1,4.38-2.86,8.46,8.46,0,0,1,3.42-.85A5.08,5.08,0,0,1,420.17,104.7Z"/><path class="cls-6" d="M420,114.07a3.38,3.38,0,0,0-2.15-1,18.89,18.89,0,0,0-5.83.86,32.57,32.57,0,0,0-5.56,2.06c-.69.33-1.23.62-1.61.81a3.27,3.27,0,0,1-.59.3,4.07,4.07,0,0,1,.55-.37c.36-.22.9-.54,1.58-.88a28.48,28.48,0,0,1,5.57-2.14,27.09,27.09,0,0,1,3.22-.68,9.7,9.7,0,0,1,2.69-.11,3.36,3.36,0,0,1,1.68.68A2.24,2.24,0,0,1,420,114.07Z"/><path class="cls-6" d="M407,120.7a6.25,6.25,0,0,1,1-.85,7.56,7.56,0,0,1,3-1.32,3.75,3.75,0,0,1,3.11.77,2.92,2.92,0,0,1,.63.77,1.06,1.06,0,0,1,.12.34,4.51,4.51,0,0,0-.85-1,3.7,3.7,0,0,0-3-.67,8.17,8.17,0,0,0-2.91,1.24A11.56,11.56,0,0,1,407,120.7Z"/><path class="cls-6" d="M421,99.05a.64.64,0,0,1-.15.13c-.1.07-.25.18-.46.31a2.37,2.37,0,0,1-.81.36,2.48,2.48,0,0,1-1.18-.07,28.66,28.66,0,0,1-2.87-1,22.88,22.88,0,0,0-3.56-.89,44.07,44.07,0,0,0-6.69-.45h-2a3.14,3.14,0,0,1-.75,0l.75-.06,2-.07a37.73,37.73,0,0,1,6.72.39,19.41,19.41,0,0,1,3.6.92,27.61,27.61,0,0,0,2.84,1,2.19,2.19,0,0,0,1.91-.21C420.55,99.28,420.77,99.16,421,99.05Z"/></g><g id="freepik--graduation-cap--inject-12"><path class="cls-5" d="M454.13,184v81.91a.65.65,0,0,0,1.29,0V184a.65.65,0,0,0-1.29,0Z"/><path class="cls-5" d="M459.39,247.83a4.62,4.62,0,1,1-4.62-4.62h0A4.62,4.62,0,0,1,459.39,247.83Z"/><path class="cls-5" d="M453.49,250.22s-3.37,3.37-4.38,13.24-1.23,14.8-1.23,14.8l9.08.56v-7.06c0,.33,1.8,5.27,1.8,5.27l7.18-2.36S463.39,248.43,453.49,250.22Z"/><rect class="cls-1" x="252.06" y="190.67" width="154.2" height="55.59"/><rect class="cls-1" x="196.67" y="181.11" width="263.75" height="9.57"/><path class="cls-3" d="M252.06,230.49s46.84-16.8,77.1-23,77.1-4.14,77.1-4.14V190.7H252.06Z"/><rect class="cls-3" x="196.67" y="181.11" width="95.4" height="9.57"/><path class="cls-7" d="M458.51,190.7c0,.15-58.65.27-131,.27s-131-.12-131-.27,58.63-.26,131-.26S458.51,190.53,458.51,190.7Z"/><path class="cls-7" d="M291.92,190.75a43.88,43.88,0,0,1,0-9.72A45.12,45.12,0,0,1,291.92,190.75Z"/><path class="cls-7" d="M313.91,246.27c-.14,0-.26-10.85-.26-24.23s.12-24.22.26-24.22.27,10.84.27,24.22S314.06,246.27,313.91,246.27Z"/></g><g id="freepik--Character--inject-12"><path class="cls-10" d="M90.84,314.54l17.73-7.16L122.11,272l18,9.3s-1.74,3.49-5.47,12.14c-1.45,3.33-6.22,12.64-8.16,17.17a23.87,23.87,0,0,1-21.27,14.45l-16.64.43Z"/><path class="cls-10" d="M82,307.7l-2.64-2.82a3,3,0,0,0-1.73-.49l-8.48.26A5.29,5.29,0,0,0,65.25,307l-3.09,5.25s-2.07,3.59-1.81,4.47a1.55,1.55,0,0,0,1.79,1.05s.3,1.66.85,2a2.66,2.66,0,0,0,2.07.13,1.74,1.74,0,0,0,1.67,1,2.14,2.14,0,0,0,.44-.08c1-.31,1.46-2.26,1.46-2.26l4.3-.79s6.18,4.13,8.36,6.83,7.88.64,7.88.64l2.13-10.2Z"/><path class="cls-11" d="M75.78,308.91a6.9,6.9,0,0,1-1.86.31c-1.17.13-2.82.18-4.69.42l.2-.15a16.89,16.89,0,0,1-1.1,2,22.73,22.73,0,0,1-4.08,4.83,7.82,7.82,0,0,1-2.13,1.52c0-.07.75-.67,1.87-1.8a27.82,27.82,0,0,0,3.89-4.83,19.71,19.71,0,0,0,1.09-2l.06-.13h.14c1.91-.21,3.56-.19,4.73-.23A8.44,8.44,0,0,1,75.78,308.91Z"/><path class="cls-11" d="M76,313a4.22,4.22,0,0,1-1.6.42,12.31,12.31,0,0,1-4.15-.14l.31-.17c-.18.52-.39,1-.62,1.54a13.23,13.23,0,0,1-3.19,4.19A5.37,5.37,0,0,1,64.9,320a18.07,18.07,0,0,1,1.56-1.47,14.83,14.83,0,0,0,3-4.15,15.69,15.69,0,0,0,.61-1.47l.08-.22h.22A20.63,20.63,0,0,0,76,313Z"/><path class="cls-10" d="M86.75,315.05l-7.57-3.52a8,8,0,0,0-3.3-1,7.87,7.87,0,0,0-3.49,1.17l-4.08,2.1c-.22.12-.46.26-.53.49a1.08,1.08,0,0,0,.35.86,6,6,0,0,0,7.88.32,16.32,16.32,0,0,0,2.55,5,5.56,5.56,0,0,0,5,2.13"/><path class="cls-11" d="M83.54,322.7a.66.66,0,0,1-.2.06,2.57,2.57,0,0,1-.62.08,4.9,4.9,0,0,1-2.28-.56,7.15,7.15,0,0,1-2.68-2.44,19.89,19.89,0,0,1-2-4.22l.38.09a6,6,0,0,1-4.41,1.38,6.21,6.21,0,0,1-2.46-.69,5.86,5.86,0,0,1-1.09-.75,3.86,3.86,0,0,1-.49-.5,1,1,0,0,1-.21-.83.93.93,0,0,1,.45-.56c.18-.11.33-.18.49-.27l.94-.48,1.85-1a16.69,16.69,0,0,1,3.65-1.59,5.59,5.59,0,0,1,3.59.55c1,.46,2,.92,2.8,1.33l4,2a11.29,11.29,0,0,1,1.45.79,10.67,10.67,0,0,1-1.54-.6l-4.1-1.81-2.82-1.26a5.1,5.1,0,0,0-3.3-.47,16.31,16.31,0,0,0-3.52,1.57l-1.84,1-.94.49c-.32.16-.66.32-.68.48a1.38,1.38,0,0,0,.54.8,5.19,5.19,0,0,0,1,.68,5.88,5.88,0,0,0,2.25.64,5.62,5.62,0,0,0,4.06-1.22l.26-.22.11.32a20.53,20.53,0,0,0,1.87,4.17,6.9,6.9,0,0,0,2.48,2.41A5.52,5.52,0,0,0,83.54,322.7Z"/><path class="cls-1" d="M185.19,216c.07-5.68,1-11.34.74-17s-1.71-11.59-5.67-15.66-10.87-5.61-15.47-2.36l-1,4.84c1.82,21.9,1.58,44.15,3.4,66.05.24,2.88,2.57,5.49,3.88,8.06s3.94,4.7,6.82,4.52c3.77-.23,6.24-4.05,7.41-7.65C189.6,243.76,185,229.7,185.19,216Z"/><path class="cls-5" d="M171.53,186.52a16,16,0,0,0-2.89-3.91,5.4,5.4,0,0,0-4.47-1.5,2.25,2.25,0,0,0-1.77,1.3c-.25.72.29,1.69,1,1.62l.16.14q2.55,2.27,5.19,4.41a4.36,4.36,0,0,0,1.45.9,1.53,1.53,0,0,0,1.59-.34C172.47,188.44,172,187.33,171.53,186.52Z"/><path class="cls-1" d="M174.74,192.1c-5.66-6.92-13.26-10.91-22.2-11-5-.09-7.13,1-10.76,1.94a16,16,0,0,0-9.08,6c-2.57,3.65-4.73,7.74-5.22,12.19a74.17,74.17,0,0,0-.65,13.73,25,25,0,0,0,4.28,12.89l11.64,2c6.43.22,12.95.43,19.22-1s12.35-4.84,15.7-10.33C182.33,210.84,180.39,199,174.74,192.1Z"/><path class="cls-10" d="M164.39,192l-15.52-6.17-4.06.47c-9.12,0-15.42,10.1-15.48,17.48-.06,8.22.18,18.24,1.48,24.29,2.63,12.17,13,13.18,13,13.18s-.21,6.49-.29,10.57l23.77-1.71,1.19-53.94A4.32,4.32,0,0,0,164.39,192Z"/><path class="cls-11" d="M149.06,225.24a2.62,2.62,0,0,0-.9-1.59,2.64,2.64,0,0,0-3.21-.19,3.56,3.56,0,0,0-1.35,3.33h0a3.21,3.21,0,0,0,2.31,1.34h.43a2.81,2.81,0,0,0,2-.77A2.56,2.56,0,0,0,149.06,225.24Z"/><path class="cls-1" d="M133.44,214.19a1.56,1.56,0,0,0,1.6,1.51,1.52,1.52,0,0,0,1.55-1.49v0a1.59,1.59,0,0,0-1.61-1.51,1.52,1.52,0,0,0-1.54,1.48Z"/><path class="cls-1" d="M132.11,207.91c.2.19,1.35-.75,3-.84s3,.69,3.16.47-.14-.46-.7-.82a4.29,4.29,0,0,0-2.54-.63,4.18,4.18,0,0,0-2.41.92C132.16,207.44,132,207.82,132.11,207.91Z"/><path class="cls-1" d="M143,221.2a10.44,10.44,0,0,0-2.78-.35c-.43,0-.85-.08-.94-.38a2.3,2.3,0,0,1,.22-1.29c.35-1.07.72-2.19,1.1-3.37,1.52-4.78,2.6-8.71,2.4-8.77s-1.58,3.77-3.1,8.56l-1,3.38a2.46,2.46,0,0,0-.13,1.71,1.06,1.06,0,0,0,.74.59,3,3,0,0,0,.74.06A12.06,12.06,0,0,0,143,221.2Z"/><path class="cls-11" d="M143.79,241.26A31.27,31.27,0,0,0,160,236s-3.91,8.75-16.26,8.28Z"/><path class="cls-1" d="M148,222.09c-.27,0-.18,1.84-1.68,3.23s-3.47,1.3-3.47,1.56.46.33,1.28.31a4.57,4.57,0,0,0,2.91-1.2,4,4,0,0,0,1.29-2.7C148.39,222.52,148.17,222.08,148,222.09Z"/><path class="cls-1" d="M132.68,202c.31.39,1.59.05,3.11.09s2.8.37,3.12,0c.14-.19,0-.58-.6-1a4.51,4.51,0,0,0-2.5-.73,4.65,4.65,0,0,0-2.52.67C132.74,201.39,132.55,201.78,132.68,202Z"/><path class="cls-1" d="M151.93,213.77a1.58,1.58,0,0,1-1.5,1.61,1.51,1.51,0,0,1-1.65-1.36v0a1.59,1.59,0,0,1,1.49-1.62,1.52,1.52,0,0,1,1.66,1.37Z"/><path class="cls-1" d="M155,207.25c-.19.21-1.4-.65-3.1-.62s-2.92.91-3.11.7.1-.46.64-.87a4.32,4.32,0,0,1,2.48-.81,4.12,4.12,0,0,1,2.47.75C154.94,206.79,155.13,207.16,155,207.25Z"/><path class="cls-1" d="M154,201.83c-.32.39-1.64,0-3.21,0s-2.91.31-3.22-.09c-.14-.19.07-.58.64-1a5,5,0,0,1,2.61-.67,4.68,4.68,0,0,1,2.57.73C154,201.24,154.16,201.64,154,201.83Z"/><path class="cls-10" d="M166.39,216.81c0-.91.89-3.12,1.79-3.31,2.39-.51,6.74-.56,7.12,5.56.52,8.37-8,7.16-8,6.92S166.54,220,166.39,216.81Z"/><path class="cls-11" d="M169.39,222.78a2,2,0,0,0,.4.19,1.49,1.49,0,0,0,1.1,0c.86-.38,1.52-1.83,1.47-3.34a4.78,4.78,0,0,0-.54-2.06,1.67,1.67,0,0,0-1.17-1,.74.74,0,0,0-.83.45c-.1.24,0,.41-.08.42s-.19-.13-.14-.48a.89.89,0,0,1,.3-.54,1,1,0,0,1,.79-.26,2,2,0,0,1,1.6,1.2,5,5,0,0,1,.65,2.3c.05,1.69-.72,3.32-1.9,3.74a1.6,1.6,0,0,1-1.35-.13C169.39,223,169.39,222.8,169.39,222.78Z"/><path class="cls-1" d="M168.5,213.52l-2.11,2.18c-9.18-8.79-27.12-30.79-26.11-29.48a26.59,26.59,0,0,1,13.11-1.39c6.83,1.16,19.77,4.58,19.57,12.63S168.5,213.52,168.5,213.52Z"/><path class="cls-7" d="M180.66,211.7a2.85,2.85,0,0,0-.13-.48,7.73,7.73,0,0,0-.57-1.32,12.21,12.21,0,0,0-3.5-3.93,22.82,22.82,0,0,0-7-3.39,86.11,86.11,0,0,1-9.05-3,40.84,40.84,0,0,1-8.26-4.63,43,43,0,0,1-5.84-5.1,46,46,0,0,1-3.37-4l-.84-1.16a2.37,2.37,0,0,0-.32-.39,2.76,2.76,0,0,0,.25.44c.17.28.42.69.77,1.2a38.32,38.32,0,0,0,3.29,4.12A40.33,40.33,0,0,0,160.25,200a93.4,93.4,0,0,0,9.09,2.93,22.92,22.92,0,0,1,7,3.25,12.58,12.58,0,0,1,3.53,3.77C180.39,211,180.61,211.7,180.66,211.7Z"/><path class="cls-7" d="M178.22,213a4.24,4.24,0,0,0-.32-1.83,8.58,8.58,0,0,0-3.15-3.94,18.88,18.88,0,0,0-7-2.73,41.28,41.28,0,0,1-8.67-2.76,36.65,36.65,0,0,1-7.74-4.77,39,39,0,0,1-5.3-5.21,38.42,38.42,0,0,1-3-4.07l-.71-1.17a1.7,1.7,0,0,0-.27-.39,3.36,3.36,0,0,0,.2.43l.64,1.22a35,35,0,0,0,2.86,4.17,37,37,0,0,0,5.29,5.33,36.41,36.41,0,0,0,7.81,4.85,40,40,0,0,0,8.76,2.75,19,19,0,0,1,6.9,2.6,8.67,8.67,0,0,1,3.16,3.75A10.66,10.66,0,0,1,178.22,213Z"/><path class="cls-7" d="M168.22,227.7c0-.06.71-.15,1.95-.48a11.78,11.78,0,0,0,4.68-2.61A16.74,16.74,0,0,0,179.2,218,29.42,29.42,0,0,0,181,208.3a24.71,24.71,0,0,0-.41-5.08,23.54,23.54,0,0,0-5.72-11.28,37.91,37.91,0,0,0-5.62-4.89,2.94,2.94,0,0,1,.47.24c.3.18.73.42,1.26.8a25.57,25.57,0,0,1,4.18,3.59,23.69,23.69,0,0,1,4.51,6.81,24.15,24.15,0,0,1,1.45,4.63,25.09,25.09,0,0,1,.43,5.19,29.17,29.17,0,0,1-1.89,9.82,17,17,0,0,1-4.57,6.77,11.65,11.65,0,0,1-4.88,2.53,12.49,12.49,0,0,1-1.49.24A4.53,4.53,0,0,1,168.22,227.7Z"/><path class="cls-1" d="M178.87,330.61l-49.48,7.19c-18.59,5.26-38.17,6.8-58.64,5l74.47,34.74,29.9.46s9.1,0,10.69-7.94,3.36-32.12,3.36-32.12S183.26,332.82,178.87,330.61Z"/><g class="cls-12"><path d="M178.72,351.44a71.75,71.75,0,0,1,.88,15,14.85,14.85,0,0,0,3.66-12.5c-.43-2.44-1.45-5.13-.17-7.26.86-1.43,3.13-3.07,2.8-4.7,0,0-2,0-3.79-.07-1.45-.06-4.46-.15-4.46-.15a15.93,15.93,0,0,1,.8,9.83"/></g><polygon class="cls-10" points="143.6 249.8 167.64 247.2 172.04 251.2 154.88 261.3 147.31 265.22 139.83 262.95 137.46 258.49 143.6 249.8"/><path class="cls-7" d="M111.19,279.07s7.54-14.46,9.4-17.62c3.18-5.39,9.12-8.44,9.12-8.44l13.89-3.21s-1.44,7,7.2,7.44c11,.61,17.83-9.93,17.83-9.93s12.54,1.29,16,2.74,13.26,5.56,14.7,18.58l3.36,21.27-26.5,2,.36,28.32-11.26,9.21s-32.33,11.13-34.4,11.86c-1,.35-.74-13.39-3-25.17l-4.36-10.59a41.21,41.21,0,0,1-3.09-13.3c-.17-3-.09-5.3-.09-5.3S113.5,284.6,111.19,279.07Z"/><path class="cls-10" d="M132.07,330.19l44.43-13.33-.31-24.94,22.62-1.72s-1.8,12.92-2.07,19.54c-.38,9.53-5,22.85-8,25.67s-57.82,5.9-57.82,5.9Z"/><path class="cls-10" d="M106.87,338a1.75,1.75,0,0,0,2.19.73c1-.4.73-2.42.73-2.42l4.73-1.16s6.53,3.54,9,6,7.9-.11,7.9-.11l1.13-10.37-9.43-7.29s.58.44-.15-1-3.45-.66-3.45-.66c-.48-.71-2.31-.83-2.31-.83l-7.67,1.49a5.31,5.31,0,0,0-3.68,2.73L103,330.57s-1.44,3.86-1.09,4.71a1.55,1.55,0,0,0,1.88.88s.57,2.42,1.22,2.45a5.15,5.15,0,0,0,1.87-.61Z"/><path class="cls-11" d="M122.76,329.43c0,.08-1,.06-2.68.26a22.75,22.75,0,0,0-9.37,3.32c-.89.59-1.83,1.1-2.08,1.81a.94.94,0,0,0,.16.91,1.33,1.33,0,0,0,.62.45,1,1,0,0,0,.69,0,.81.81,0,0,1-.74.14,1.52,1.52,0,0,1-.78-.46,1.23,1.23,0,0,1-.28-1.2,2.47,2.47,0,0,1,.88-1.16c.4-.31.82-.62,1.29-.93A20.36,20.36,0,0,1,120,329.3,8.56,8.56,0,0,1,122.76,329.43Z"/><path class="cls-11" d="M123.69,334.32c0,.14-3.16.26-7,.78s-6.92,1.24-7,1.1a7.81,7.81,0,0,1,2-.65,43.12,43.12,0,0,1,4.92-.94,44.12,44.12,0,0,1,5-.39A7.65,7.65,0,0,1,123.69,334.32Z"/><path class="cls-11" d="M106.9,337.83a4.47,4.47,0,0,1-.16-.81,21.48,21.48,0,0,1-.18-2.27,9.25,9.25,0,0,1,.1-1.58,4.67,4.67,0,0,1,.63-1.74,10.66,10.66,0,0,1,2.66-3.2,14.69,14.69,0,0,1,3.56-2.15,13.78,13.78,0,0,1,3.3-.77c1-.11,1.72-.14,2.26-.17a2.89,2.89,0,0,1,.83,0,25.37,25.37,0,0,1-3,.5,14.62,14.62,0,0,0-3.18.84,14.91,14.91,0,0,0-3.42,2.12,10.76,10.76,0,0,0-2.58,3,6,6,0,0,0-.77,3.11C106.87,336.64,107,337.83,106.9,337.83Z"/><path class="cls-11" d="M117,322.94c0,.08-1.15.2-3,.55s-4.6.76-6,3.34a26.65,26.65,0,0,0-3.43,6.37,16.25,16.25,0,0,0-.51,2.95,2.06,2.06,0,0,1-.11-.82,7.67,7.67,0,0,1,.28-2.23,23.1,23.1,0,0,1,3.36-6.55,8.33,8.33,0,0,1,1.39-1.63,5.35,5.35,0,0,1,1.75-1,17.17,17.17,0,0,1,3.24-.77A11.87,11.87,0,0,1,117,322.94Z"/><path class="cls-11" d="M121.66,339.7a3.17,3.17,0,0,1-.49-.32l-1.37-.93a54.09,54.09,0,0,0-5.36-3.11h.11l-4.72,1.19.15-.22a4.66,4.66,0,0,1,0,1.18,2.23,2.23,0,0,1-.45,1.19,1.2,1.2,0,0,1-.61.34,1.52,1.52,0,0,1-.67.09,2,2,0,0,1-1.25-.56l-.23-.27v-.07h0l.28.08h0l-.15.07a5.46,5.46,0,0,1-.6.27c-.21.08-.42.15-.64.21a2,2,0,0,1-.35.07.86.86,0,0,1-.45-.05,1.32,1.32,0,0,1-.52-.6,5.24,5.24,0,0,1-.29-.64,8.88,8.88,0,0,1-.41-1.33l.29.17a1.8,1.8,0,0,1-1.83-.47,1.51,1.51,0,0,1-.4-.94,4.91,4.91,0,0,1,.09-.94,25.72,25.72,0,0,1,1.06-3.54h0l1.53-2.9,1-1.83a10.51,10.51,0,0,1,1.08-1.79,5.31,5.31,0,0,1,1.65-1.29,7,7,0,0,1,1.94-.56l7.22-1.39h.06a5.92,5.92,0,0,1,1.31.24,2.2,2.2,0,0,1,1.17.69l-.28-.06a2.7,2.7,0,0,1,2.5-.06,3.19,3.19,0,0,1,1.38,1.86l-.07-.09,6.5,5,1.75,1.38a4.07,4.07,0,0,1,.59.51,4,4,0,0,1-.65-.42l-1.81-1.31-6.6-4.86h-.05v-.07a2.8,2.8,0,0,0-1.21-1.61,2.26,2.26,0,0,0-2.1.07l-.17.08-.11-.14a1.86,1.86,0,0,0-.94-.52,6.36,6.36,0,0,0-1.22-.21h.06l-7.22,1.42a6.14,6.14,0,0,0-1.82.53,4.65,4.65,0,0,0-1.48,1.16,9.44,9.44,0,0,0-1,1.71l-1,1.83c-.53,1-1,2-1.53,2.9h0a26.27,26.27,0,0,0-1,3.46,3.84,3.84,0,0,0-.09.83,1,1,0,0,0,.28.64,1.35,1.35,0,0,0,1.34.34l.24-.06v.23c.11.43.24.87.39,1.28a2.4,2.4,0,0,0,.58,1,.34.34,0,0,0,.2,0l.29-.06a4.06,4.06,0,0,0,.59-.19c.19-.07.38-.16.57-.25l.14-.06h0l.29.08h0v.05a1.24,1.24,0,0,0,.18.22,1.43,1.43,0,0,0,1.49.38.75.75,0,0,0,.42-.22,3,3,0,0,0,.37-2v-.18h.16l4.74-1.12h.06a45.7,45.7,0,0,1,5.31,3.25c.59.43,1,.77,1.33,1A3.21,3.21,0,0,1,121.66,339.7Z"/><path class="cls-1" d="M98.56,346.12s-31.35-9.85-41.19-13c-17-5.5-28.06.06-31.56,6.12-4.54,7.87,6.35,23.22,10.55,26.75,12.43,10.45,33.74,11.86,33.74,11.86h0l76.62-.14-22.33-30.38Z"/><path class="cls-2" d="M103.26,360.34a76.37,76.37,0,0,1-37.61-5.12,48,48,0,0,0-6.26-2.33,18.54,18.54,0,0,0-6.47-.46,6.4,6.4,0,0,0-4.56,2.07c-1.53,2-.75,4.88.1,7.26,1,2.8,2,5.66,4,7.9,2.27,2.61,5.57,4.11,8.88,5.15,6.47,2,13.3,2.63,20.08,2.89l23.28-1.27Z"/><path class="cls-1" d="M58.3,352.9a2.16,2.16,0,0,1,.35.63,9.45,9.45,0,0,1,.62,1.86,12,12,0,0,1-3.8,11.81,11.19,11.19,0,0,1-1.58,1.15c-.41.23-.64.33-.66.3s.84-.58,2-1.71a12.66,12.66,0,0,0,3.69-11.48C58.64,353.86,58.22,352.93,58.3,352.9Z"/><path class="cls-1" d="M178.58,344.2c-1.82-5.16-2.12-12.74-13.35-16.38s-19.71,3.34-25.48,5.76-37.3,19.72-37.3,19.72-5.94,10.59-4.25,15.27,9.37,9.3,9.37,9.3h35.27c9.1,0,26-.31,26-.31A104.53,104.53,0,0,0,174.91,366l.3-1.52C175.24,363.31,180.39,349.36,178.58,344.2Z"/><path class="cls-1" d="M159,371a1.25,1.25,0,0,1-.26.48,6.09,6.09,0,0,1-1.16,1,29.83,29.83,0,0,1-5,2.79,33.06,33.06,0,0,1-3.68,1.45,27,27,0,0,1-4.45,1,85.29,85.29,0,0,1-10.36.4c-7.33.12-14,.4-18.8.34a57,57,0,0,1-5.7-.25c-.52-.05-1-.12-1.54-.22a2.4,2.4,0,0,1-.53-.12c0-.05.74.08,2.08.15s3.29.12,5.69.1c4.81,0,11.45-.37,18.8-.49a93.4,93.4,0,0,0,10.31-.36,27.23,27.23,0,0,0,4.38-.9,31.6,31.6,0,0,0,3.66-1.38,32.65,32.65,0,0,0,5-2.63,7.09,7.09,0,0,0,1.19-1C159,371.16,159,371,159,371Z"/><path class="cls-1" d="M107.57,377.87l-.47-.25c-.3-.17-.74-.45-1.31-.82a31.72,31.72,0,0,1-4.64-3.69,14.59,14.59,0,0,1-2.62-3.38,7.82,7.82,0,0,1-.52-5,42.61,42.61,0,0,1,4.27-11.5v-.05h0c5.78-3.18,12.41-6.79,19.65-10.68,3.62-1.94,7.39-3.95,11.31-6l6-3c2-1,4-2,6.12-3.08a34.59,34.59,0,0,1,9.11-3.43,22.28,22.28,0,0,1,4.75-.43,21.19,21.19,0,0,1,4.62.66,22,22,0,0,1,8.08,3.86,16.13,16.13,0,0,1,2.94,3.18,18.68,18.68,0,0,1,1.89,3.73c.5,1.28.85,2.57,1.21,3.83a29.86,29.86,0,0,1,1,3.74,24.62,24.62,0,0,1-.6,7.21c-.45,2.25-1,4.35-1.57,6.3-.28,1-.56,1.93-.82,2.84s-.56,1.81-.7,2.61h0c-.12.57-.21,1-.31,1.51h0a37,37,0,0,1-4.05,8.78,15.09,15.09,0,0,1-2.15,2.7l.13-.18c.11-.13.25-.29.42-.51a25.27,25.27,0,0,0,1.48-2.08A38.23,38.23,0,0,0,174.7,366h0c.57-.48.46-.95.29-1.52h0a23.19,23.19,0,0,1,.68-2.7l.81-2.83c.54-2,1.08-4.06,1.52-6.29a24.47,24.47,0,0,0,.56-7.09,33.15,33.15,0,0,0-1-3.67c-.37-1.26-.73-2.54-1.22-3.79a18.33,18.33,0,0,0-1.85-3.64,15.43,15.43,0,0,0-2.86-3.07,22.08,22.08,0,0,0-12.42-4.4,21.27,21.27,0,0,0-4.64.43,34,34,0,0,0-9,3.39c-2,1-4,2.2-6.15,3.09s-4,1.95-6,3c-3.91,2-7.69,4-11.31,6l-19.68,10.61.07-.08a42.36,42.36,0,0,0-4.29,11.37,7.49,7.49,0,0,0,.45,4.85A13.84,13.84,0,0,0,101.2,373a33.34,33.34,0,0,0,4.55,3.75l1.28.86Z"/><path class="cls-2" d="M165,364.78s10.51,1.26,9.58,6.4-4.37,6.87-4.37,6.87l-28.56.06S158.67,376.93,165,364.78Z"/><path class="cls-1" d="M166,362.29a3.48,3.48,0,0,1-.32,1.45,11,11,0,0,1-1.7,3.19,8.63,8.63,0,0,1-4,3.08,23.73,23.73,0,0,0,3.63-3.38A29.1,29.1,0,0,0,166,362.29Z"/><path class="cls-1" d="M162.39,364.3a6.84,6.84,0,0,1-1,3.66,8,8,0,0,1-2.29,3c-.11-.09.92-1.42,1.85-3.25S162.21,364.28,162.39,364.3Z"/><path class="cls-7" d="M175.75,376.62c-.08,0,.6-1.34,1.42-3.55A37.89,37.89,0,0,0,179.24,355c-.31-2.33-.67-3.76-.59-3.78a3.94,3.94,0,0,1,.34,1,25.88,25.88,0,0,1,.59,2.75,33.93,33.93,0,0,1-2.08,18.26,26,26,0,0,1-1.21,2.49A4,4,0,0,1,175.75,376.62Z"/><g class="cls-12"><path d="M169.81,362c-.08-.69-.35-1.51-1-1.65-.84-.17-1.41.79-1.74,1.57-3.68,8.37-15.57,14.9-24.68,15.77a83.23,83.23,0,0,0,13.19-1.08,20,20,0,0,0,10.06-4.6A12.2,12.2,0,0,0,169.81,362Z"/></g><path class="cls-1" d="M100.23,350.62a30.32,30.32,0,0,1-5.06-1.93,29.12,29.12,0,0,1-4.86-2.37,30.62,30.62,0,0,1,5.06,1.92A29.17,29.17,0,0,1,100.23,350.62Z"/><g class="cls-13"><path d="M110.39,346.2q-20.4-3.9-40.95-6.93l-10.2,3.22c2.86,5.32,8.51,8.71,14.38,10.11s12,1.07,18,.52c6.62-.61,13.42-1.54,19.18-4.86.44-.25.94-.63.88-1.14S111,346.31,110.39,346.2Z"/></g><path class="cls-2" d="M43.45,305.7l17.14,37.9a4.41,4.41,0,0,0,4,2.61l50,.65,6.3-3.39-9.87-.72L95.66,305.89a3.17,3.17,0,0,0-2.9-1.95l-47.89-.36A1.5,1.5,0,0,0,43.32,305,1.43,1.43,0,0,0,43.45,305.7Z"/><path class="cls-1" d="M43.45,305.7a1.25,1.25,0,0,1-.15-.46,1.53,1.53,0,0,1,.47-1.31,1.61,1.61,0,0,1,1-.42h4.39l20,.07,13.94.07,7.79.05h2a3.39,3.39,0,0,1,2,.84,4.23,4.23,0,0,1,1.15,1.84l.82,2c4.37,10.47,9.2,22.05,14.32,34.29l-.24-.17,9.53.7h.34l1,.07-.85.46-6.3,3.39h-.14l-37.9-.52-8.46-.12c-1.38,0-2.7,0-4.07-.08a4.68,4.68,0,0,1-3.39-2.1c-2.23-4.69-4.09-9-5.9-13l-8.38-18.74c-1-2.19-1.72-3.9-2.24-5.09-.25-.56-.43-1-.57-1.32a4.25,4.25,0,0,1-.18-.46,3.68,3.68,0,0,1,.23.44l.62,1.3c.54,1.17,1.32,2.87,2.33,5l8.54,18.68C57,335,59,339.46,61.13,344a4.22,4.22,0,0,0,3.06,1.88c1.28.06,2.67.05,4,.07l8.46.1,37.9.46h-.14l6.3-3.4.12.53h-.34L111,343h-.17l-.07-.15c-5.09-12.26-9.91-23.84-14.27-34.32l-.81-1.95a3.68,3.68,0,0,0-1-1.67,2.84,2.84,0,0,0-1.72-.73h-2l-7.79-.07-13.93-.14-20.07-.24H44.75a1.45,1.45,0,0,0-1.4,1.51v.08C43.38,305.43,43.41,305.57,43.45,305.7Z"/><path class="cls-1" d="M109.51,346.79a2.13,2.13,0,0,1-.23-.42l-.57-1.22-2-4.54c-1.67-3.85-3.94-9.17-6.38-15.09s-4.6-11.29-6.09-15.2c-.75-2-1.34-3.55-1.72-4.66-.18-.51-.32-.93-.44-1.28a1.83,1.83,0,0,1-.12-.46,1.68,1.68,0,0,1,.22.42l.52,1.25c.47,1.16,1.1,2.71,1.86,4.6,1.62,3.94,3.81,9.26,6.22,15.15s4.63,11.19,6.25,15.13l1.87,4.6c.19.51.35.92.48,1.26A1.43,1.43,0,0,1,109.51,346.79Z"/><path class="cls-6" d="M78.51,324.07A2.46,2.46,0,1,1,76,321.62h0a2.45,2.45,0,0,1,2.45,2.45Z"/><path class="cls-1" d="M127.16,263.1c.08,0-.64,1.39-1.65,3.63a62.65,62.65,0,0,0-5.12,18.44c-.3,2.45-.38,4-.47,4a3.91,3.91,0,0,1,0-1.08,24.76,24.76,0,0,1,.14-2.93,52.5,52.5,0,0,1,5.18-18.56,25.42,25.42,0,0,1,1.39-2.58A4.4,4.4,0,0,1,127.16,263.1Z"/><path class="cls-1" d="M202.69,289.9a2.53,2.53,0,0,1-.55.09l-1.59.15-5.94.5-20.31,1.53H174v-.26c-.17-2.7-.35-5.55-.53-8.47-.29-5.1-.54-10-.62-14.39a20.36,20.36,0,0,1,2.59-11.35,14.07,14.07,0,0,1,5.69-5.47,11.88,11.88,0,0,1,2-.79c.24-.07.48-.13.73-.18,0,.08-1,.29-2.65,1.15a14.26,14.26,0,0,0-5.47,5.48,20.28,20.28,0,0,0-2.39,11.17c.1,4.41.36,9.27.65,14.37.18,2.92.35,5.77.52,8.46l-.28-.24,20.33-1.34,6-.35,1.59-.06Z"/></g></g></g></svg>