<svg width="288" height="288" viewBox="0 0 288 288" fill="none" xmlns="http://www.w3.org/2000/svg">
<g clip-path="url(#clip0_1336_1719)">
<path d="M44.7318 136.046C-10.0919 167.697 -10.0861 218.99 44.7318 250.67C99.5497 282.35 188.438 282.321 243.262 250.67C298.085 219.018 298.08 167.726 243.262 136.046C188.444 104.366 99.5555 104.394 44.7318 136.046Z" fill="#222E50" fill-opacity="0.22"/>
<path d="M275.847 182.673L266.85 172.455L172.005 117.608C169.644 115.995 166.107 119.267 164.731 122.567C164.516 123.06 164.354 123.573 164.247 124.1C163.982 125.47 164.212 126.709 165.232 127.406L260.848 182.702L273.969 185.294L277.54 186.002C277.647 186.026 277.758 186.015 277.858 185.971C277.958 185.928 278.041 185.853 278.096 185.759C278.15 185.664 278.173 185.555 278.162 185.446C278.15 185.338 278.104 185.236 278.03 185.156L275.847 182.673Z" fill="#E0E0E0"/>
<path d="M116.231 112.28L11.3414 182.638C9.78045 183.687 9.78621 185.271 11.3414 186.181L153.153 267.973C154.042 268.415 155.03 268.624 156.022 268.579C157.015 268.535 157.98 268.239 158.826 267.719L263.716 197.361C265.277 196.312 265.271 194.723 263.716 193.813L121.905 112.026C121.015 111.585 120.027 111.376 119.035 111.42C118.043 111.465 117.078 111.76 116.231 112.28Z" fill="#E0E0E0"/>
<path d="M176.198 128.794L177.425 129.497L178.9 130.349L262.541 178.733C262.08 177.702 262.437 175.646 263.491 173.676C264.712 171.372 266.584 169.557 267.938 169.488L184.694 121.335L181.866 119.71C183.64 120.862 177.984 129.923 176.198 128.794Z" fill="#379634"/>
<path d="M184.568 121.254L181.826 119.687C181.049 119.209 179.574 120.609 178.278 122.458C176.55 124.912 175.156 128.16 176.187 128.794L178.209 129.946L178.935 130.343C177.904 129.71 179.298 126.455 181.026 124.007C182.264 122.239 183.687 120.874 184.482 121.202C184.515 121.211 184.545 121.229 184.568 121.254Z" fill="#EBEBEB"/>
<path d="M183.882 120.868C182.073 119.751 176.44 128.857 178.243 129.975L180.979 131.547C179.176 130.43 184.809 121.323 186.618 122.441L183.882 120.868Z" fill="#FDE74C"/>
<path d="M189.222 123.944L186.521 122.388C184.758 121.277 179.228 130.015 180.726 131.403C180.755 131.432 180.788 131.458 180.824 131.478L183.554 133.021C181.786 131.904 187.431 122.809 189.222 123.944Z" fill="#EBEBEB"/>
<path d="M181.866 119.693H181.826C181.054 119.198 179.58 120.609 178.284 122.464C176.556 124.871 175.185 128.057 176.147 128.765L164.736 122.204C163.82 121.577 163.584 120.476 163.849 119.226C164.483 115.897 168.376 111.675 170.842 113.357L181.866 119.693Z" fill="#F28F8F"/>
<path d="M275.23 179.136C274.285 180.415 274.378 181.043 274.378 181.043L262.541 178.71C261.389 176.919 262.138 174.004 263.762 171.93L264.28 172.224L275.23 179.136Z" fill="#F28F8F"/>
<path d="M277.597 181.682L274.377 181.054C274.377 181.054 274.233 180.426 275.23 179.148L278.041 180.922C278.119 181.013 278.16 181.131 278.153 181.251C278.147 181.372 278.094 181.485 278.006 181.567C277.953 181.619 277.888 181.657 277.817 181.677C277.745 181.698 277.67 181.699 277.597 181.682Z" fill="#379634"/>
<path d="M267.932 169.477L276.053 178.693C275.732 178.75 275.438 178.912 275.218 179.154L264.274 172.242L263.756 171.948C264.868 170.525 266.377 169.494 267.932 169.477Z" fill="#FFA8A7"/>
<path d="M275.23 179.136C275.327 179.002 275.452 178.892 275.596 178.812C275.741 178.732 275.901 178.686 276.066 178.675L278.041 180.91L275.23 179.136Z" fill="#379634"/>
<path opacity="0.2" d="M263.762 171.942L164.995 116.45C164.449 117.3 164.059 118.24 163.843 119.227C163.601 120.465 163.814 121.571 164.736 122.204L176.198 128.794L177.425 129.497L178.9 130.349L262.541 178.733C261.095 176.498 262.656 173.203 263.762 171.942Z" fill="black"/>
<path d="M118.939 115.828L19.4864 177.068L17.4531 180.645V183.456C17.4615 184.154 17.6573 184.837 18.0201 185.434C18.3828 186.031 18.8992 186.519 19.5152 186.848L151.275 263.03C152.323 263.601 153.511 263.865 154.702 263.791C155.916 263.75 157.097 263.382 158.118 262.725L255.324 197.487V194.682L118.939 115.828Z" fill="#379634"/>
<path d="M154.685 260.985C153.495 261.059 152.309 260.793 151.264 260.219L19.5152 184.038C18.8988 183.709 18.3821 183.221 18.0193 182.624C17.6565 182.027 17.4609 181.343 17.4531 180.645C17.4663 179.926 17.6593 179.222 18.0145 178.598C18.3697 177.973 18.8757 177.447 19.4864 177.068L114.526 113.282L255.312 194.688L158.101 259.914C157.08 260.572 155.899 260.942 154.685 260.985Z" fill="#FDE74C"/>
<path d="M114.503 105.045L20.5286 168.105L19.584 169.609L19.6301 180.553C19.6511 180.854 19.7524 181.145 19.9236 181.394C20.0948 181.643 20.3295 181.842 20.6035 181.97L152.335 258.146C153.068 258.51 153.882 258.683 154.7 258.646C155.518 258.61 156.314 258.366 157.012 257.938L250.992 194.878L250.94 183.934L114.503 105.045Z" fill="#EBEBEB"/>
<path d="M250.946 183.94L249.794 184.729L234.502 194.988L231.656 196.906L156.995 247.018C156.297 247.445 155.501 247.688 154.683 247.725C153.865 247.761 153.051 247.589 152.318 247.225L20.5349 171.026C19.2504 170.277 19.2446 168.964 20.5349 168.1L21.7848 167.265L114.521 105.057L249.777 183.26L250.059 183.433L250.946 183.94Z" fill="#F0F0F0"/>
<path d="M154.628 247.714L154.674 258.658C153.874 258.706 153.076 258.531 152.37 258.152L20.5869 181.964C20.3133 181.836 20.079 181.637 19.9088 181.388C19.7385 181.139 19.6385 180.848 19.6192 180.547L19.5674 169.603C19.5913 169.903 19.6932 170.192 19.8629 170.44C20.0326 170.689 20.2643 170.889 20.5351 171.02L152.295 247.208C153.01 247.592 153.818 247.768 154.628 247.714Z" fill="#E0E0E0"/>
<path d="M250.941 182.482L234.024 193.83L231.368 195.609L156.967 245.537C156.269 245.965 155.473 246.21 154.655 246.247C153.837 246.284 153.023 246.113 152.289 245.75L34.3015 177.529C33.2417 176.953 32.2567 176.377 31.3351 175.801C26.5313 172.863 23.634 170.173 21.7735 167.253L21.5489 166.884C21.3999 166.659 21.2981 166.407 21.2494 166.141C21.1595 165.578 21.2753 165 21.5757 164.515C21.876 164.03 22.3407 163.669 22.8852 163.497C25.9921 162.37 28.9619 160.895 31.7383 159.102L31.8535 159.028L114.492 103.57L250.941 182.482Z" fill="white"/>
<path d="M114.515 104.256L249.875 182.511L233.747 193.346L231.098 195.126L156.673 245.059C155.992 245.475 155.207 245.689 154.409 245.675C153.78 245.692 153.156 245.545 152.6 245.249L34.5607 177.022C33.5988 176.492 32.6311 175.933 31.6174 175.323C27.0958 172.552 24.1294 169.897 22.2459 166.959L22.1422 166.792L22.0155 166.59C21.9031 166.416 21.8285 166.22 21.7966 166.014C21.7354 165.586 21.8296 165.151 22.0621 164.786C22.2945 164.422 22.6499 164.152 23.0638 164.027C26.2102 162.887 29.217 161.393 32.0263 159.575L32.0955 159.534H32.13L114.498 104.279M114.498 103.599L31.8535 159.039L31.7383 159.114C28.9619 160.907 25.9921 162.381 22.8852 163.509C22.3407 163.68 21.876 164.041 21.5757 164.527C21.2753 165.012 21.1595 165.589 21.2494 166.153C21.2981 166.418 21.3999 166.671 21.5489 166.896L21.7735 167.264C23.634 170.185 26.5313 172.875 31.3351 175.812C32.2567 176.388 33.2417 176.964 34.3015 177.54L152.289 245.75C152.933 246.096 153.656 246.269 154.386 246.251C155.297 246.266 156.193 246.018 156.967 245.537L231.368 195.609L234.024 193.83L250.941 182.482L114.492 103.57L114.498 103.599Z" fill="#E0E0E0"/>
<path opacity="0.1" d="M233.373 181.981C232.175 182.794 232.181 184.02 233.373 184.723C234.058 185.065 234.819 185.226 235.584 185.192C236.349 185.158 237.093 184.929 237.745 184.527C238.949 183.715 238.949 182.488 237.745 181.786C237.06 181.442 236.299 181.28 235.533 181.314C234.768 181.349 234.024 181.578 233.373 181.981Z" fill="black"/>
<path d="M247.375 172.489C245.705 171.527 243.62 171.78 241.495 173.197C238.211 175.415 235.377 180.15 234.156 185.028C234.679 185.185 235.228 185.232 235.769 185.167C236.921 180.818 239.404 176.648 242.312 174.683C243.099 174.114 244.024 173.766 244.991 173.675C245.542 173.643 246.09 173.771 246.569 174.044C247.98 174.862 248.798 176.964 248.81 179.804C248.815 180.273 248.792 180.743 248.741 181.209L250.279 182.102C250.381 181.315 250.433 180.523 250.434 179.729C250.417 176.256 249.305 173.606 247.375 172.489Z" fill="#379634"/>
<path d="M250.134 183.018C250.119 183.158 250.094 183.296 250.06 183.433L249.777 183.26L250.134 183.018Z" fill="#379634"/>
<path opacity="0.1" d="M220.171 174.343C218.973 175.156 218.978 176.383 220.171 177.085C220.856 177.427 221.617 177.588 222.382 177.554C223.147 177.52 223.891 177.291 224.543 176.889C225.746 176.077 225.746 174.85 224.543 174.148C223.858 173.805 223.096 173.644 222.331 173.678C221.566 173.712 220.823 173.941 220.171 174.343Z" fill="black"/>
<path d="M234.173 164.857C232.503 163.889 230.418 164.142 228.298 165.559C225.009 167.777 222.175 172.512 220.954 177.396C221.478 177.547 222.025 177.594 222.567 177.534C223.719 173.18 226.207 169.01 229.11 167.045C229.897 166.476 230.822 166.128 231.789 166.037C232.34 166.006 232.888 166.136 233.367 166.412C234.778 167.224 235.596 169.326 235.608 172.172C235.613 172.641 235.59 173.111 235.538 173.577L237.076 174.47C237.184 173.684 237.236 172.891 237.232 172.097C237.215 168.612 236.103 165.974 234.173 164.857Z" fill="#379634"/>
<path opacity="0.1" d="M206.963 166.712C205.77 167.518 205.77 168.745 206.963 169.453C207.649 169.792 208.409 169.952 209.174 169.918C209.938 169.884 210.681 169.657 211.334 169.258C212.544 168.445 212.538 167.219 211.334 166.516C210.649 166.174 209.888 166.012 209.123 166.046C208.358 166.081 207.614 166.31 206.963 166.712Z" fill="black"/>
<path d="M220.965 157.248C219.301 156.28 217.216 156.54 215.09 157.951C211.801 160.168 208.973 164.903 207.746 169.788C208.27 169.938 208.817 169.985 209.359 169.926C210.511 165.571 212.999 161.401 215.908 159.437C216.692 158.866 217.615 158.518 218.581 158.429C219.133 158.401 219.683 158.531 220.165 158.803C221.57 159.615 222.394 161.718 222.405 164.563C222.409 165.035 222.384 165.506 222.33 165.974L223.874 166.861C223.978 166.077 224.028 165.286 224.024 164.494C224.007 160.975 222.912 158.337 220.965 157.248Z" fill="#379634"/>
<path opacity="0.1" d="M193.761 159.074C192.563 159.886 192.568 161.113 193.761 161.815C194.446 162.157 195.206 162.319 195.971 162.285C196.736 162.252 197.48 162.025 198.132 161.625C199.336 160.807 199.336 159.581 198.132 158.878C197.447 158.537 196.686 158.377 195.921 158.411C195.157 158.445 194.413 158.673 193.761 159.074Z" fill="black"/>
<path d="M207.763 149.587C206.093 148.619 204.008 148.879 201.888 150.295C198.599 152.507 195.765 157.242 194.544 162.127C195.067 162.277 195.615 162.324 196.157 162.265C197.28 157.91 199.791 153.74 202.706 151.776C203.49 151.205 204.413 150.857 205.379 150.768C205.931 150.74 206.481 150.87 206.963 151.142C208.368 151.954 209.186 154.057 209.197 156.902C209.203 157.374 209.18 157.845 209.128 158.313L210.672 159.2C210.773 158.415 210.823 157.625 210.822 156.833C210.816 153.343 209.693 150.704 207.763 149.587Z" fill="#379634"/>
<path opacity="0.1" d="M180.559 151.442C179.361 152.254 179.367 153.481 180.559 154.184C181.244 154.525 182.004 154.687 182.768 154.652C183.532 154.618 184.275 154.389 184.926 153.988C186.135 153.176 186.129 151.949 184.926 151.246C184.241 150.904 183.481 150.742 182.717 150.776C181.953 150.811 181.21 151.04 180.559 151.442Z" fill="black"/>
<path d="M194.562 141.949C192.892 140.982 190.806 141.241 188.687 142.658C185.398 144.875 182.564 149.604 181.343 154.489C181.865 154.646 182.414 154.693 182.956 154.627C184.079 150.278 186.59 146.108 189.499 144.144C190.286 143.574 191.21 143.224 192.177 143.13C192.728 143.103 193.276 143.233 193.756 143.504C195.167 144.322 195.985 146.425 195.996 149.265C196.002 149.734 195.979 150.203 195.927 150.67L197.465 151.557C197.569 150.772 197.619 149.981 197.615 149.19C197.603 145.728 196.486 143.067 194.562 141.949Z" fill="#379634"/>
<path opacity="0.1" d="M167.351 143.804C166.153 144.616 166.159 145.843 167.351 146.546C168.036 146.887 168.796 147.049 169.56 147.015C170.324 146.98 171.067 146.752 171.718 146.35C172.927 145.538 172.921 144.311 171.718 143.608C171.033 143.267 170.273 143.106 169.509 143.14C168.745 143.175 168.003 143.403 167.351 143.804Z" fill="black"/>
<path d="M181.354 134.311C179.684 133.349 177.598 133.609 175.479 135.02C172.19 137.237 169.344 141.972 168.135 146.88C168.658 147.031 169.206 147.078 169.748 147.018C170.871 142.663 173.382 138.493 176.291 136.529C177.077 135.959 178.002 135.611 178.969 135.521C179.52 135.492 180.068 135.622 180.548 135.895C181.959 136.708 182.777 138.81 182.788 141.655C182.794 142.125 182.771 142.594 182.719 143.061L184.257 143.954C184.359 143.169 184.411 142.378 184.413 141.586C184.395 138.073 183.284 135.429 181.354 134.311Z" fill="#379634"/>
<path opacity="0.1" d="M154.149 136.172C152.951 136.984 152.957 138.211 154.149 138.914C154.834 139.255 155.594 139.417 156.358 139.382C157.122 139.348 157.865 139.119 158.515 138.718C159.725 137.906 159.719 136.679 158.515 135.976C157.831 135.634 157.071 135.472 156.307 135.506C155.543 135.541 154.8 135.77 154.149 136.172Z" fill="black"/>
<path d="M168.152 126.68C166.482 125.718 164.396 125.971 162.271 127.388C158.976 129.6 156.154 134.341 154.944 139.219C155.467 139.376 156.016 139.423 156.557 139.357C157.709 135.009 160.192 130.838 163.1 128.869C163.889 128.303 164.813 127.957 165.779 127.866C166.329 127.836 166.877 127.964 167.357 128.235C168.768 129.053 169.586 131.155 169.598 133.995C169.6 134.464 169.577 134.934 169.529 135.4L171.067 136.287C171.169 135.502 171.221 134.712 171.222 133.92C171.193 130.441 170.082 127.797 168.152 126.68Z" fill="#379634"/>
<path opacity="0.1" d="M140.941 128.534C139.743 129.346 139.749 130.573 140.941 131.276C141.627 131.618 142.388 131.779 143.153 131.745C143.918 131.71 144.661 131.482 145.313 131.08C146.517 130.274 146.517 129.041 145.313 128.338C144.628 127.998 143.867 127.837 143.102 127.871C142.337 127.905 141.594 128.134 140.941 128.534Z" fill="black"/>
<path d="M154.945 119.047C153.274 118.08 151.195 118.339 149.07 119.75C145.781 121.968 142.947 126.702 141.726 131.587C142.249 131.738 142.797 131.785 143.338 131.725C144.49 127.371 146.973 123.2 149.888 121.236C150.671 120.666 151.595 120.317 152.56 120.228C153.111 120.199 153.659 120.329 154.138 120.603C155.55 121.415 156.367 123.517 156.379 126.363C156.385 126.832 156.362 127.301 156.31 127.768L157.854 128.661C157.954 127.876 158.004 127.085 158.003 126.293C157.986 122.803 156.874 120.165 154.945 119.047Z" fill="#379634"/>
<path opacity="0.1" d="M127.74 120.902C126.542 121.709 126.548 122.936 127.74 123.644C128.426 123.985 129.187 124.145 129.951 124.111C130.716 124.077 131.46 123.849 132.112 123.448C133.316 122.636 133.316 121.409 132.112 120.706C131.427 120.364 130.666 120.203 129.901 120.237C129.136 120.271 128.392 120.5 127.74 120.902Z" fill="black"/>
<path d="M141.743 111.41C140.072 110.442 137.987 110.701 135.867 112.118C132.578 114.336 129.745 119.065 128.523 123.949C129.046 124.103 129.595 124.15 130.136 124.088C131.259 119.733 133.771 115.563 136.68 113.599C137.467 113.031 138.392 112.683 139.358 112.591C139.909 112.562 140.457 112.692 140.936 112.965C142.347 113.777 143.165 115.88 143.177 118.725C143.183 119.196 143.16 119.668 143.108 120.136L144.646 121.023C144.751 120.238 144.803 119.448 144.801 118.656C144.784 115.165 143.672 112.527 141.743 111.41Z" fill="#379634"/>
<path opacity="0.1" d="M114.532 113.265C113.334 114.077 113.34 115.304 114.532 116.006C115.217 116.348 115.978 116.509 116.743 116.475C117.508 116.441 118.252 116.212 118.904 115.81C120.114 114.998 120.108 113.771 118.904 113.069C118.218 112.728 117.458 112.567 116.693 112.602C115.928 112.636 115.185 112.864 114.532 113.265Z" fill="black"/>
<path d="M128.535 103.778C126.87 102.81 124.785 103.069 122.659 104.481C119.37 106.698 116.542 111.433 115.315 116.317C115.839 116.468 116.387 116.515 116.928 116.456C118.08 112.101 120.569 107.931 123.477 105.967C124.261 105.396 125.185 105.048 126.15 104.959C126.703 104.928 127.253 105.058 127.734 105.333C129.139 106.145 129.963 108.248 129.975 111.093C129.978 111.562 129.955 112.032 129.906 112.498L131.443 113.391C131.547 112.606 131.597 111.815 131.593 111.024C131.576 107.533 130.464 104.895 128.535 103.778Z" fill="#379634"/>
<path d="M141.391 231.552C141.127 231.562 140.867 231.498 140.639 231.366C140.41 231.235 140.224 231.041 140.1 230.809C139.904 230.438 139.85 230.008 139.948 229.6C140.045 229.192 140.288 228.834 140.63 228.591L212.93 180.075C213.092 179.962 213.276 179.886 213.47 179.85C213.664 179.814 213.863 179.819 214.055 179.866C214.247 179.913 214.426 180 214.582 180.121C214.737 180.243 214.865 180.396 214.957 180.57C215.153 180.941 215.208 181.371 215.11 181.779C215.013 182.187 214.77 182.545 214.427 182.788L142.134 231.321C141.911 231.464 141.655 231.543 141.391 231.552Z" fill="#EBEBEB"/>
<path d="M132.59 226.483C132.327 226.493 132.066 226.429 131.838 226.297C131.61 226.166 131.423 225.973 131.3 225.74C131.105 225.369 131.051 224.938 131.15 224.53C131.248 224.122 131.492 223.764 131.836 223.523L204.129 175C204.292 174.889 204.477 174.813 204.671 174.777C204.865 174.742 205.065 174.747 205.257 174.794C205.449 174.841 205.628 174.927 205.784 175.048C205.941 175.169 206.069 175.322 206.163 175.496C206.358 175.867 206.411 176.297 206.313 176.705C206.214 177.114 205.97 177.472 205.627 177.713L133.333 226.235C133.113 226.385 132.856 226.471 132.59 226.483Z" fill="#EBEBEB"/>
<path d="M123.782 221.391C123.519 221.4 123.259 221.335 123.032 221.202C122.805 221.07 122.619 220.876 122.498 220.642C122.302 220.271 122.248 219.842 122.345 219.434C122.443 219.026 122.685 218.667 123.028 218.425L195.327 169.92C195.49 169.809 195.674 169.734 195.868 169.699C196.061 169.664 196.26 169.67 196.451 169.717C196.642 169.763 196.821 169.85 196.977 169.97C197.133 170.09 197.261 170.242 197.355 170.415C197.551 170.786 197.605 171.216 197.507 171.624C197.41 172.032 197.167 172.39 196.825 172.633L124.525 221.138C124.306 221.289 124.049 221.376 123.782 221.391Z" fill="#EBEBEB"/>
<path d="M114.981 216.305C114.718 216.314 114.457 216.248 114.229 216.116C114.001 215.983 113.814 215.789 113.691 215.556C113.495 215.185 113.441 214.756 113.539 214.348C113.636 213.939 113.879 213.581 114.221 213.339L186.521 164.822C186.682 164.709 186.867 164.631 187.061 164.595C187.255 164.558 187.455 164.564 187.647 164.61C187.839 164.657 188.018 164.745 188.174 164.867C188.329 164.989 188.457 165.142 188.548 165.317C188.744 165.688 188.798 166.118 188.701 166.526C188.603 166.934 188.361 167.293 188.018 167.535L115.719 216.051C115.501 216.202 115.246 216.29 114.981 216.305Z" fill="#EBEBEB"/>
<path d="M106.174 211.208C105.911 211.218 105.65 211.153 105.422 211.022C105.194 210.89 105.007 210.697 104.884 210.465C104.689 210.093 104.635 209.663 104.734 209.255C104.832 208.847 105.076 208.488 105.42 208.247L177.719 159.731C177.882 159.619 178.067 159.543 178.261 159.507C178.455 159.472 178.655 159.478 178.846 159.524C179.038 159.571 179.218 159.658 179.374 159.779C179.53 159.899 179.659 160.052 179.752 160.226C179.948 160.598 180.001 161.028 179.903 161.436C179.804 161.844 179.56 162.202 179.217 162.443L106.917 210.96C106.697 211.109 106.44 211.195 106.174 211.208Z" fill="#EBEBEB"/>
<path d="M97.3735 206.121C97.1095 206.132 96.8482 206.067 96.6197 205.934C96.3913 205.801 96.2052 205.607 96.0832 205.373C95.8879 205.001 95.8345 204.571 95.9331 204.163C96.0317 203.755 96.2755 203.396 96.6189 203.155L168.913 154.638C169.075 154.526 169.26 154.449 169.454 154.413C169.649 154.377 169.848 154.383 170.041 154.429C170.233 154.476 170.413 154.563 170.569 154.685C170.725 154.806 170.853 154.959 170.946 155.134C171.142 155.505 171.196 155.934 171.099 156.342C171.001 156.75 170.758 157.109 170.416 157.351L98.1165 205.868C97.8979 206.021 97.6402 206.109 97.3735 206.121Z" fill="#EBEBEB"/>
<path d="M88.5723 201.024C88.3086 201.033 88.0478 200.967 87.8196 200.835C87.5914 200.702 87.4051 200.509 87.282 200.275C87.0861 199.904 87.0318 199.475 87.1294 199.067C87.2269 198.659 87.4695 198.3 87.812 198.058L160.129 149.547C160.291 149.434 160.475 149.358 160.669 149.322C160.863 149.286 161.062 149.291 161.254 149.338C161.446 149.385 161.625 149.472 161.781 149.593C161.936 149.715 162.064 149.868 162.156 150.042C162.352 150.413 162.406 150.843 162.309 151.251C162.211 151.659 161.969 152.018 161.626 152.26L89.3096 200.776C89.0909 200.924 88.836 201.01 88.5723 201.024Z" fill="#EBEBEB"/>
<path d="M79.7651 195.938C79.5019 195.948 79.2412 195.884 79.0129 195.752C78.7847 195.621 78.5982 195.428 78.4748 195.195C78.2795 194.823 78.2261 194.393 78.3247 193.985C78.4233 193.577 78.667 193.219 79.0105 192.977L151.31 144.461C151.472 144.347 151.656 144.27 151.85 144.233C152.044 144.197 152.244 144.202 152.436 144.249C152.628 144.296 152.808 144.383 152.963 144.505C153.119 144.627 153.246 144.781 153.338 144.956C153.533 145.327 153.588 145.757 153.49 146.165C153.393 146.573 153.15 146.931 152.808 147.174L80.5081 195.69C80.2875 195.839 80.0306 195.924 79.7651 195.938Z" fill="#EBEBEB"/>
<path d="M70.9637 190.846C70.702 190.85 70.4445 190.78 70.2205 190.644C69.9965 190.509 69.815 190.314 69.6965 190.08C69.5011 189.708 69.4478 189.278 69.5464 188.87C69.6449 188.462 69.8887 188.104 70.2322 187.862L142.503 139.392C142.665 139.279 142.85 139.201 143.044 139.165C143.239 139.128 143.439 139.133 143.631 139.18C143.824 139.227 144.004 139.314 144.16 139.436C144.316 139.558 144.444 139.712 144.536 139.887C144.732 140.259 144.785 140.689 144.686 141.097C144.588 141.505 144.344 141.864 144 142.105L71.7067 190.598C71.4866 190.748 71.2294 190.834 70.9637 190.846Z" fill="#EBEBEB"/>
<path d="M62.1564 185.76C61.8934 185.769 61.6333 185.703 61.406 185.571C61.1787 185.438 60.9935 185.244 60.8719 185.011C60.676 184.64 60.6217 184.21 60.7192 183.802C60.8167 183.394 61.0593 183.036 61.4018 182.793L133.701 134.277C133.863 134.164 134.048 134.088 134.242 134.052C134.436 134.016 134.635 134.021 134.827 134.068C135.018 134.115 135.198 134.202 135.353 134.323C135.509 134.445 135.637 134.598 135.729 134.772C135.925 135.143 135.979 135.573 135.882 135.981C135.784 136.389 135.541 136.748 135.199 136.99L62.8994 185.506C62.6796 185.657 62.4226 185.745 62.1564 185.76Z" fill="#EBEBEB"/>
<path d="M53.3555 180.674C53.0918 180.683 52.831 180.617 52.6028 180.485C52.3746 180.352 52.1884 180.158 52.0652 179.925C51.8693 179.554 51.815 179.124 51.9126 178.716C52.0101 178.308 52.2527 177.95 52.5952 177.707L124.9 129.185C125.063 129.073 125.247 128.996 125.441 128.96C125.635 128.924 125.834 128.93 126.026 128.976C126.217 129.023 126.397 129.11 126.552 129.232C126.708 129.353 126.836 129.506 126.928 129.68C127.124 130.051 127.178 130.481 127.081 130.889C126.983 131.297 126.741 131.656 126.398 131.898L54.0928 180.42C53.8747 180.57 53.6198 180.658 53.3555 180.674Z" fill="#EBEBEB"/>
<path d="M44.5483 175.576C44.2851 175.586 44.0244 175.522 43.7961 175.39C43.5679 175.259 43.3814 175.066 43.258 174.833C43.0627 174.461 43.0093 174.031 43.1079 173.623C43.2065 173.215 43.4503 172.857 43.7937 172.615L116.093 124.099C116.256 123.986 116.44 123.91 116.635 123.874C116.829 123.838 117.029 123.843 117.221 123.89C117.413 123.937 117.593 124.024 117.749 124.145C117.905 124.266 118.034 124.42 118.127 124.594C118.322 124.966 118.375 125.396 118.277 125.804C118.178 126.212 117.934 126.57 117.591 126.812L45.2913 175.328C45.0711 175.478 44.814 175.563 44.5483 175.576Z" fill="#EBEBEB"/>
<path d="M35.7465 170.496C35.4834 170.505 35.223 170.44 34.9949 170.309C34.7668 170.178 34.5802 169.985 34.4563 169.753C34.2609 169.381 34.2075 168.951 34.3061 168.543C34.4047 168.135 34.6485 167.776 34.9919 167.535L107.286 119.013C107.449 118.901 107.633 118.825 107.827 118.79C108.022 118.754 108.221 118.76 108.413 118.807C108.605 118.853 108.785 118.94 108.941 119.061C109.097 119.182 109.226 119.334 109.319 119.508C109.514 119.88 109.568 120.31 109.469 120.718C109.371 121.126 109.127 121.484 108.783 121.726L36.4895 170.242C36.27 170.394 36.0128 170.481 35.7465 170.496Z" fill="#EBEBEB"/>
<path d="M150.336 236.661C150.072 236.67 149.811 236.604 149.583 236.472C149.355 236.34 149.169 236.146 149.046 235.912C148.85 235.541 148.796 235.112 148.893 234.704C148.991 234.296 149.233 233.937 149.576 233.695L226.045 182.287C226.208 182.174 226.393 182.097 226.587 182.061C226.781 182.025 226.981 182.031 227.173 182.078C227.365 182.124 227.545 182.211 227.701 182.333C227.858 182.454 227.986 182.607 228.079 182.782C228.276 183.154 228.33 183.586 228.231 183.995C228.133 184.404 227.888 184.764 227.543 185.005L151.073 236.408C150.855 236.557 150.6 236.644 150.336 236.661Z" fill="#FDE74C"/>
<path d="M157.835 176.531C157.725 176.214 157.564 175.891 157.334 175.955C157.265 175.99 157.207 176.043 157.167 176.11C157.127 176.176 157.107 176.252 157.109 176.329C157.11 176.432 157.13 176.533 157.167 176.629C157.236 176.859 157.38 176.98 157.455 177.205C158.307 180.021 155.514 180.914 154.039 181.018C149.857 181.329 145.75 179.445 141.908 177.395C136.396 174.457 130.907 171.226 125.135 169.331C120.285 167.747 112.797 166.174 110.01 173.507C109.958 173.657 110.131 173.927 110.205 173.76C113.229 166.963 120.147 168.369 124.916 169.947C130.746 171.877 136.281 175.16 141.857 178.121C145.583 180.096 149.5 181.819 153.544 181.715C155.393 181.675 159.119 180.603 157.967 176.928C157.933 176.848 157.887 176.692 157.835 176.531Z" fill="#379634"/>
<path d="M140.422 87.9868C136.034 84.8858 131.018 81.5571 124.811 76.1303C118.603 70.7034 116.101 71.8407 108.423 72.6561C102.055 73.3378 84.2487 74.2518 77.126 74.5881C67.9564 75.0169 65.6678 75.642 55.6483 71.4347C44.7351 66.8337 8.38292 51.9861 8.38292 51.9861L5.17735 122.194C18.0145 123.123 28.7468 123.878 36.748 124.831C43.7335 125.655 48.429 127.021 56.4924 136.094C61.9713 142.25 63.7048 145.231 72.3639 148.899C79.0841 151.757 81.0259 152.547 88.6937 155.619L104.39 137.891C103.286 137.197 102.356 136.258 101.672 135.148C99.4698 131.011 105.738 128.798 108.599 127.769C115.299 125.366 140.145 124.539 140.145 124.539L147.627 109.14C148.586 106.118 149.286 102.666 144.492 97.8613C145.102 95.6801 144.813 91.093 140.422 87.9868Z" fill="#FFA8A7"/>
<path d="M117.715 79.1591C116.853 78.7489 115.928 78.4861 114.979 78.3817C114.455 78.3023 113.946 78.2411 113.419 78.1565C112.809 78.0508 112.193 77.9871 111.574 77.9659C111.461 77.9695 111.552 78.1176 111.608 78.1416C113.572 78.831 115.722 78.7141 117.564 79.7882C118.318 80.2524 119.032 80.7785 119.699 81.3611C120.567 82.0739 121.439 82.7661 122.336 83.4459C122.405 83.4958 122.419 83.4058 122.381 83.3537C121.025 81.7763 119.582 80.1512 117.715 79.1591Z" fill="#F28F8F"/>
<path d="M144.558 97.8803C144.701 97.3022 144.773 96.7089 144.774 96.1135C141.989 93.8824 136.206 90.2905 130.464 85.1123C134.764 89.3688 137.557 91.1801 144.558 97.8803Z" fill="#F28F8F"/>
<path d="M122.025 76.8926C121.771 76.5118 121.473 76.1618 121.138 75.8497C120.545 75.2738 119.85 74.8133 119.088 74.4919C118.219 74.1916 117.301 74.0514 116.382 74.0781C115.368 74.0291 114.353 74.1128 113.361 74.3271C113.361 74.3271 113.376 74.3583 113.381 74.3686C114.334 74.4334 115.292 74.4442 116.244 74.509C117.127 74.5151 118.001 74.6827 118.824 75.0034C120.275 75.6522 121.316 76.9342 122.539 77.9044C122.611 77.9595 122.681 77.9064 122.654 77.8493C122.473 77.5126 122.262 77.1925 122.025 76.8926Z" fill="#F28F8F"/>
<path d="M148.281 106.521C146.593 103.607 144.075 102.418 140.615 99.4511C136.261 95.7323 127.334 88.9254 123.242 84.3833C126.052 88.8792 137.147 103.767 145.114 114.376L147.655 109.145C147.948 108.293 148.158 107.414 148.281 106.521Z" fill="#F28F8F"/>
<path d="M103.681 137.472C103.154 136.975 102.586 136.524 101.982 136.124C101.411 135.696 100.866 135.23 100.326 134.761C99.3164 133.889 98.3655 132.95 97.4799 131.952C96.5837 130.935 95.8066 129.818 95.1638 128.625C94.8524 128.042 94.5769 127.44 94.3387 126.823C94.2144 126.499 94.1057 126.168 94.0021 125.834C93.9258 125.583 93.868 125.291 93.7709 125.05C93.6738 124.809 93.5981 124.692 93.5516 124.517C93.5015 124.413 93.1946 124.254 93.1969 124.458C93.1871 124.793 93.2057 125.128 93.2525 125.46C93.3065 125.757 93.3755 126.05 93.4593 126.339C93.622 126.906 93.8235 127.46 94.0622 127.999C94.5131 129.004 95.0633 129.962 95.7046 130.858C96.9839 132.629 98.533 134.189 100.296 135.479C100.81 135.87 101.324 136.205 101.847 136.56C102.4 136.98 103 137.334 103.635 137.615C103.733 137.619 103.719 137.511 103.681 137.472Z" fill="#F28F8F"/>
<path d="M139.357 115.607L115.657 98.1631C115.657 98.1631 104.748 107.906 100.341 114.134C95.9337 120.361 98.6838 133.226 103.639 137.595L103.908 137.529C103.003 136.912 102.245 136.102 101.689 135.159C99.4873 131.022 105.755 128.808 108.616 127.779C115.317 125.376 140.163 124.55 140.163 124.55L142.022 120.716L139.357 115.607Z" fill="#F28F8F"/>
<path d="M24.9485 85.6708C24.0155 66.0143 14.2433 50.5075 3.12175 51.0354C-7.99979 51.5633 -16.2592 67.926 -15.3261 87.5825C-14.3931 107.239 -4.62093 122.746 6.50061 122.218C17.6221 121.69 25.8815 105.327 24.9485 85.6708Z" fill="#FFA8A7"/>
<path d="M109.256 78.1062C117.971 77.8076 120.722 81.3469 124.459 85.8429C128.196 90.3388 138.31 98.8754 142.588 102.874C146.865 106.873 147.894 107.93 149.205 115.51C150.517 123.089 151.422 138.744 151.422 138.744C151.422 138.744 110.544 95.3615 106.949 90.6047C103.355 85.848 101.153 79.6834 109.256 78.1062Z" fill="#FFA8A7"/>
<path d="M145.949 112.86C145.948 112.877 145.951 112.894 145.959 112.909C145.966 112.925 145.978 112.938 145.992 112.948C146.255 112.91 146.528 112.587 146.736 112.435C146.944 112.283 147.262 112.041 147.532 111.859C147.803 111.677 148.07 111.516 148.364 111.355C148.307 111.146 148.248 110.944 148.194 110.753C147.502 111.193 146.865 111.715 146.297 112.308C146.123 112.448 146.001 112.642 145.949 112.86ZM144.241 109.399C144.827 108.783 145.474 108.228 146.173 107.744C146.358 107.622 146.55 107.51 146.747 107.409C146.652 107.212 146.51 107.037 146.381 106.863C146.163 106.968 145.965 107.102 145.762 107.238C144.988 107.726 144.323 108.367 143.807 109.123C143.631 109.355 144.058 109.577 144.241 109.399ZM147.016 109C146.566 109.241 146.132 109.511 145.716 109.806C144.848 110.391 144.095 111.132 143.496 111.991C143.357 112.205 143.749 112.342 143.893 112.202C144.522 111.533 145.202 110.912 145.925 110.345C146.279 110.083 146.648 109.845 147.033 109.631C147.235 109.534 147.458 109.426 147.676 109.321C147.588 109.139 147.532 108.955 147.457 108.787C147.301 108.862 147.161 108.93 147.016 109Z" fill="#F28F8F"/>
<path d="M136.144 104.551C130.438 100.226 125.02 95.5316 119.927 90.499L112.497 91.6167L112.343 96.7696C124.362 110.021 151.419 138.739 151.419 138.739C151.419 138.739 151.284 136.418 151.059 133.156C151.059 133.156 146.722 120.488 144.768 114.824C142.814 109.16 140.11 107.453 136.144 104.551Z" fill="#F28F8F"/>
<path d="M127.036 145.188C126.506 145.111 125.986 145.055 125.444 144.939C118.198 143.589 110.547 142.287 104.389 137.891L88.6541 155.644C93.7986 157.719 99.063 159.484 104.419 160.928C109.006 162.282 120.625 161.573 128.457 161.7C136.29 161.827 139.694 162.122 140.85 160.464C142.227 158.571 139.463 147.03 127.036 145.188Z" fill="#FFA8A7"/>
<path d="M106.826 161.384C106.784 161.123 106.744 160.868 106.719 160.605C106.668 160.057 106.648 159.507 106.659 158.958C106.724 158.407 106.734 157.851 106.69 157.299C106.661 157.172 106.413 157.055 106.341 157.199C106.114 157.773 106.002 158.385 106.01 159.003C105.977 159.646 105.995 160.292 106.065 160.933C106.076 161.049 106.1 161.165 106.112 161.281L106.826 161.384Z" fill="#F28F8F"/>
<path d="M109.39 161.432C109.223 160.555 109.14 159.663 109.141 158.77C109.148 158.012 109.24 157.257 109.417 156.52C109.536 155.999 109.703 155.489 109.917 154.999C110.1 154.61 110.312 154.24 110.456 153.837C110.494 153.729 110.298 153.588 110.206 153.664C109.557 154.274 109.082 155.046 108.83 155.901C108.529 156.761 108.353 157.66 108.309 158.571C108.265 159.561 108.335 160.552 108.52 161.526L109.416 161.592C109.419 161.559 109.391 161.502 109.39 161.432Z" fill="#F28F8F"/>
<path d="M111.465 160.22C111.393 159.52 111.371 158.816 111.402 158.114C111.415 157.812 111.445 157.512 111.491 157.214C111.575 156.92 111.603 156.614 111.574 156.31C111.518 156.196 111.296 156.08 111.207 156.2C110.87 156.834 110.689 157.54 110.678 158.258C110.613 158.957 110.606 159.66 110.657 160.36C110.692 160.804 110.745 161.245 110.811 161.687L111.658 161.719C111.583 161.218 111.51 160.723 111.465 160.22Z" fill="#F28F8F"/>
<path d="M125.209 161.676C124.534 159.564 124.613 157.283 125.432 155.223C125.432 155.223 130.864 154.936 133.633 155.742C136.401 156.548 139.741 159.663 139.131 161.473C136.371 162.818 131.327 161.895 125.209 161.676Z" fill="#FFC4C3"/>
<path opacity="0.3" d="M125.209 161.676C125.924 161.701 126.619 161.737 127.304 161.777C126.945 159.526 126.313 157.327 125.422 155.228C124.607 157.288 124.532 159.567 125.209 161.676Z" fill="white"/>
<path d="M112.102 113.298C117.77 116.958 127.143 123.946 127.781 125.122C131.39 131.778 134.437 139.082 137.992 146.448C141.548 153.814 144.083 159.223 149.676 162.555C154.73 165.552 160.689 164.172 159.126 158.985C157.799 154.54 154.163 145.947 151.426 138.755C148.69 131.562 145.444 120.798 143.163 115.011C140.881 109.224 134.561 105.514 128.599 99.4823C123.419 94.2372 117.767 87.1796 112.776 85.4381C107.784 83.6967 91.9993 83.5388 86.1748 83.3315L112.102 113.298Z" fill="#FFA8A7"/>
<path d="M143.003 115.619C142.618 115.84 142.217 116.033 141.804 116.197C140.934 116.514 140.04 116.762 139.13 116.938C138.903 116.997 139.097 117.268 139.255 117.275C140.25 117.254 141.23 117.031 142.136 116.619C142.598 116.438 143.045 116.222 143.474 115.973L143.516 115.953C143.433 115.782 143.382 115.609 143.314 115.443L143.003 115.619Z" fill="#F28F8F"/>
<path d="M135.824 112.912C135.716 113.047 136.01 113.206 136.12 113.114C136.96 112.392 137.939 111.85 138.997 111.521C139.471 111.388 139.958 111.305 140.45 111.273L140.917 111.272C140.762 111.072 140.603 110.874 140.443 110.676C139.914 110.71 139.391 110.804 138.883 110.955C137.688 111.281 136.621 111.964 135.824 112.912Z" fill="#F28F8F"/>
<path d="M138.6 113.798C137.798 114.147 137.043 114.594 136.35 115.127C135.772 115.585 134.9 116.204 134.748 116.975C134.748 116.975 134.79 117.063 134.816 117.051C135.173 116.866 135.501 116.63 135.79 116.351C136.118 116.077 136.451 115.814 136.803 115.574C138.094 114.674 139.568 114.067 141.119 113.797C141.576 113.721 142.038 113.678 142.502 113.667C142.374 113.403 142.251 113.148 142.07 112.891C141.734 112.925 141.399 112.972 141.081 113.029C140.226 113.185 139.393 113.443 138.6 113.798Z" fill="#F28F8F"/>
<path d="M152.917 142.876C152.605 142.918 152.287 142.976 151.975 143.031C151.332 143.156 150.696 143.296 150.062 143.468C150.029 143.475 149.997 143.489 149.969 143.509C149.941 143.529 149.917 143.554 149.899 143.584C149.882 143.613 149.871 143.646 149.866 143.68C149.862 143.714 149.865 143.749 149.875 143.782C149.945 143.927 150.128 143.961 150.262 143.921C150.831 143.775 151.405 143.639 152.017 143.516L152.887 143.371L153.205 143.326L153.018 142.86L152.917 142.876Z" fill="#F28F8F"/>
<path d="M150.279 141.822C150.95 141.713 151.627 141.647 152.306 141.624L152.533 141.617L152.284 140.982L152.207 140.981C151.495 141.03 150.786 141.124 150.086 141.263C149.392 141.401 148.708 141.581 148.038 141.804C147.31 141.996 146.621 142.314 146.002 142.742C145.878 142.802 146.043 142.997 146.156 142.968C146.878 142.78 147.57 142.49 148.283 142.286C148.939 142.094 149.605 141.939 150.279 141.822Z" fill="#F28F8F"/>
<path d="M148.52 140.657C149.428 140.444 150.347 140.282 151.273 140.172C151.497 140.147 151.722 140.135 151.946 140.122C151.863 139.951 151.814 139.77 151.737 139.583L151.27 139.623C150.268 139.761 149.28 139.99 148.319 140.306C148.078 140.403 148.331 140.703 148.52 140.657Z" fill="#F28F8F"/>
<path d="M155.333 148.702C150.878 147.238 148.197 149.818 148.197 149.818C149.016 152.48 150.087 155.058 151.395 157.517C153.305 160.918 156.448 161.518 158.362 160.965C160.276 160.412 158.839 156.84 155.333 148.702Z" fill="#FFC4C3"/>
<path opacity="0.3" d="M155.899 150.021C155.699 149.606 155.527 149.158 155.333 148.702C150.878 147.238 148.196 149.818 148.196 149.818C149.324 150.604 153.599 150.875 155.899 150.021Z" fill="white"/>
<path d="M114.936 85.5403C112.604 84.2996 109.952 84.1854 107.366 84.1288C105.919 84.1272 104.474 84.0365 103.039 83.8573C102.954 83.8407 103.004 83.9831 103.058 84.0018C105.403 84.6605 107.878 84.713 110.259 85.0604C112.822 85.3435 115.229 86.4354 117.13 88.1779C118.283 89.1626 119.361 90.2287 120.472 91.2592C120.556 91.3402 120.604 91.2404 120.553 91.1624C119.137 88.9427 117.281 86.794 114.936 85.5403Z" fill="#F28F8F"/>
<path d="M49.8521 41.6067C50.0103 41.7017 50.1559 41.8162 50.2853 41.9476L49.522 41.0817C49.4772 41.0296 49.4298 40.98 49.3798 40.9329L49.3622 40.8966C49.3141 40.8447 49.2613 40.7974 49.2045 40.7553L49.1229 40.6923C49.1004 40.6456 49.0337 40.6267 48.98 40.595L48.7346 40.4576C48.645 40.4177 48.5554 40.3779 48.4631 40.3457C47.7363 40.1193 46.9627 40.089 46.2204 40.2578C43.2213 40.842 39.98 43.6539 38.9815 46.5408C38.8434 46.9183 38.7539 47.3118 38.7153 47.7119C38.7027 47.7824 38.6966 47.8538 38.6968 47.9254C38.6865 47.9658 38.685 48.008 38.6925 48.049C38.6863 48.1315 38.6878 48.2143 38.6968 48.2964C38.7025 48.5695 38.7491 48.8403 38.8351 49.0995C38.9287 49.4063 39.0853 49.6901 39.2949 49.9329L40.1647 50.9265C40.0195 50.7615 39.8997 50.5757 39.8091 50.3754C40.6636 50.8404 41.6627 50.9638 42.6047 50.7209C45.6063 50.1418 48.8528 47.3274 49.8513 44.4405C50.215 43.531 50.2153 42.5165 49.8521 41.6067Z" fill="#FDE74C"/>
<path d="M151.286 158.497L141.058 167.399L140.191 166.398L40.1411 50.9571C39.9959 50.792 39.8761 50.6063 39.7856 50.406C39.4285 49.4805 39.4409 48.4531 39.8203 47.5366C40.8189 44.6497 44.0627 41.843 47.0643 41.2639C47.8038 41.0896 48.5764 41.1163 49.302 41.3414C49.4949 41.4084 49.6795 41.4974 49.8522 41.6067C50.0104 41.7016 50.1559 41.8162 50.2854 41.9476C50.2854 41.9476 50.3129 42.0047 50.3489 42.0129L50.3639 42.044L151.286 158.497Z" fill="#F0F0F0"/>
<path d="M147.971 157.711C150.97 157.127 152.598 159.002 151.594 161.891C150.591 164.78 147.354 167.59 144.353 168.169C141.351 168.748 139.731 166.876 140.73 163.989C141.728 161.102 144.969 158.29 147.971 157.711Z" fill="#FDE74C"/>
<path d="M155.384 167.807C155.359 167.755 155.331 167.698 155.306 167.647L151.72 159.291L151.675 159.198C151.654 159.146 151.63 159.096 151.603 159.047L151.563 158.964C151.011 157.887 149.722 157.364 147.945 157.711C144.944 158.29 141.702 161.102 140.704 163.989C140.124 165.663 140.435 166.996 141.373 167.708L141.442 167.745C141.538 167.814 141.639 167.877 141.744 167.932L141.808 167.971L149.553 172.701C150.035 172.959 150.597 173.026 151.127 172.888C152.051 172.658 152.907 172.214 153.627 171.591C154.346 170.968 154.909 170.184 155.268 169.302C155.475 168.832 155.516 168.304 155.384 167.807Z" fill="#E0E0E0"/>
<path d="M87.2145 91.2342C87.2144 91.2282 87.2131 91.2223 87.2105 91.2169C87.2079 91.2116 87.2041 91.2068 87.1995 91.2031L87.0803 91.0623C86.9248 90.9436 86.7439 90.8625 86.5518 90.8254C86.3596 90.7883 86.1615 90.7962 85.973 90.8485C85.3979 90.9941 84.8651 91.2727 84.4175 91.6621C83.97 92.0515 83.6202 92.5406 83.3965 93.09C83.3189 93.2634 83.2819 93.4521 83.2882 93.6419C83.2945 93.8317 83.3439 94.0176 83.4328 94.1854L83.59 94.3654L147.094 167.62L152.529 166.57L87.2145 91.2342Z" fill="#379634"/>
<path d="M141.962 161.744L147.073 167.643L152.508 166.592L145.581 158.603C144.167 159.383 142.934 160.454 141.962 161.744Z" fill="#379634"/>
<path d="M156.614 171.614L153.361 164.039C153.337 163.969 153.305 163.903 153.265 163.841C152.885 163.053 151.963 162.68 150.686 162.925C149.545 163.21 148.487 163.761 147.598 164.533C146.709 165.304 146.014 166.274 145.57 167.364C145.162 168.546 145.371 169.482 146.031 169.988L146.051 170.03L146.25 170.151L153.388 174.47C153.66 174.614 153.977 174.651 154.275 174.573C154.796 174.444 155.279 174.194 155.684 173.842C156.089 173.491 156.405 173.049 156.607 172.552C156.674 172.405 156.709 172.245 156.71 172.084C156.712 171.922 156.679 171.762 156.614 171.614Z" fill="#FDE74C"/>
<path opacity="0.1" d="M156.614 171.614L153.361 164.039C153.337 163.969 153.305 163.903 153.265 163.841C152.885 163.053 151.963 162.68 150.686 162.925C149.545 163.21 148.487 163.761 147.598 164.533C146.709 165.304 146.014 166.274 145.57 167.364C145.162 168.546 145.371 169.482 146.031 169.988L146.051 170.03L146.25 170.151L153.388 174.47C153.66 174.614 153.977 174.651 154.275 174.573C154.796 174.444 155.279 174.194 155.684 173.842C156.089 173.491 156.405 173.049 156.607 172.552C156.674 172.405 156.709 172.245 156.71 172.084C156.712 171.922 156.679 171.762 156.614 171.614Z" fill="black"/>
<path d="M156.625 172.549C156.421 173.046 156.103 173.487 155.696 173.838C155.29 174.189 154.807 174.439 154.286 174.568C153.989 174.646 153.674 174.608 153.403 174.463L149.791 172.279C149.214 171.918 149.025 171.223 149.34 170.297C149.664 169.503 150.171 168.797 150.818 168.236C151.466 167.674 152.237 167.273 153.069 167.064C153.98 166.886 154.646 167.153 154.93 167.714L155.002 167.864L156.614 171.614C156.679 171.761 156.713 171.92 156.715 172.081C156.716 172.241 156.686 172.401 156.625 172.549Z" fill="#FDE74C"/>
<path opacity="0.1" d="M155.455 171.201C156.421 171.016 156.936 171.619 156.627 172.555C156.425 173.052 156.109 173.494 155.704 173.845C155.299 174.197 154.816 174.447 154.295 174.575C153.332 174.765 152.815 174.158 153.124 173.222C153.326 172.725 153.642 172.284 154.048 171.932C154.453 171.581 154.935 171.331 155.455 171.201Z" fill="black"/>
<path d="M56.4668 55.747C56.3163 55.5971 56.1273 55.4917 55.9207 55.4424C55.7141 55.3932 55.4978 55.402 55.2959 55.468C54.7231 55.6098 54.1919 55.8852 53.7459 56.2716C53.3 56.6581 52.9518 57.1447 52.73 57.6916C52.6373 57.8868 52.5997 58.1036 52.6212 58.3187C52.6427 58.5337 52.7226 58.7388 52.8521 58.9118L83.4351 94.2038C83.3462 94.0359 83.2967 93.85 83.2904 93.6602C83.2842 93.4704 83.3212 93.2817 83.3988 93.1084C83.6225 92.559 83.9722 92.0698 84.4198 91.6805C84.8673 91.2911 85.4002 91.0124 85.9753 90.8669C86.1638 90.8146 86.3619 90.8067 86.554 90.8438C86.7462 90.8809 86.9271 90.9619 87.0826 91.0806L56.4668 55.747Z" fill="#FAFAFA"/>
<path d="M56.5788 56.9463C56.3558 57.4924 56.0073 57.9783 55.5615 58.3646C55.1157 58.7509 54.5852 59.0268 54.0129 59.1699C53.8128 59.2333 53.5991 59.2408 53.3951 59.1917C53.191 59.1425 53.0042 59.0386 52.8549 58.891C52.721 58.7212 52.6376 58.5173 52.6142 58.3024C52.5907 58.0875 52.6282 57.8703 52.7224 57.6757C52.9442 57.1289 53.2924 56.6423 53.7383 56.2558C54.1843 55.8693 54.7155 55.5939 55.2883 55.4521C55.4902 55.3862 55.7065 55.3773 55.9131 55.4266C56.1197 55.4758 56.3087 55.5813 56.4592 55.7312C56.5868 55.9041 56.6653 56.1084 56.6863 56.3223C56.7074 56.5361 56.6702 56.7517 56.5788 56.9463Z" fill="#F5F5F5"/>
<path d="M55.3626 48.848L55.3375 48.7962C55.3274 48.7691 55.3148 48.7431 55.3 48.7183L49.9525 42.5564C49.9129 42.5062 49.8706 42.4583 49.8257 42.4129L49.8057 42.3714C49.2061 41.7654 48.2075 41.5119 46.947 41.7494C45.4933 42.1128 44.1458 42.814 43.0139 43.796C41.8821 44.778 40.9978 46.0131 40.433 47.4011C39.9769 48.7086 40.1242 49.7823 40.7202 50.4605L46.1386 56.7033C46.1422 56.7164 46.1481 56.7287 46.1562 56.7396L46.1762 56.7811C46.7752 57.4258 47.789 57.6975 49.1064 57.4453C50.5598 57.0811 51.9069 56.3796 53.0386 55.3977C54.1703 54.4158 55.0548 53.1811 55.6204 51.7936C56.0236 50.5884 55.8992 49.5356 55.3626 48.848Z" fill="#FDE74C"/>
<path opacity="0.05" d="M55.3626 48.848L55.3375 48.7962C55.3274 48.7691 55.3148 48.7431 55.3 48.7183L49.9525 42.5564C49.9129 42.5062 49.8706 42.4583 49.8257 42.4129L49.8057 42.3714C49.2061 41.7654 48.2075 41.5119 46.947 41.7494C45.4933 42.1128 44.1458 42.814 43.0139 43.796C41.8821 44.778 40.9978 46.0131 40.433 47.4011C39.9769 48.7086 40.1242 49.7823 40.7202 50.4605L46.1386 56.7033C46.1422 56.7164 46.1481 56.7287 46.1562 56.7396L46.1762 56.7811C46.7752 57.4258 47.789 57.6975 49.1064 57.4453C50.5598 57.0811 51.9069 56.3796 53.0386 55.3977C54.1703 54.4158 55.0548 53.1811 55.6204 51.7936C56.0236 50.5884 55.8992 49.5356 55.3626 48.848Z" fill="black"/>
<path opacity="0.1" d="M52.318 48.0532C55.02 47.5292 56.4904 49.2371 55.5811 51.8186C55.0155 53.2061 54.131 54.4408 52.9993 55.4227C51.8676 56.4046 50.5205 57.1061 49.0671 57.4703C46.3626 57.9891 44.8947 56.2865 45.804 53.7049C46.3688 52.3169 47.253 51.0818 48.3849 50.0998C49.5167 49.1178 50.8642 48.4166 52.318 48.0532Z" fill="black"/>
<path d="M157.92 174.783L155.731 172.168C155.661 172.094 155.572 172.041 155.473 172.015C155.375 171.989 155.271 171.991 155.174 172.022C154.908 172.089 154.661 172.219 154.454 172.399C154.246 172.579 154.084 172.805 153.979 173.059C153.94 173.148 153.924 173.246 153.933 173.344C153.942 173.441 153.976 173.535 154.031 173.616L156.21 176.235C156.337 176.375 156.498 176.48 156.677 176.541C156.907 176.621 157.157 176.624 157.388 176.55C157.62 176.476 157.822 176.328 157.963 176.13C158.103 175.931 158.176 175.692 158.169 175.449C158.162 175.205 158.077 174.971 157.925 174.78L157.92 174.783Z" fill="#379634"/>
<path d="M158.034 174.965C158.013 174.903 157.984 174.843 157.948 174.789C157.874 174.739 157.79 174.706 157.701 174.693C157.613 174.679 157.523 174.685 157.437 174.709C157.17 174.775 156.922 174.903 156.714 175.083C156.506 175.264 156.345 175.491 156.243 175.746C156.201 175.833 156.184 175.93 156.193 176.026C156.202 176.122 156.237 176.213 156.294 176.291C156.3 176.311 156.31 176.33 156.322 176.348C156.329 176.366 156.337 176.383 156.347 176.4C156.441 176.48 156.55 176.541 156.669 176.577C156.951 176.667 157.257 176.646 157.523 176.518C157.79 176.389 157.996 176.163 158.101 175.886C158.158 175.737 158.182 175.577 158.171 175.418C158.159 175.258 158.112 175.104 158.034 174.965Z" fill="#379634"/>
<path d="M109.256 78.1062C117.971 77.8076 120.722 81.3469 124.459 85.8429C128.196 90.3388 138.31 98.8754 142.588 102.874C146.865 106.873 147.894 107.93 149.205 115.51C150.517 123.089 151.422 138.744 151.422 138.744C151.422 138.744 110.544 95.3615 106.949 90.6047C103.355 85.848 101.153 79.6834 109.256 78.1062Z" fill="#FFA8A7"/>
<path d="M145.949 112.86C145.948 112.877 145.951 112.894 145.959 112.91C145.966 112.925 145.978 112.939 145.992 112.948C146.255 112.911 146.528 112.587 146.736 112.436C146.944 112.284 147.262 112.041 147.532 111.859C147.803 111.678 148.07 111.516 148.364 111.356C148.307 111.146 148.248 110.944 148.194 110.753C147.502 111.193 146.865 111.715 146.297 112.308C146.123 112.449 146.001 112.643 145.949 112.86ZM144.241 109.4C144.827 108.783 145.474 108.229 146.173 107.744C146.358 107.623 146.55 107.511 146.747 107.41C146.652 107.212 146.51 107.038 146.381 106.863C146.163 106.969 145.965 107.102 145.762 107.239C144.988 107.726 144.323 108.368 143.807 109.123C143.631 109.355 144.058 109.577 144.241 109.4ZM147.016 109C146.566 109.242 146.132 109.511 145.716 109.807C144.848 110.392 144.095 111.132 143.496 111.991C143.357 112.206 143.749 112.343 143.893 112.203C144.522 111.533 145.202 110.912 145.925 110.345C146.279 110.084 146.648 109.845 147.033 109.632C147.235 109.534 147.458 109.426 147.676 109.321C147.588 109.14 147.532 108.956 147.457 108.787C147.301 108.863 147.161 108.93 147.016 109Z" fill="#F28F8F"/>
<path d="M136.144 104.552C130.438 100.226 125.02 95.5321 119.927 90.4995L112.497 91.6172L112.343 96.77C124.362 110.022 151.419 138.739 151.419 138.739C151.419 138.739 151.284 136.419 151.059 133.157C151.059 133.157 146.722 120.488 144.768 114.825C142.814 109.161 140.11 107.454 136.144 104.552Z" fill="#F28F8F"/>
<path d="M127.036 145.188C126.506 145.111 125.986 145.055 125.444 144.939C118.198 143.589 110.547 142.287 104.389 137.892L88.6541 155.644C93.7986 157.719 99.063 159.484 104.419 160.928C109.006 162.283 120.625 161.574 128.457 161.701C136.29 161.828 139.694 162.123 140.85 160.464C142.227 158.572 139.463 147.031 127.036 145.188Z" fill="#FFA8A7"/>
<path d="M106.826 161.384C106.784 161.123 106.744 160.868 106.719 160.605C106.668 160.057 106.648 159.507 106.659 158.958C106.724 158.407 106.734 157.851 106.69 157.299C106.661 157.172 106.413 157.055 106.341 157.199C106.114 157.773 106.002 158.385 106.01 159.003C105.977 159.646 105.995 160.292 106.065 160.933C106.076 161.049 106.1 161.165 106.112 161.281L106.826 161.384Z" fill="#F28F8F"/>
<path d="M109.39 161.433C109.223 160.555 109.14 159.664 109.141 158.771C109.148 158.013 109.24 157.258 109.417 156.52C109.536 155.999 109.703 155.49 109.917 155C110.1 154.611 110.312 154.24 110.456 153.838C110.494 153.73 110.298 153.588 110.206 153.664C109.557 154.274 109.082 155.047 108.83 155.902C108.529 156.762 108.353 157.661 108.309 158.571C108.265 159.561 108.335 160.553 108.52 161.526L109.416 161.593C109.419 161.559 109.391 161.502 109.39 161.433Z" fill="#F28F8F"/>
<path d="M111.465 160.22C111.393 159.521 111.371 158.817 111.402 158.114C111.415 157.813 111.445 157.512 111.491 157.214C111.575 156.921 111.603 156.614 111.574 156.311C111.518 156.197 111.296 156.08 111.207 156.2C110.87 156.835 110.689 157.54 110.678 158.259C110.613 158.958 110.606 159.661 110.657 160.361C110.692 160.804 110.745 161.246 110.811 161.687L111.658 161.72C111.583 161.219 111.51 160.723 111.465 160.22Z" fill="#F28F8F"/>
<path d="M125.21 161.676C124.535 159.564 124.614 157.283 125.433 155.223C125.433 155.223 130.865 154.936 133.634 155.742C136.402 156.548 139.742 159.663 139.132 161.473C136.372 162.818 131.328 161.895 125.21 161.676Z" fill="#FFC4C3"/>
<path opacity="0.3" d="M125.21 161.676C125.925 161.701 126.62 161.737 127.305 161.777C126.946 159.526 126.314 157.327 125.423 155.228C124.608 157.288 124.533 159.567 125.21 161.676Z" fill="white"/>
<path d="M112.103 113.298C117.771 116.958 127.144 123.946 127.782 125.122C131.391 131.778 134.438 139.082 137.993 146.448C141.549 153.814 144.084 159.223 149.677 162.555C154.731 165.552 160.69 164.172 159.127 158.985C157.8 154.54 154.164 145.947 151.427 138.755C148.691 131.562 145.445 120.798 143.164 115.011C140.882 109.224 134.562 105.514 128.6 99.4823C123.42 94.2372 117.768 87.1796 112.777 85.4381C107.785 83.6967 92.0003 83.5388 86.1758 83.3315L112.103 113.298Z" fill="#FFA8A7"/>
<path d="M143.003 115.619C142.618 115.84 142.217 116.033 141.804 116.197C140.934 116.514 140.04 116.762 139.13 116.938C138.903 116.997 139.097 117.268 139.255 117.275C140.25 117.254 141.23 117.031 142.136 116.619C142.598 116.438 143.045 116.222 143.474 115.973L143.516 115.953C143.433 115.782 143.382 115.609 143.314 115.443L143.003 115.619Z" fill="#F28F8F"/>
<path d="M135.824 112.912C135.716 113.047 136.01 113.206 136.12 113.114C136.96 112.392 137.939 111.85 138.997 111.521C139.471 111.388 139.958 111.305 140.45 111.273L140.917 111.272C140.762 111.072 140.603 110.874 140.443 110.676C139.914 110.71 139.391 110.804 138.883 110.955C137.688 111.281 136.621 111.964 135.824 112.912Z" fill="#F28F8F"/>
<path d="M138.6 113.798C137.798 114.147 137.043 114.594 136.35 115.127C135.772 115.585 134.9 116.204 134.748 116.975C134.748 116.975 134.79 117.063 134.816 117.051C135.173 116.866 135.501 116.63 135.79 116.351C136.118 116.077 136.451 115.814 136.803 115.574C138.094 114.674 139.568 114.067 141.119 113.797C141.576 113.721 142.038 113.678 142.502 113.667C142.374 113.403 142.251 113.148 142.07 112.891C141.734 112.925 141.399 112.972 141.081 113.029C140.226 113.185 139.393 113.443 138.6 113.798Z" fill="#F28F8F"/>
<path d="M152.917 142.877C152.605 142.919 152.287 142.976 151.975 143.031C151.332 143.156 150.696 143.297 150.062 143.468C150.029 143.475 149.997 143.489 149.969 143.509C149.941 143.529 149.917 143.555 149.899 143.584C149.882 143.614 149.871 143.647 149.866 143.681C149.862 143.715 149.865 143.75 149.875 143.783C149.945 143.928 150.128 143.961 150.262 143.922C150.831 143.775 151.405 143.639 152.017 143.516L152.887 143.371L153.205 143.327L153.018 142.86L152.917 142.877Z" fill="#F28F8F"/>
<path d="M150.279 141.822C150.95 141.713 151.627 141.647 152.306 141.624L152.533 141.617L152.284 140.982L152.207 140.981C151.495 141.03 150.786 141.124 150.086 141.263C149.392 141.401 148.708 141.581 148.038 141.804C147.31 141.996 146.621 142.314 146.002 142.742C145.878 142.802 146.043 142.997 146.156 142.968C146.878 142.78 147.57 142.49 148.283 142.286C148.939 142.094 149.605 141.939 150.279 141.822Z" fill="#F28F8F"/>
<path d="M148.52 140.657C149.428 140.444 150.347 140.282 151.273 140.172C151.497 140.147 151.722 140.135 151.946 140.122C151.863 139.951 151.814 139.77 151.737 139.583L151.27 139.623C150.268 139.761 149.28 139.99 148.319 140.306C148.078 140.403 148.331 140.703 148.52 140.657Z" fill="#F28F8F"/>
<path d="M155.333 148.702C150.878 147.238 148.197 149.818 148.197 149.818C149.016 152.48 150.087 155.058 151.395 157.517C153.305 160.918 156.448 161.518 158.362 160.965C160.276 160.412 158.839 156.84 155.333 148.702Z" fill="#FFC4C3"/>
<path opacity="0.3" d="M155.899 150.021C155.699 149.606 155.527 149.158 155.333 148.702C150.878 147.238 148.196 149.818 148.196 149.818C149.324 150.604 153.599 150.875 155.899 150.021Z" fill="white"/>
<path d="M114.936 85.5403C112.604 84.2996 109.952 84.1854 107.366 84.1288C105.919 84.1272 104.474 84.0365 103.039 83.8573C102.954 83.8407 103.004 83.9831 103.058 84.0018C105.403 84.6605 107.878 84.713 110.259 85.0604C112.822 85.3435 115.229 86.4354 117.13 88.1779C118.283 89.1626 119.361 90.2287 120.472 91.2592C120.556 91.3402 120.604 91.2404 120.553 91.1624C119.137 88.9427 117.281 86.794 114.936 85.5403Z" fill="#F28F8F"/>
<path d="M170.496 60.48C170.496 41.9098 191.509 26.8589 217.429 26.8589C243.349 26.8589 264.384 41.904 264.384 60.48C264.384 79.056 243.366 94.1069 217.446 94.1069C215.883 94.1069 214.347 94.0512 212.838 93.9398C207.711 103.576 199.014 105.229 192.217 104.463C194.623 103.336 196.616 101.483 197.915 99.1644C199.213 96.8459 199.753 94.1788 199.457 91.5379C182.442 86.4749 170.496 74.4768 170.496 60.48Z" fill="white"/>
<path d="M192.131 104.941C192.025 104.93 191.925 104.883 191.848 104.809C191.771 104.735 191.721 104.638 191.705 104.532C191.688 104.426 191.706 104.317 191.757 104.222C191.808 104.128 191.889 104.052 191.987 104.008C194.246 102.946 196.126 101.217 197.374 99.0548C198.622 96.8925 199.178 94.4 198.968 91.9122C181.366 86.5611 170.007 74.252 170.007 60.4799C170.007 41.6735 191.284 26.3691 217.429 26.3691C243.574 26.3691 264.857 41.6677 264.857 60.4799C264.857 79.292 243.579 94.5963 217.429 94.5963C216.012 94.5963 214.549 94.5445 213.092 94.4523C208.247 103.288 200.558 105.114 195.04 105.114C194.068 105.111 193.097 105.053 192.131 104.941ZM212.867 93.4213C214.411 93.5307 215.954 93.5883 217.475 93.5883C243.084 93.5883 263.918 78.7218 263.918 60.4511C263.918 42.1803 243.084 27.3195 217.475 27.3195C191.866 27.3195 170.986 42.2034 170.986 60.4799C170.986 73.8891 182.207 85.8987 199.573 91.0712C199.666 91.0993 199.748 91.1542 199.81 91.229C199.871 91.3039 199.909 91.3953 199.919 91.4917C200.178 93.9469 199.75 96.4259 198.685 98.6529C197.619 100.88 195.957 102.768 193.882 104.106C199.25 104.354 207.441 102.994 212.377 93.7381C212.419 93.6598 212.481 93.5943 212.558 93.5487C212.634 93.503 212.721 93.4789 212.809 93.4789L212.867 93.4213Z" fill="#3E3232"/>
<path d="M228.673 82.9439L230.516 83.1916L230.383 84.2687H224.22L224.358 83.1916L226.156 82.9209L225.165 79.1193H219.883L218.552 82.9209L220.58 83.1916L220.442 84.2687H215.137L215.269 83.1916L216.957 82.9209L222.141 68.6418L224.618 68.3711L228.673 82.9439ZM224.808 77.7599L222.913 70.4447H222.844L220.321 77.7599H224.808Z" fill="#3E3232"/>
<path d="M196.204 70.272L196.474 62.519L195.392 62.2713L195.461 61.6953H197.275L197.465 61.8278L197.321 65.6812L197.01 68.4172H197.102L197.534 66.8102C197.955 65.2262 198.485 64.5408 199.533 64.5408C200.737 64.5408 201.261 65.4796 201.261 67.0176C201.261 69.4425 200.08 70.7673 198.439 70.7673C197.666 70.7708 196.903 70.6015 196.204 70.272ZM197.65 68.4806L197.264 69.8169C197.623 69.9912 198.016 70.0836 198.416 70.0876C199.498 70.0876 200.201 68.8608 200.201 67.1385C200.201 66.4876 200.201 65.4105 199.372 65.4105C198.462 65.4163 198.231 66.5107 197.65 68.5036V68.4806Z" fill="#3E3232"/>
<path d="M188.208 51.0854C188.216 51.187 188.201 51.2889 188.167 51.3846C188.132 51.4804 188.078 51.5678 188.007 51.6411C187.936 51.7144 187.851 51.7721 187.757 51.8103C187.662 51.8486 187.561 51.8665 187.459 51.863C187.297 51.8614 187.139 51.8119 187.005 51.7207C186.87 51.6295 186.766 51.5006 186.705 51.3504L186.947 51.0624C187.402 50.5497 186.947 50.256 186.371 50.256C185.299 50.256 184.683 51.2352 184.683 53.0035C184.683 54.1094 185.104 54.9964 186.048 54.9964C186.359 54.9636 186.659 54.868 186.931 54.7155C187.204 54.563 187.442 54.3568 187.632 54.1094L188.058 54.5529C187.81 54.9238 187.479 55.2318 187.091 55.4527C186.703 55.6737 186.269 55.8014 185.824 55.8259C184.314 55.8259 183.52 54.6739 183.52 53.0438C183.52 51.0393 184.614 49.5878 186.4 49.5878C187.425 49.5705 188.208 50.112 188.208 51.0854Z" fill="#3E3232"/>
<path d="M223.903 45.9647C224.439 47.1167 223.586 47.998 222.786 48.6316L221.76 49.461C222.152 50.1407 222.912 50.7973 223.822 50.3941C224.332 50.1087 224.711 49.6354 224.877 49.0751L225.418 49.2997C225.328 49.7062 225.148 50.0872 224.891 50.4143C224.634 50.7415 224.306 51.0063 223.932 51.189C222.567 51.8169 221.34 51.0796 220.672 49.6281C219.837 47.8079 220.246 46.0281 221.766 45.3311C222.809 44.8415 223.529 45.1526 223.903 45.9647ZM221.95 45.9647C221.075 46.3737 220.902 47.4508 221.467 48.8447L222.406 48.0786C223.062 47.5487 223.293 47.1052 222.982 46.4197C222.786 46.0165 222.434 45.7285 221.95 45.9532V45.9647Z" fill="#3E3232"/>
<path d="M218.616 57.4672L217.924 59.1376L220.418 60.0132L219.952 61.1018L217.533 60.2551L215.229 66.0496C214.382 68.1578 213.011 70.2314 211.594 71.1069C211.328 71.305 211.018 71.4378 210.691 71.4948C210.364 71.5518 210.028 71.5314 209.711 71.4352C208.973 71.176 208.628 70.6404 208.789 70.0644C208.96 69.6061 209.278 69.2172 209.693 68.9584L210.367 69.569C210.909 70.0644 211.49 70.0471 211.928 69.1658C212.21 68.5898 212.424 68.0484 212.723 67.3111L215.736 59.6215L214.18 59.0455L214.658 58.1009L216.173 58.4695L216.576 57.5997C217.527 55.2957 219.387 53.994 221.732 54.8234C222.884 55.2266 224.162 56.2749 223.627 57.7956C223.585 57.9478 223.511 58.0893 223.409 58.21C223.307 58.3307 223.181 58.4279 223.038 58.4947C222.895 58.5616 222.739 58.5965 222.581 58.5971C222.423 58.5977 222.267 58.564 222.123 58.4983C221.927 58.4327 221.747 58.3235 221.599 58.1789C221.45 58.0343 221.336 57.858 221.265 57.6631L221.628 57.2138C222.204 56.4996 222.106 55.9812 221.3 55.6989C220.079 55.2957 219.163 56.154 218.616 57.4672Z" fill="#3E3232"/>
<path d="M238.465 59.1437L237.549 60.3417C236.115 62.1965 235.061 62.9683 233.517 62.3232C231.846 61.6262 231.789 59.8118 232.566 57.9513C233.776 55.031 236.022 53.6313 238.246 54.5414C238.929 54.8255 239.554 55.2337 240.089 55.7453L240.849 55.6013L241.253 55.9526L238.205 62.5824C237.088 65.0131 235.193 67.0233 232.1 65.7446C231.006 65.2896 229.882 64.3853 230.372 63.2448C230.416 63.0967 230.49 62.9592 230.589 62.8412C230.689 62.7231 230.812 62.6269 230.95 62.5587C231.089 62.4905 231.24 62.4518 231.394 62.445C231.548 62.4381 231.702 62.4633 231.846 62.519C232.015 62.5884 232.166 62.6932 232.291 62.8264C232.415 62.9596 232.509 63.118 232.566 63.2908L232.238 63.6883C231.702 64.2643 231.823 64.7251 232.682 65.0822C234.306 65.7561 235.792 64.5581 237.036 62.2022L238.603 59.2301L238.465 59.1437ZM238.182 58.2797L239.484 56.6035C239.048 56.1577 238.529 55.7999 237.958 55.5494C236.495 54.9389 234.917 56.2233 233.989 58.4294C233.713 59.0861 232.987 60.8371 234.191 61.3094C235.395 61.7817 236.397 60.5491 238.165 58.2797H238.182Z" fill="#3E3232"/>
<path d="M185.357 68.2731C184.945 68.472 184.57 68.7388 184.246 69.0622L183.514 68.1003C184.125 67.3401 184.917 66.7459 185.818 66.3723C187.074 65.8942 188.036 66.3723 188.543 68.1003L190.599 74.8798C190.778 75.4558 190.968 75.7842 191.44 75.6056C191.86 75.3844 192.204 75.041 192.425 74.6206L193.295 75.3637C192.816 76.3288 192.009 77.0922 191.02 77.5179C189.51 78.0939 188.762 77.4085 188.37 76.1182L186.233 68.9182C186.078 68.3653 185.847 68.0888 185.357 68.2731ZM184.355 61.2286C184.653 61.1222 184.975 61.1059 185.282 61.1816C185.588 61.2573 185.866 61.4218 186.08 61.6544C186.294 61.887 186.434 62.1775 186.484 62.4895C186.533 62.8015 186.49 63.1212 186.359 63.4086C186.228 63.6961 186.015 63.9385 185.747 64.1056C185.478 64.2727 185.167 64.3571 184.851 64.3482C184.535 64.3393 184.229 64.2375 183.971 64.0556C183.713 63.8737 183.514 63.6196 183.399 63.3253C183.314 63.1258 183.272 62.9108 183.275 62.6941C183.277 62.4773 183.325 62.2635 183.415 62.0662C183.505 61.869 183.635 61.6927 183.797 61.5484C183.959 61.4042 184.149 61.2953 184.355 61.2286Z" fill="#3E3232"/>
<path d="M216.266 42.6759C215.373 42.6759 215.114 42.1518 215.177 41.4375L215.552 37.1751C215.638 36.1153 215.459 35.787 214.976 35.787C214.4 35.787 214.152 36.2074 213.685 37.515L211.957 42.4455H210.73L210.967 36.2247C210.967 35.81 210.88 35.6487 210.563 35.6487C210.257 35.6879 209.959 35.7775 209.682 35.9137L209.429 35.1706C209.962 34.8831 210.552 34.7141 211.157 34.6753C212.009 34.6753 212.309 35.1994 212.199 36.2017L211.825 40.1934H211.934L213.023 36.9505C213.559 35.3607 214.175 34.6465 215.327 34.6465C216.658 34.6465 217.015 35.499 216.865 37.2327L216.537 41.0862C216.49 41.5354 216.537 41.7313 216.882 41.7313C217.191 41.7008 217.482 41.5762 217.717 41.3742L218.063 41.9098C217.562 42.3526 216.932 42.6214 216.266 42.6759Z" fill="#3E3232"/>
<path d="M247.277 46.1431C249.311 46.1431 250.48 47.6522 250.48 49.9504C250.48 52.2487 249.449 54.3856 246.828 54.3856C244.795 54.3856 243.66 52.8765 243.66 50.5495C243.66 48.2224 244.645 46.1431 247.277 46.1431ZM249.034 49.9331C249.034 48.2512 248.556 47.0531 247.156 47.0531C245.503 47.0531 245.123 48.7811 245.123 50.6301C245.123 52.3581 245.699 53.5101 246.92 53.5101C248.573 53.4755 249.034 51.7936 249.034 49.9331Z" fill="#3E3232"/>
<path d="M196.889 37.1289C200.76 35.7292 204.567 37.3189 206.318 42.1573C208.236 47.4508 206.353 51.0277 202.459 52.9285L202.522 53.1129C203.823 52.8368 205.173 52.9144 206.433 53.3375C208.421 53.9135 209.141 53.9135 209.077 53.0092L209.008 52.174C210.414 51.6613 211.312 52.1221 211.635 53.0207C212.044 54.1727 211.352 55.1289 210.298 55.509C209.146 55.9295 207.781 55.6933 206.094 55.1289C203.882 54.3455 203.07 54.0402 201.733 54.5529C200.766 54.8985 200.184 55.4514 199.199 56.4076L198.145 55.3247C198.685 54.745 199.297 54.236 199.965 53.8098L199.913 53.6716C196.244 54.0345 193.577 51.7189 192.385 48.4242C190.11 42.1401 193.07 38.517 196.889 37.1289ZM201.601 51.9321C204.319 50.9471 205.506 47.9001 203.905 43.4418C202.447 39.4098 199.93 37.7164 197.096 38.7417C194.499 39.6863 192.943 42.1977 194.764 47.2492C196.227 51.2639 198.611 53.0207 201.601 51.9321Z" fill="#3E3232"/>
<path d="M236.627 74.0505C236.389 74.0816 236.158 74.1517 235.942 74.2579L235.746 73.6819C236.16 73.4623 236.615 73.3327 237.082 73.3017C237.745 73.3017 237.969 73.7049 237.9 74.4883L237.733 76.1414H237.808L238.436 74.6611C238.816 73.751 239.11 73.2902 239.795 73.2902C239.907 73.2764 240.021 73.2864 240.129 73.3197C240.237 73.353 240.337 73.4087 240.422 73.4832C240.506 73.5578 240.575 73.6494 240.622 73.7521C240.668 73.8549 240.693 73.9664 240.694 74.0793C240.693 74.2522 240.641 74.4209 240.543 74.5636C240.446 74.7064 240.308 74.8166 240.147 74.88L239.876 74.5689C239.749 74.4076 239.657 74.3097 239.484 74.3097C239.312 74.3097 239.133 74.4998 238.759 75.3235C237.9 77.2588 237.733 77.6275 237.676 78.3993L237.572 79.3555H236.737L236.967 74.5113C236.956 74.1888 236.875 74.0505 236.627 74.0505Z" fill="#3E3232"/>
<path d="M227.716 37.7622C229 37.4627 229.588 38.1021 229.738 39.2195L230.59 45.2675C230.792 46.6154 231.005 47.0762 231.679 46.9206C232.353 46.7651 232.566 46.0509 232.756 44.1213L233.459 36.737L235.498 36.2646L237.191 45.089C237.301 45.665 237.485 45.8839 237.929 45.7802C238.332 45.63 238.71 45.4161 239.046 45.1466L239.668 46.1085C239.005 46.7096 238.219 47.1579 237.364 47.4218C236.12 47.7098 235.486 47.0819 235.29 45.6419L234.507 39.8819H234.334L233.989 44.7894C233.81 47.0934 233.24 48.3549 231.558 48.7466C229.709 49.1728 228.92 48.0496 228.58 45.7341L227.768 40.1411C227.699 39.5651 227.537 39.2426 227.077 39.3462C226.677 39.4836 226.326 39.7361 226.069 40.072L225.406 39.3175C226.003 38.5793 226.808 38.0374 227.716 37.7622Z" fill="#3E3232"/>
<path d="M206.882 77.944C206.702 78.951 206.452 79.9441 206.133 80.9162C205.834 81.8954 205.707 82.5405 206.559 82.6845C208.005 82.9264 209.261 80.4784 209.572 78.9117C209.704 78.2262 209.572 78.0362 209.215 77.823L208.702 77.5408C208.737 76.7171 209.198 76.2218 209.918 76.3427C210.845 76.4982 211.116 77.224 210.943 78.255C210.551 80.559 208.783 84.2973 206.081 83.8422C205.661 83.7916 205.278 83.5778 205.014 83.247C204.75 82.9162 204.626 82.4949 204.67 82.0739C204.386 82.4997 203.98 82.8301 203.506 83.0222C203.031 83.2143 202.51 83.2592 202.009 83.151C201.214 83.0186 199.993 82.5405 200.46 80.4266L201.324 76.4579C201.422 75.9914 201.168 75.8819 200.748 75.9222L200.218 76.0029L200.103 75.1792C200.716 74.9853 201.364 74.9244 202.003 75.0006C202.181 75.0119 202.354 75.0642 202.508 75.1534C202.662 75.2426 202.793 75.3662 202.891 75.5147C202.989 75.6631 203.052 75.8323 203.074 76.0089C203.096 76.1856 203.076 76.3649 203.017 76.5328L202.176 80.3459C201.952 81.3366 201.946 81.8954 202.654 82.0163C204.123 82.264 204.866 80.2883 205.258 77.9498C205.369 77.2921 205.442 76.6286 205.477 75.9626L207.061 76.049C207.062 76.6849 207.002 77.3196 206.882 77.944Z" fill="#3E3232"/>
<path d="M248.481 67.0405L252.577 62.467L251.165 61.8277L251.448 61.0386L255.606 61.9659L255.29 62.8184H253.844L248.66 68.3883L247.756 71.7867L249.328 72.3627L249.034 73.1806L244.259 72.1208L244.547 71.2971L246.016 71.3893L246.966 68.0139L244.956 60.7794L243.718 60.2034L244.035 59.3682L248.643 60.3877L248.349 61.2286L246.868 61.1365L248.418 67.0002L248.481 67.0405Z" fill="#3E3232"/>
</g>
<defs>
<clipPath id="clip0_1336_1719">
<rect width="288" height="288" fill="white"/>
</clipPath>
</defs>
</svg>
