<svg xmlns="http://www.w3.org/2000/svg" viewBox="0 0 195.93 399.29"><defs><style>.cls-1{fill:#ae7461;}.cls-2{fill:#008148;}.cls-3{fill:#263238;}.cls-4{fill:#455a64;}.cls-5{fill:#e0e0e0;}.cls-6{fill:#fff;}.cls-7{fill:#6f4439;}.cls-8{opacity:0.4;}.cls-9{fill:#fafafa;}</style></defs><title>searching-girl</title><g id="Layer_2" data-name="Layer 2"><g id="Layer_1-2" data-name="Layer 1"><g id="freepik--Character--inject-81"><polygon class="cls-1" points="132.04 234.5 154.66 316.31 120.14 301.07 111.09 262.99 132.04 234.5"/><path class="cls-2" d="M158.3,228.73h0a4.8,4.8,0,0,1-3.54-5.78L171,155.38l9.31,2.24-16.24,67.57A4.79,4.79,0,0,1,158.3,228.73Z"/><path class="cls-3" d="M177.1,331.52c-24.52-28.2-57.61-33-57.61-33s5.61-19.68.6-22.8c-11.08-6.91-39.57-1-51.22-3.84l-19.49-6.76S32,294.92,33,314.25s6.76,24.29,6.76,24.29,7,13.92,27.68,16.73l-7.69,22.94,113.13,1.09C184.31,370.77,193.12,350,177.1,331.52Z"/><path class="cls-4" d="M71.15,343.78a5.85,5.85,0,0,1,.72.07c.47,0,1.15.19,2,.25a44.52,44.52,0,0,0,7.57.11,74.64,74.64,0,0,0,11.12-1.68c4.14-.89,8.64-2.11,13.41-3.27A87.4,87.4,0,0,1,119.7,337a43.15,43.15,0,0,1,11.29.54,29.84,29.84,0,0,1,7.25,2.35,20.19,20.19,0,0,1,1.83,1,3,3,0,0,1,.61.38A3.23,3.23,0,0,1,140,341c-.43-.19-1-.56-1.86-.89a31.37,31.37,0,0,0-7.23-2.16,44.16,44.16,0,0,0-11.19-.44,89.06,89.06,0,0,0-13.57,2.31c-4.75,1.15-9.27,2.36-13.43,3.23a69.16,69.16,0,0,1-11.19,1.58,39.64,39.64,0,0,1-7.62-.28,18.29,18.29,0,0,1-2-.35A2.62,2.62,0,0,1,71.15,343.78Z"/><path class="cls-3" d="M156.15,331.52c-24.52-28.2-57.61-33-57.61-33s5.61-19.68.61-22.8c-11.08-6.91-39.58-1-51.23-3.84l-19.49-6.76S11,295,12.09,314.27s6.76,24.29,6.76,24.29,7,13.92,27.68,16.73l-7.69,22.94L152,379.32C163.36,370.77,172.17,350,156.15,331.52Z"/><polygon class="cls-4" points="31.98 372.34 40.18 373.17 50.36 344.51 42.59 342.69 31.06 352.7 27.33 363.53 31.98 372.34"/><path class="cls-2" d="M33.88,374.17l-2.36-.9S8.7,402,0,399.08L18.7,334.32l24.64,8.38C35.43,350.86,31.94,361.42,33.88,374.17Z"/><path class="cls-5" d="M18.7,334.32l5.92,2L4.42,398.51s-2.72,1.24-4.42.56Z"/><path class="cls-6" d="M22.83,369.75c0-.09.6-.07,1.5.24a8.59,8.59,0,0,1,3.07,2,7.41,7.41,0,0,1,1.86,2.91c.25.83.21,1.34.11,1.35a12.55,12.55,0,0,0-2.56-3.79C24.93,370.67,22.77,370,22.83,369.75Z"/><path class="cls-6" d="M24.7,366.57c0-.18,2.4.44,4.41,2.45s2.47,4.15,2.26,4.15a33.53,33.53,0,0,0-2.85-3.68C26.67,367.67,24.58,366.77,24.7,366.57Z"/><path class="cls-6" d="M19.6,374.27c0-.2,2-.23,4.12,1s3,2.9,2.84,3-1.32-1.27-3.24-2.35S19.59,374.48,19.6,374.27Z"/><path class="cls-6" d="M28.63,376.12a4.92,4.92,0,0,1,2.81-.32,17.93,17.93,0,0,1,3.09.59c.57.16,1.17.34,1.77.54a5,5,0,0,1,1,.37,1.52,1.52,0,0,1,.82,1,.94.94,0,0,1-.69,1,2.75,2.75,0,0,1-1.1.12,10.69,10.69,0,0,1-1.87-.28,10.86,10.86,0,0,1-3-1.21c-1.56-.94-2.21-1.83-2.14-1.88s.88.67,2.41,1.44a11.62,11.62,0,0,0,2.81,1,9.2,9.2,0,0,0,1.73.22c.57,0,1.09-.14,1-.38a2,2,0,0,0-1.21-.73L34.34,377a21.84,21.84,0,0,0-3-.72C29.7,376.05,28.7,376.24,28.63,376.12Z"/><path class="cls-6" d="M28.7,376.63a1.36,1.36,0,0,1-.16-.42V376l.25.13a10.78,10.78,0,0,1,2.51,2,12.46,12.46,0,0,1,1.48,2c.23.39.44.8.63,1.21a2.11,2.11,0,0,1,.21.77,1,1,0,0,1-.41.86,1.21,1.21,0,0,1-1.35-.11,3.8,3.8,0,0,1-.71-.68,9,9,0,0,1-1-1.36,8.64,8.64,0,0,1-1.1-2.53,3.87,3.87,0,0,1-.11-2.4c.13,0,.17.92.67,2.31a10.6,10.6,0,0,0,1.19,2.32,10.85,10.85,0,0,0,1,1.24c.36.44.83.75.91.6.39-.21-.24-1.29-.58-2a12.28,12.28,0,0,0-1.3-1.9,20.31,20.31,0,0,0-2.15-2.2l.2-.09C28.8,376.5,28.77,376.63,28.7,376.63Z"/><path class="cls-3" d="M83.54,45.28A19.09,19.09,0,0,1,71.35,79.54c-6.67-.21-13.72-5.44-13.17-12.08-1,6.09-5.26,11.72-11.09,13.76S34,81.15,30.77,75.91s-1.56-13.17,3.9-16.07a22.45,22.45,0,0,1-18.48-7.45A19,19,0,0,1,13,33c2.75-6.32,9.8-10.63,16.63-9.7-2.78-8.49,1.94-18.72,10.2-22.12s18.82.56,22.81,8.55a17.8,17.8,0,0,1,32,13.78,14.29,14.29,0,0,1-8.58,26.84"/><path class="cls-3" d="M58.89,68.77c-2.23-8.93-.51-11,4.28-15.9a15.36,15.36,0,0,1,16.46-3.66c1-7,1-11.93,7.49-15.39C94,30.16,97.06,31,104.73,32.24a29.46,29.46,0,0,1,19.61-4.06,26.67,26.67,0,0,1,16.88,9.42c8.65-.23,17.1,4.66,20.36,11.78,1.53,3.34,2,7.15,4.53,10a18,18,0,0,1,4.17,6.69c1.37,4.72.86,7-1,12-1.31,3.49-4.08,8.49-2,11.58,8.08,12-3.85,25.53-7.85,26.55L89.22,140.54A17.8,17.8,0,0,1,71.7,144c-5.81-2.09-9.84-7.56-9.73-13.2-9.42-5.22-13.53-16.9-9.22-26.19C44.29,97.32,44.81,80.64,58.89,68.77Z"/><path class="cls-1" d="M157.46,79.49C156.08,62.58,138,46.15,121.6,48.38L89.12,55.65A25.43,25.43,0,0,0,69.57,81.82L75.28,101l7.89,77.68,45.73,7.21-.27-26.58s26.59-2.22,30.38-30.56C160.89,114.63,159,98.27,157.46,79.49Z"/><path class="cls-3" d="M150.34,107.76a3.61,3.61,0,0,1-3.32,3.75,3.38,3.38,0,0,1-3.69-3s0-.08,0-.13a3.61,3.61,0,0,1,3.32-3.74,3.38,3.38,0,0,1,3.69,3S150.34,107.72,150.34,107.76Z"/><path class="cls-3" d="M153,95.29c-.4.43-2.74-1.41-6.11-1.39s-5.88,1.8-6.24,1.36c-.18-.19.24-1,1.33-1.79a8.53,8.53,0,0,1,5-1.62,7.89,7.89,0,0,1,4.85,1.64C152.86,94.32,153.2,95.1,153,95.29Z"/><path class="cls-3" d="M120.35,107.76a3.61,3.61,0,0,1-3.32,3.75,3.38,3.38,0,0,1-3.69-3s0-.08,0-.13a3.61,3.61,0,0,1,3.32-3.74,3.38,3.38,0,0,1,3.69,3S120.35,107.72,120.35,107.76Z"/><path class="cls-3" d="M118.29,95.27c-.39.43-2.73-1.4-6.11-1.39s-5.88,1.8-6.24,1.37c-.17-.2.24-1,1.33-1.8a8.53,8.53,0,0,1,5-1.62,8,8,0,0,1,4.85,1.64C118.15,94.31,118.49,95.08,118.29,95.27Z"/><path class="cls-3" d="M129.87,121.68c0-.17,2.33-.58,6.14-1.12,1-.11,1.89-.3,2-.83a3.91,3.91,0,0,0-.66-2.25l-2.9-5.72c-1.09-2.09-6.47-13.88-6.54-15,.43-.14,4,6.36,8.07,14.52,1,2,1.89,3.93,2.78,5.77.38.86,1,1.82.53,3a2.43,2.43,0,0,1-1.58,1.18,7.64,7.64,0,0,1-1.65.24C132.27,121.74,129.88,121.85,129.87,121.68Z"/><path class="cls-7" d="M128.83,159.33a68,68,0,0,1-37-9.08s9.55,20.32,37,16.93Z"/><path class="cls-3" d="M118,80.27c-.41,1.22-3.69.41-7.63.8s-7.2,1.63-7.65.49c-.19-.55.44-1.68,1.79-2.79a10.8,10.8,0,0,1,5.8-2.31,9.63,9.63,0,0,1,5.84,1.33C117.54,78.68,118.19,79.69,118,80.27Z"/><path class="cls-3" d="M152.8,77.81c-.61,1.11-3.44.31-6.73.6s-6,1.32-6.74.3c-.33-.5,0-1.59,1.14-2.7a8.71,8.71,0,0,1,10.85-.73C152.58,76.23,153.06,77.27,152.8,77.81Z"/><path class="cls-1" d="M76.19,102.38s-17.9-5.94-16.9,11.28,17.62,12.53,17.62,12S76.19,102.38,76.19,102.38Z"/><path class="cls-7" d="M71.41,119.51c-.07,0-.28.23-.76.5a2.78,2.78,0,0,1-2.17.19c-1.81-.54-3.47-3.33-3.73-6.43a10.22,10.22,0,0,1,.56-4.35A3.51,3.51,0,0,1,67.37,107a1.47,1.47,0,0,1,1.77.71c.26.46.17.81.26.84s.34-.31.17-1a2,2,0,0,0-.72-1,2.21,2.21,0,0,0-1.64-.33,4.22,4.22,0,0,0-2.9,2.88,10.63,10.63,0,0,0-.73,4.86c.31,3.46,2.23,6.59,4.69,7.15a3.07,3.07,0,0,0,2.64-.64C71.41,119.93,71.47,119.54,71.41,119.51Z"/><g class="cls-8"><path class="cls-7" d="M105.53,115.53a5.5,5.5,0,0,1,3.24-1.62,12.3,12.3,0,0,1,2.84.24,4,4,0,0,1,2.35,1.5,2.44,2.44,0,0,1,.1,2.69,3.3,3.3,0,0,1-1.9,1.14,10.49,10.49,0,0,1-3.74.38,4,4,0,0,1-3-1.37A2.35,2.35,0,0,1,105.53,115.53Z"/></g><g class="cls-8"><path class="cls-7" d="M146.63,114.84a5.52,5.52,0,0,1,3.25-1.62,12.3,12.3,0,0,1,2.84.24,4,4,0,0,1,2.35,1.5,2.44,2.44,0,0,1,.1,2.69,3.3,3.3,0,0,1-1.9,1.14,10.49,10.49,0,0,1-3.74.38,4,4,0,0,1-3-1.37A2.38,2.38,0,0,1,146.63,114.84Z"/></g><path class="cls-3" d="M64.59,80a21.74,21.74,0,0,1,4.72-12.85c2.81-3.7,4.36-11.17,8.16-13.84,8.17-5.74,19.42-5.78,29.22-7.69s25.08-7.33,34.06-3l22.33,25.71c-1,4.33-7.75,6.53-10.39,4.63a8.65,8.65,0,0,1-3.33-8.6c-5.14,2.38-15-.73-16.81-6.11-5.21,6.84-12.84,8.88-20.1,4.28A13.41,13.41,0,0,1,93,74.7c2.17,3.45,3.59,7.63,2.7,11.61S91,93.77,87,93.31a18.45,18.45,0,0,1,4.56,8.31,10.62,10.62,0,0,1-2,9,7.48,7.48,0,0,1-8.67,2c-2.31-1.16-3.67-3.57-4.89-5.84L70,95.78C67.32,90.8,64.58,85.58,64.59,80Z"/><path class="cls-4" d="M51.26,78.59c.09,0,.31-1.12,1.27-2.93a14.34,14.34,0,0,1,6.07-6l.25-.13-.08-.27a16.51,16.51,0,0,1,1.71-12.7,16.07,16.07,0,0,1,18.58-6.85l.71.23-.09-.73a16.67,16.67,0,0,1,4.35-13,15.79,15.79,0,0,1,10-5,17.48,17.48,0,0,1,7.56.84c1.7.6,2.56,1.14,2.61,1.06s-.19-.17-.6-.43a12.19,12.19,0,0,0-1.89-1A16.78,16.78,0,0,0,94,30.58a16.24,16.24,0,0,0-10.55,5A17.43,17.43,0,0,0,78.7,49.37l.62-.51A16.65,16.65,0,0,0,58.1,69.5l.17-.39a14.19,14.19,0,0,0-6.09,6.38,12.31,12.31,0,0,0-.82,2.27A2.34,2.34,0,0,0,51.26,78.59Z"/><path class="cls-7" d="M128.9,129l-11.7-5.59a1.31,1.31,0,0,0-1-.17,1.14,1.14,0,0,0-.48.56,7.87,7.87,0,0,0,.53,8.09,6.9,6.9,0,0,0,7,2.77c2.82-.43,4.79-3,5.66-5.66Z"/><path class="cls-2" d="M81.76,161.47c-1.13.66-27.31,7.57-37.47,40C36.57,226.13,20,281,19.6,281.47,17.7,283.29,13.24,294,14.24,295c0,0,27.1-2.27,51.32-1.46,22.74.75,58.55,1.71,59.86,1.71S138.34,191.1,137,185.85,127.14,172,127.14,172s-.94,12.08-2.5,12.83c-4.76,2.29-42.88-23.38-42.88-23.38Z"/><path class="cls-2" d="M74.08,175s-25.86,4.27-21.3,35.38c3.89,26.49,3.61,28.5,3.61,28.5l54.7-13.11S102.9,169.06,74.08,175Z"/><path class="cls-1" d="M67.1,236.27s17.78,40.3,35.8,41.61,51.8-61.65,51.8-61.65l-19-17.36-29.61,33.27-1.27-4.89Z"/><path class="cls-1" d="M175.39,174.53c-.51,0-15.66,1.24-20,4.27s-19.69,20.07-19.69,20.07L154.24,217l1.29-2.13s11.11.84,13.13,0a7.48,7.48,0,0,0,3.2-3,6.41,6.41,0,0,0,4.71-1.85c1.86-2,0-5.39,0-5.39s3.2-.51,4.05-3.2,1.17-3.83-1.52-5.62a5.81,5.81,0,0,0,3.2-6.67c-1-4.89-3-4-3-4a52.78,52.78,0,0,0,.17-5.9C179.27,177.46,178.3,174.31,175.39,174.53Z"/><path class="cls-4" d="M50.2,343.78a5.85,5.85,0,0,1,.72.07c.47,0,1.15.19,2,.25a44.52,44.52,0,0,0,7.57.11,75,75,0,0,0,11.16-1.68c4.14-.89,8.65-2.11,13.41-3.27A85.68,85.68,0,0,1,98.7,337a43.58,43.58,0,0,1,11.29.54,29.84,29.84,0,0,1,7.25,2.35c.62.3,1.23.64,1.82,1a3.55,3.55,0,0,1,.62.38A3.31,3.31,0,0,1,119,341c-.43-.19-1-.56-1.86-.89a31.37,31.37,0,0,0-7.23-2.16,44.16,44.16,0,0,0-11.19-.44,89.06,89.06,0,0,0-13.57,2.31c-4.75,1.15-9.27,2.36-13.43,3.23a69.16,69.16,0,0,1-11.19,1.58,39.64,39.64,0,0,1-7.62-.28,19.24,19.24,0,0,1-2-.35A2.94,2.94,0,0,1,50.2,343.78Z"/><path class="cls-3" d="M95.28,282.49a2.51,2.51,0,0,1-.67.08l-1.91.14c-1.66.11-4.07.23-7,.34-6,.22-14.19.37-23.28.2s-17.32-.62-23.26-1.07c-3-.22-5.37-.43-7-.6l-1.91-.21a2.46,2.46,0,0,1-.66-.11h.67l1.92.1,7,.44c5.94.36,14.16.75,23.24.92s17.31.08,23.26-.05l7.05-.17H94.6A3.86,3.86,0,0,1,95.28,282.49Z"/><path class="cls-3" d="M74.08,175l.33-.07,1-.16a14.47,14.47,0,0,1,1.61-.21l2.23-.05c.83.12,1.78.16,2.79.37a19,19,0,0,1,3.21,1,23.17,23.17,0,0,1,6.93,4.5c4.52,4.18,8.52,10.62,11.72,18.44a126.06,126.06,0,0,1,7.44,26.89v.22l-.23.06-29.92,7.17-24.78,5.93-.31.08v-.36c0-1.24-.18-2.63-.31-3.93s-.3-2.61-.45-3.9c-.33-2.58-.67-5.1-1-7.58-.69-4.94-1.35-9.67-2-14.14a40.64,40.64,0,0,1,.24-12.74,27.18,27.18,0,0,1,4.12-10.16,25.73,25.73,0,0,1,6.17-6.45,29.47,29.47,0,0,1,5.8-3.31,28.08,28.08,0,0,1,4-1.35c.46-.12.81-.19,1-.23a1.5,1.5,0,0,1,.37,0l-.36.09c-.23.06-.58.14-1,.28a29.93,29.93,0,0,0-9.63,4.77A25.56,25.56,0,0,0,57,186.53a27.06,27.06,0,0,0-3.94,10,40.41,40.41,0,0,0-.19,12.61c.64,4.47,1.31,9.19,2,14.13.32,2.48.66,5,1,7.59.15,1.29.3,2.59.45,3.91a39.58,39.58,0,0,1,.32,4l-.31-.28L81.1,232.6,111,225.44l-.19.28a127.14,127.14,0,0,0-7.34-26.8c-3.14-7.76-7.07-14.21-11.56-18.42A23,23,0,0,0,85.13,176,18.25,18.25,0,0,0,82,175c-1-.22-1.93-.28-2.75-.4H77c-.64,0-1.17.14-1.6.17l-1,.12Z"/><path class="cls-4" d="M63.9,298.64a8.68,8.68,0,0,1,1.35-.25c.87-.13,2.14-.29,3.71-.45,3.14-.31,7.5-.6,12.32-.61s9.18.26,12.32.57c1.57.15,2.84.3,3.71.43a7.65,7.65,0,0,1,1.35.25,6.28,6.28,0,0,1-1.37,0l-3.72-.27c-3.14-.21-7.49-.42-12.29-.42s-9.15.24-12.29.46l-3.72.28A5.7,5.7,0,0,1,63.9,298.64Z"/><path class="cls-2" d="M185.75,141.49c-2.49,10.34-4.41,23.13-8.7,27,0,0-6.37-1.65-8.17-2.09-5.67-1.36-7.32-14.75-3.68-29.9s10.88-26,16.87-25c1.26.21,8.43,1.7,8.43,1.7C193.5,118.08,188.59,129.67,185.75,141.49Z"/><path class="cls-2" d="M194,143.36c-3.67,15.27-11.25,26.54-16.92,25.18s-7.3-14.85-3.63-30.12,11.24-26.55,16.92-25.19S197.64,128.08,194,143.36Z"/><ellipse class="cls-9" cx="182.37" cy="140.76" rx="26.83" ry="9.76" transform="translate(2.9 285.2) rotate(-76.49)"/><path class="cls-3" d="M178.8,154.47c-.13-.06,2.13-5.54,5-12.24s5.38-12.09,5.51-12-2.12,5.53-5,12.24S178.93,154.53,178.8,154.47Z"/><path class="cls-3" d="M178.79,148.39c-.13-.06,2.12-5.54,5-12.24s5.38-12.1,5.51-12-2.12,5.54-5,12.24S178.92,148.44,178.79,148.39Z"/><path class="cls-4" d="M155.45,377.24a1.69,1.69,0,0,1,.18-.22l.57-.61c.24-.27.57-.58.92-1s.72-.9,1.16-1.43a30.15,30.15,0,0,0,5-10.49,36.64,36.64,0,0,0,.29-17.2,45.06,45.06,0,0,0-9.68-18.72,68,68,0,0,0-16.19-13.71,124.35,124.35,0,0,0-15.47-8c-4.56-2-8.3-3.47-10.88-4.51l-3-1.19-.77-.33c-.17-.07-.26-.11-.25-.12l.27.07.79.28,3,1.1c2.61,1,6.37,2.41,11,4.36A120.18,120.18,0,0,1,138,313.45a68,68,0,0,1,16.34,13.8,44.89,44.89,0,0,1,9.74,18.94,36.57,36.57,0,0,1-.39,17.4,29.73,29.73,0,0,1-5.25,10.52l-1.21,1.41c-.36.4-.7.7-1,1l-.6.58C155.53,377.18,155.46,377.25,155.45,377.24Z"/></g></g></g></svg>