<svg xmlns="http://www.w3.org/2000/svg" viewBox="0 0 221.4 105.47"><defs><style>.cls-1{fill:#FFF;}</style></defs>
<title>smile-bg-white</title>
<g id="Layer_2" data-name="Layer 2">
<g id="Layer_1-2" data-name="Layer 1">
<g id="Layer_1-2-2" data-name="Layer 1-2">
<path class="cls-1" d="M7.76,83A62.09,62.09,0,0,0,94.63,70.27q1.29-1.74,2.46-3.57h0a.67.67,0,0,1,1.23.47c-1.46,9.34-6.83,18.12-14.12,24.65A54.73,54.73,0,0,1,28.75,102c-9.12-3.53-17.25-9.84-21.93-18A.68.68,0,0,1,7.07,83a.65.65,0,0,1,.73,0Z"/>
<path class="cls-1" d="M.28,88.49a7.41,7.41,0,0,1,.2-4.63A8.58,8.58,0,0,1,3.29,80a9.08,9.08,0,0,1,4.37-1.89A9.76,9.76,0,0,1,10,78a10.68,10.68,0,0,1,2.18.53.7.7,0,0,1,.42.91.73.73,0,0,1-.31.36h-.09a19.06,19.06,0,0,1-1.83.85c-.56.3-1.14.49-1.63.8A14.31,14.31,0,0,0,6,83.21a13.81,13.81,0,0,0-2.24,2.28c-.71.87-1.37,1.93-2.12,3l-.07.12a.7.7,0,0,1-1,.2l0,0A.78.78,0,0,1,.28,88.49Z"/>
<path class="cls-1" d="M104.7,69.7c-1.08-.76-2.07-1.52-3-2.08a13.92,13.92,0,0,0-2.9-1.35,15,15,0,0,0-3.18-.66c-.57-.12-1.18-.09-1.81-.17s-1.33-.07-2-.15h-.1a.7.7,0,0,1-.58-.8h0a.76.76,0,0,1,.23-.42,10.65,10.65,0,0,1,1.85-1.27A11.05,11.05,0,0,1,95.32,62a9.16,9.16,0,0,1,4.76.22,8.48,8.48,0,0,1,4,2.65,7.45,7.45,0,0,1,1.83,4.27.69.69,0,0,1-.63.74h0a.72.72,0,0,1-.45-.13Z"/>
<path class="cls-1" d="M124.47,4.88a62.08,62.08,0,0,0,85.72,19c1.2-.77,2.38-1.58,3.52-2.42h0a.68.68,0,0,1,.94.13h0a.69.69,0,0,1,0,.73c-4.7,8.21-12.85,14.5-22,18A54.72,54.72,0,0,1,137.22,30c-7.26-6.55-12.61-15.34-14-24.69a.67.67,0,0,1,1.23-.46Z"/>
<path class="cls-1" d="M115.53,7.33a7.41,7.41,0,0,1,1.84-4.26,8.48,8.48,0,0,1,4-2.65,9.26,9.26,0,0,1,4.76-.2,8.52,8.52,0,0,1,4,2,.7.7,0,0,1,.07,1,.76.76,0,0,1-.42.23h-.1a19,19,0,0,1-2,.14,13,13,0,0,0-1.81.16,15.87,15.87,0,0,0-3.19.66,14.94,14.94,0,0,0-2.9,1.34,32.6,32.6,0,0,0-3.06,2.08l-.11.08a.7.7,0,0,1-1-.14l0,0A.84.84,0,0,1,115.53,7.33Z"/>
<path class="cls-1" d="M219.8,27c-.75-1.1-1.4-2.16-2.11-3a13.8,13.8,0,0,0-2.23-2.29,14.36,14.36,0,0,0-2.74-1.76c-.49-.31-1.07-.5-1.63-.81a17.84,17.84,0,0,1-1.83-.85l-.09-.05a.71.71,0,0,1-.25-1,.66.66,0,0,1,.36-.3,8.63,8.63,0,0,1,4.47-.47,9.25,9.25,0,0,1,4.37,1.9,8.56,8.56,0,0,1,2.81,3.92,7.34,7.34,0,0,1,.18,4.63.69.69,0,0,1-.86.46.79.79,0,0,1-.38-.27Z"/>
</g>
</g>
</g>
</svg>