<?xml version="1.0" encoding="utf-8"?>
<!-- Generator: Adobe Illustrator 23.0.6, SVG Export Plug-In . SVG Version: 6.00 Build 0)  -->
<svg version="1.1" id="Layer_1" xmlns="http://www.w3.org/2000/svg" xmlns:xlink="http://www.w3.org/1999/xlink" x="0px" y="0px"
	 viewBox="0 0 512.4 474.6" style="enable-background:new 0 0 512.4 474.6;" xml:space="preserve">
<style type="text/css">
	.st0{opacity:0.18;fill:#379634;enable-background:new    ;}
	.st1{fill:url(#SVGID_1_);}
	.st2{fill:#379634;}
	.st3{opacity:0.69;fill:url(#SVGID_2_);enable-background:new    ;}
	.st4{fill:#222E50;}
	.st5{fill:url(#SVGID_3_);}
	.st6{fill:url(#SVGID_4_);}
	.st7{fill:url(#SVGID_5_);}
	.st8{fill:url(#SVGID_6_);}
	.st9{fill:url(#SVGID_7_);}
	.st10{fill:url(#SVGID_8_);}
	.st11{fill:#435276;}
	.st12{fill:url(#SVGID_9_);}
	.st13{fill:url(#SVGID_10_);}
	.st14{fill:url(#SVGID_11_);}
	.st15{fill:url(#SVGID_12_);}
	.st16{fill:#FFFFFF;}
	.st17{fill:url(#SVGID_13_);}
	.st18{fill:url(#SVGID_14_);}
	.st19{fill:url(#SVGID_15_);}
	.st20{opacity:0.25;fill:#FFFFFF;enable-background:new    ;}
	.st21{fill:url(#SVGID_16_);}
	.st22{opacity:0.69;fill:url(#SVGID_17_);enable-background:new    ;}
	.st23{fill:url(#SVGID_18_);}
	.st24{fill:url(#SVGID_19_);}
	.st25{opacity:0.69;fill:url(#SVGID_20_);enable-background:new    ;}
	.st26{fill:url(#SVGID_21_);}
	.st27{fill:#3F3D56;}
	.st28{fill:url(#SVGID_22_);}
	.st29{fill:url(#SVGID_23_);}
</style>
<title>Data Process</title>
<g>
	<path class="st0" d="M68.6,53.5c17.6-29.4,55.8-39.2,90.1-39.2s69,7.1,102.5,0c15.5-3.3,30.4-9.5,46.2-10.4
		c33.5-1.8,62.9,20.7,88.9,41.9l47.5,38.8c19.3,15.7,39,32.1,50.7,54.1c10.2,19.3,13.4,41.6,9,63c-5.5,26.5-22.5,51.6-18.2,78.4
		c2.1,13.4,9.5,25.4,14.2,38.1c20,53.4-7.1,112.8-60.5,132.8c-0.5,0.2-1,0.4-1.5,0.6c-35.8,12.8-75.2,4.9-112.9-0.2
		c-71.8-9.8-144.6-9.4-216.9-13.6c-12.6-0.7-25.9-1.9-35.8-9.6c-14.3-11.1-16.5-31.5-16.9-49.6c-1.1-47.7,2.4-95.4,7.1-142.9
		c3.5-34.9,1.4-61.6-9.5-94.3C44.8,118.4,55.8,75,68.6,53.5z"/>
	
		<linearGradient id="SVGID_1_" gradientUnits="userSpaceOnUse" x1="251.23" y1="386.4728" x2="297.43" y2="386.4728" gradientTransform="matrix(1 0 0 -1 -44.82 470.63)">
		<stop  offset="0" style="stop-color:#ECC4D7"/>
		<stop  offset="0.42" style="stop-color:#EFD4D1"/>
		<stop  offset="1" style="stop-color:#F2EAC9"/>
	</linearGradient>
	<path class="st1" d="M216,72.6l4.2,7.3l29.4-13.1l3,4.7c0,0-30.6,30.4-32.4,30s-13.8-21.7-13.8-21.7L216,72.6z"/>
	<polygon class="st2" points="205.1,44.7 218.4,70.6 206.8,80.8 	"/>
	
		<linearGradient id="SVGID_2_" gradientUnits="userSpaceOnUse" x1="205.14" y1="413.255" x2="218.37" y2="413.255" gradientTransform="matrix(1 0 0 -1 0 476)">
		<stop  offset="2.000000e-02" style="stop-color:#FFFFFF;stop-opacity:0"/>
		<stop  offset="0.58" style="stop-color:#FFFFFF;stop-opacity:0.39"/>
		<stop  offset="0.68" style="stop-color:#FFFFFF;stop-opacity:0.68"/>
		<stop  offset="1" style="stop-color:#FFFFFF"/>
	</linearGradient>
	<polygon class="st3" points="205.1,44.7 218.4,70.6 206.8,80.8 	"/>
	<polygon class="st4" points="230.9,93.5 238,44.7 266.5,44.3 257.1,93.9 	"/>
	<path class="st2" d="M311.3,261.3h8.4v-60.4c0-8.3,6.7-15,15-15h39.1v-8.4h-39.2c-12.9,0-23.3,10.5-23.4,23.4V261.3z"/>
	
		<linearGradient id="SVGID_3_" gradientUnits="userSpaceOnUse" x1="387.5569" y1="250.6811" x2="389.8069" y2="197.7211" gradientTransform="matrix(1 0 0 -1 -44.82 470.63)">
		<stop  offset="0" style="stop-color:#000000;stop-opacity:0"/>
		<stop  offset="0.99" style="stop-color:#000000"/>
	</linearGradient>
	<path class="st5" d="M311.4,261.3h8.4v-60.4c0-8.3,6.7-15,15-15H374v-8.4h-39.2c-12.9,0-23.3,10.5-23.3,23.4V261.3z"/>
	
		<linearGradient id="SVGID_4_" gradientUnits="userSpaceOnUse" x1="24.43" y1="204.805" x2="243.35" y2="204.805" gradientTransform="matrix(1 0 0 -1 0 476)">
		<stop  offset="0" style="stop-color:#000000;stop-opacity:0"/>
		<stop  offset="0.99" style="stop-color:#000000"/>
	</linearGradient>
	<path class="st6" d="M59,133.3h149.8c19.1,0,34.6,15.5,34.6,34.6v206.7c0,19.1-15.5,34.5-34.6,34.5H59c-19.1,0-34.5-15.5-34.5-34.5
		V167.9C24.4,148.8,39.9,133.3,59,133.3z"/>
	<path class="st2" d="M231.9,379.1L231.9,379.1c0-2.3,1.9-4.2,4.2-4.2h36.9c8.3,0,15-6.7,15-15v-39.1h8.4V360
		c0,12.9-10.5,23.4-23.4,23.4l0,0h-36.9C233.9,383.4,232,381.5,231.9,379.1C231.9,379.2,231.9,379.1,231.9,379.1z"/>
	<path class="st2" d="M388.5,392.4V384h-60.4c-8.3,0-15-6.7-15-15v-39.1h-8.4V369c0,12.9,10.5,23.3,23.4,23.4H388.5z"/>
	
		<linearGradient id="SVGID_5_" gradientUnits="userSpaceOnUse" x1="310.4133" y1="97.8902" x2="307.0333" y2="151.9702" gradientTransform="matrix(1 0 0 -1 -44.82 470.63)">
		<stop  offset="0" style="stop-color:#000000;stop-opacity:0"/>
		<stop  offset="0.99" style="stop-color:#000000"/>
	</linearGradient>
	<path class="st7" d="M231.9,379.1L231.9,379.1c0-2.3,1.9-4.2,4.2-4.2h36.9c8.3,0,15-6.7,15-15v-39.1h8.4V360
		c0,12.9-10.5,23.4-23.4,23.4l0,0h-36.9C233.9,383.4,232,381.5,231.9,379.1C231.9,379.2,231.9,379.1,231.9,379.1z"/>
	
		<linearGradient id="SVGID_6_" gradientUnits="userSpaceOnUse" x1="391.2943" y1="103.2003" x2="391.8643" y2="138.9702" gradientTransform="matrix(1 0 0 -1 -44.82 470.63)">
		<stop  offset="0" style="stop-color:#000000;stop-opacity:0"/>
		<stop  offset="0.99" style="stop-color:#000000"/>
	</linearGradient>
	<path class="st8" d="M388.5,392.4V384h-60.4c-8.3,0-15-6.7-15-15v-39.1h-8.4V369c0,12.9,10.5,23.3,23.4,23.4H388.5z"/>
	<path class="st2" d="M512.4,460.4c0,7.8-6.3,14.2-14.2,14.2c0,0,0,0,0,0H28.7c-7.8,0-14.2-6.4-14.1-14.2c0-6.7,4.8-12.5,11.3-13.9
		c0.9-0.2,1.9-0.3,2.8-0.3h469.6C506.1,446.3,512.4,452.6,512.4,460.4z"/>
	<rect x="33.4" y="391.1" class="st2" width="181.2" height="61.5"/>
	
		<linearGradient id="SVGID_7_" gradientUnits="userSpaceOnUse" x1="124.2976" y1="40.58" x2="123.5176" y2="96.83" gradientTransform="matrix(1 0 0 -1 0 476)">
		<stop  offset="0" style="stop-color:#000000;stop-opacity:0"/>
		<stop  offset="0.99" style="stop-color:#000000"/>
	</linearGradient>
	<rect x="33.4" y="391.1" class="st9" width="181.2" height="45"/>
	<path class="st2" d="M34.5,133.3h149.8c19.1,0,34.6,15.5,34.6,34.6v206.7c0,19.1-15.5,34.5-34.6,34.5H34.5
		C15.5,409.1,0,393.6,0,374.5V167.9C0,148.8,15.5,133.3,34.5,133.3z"/>
	
		<linearGradient id="SVGID_8_" gradientUnits="userSpaceOnUse" x1="152.4386" y1="63.81" x2="164.3486" y2="524.84" gradientTransform="matrix(1 0 0 -1 -44.82 470.63)">
		<stop  offset="0" style="stop-color:#000000;stop-opacity:0"/>
		<stop  offset="0.99" style="stop-color:#000000"/>
	</linearGradient>
	<path class="st10" d="M218.9,296.6v78c0,19.1-15.5,34.5-34.5,34.5H34.6C15.5,409.1,0,393.6,0,374.5c0,0,0,0,0,0v-78
		C0,277.4,15.5,262,34.5,262h149.8C203.5,262,218.9,277.4,218.9,296.6C218.9,296.5,218.9,296.5,218.9,296.6z"/>
	<rect x="261.6" y="250.1" class="st11" width="90.4" height="85.3"/>
	<g>
		<path class="st2" d="M263.5,238.1h88.1c5,0,9.1,4.1,9.1,9.1v15.5c0,5-4.1,9.1-9.1,9.1h-88.1c-5,0-9.1-4.1-9.1-9.1v-15.5
			C254.4,242.1,258.5,238.1,263.5,238.1z"/>
		<path class="st2" d="M263.5,277h88.1c5,0,9.1,4.1,9.1,9.1v15.5c0,5-4.1,9.1-9.1,9.1h-88.1c-5,0-9.1-4.1-9.1-9.1v-15.5
			C254.4,281.1,258.5,277,263.5,277z"/>
		<path class="st2" d="M263.5,315.9h88.1c5,0,9.1,4.1,9.1,9.1v15.5c0,5-4.1,9.1-9.1,9.1h-88.1c-5,0-9.1-4.1-9.1-9.1V325
			C254.4,320,258.5,315.9,263.5,315.9z"/>
	</g>
	<path class="st2" d="M303.9,238.2h-8.4v-60.4c0-8.3-6.7-15-15-15l0,0h-44.9c-2.3,0-4.2-1.9-4.2-4.2c0,0,0,0,0,0l0,0
		c0-2.3,1.9-4.2,4.2-4.2h44.9c12.9,0,23.3,10.4,23.4,23.3c0,0,0,0,0,0V238.2z"/>
	
		<linearGradient id="SVGID_9_" gradientUnits="userSpaceOnUse" x1="314.4416" y1="248.0701" x2="316.1316" y2="201.3101" gradientTransform="matrix(1 0 0 -1 -44.82 470.63)">
		<stop  offset="0" style="stop-color:#000000;stop-opacity:0"/>
		<stop  offset="0.99" style="stop-color:#000000"/>
	</linearGradient>
	<path class="st12" d="M303.9,238.2h-8.4v-60.4c0-8.3-6.7-15-15-15l0,0h-44.9c-2.3,0-4.2-1.9-4.2-4.2c0,0,0,0,0,0l0,0
		c0-2.3,1.9-4.2,4.2-4.2h44.9c12.9,0,23.3,10.4,23.4,23.3c0,0,0,0,0,0V238.2z"/>
	
		<linearGradient id="SVGID_10_" gradientUnits="userSpaceOnUse" x1="341.82" y1="221.75" x2="348.96" y2="221.75" gradientTransform="matrix(1 0 0 -1 0 476)">
		<stop  offset="0" style="stop-color:#000000;stop-opacity:0"/>
		<stop  offset="0.99" style="stop-color:#000000"/>
	</linearGradient>
	<circle class="st13" cx="345.4" cy="254.3" r="3.6"/>
	
		<linearGradient id="SVGID_11_" gradientUnits="userSpaceOnUse" x1="332.86" y1="221.75" x2="340" y2="221.75" gradientTransform="matrix(1 0 0 -1 0 476)">
		<stop  offset="0" style="stop-color:#000000;stop-opacity:0"/>
		<stop  offset="0.99" style="stop-color:#000000"/>
	</linearGradient>
	<circle class="st14" cx="336.4" cy="254.3" r="3.6"/>
	
		<linearGradient id="SVGID_12_" gradientUnits="userSpaceOnUse" x1="324.01" y1="221.75" x2="331.16" y2="221.75" gradientTransform="matrix(1 0 0 -1 0 476)">
		<stop  offset="0" style="stop-color:#000000;stop-opacity:0"/>
		<stop  offset="0.99" style="stop-color:#000000"/>
	</linearGradient>
	<circle class="st15" cx="327.6" cy="254.3" r="3.6"/>
	<path class="st2" d="M309.9,91.7H478c9.1,0,16.5-7.4,16.5-16.5c0,0,0,0,0,0l0,0c0-19.1-15.5-34.7-34.7-34.7h-14.2
		c0-19.1-15.5-34.7-34.7-34.7c0,0,0,0,0,0h-22.9c-19.1,0-34.7,15.5-34.7,34.7c0,0,0,0,0,0v7.1h-19.3c-18.7,0-34,14.8-34.6,33.4l0,0
		c-0.2,5.7,4.2,10.5,9.9,10.7C309.6,91.7,309.7,91.7,309.9,91.7z"/>
	<path class="st2" d="M117.7,91.7h-102c-4.5,0-8.1-3.6-8.1-8.1c0,0,0,0,0,0v-1.7c0-11.4,9.2-20.6,20.6-20.7h8.5
		c0-11.4,9.3-20.7,20.7-20.7H71c11.4,0,20.7,9.3,20.7,20.7c0,0,0,0,0,0v4.2h11.5c11.1,0,20.3,8.8,20.7,19.9l0,0
		c0.1,3.4-2.5,6.2-5.9,6.4C117.8,91.7,117.8,91.7,117.7,91.7z"/>
	<path class="st16" d="M37.9,199.4h143.9c5.7,0,10.2,4.6,10.2,10.2v0c0,5.7-4.6,10.2-10.2,10.2H37.9c-5.7,0-10.2-4.6-10.2-10.2v0
		C27.6,203.9,32.2,199.4,37.9,199.4z"/>
	<path class="st2" d="M38.8,203.3h93.9c3.7,0,6.7,3,6.7,6.7v0c0,3.7-3,6.7-6.7,6.7H38.8c-3.7,0-6.7-3-6.7-6.7v0
		C32.1,206.3,35.1,203.3,38.8,203.3z"/>
	<g>
		<path class="st2" d="M385.8,133.3h69.6c8.9,0,16,7.2,16,16v96c0,8.9-7.2,16-16,16h-69.6c-8.9,0-16-7.2-16-16v-96
			C369.8,140.5,377,133.3,385.8,133.3z"/>
		
			<linearGradient id="SVGID_13_" gradientUnits="userSpaceOnUse" x1="396.33" y1="279.7198" x2="635.31" y2="274.4698" gradientTransform="matrix(1 0 0 -1 0 476)">
			<stop  offset="0" style="stop-color:#000000;stop-opacity:0"/>
			<stop  offset="0.99" style="stop-color:#000000"/>
		</linearGradient>
		<path class="st17" d="M434.7,133.3h20.7c8.9,0,16,7.2,16,16v96c0,8.9-7.2,16-16,16h-20.7c-8.9,0-16-7.2-16-16v-96
			C418.6,140.5,425.8,133.3,434.7,133.3z"/>
		
			<linearGradient id="SVGID_14_" gradientUnits="userSpaceOnUse" x1="375.45" y1="331.0886" x2="817.78" y2="321.3686" gradientTransform="matrix(1 0 0 -1 -44.82 470.63)">
			<stop  offset="0" style="stop-color:#000000;stop-opacity:0"/>
			<stop  offset="0.99" style="stop-color:#000000"/>
		</linearGradient>
		<path class="st18" d="M471.4,149.4H369.8c0-8.8,7.1-16,15.9-16c0,0,0,0,0.1,0h69.6c8.8,0,16,7.1,16.1,15.9
			C471.4,149.3,471.4,149.3,471.4,149.4z"/>
		
			<linearGradient id="SVGID_15_" gradientUnits="userSpaceOnUse" x1="465.2585" y1="228.9809" x2="468.9286" y2="154.3909" gradientTransform="matrix(1 0 0 -1 -44.82 470.63)">
			<stop  offset="0" style="stop-color:#000000;stop-opacity:0"/>
			<stop  offset="0.99" style="stop-color:#000000"/>
		</linearGradient>
		<path class="st19" d="M471.4,245.3c0,8.8-7.2,16-16,16c0,0,0,0-0.1,0h-69.6c-8.8,0-16-7.2-16-16L471.4,245.3z"/>
	</g>
	<path class="st2" d="M500.9,439H385.2V292.1l85.9-1l31.2,23.2L500.9,439z M389.6,434.6h107l1.3-118l-28.2-21l-80.1,0.9L389.6,434.6
		z"/>
	<path class="st2" d="M501.1,317.9l-26.3,0.4l-4.6-25.6L501.1,317.9z M478.5,313.9l12.9-0.7l-14.7-10.3L478.5,313.9z"/>
	<path class="st2" d="M408.9,324.1h72.4c1.4,0,2.5,1.1,2.5,2.5v0c0,1.4-1.1,2.5-2.5,2.5h-72.4c-1.4,0-2.5-1.1-2.5-2.5v0
		C406.3,325.2,407.5,324.1,408.9,324.1z"/>
	<path class="st2" d="M408.9,340.9h72.4c1.4,0,2.5,1.1,2.5,2.5v0c0,1.4-1.1,2.5-2.5,2.5h-72.4c-1.4,0-2.5-1.1-2.5-2.5v0
		C406.3,342,407.5,340.9,408.9,340.9z"/>
	<path class="st2" d="M408.9,357.7h72.4c1.4,0,2.5,1.1,2.5,2.5v0c0,1.4-1.1,2.5-2.5,2.5h-72.4c-1.4,0-2.5-1.1-2.5-2.5v0
		C406.3,358.9,407.5,357.7,408.9,357.7z"/>
	<path class="st2" d="M408.9,374.5h72.4c1.4,0,2.5,1.1,2.5,2.5v0c0,1.4-1.1,2.5-2.5,2.5h-72.4c-1.4,0-2.5-1.1-2.5-2.5v0
		C406.3,375.7,407.5,374.5,408.9,374.5z"/>
	<path class="st2" d="M408.9,391.3h72.4c1.4,0,2.5,1.1,2.5,2.5v0c0,1.4-1.1,2.5-2.5,2.5h-72.4c-1.4,0-2.5-1.1-2.5-2.5v0
		C406.3,392.5,407.5,391.3,408.9,391.3z"/>
	<path class="st2" d="M408.9,408.1h72.4c1.4,0,2.5,1.1,2.5,2.5v0c0,1.4-1.1,2.5-2.5,2.5h-72.4c-1.4,0-2.5-1.1-2.5-2.5v0
		C406.3,409.3,407.5,408.1,408.9,408.1z"/>
	<path class="st2" d="M254.8,214.4h-22.1c-1,0-1.9-0.8-1.9-1.9l0,0c0-1,0.8-1.9,1.9-1.9h22.1c9.5,0,17.3-7.7,17.3-17.3v-37.1
		c0-11.2,9-20.2,20.2-20.2h44.2c10.2,0,18.5-8.3,18.5-18.6v-30h3.7v30c0,12.3-10,22.3-22.3,22.3h-44.2c-9.1,0-16.5,7.4-16.5,16.5
		l0,0v37.1C275.8,205,266.4,214.4,254.8,214.4z"/>
	<path class="st2" d="M124,131.9h3.7v-2.2c0-11.1-9-20.2-20.2-20.2H88.2c-8.6,0-15.5-7-15.6-15.6v-3.1h-3.7V94
		c0,10.6,8.6,19.3,19.3,19.3h19.4c9.1,0,16.4,7.4,16.4,16.4L124,131.9z"/>
	<rect x="384" y="161" class="st20" width="74.9" height="50.4"/>
	
		<linearGradient id="SVGID_16_" gradientUnits="userSpaceOnUse" x1="593.0366" y1="-16.0812" x2="-212.9333" y2="49.7887" gradientTransform="matrix(1 0 0 -1 -44.82 470.63)">
		<stop  offset="0" style="stop-color:#000000;stop-opacity:0"/>
		<stop  offset="0.41" style="stop-color:#000000;stop-opacity:0.41"/>
		<stop  offset="0.99" style="stop-color:#000000"/>
	</linearGradient>
	<path class="st21" d="M442.6,460.7c0,6.7-4.7,12.6-11.3,13.9H28.7c-7.8,0-14.2-6.4-14.1-14.2c0-6.7,4.8-12.5,11.3-13.9h402.5
		C436.2,446.5,442.5,452.9,442.6,460.7z"/>
	<path class="st4" d="M162.7,63.6v56h46.2V59.8c0,0,0.5-19.3-9.7-18.5C189.1,42.2,167,37.6,162.7,63.6z"/>
	
		<linearGradient id="SVGID_17_" gradientUnits="userSpaceOnUse" x1="207.52" y1="390.1586" x2="253.7134" y2="390.1586" gradientTransform="matrix(1 0 0 -1 -44.82 470.63)">
		<stop  offset="2.000000e-02" style="stop-color:#FFFFFF;stop-opacity:0"/>
		<stop  offset="0.58" style="stop-color:#FFFFFF;stop-opacity:0.39"/>
		<stop  offset="0.68" style="stop-color:#FFFFFF;stop-opacity:0.68"/>
		<stop  offset="1" style="stop-color:#FFFFFF"/>
	</linearGradient>
	<path class="st22" d="M162.7,63.6v56h46.2V59.8c0,0,0.5-19.3-9.7-18.5C189.1,42.2,167,37.6,162.7,63.6z"/>
	<path class="st16" d="M208.9,119.5c0,0,30,0.9,38.5,15s20.3,49.6,20.3,49.6l-10.7,4.2l-19.1-24.2L208.9,119.5z"/>
	
		<linearGradient id="SVGID_18_" gradientUnits="userSpaceOnUse" x1="299.4186" y1="319.9793" x2="230.9686" y2="309.5593" gradientTransform="matrix(1 0 0 -1 -44.82 470.63)">
		<stop  offset="0" style="stop-color:#000000;stop-opacity:0"/>
		<stop  offset="0.99" style="stop-color:#000000"/>
	</linearGradient>
	<path class="st23" d="M208.9,119.5c0,0,30,0.9,38.5,15s20.3,49.6,20.3,49.6l-10.7,4.2l-19.1-24.2L208.9,119.5z"/>
	<path class="st16" d="M162.7,119.5c0,0-4.1,20.7,6.8,24s44.3,6.8,44.3,6.8l16.5,54.8l13.7-6.2c0,0-5.1-59.5-11.8-67
		c-6.8-7.5-23.3-12.4-23.3-12.4H162.7z"/>
	
		<linearGradient id="SVGID_19_" gradientUnits="userSpaceOnUse" x1="225.1" y1="440.807" x2="255.32" y2="440.807" gradientTransform="matrix(1 0 0 -1 -44.82 470.63)">
		<stop  offset="0" style="stop-color:#ECC4D7"/>
		<stop  offset="0.42" style="stop-color:#EFD4D1"/>
		<stop  offset="1" style="stop-color:#F2EAC9"/>
	</linearGradient>
	<path class="st24" d="M186.2,24.4c0.5-2.9,1.3-5.7,2.5-8.3c2.4-4.6,7.1-7.6,12.3-7.8c0.6,0,1.2,0,1.9,0.1c0.7,0.2,1.3,0.4,1.8,0.8
		c2.8,2,4.7,5,5.3,8.4c0.5,3.3,0.6,6.8,0.3,10.1c-0.3,3.7-0.9,8-4.2,9.7c-2.3,1.2-5,0.6-7.5-0.2c-0.5-0.2-1.1-0.2-1.6,0
		c-0.3,0.3-0.6,0.7-0.6,1.2c-0.6,3.6,0.6,7.3-0.2,10.8c-0.1,0.8-0.6,1.6-1.3,2c-0.6,0.2-1.4,0.2-2,0c-3.2-0.8-6.2-2.4-8.7-4.7
		c-1-0.9-3.6-2.5-4-3.9s1.5-4.2,2-5.5C183.9,33,185.2,28.8,186.2,24.4z"/>
</g>
<linearGradient id="SVGID_20_" gradientUnits="userSpaceOnUse" x1="208.0892" y1="396.2418" x2="238.8792" y2="410.7018" gradientTransform="matrix(1 0 0 -1 -44.82 470.63)">
	<stop  offset="2.000000e-02" style="stop-color:#FFFFFF;stop-opacity:0"/>
	<stop  offset="0.58" style="stop-color:#FFFFFF;stop-opacity:0.39"/>
	<stop  offset="0.68" style="stop-color:#FFFFFF;stop-opacity:0.68"/>
	<stop  offset="1" style="stop-color:#FFFFFF"/>
</linearGradient>
<path class="st25" d="M163.2,63.7l14.3,27l15.2-11.3c0,0-11.3-28.1-13.5-29.3c-2.2-1.1-7.6-4.5-10.1-0.8S162.7,58.9,163.2,63.7z"/>
<linearGradient id="SVGID_21_" gradientUnits="userSpaceOnUse" x1="225.73" y1="387.5064" x2="286.4905" y2="387.5064" gradientTransform="matrix(1 0 0 -1 -44.82 470.63)">
	<stop  offset="0" style="stop-color:#ECC4D7"/>
	<stop  offset="0.42" style="stop-color:#EFD4D1"/>
	<stop  offset="1" style="stop-color:#F2EAC9"/>
</linearGradient>
<path class="st26" d="M180.9,88.9c0,0,6.2,11,9,11.3c2.8,0.3,42.8-17.2,42.8-17.2l6.2-2c0,0,1.4-6.8,1.7-8.2s2.5-6.2-0.6-6.8
	s-7.9,3.4-7.9,3.4l-2.3,5.6l-33.8,10.4l-3.5-6.1L180.9,88.9z"/>
<path class="st27" d="M216.9,9.4c1.4-3.2,0.1-7.7-3.2-8.8c-2.8-0.9-5.7,0.7-8.6,0.7c-2.5,0-4.8-1-7.3-1.3c-6-0.5-11.5,3.4-13,9.2
	c-0.1,0.9-0.4,1.7-0.7,2.5c-1,1.8-3.6,2.6-4.1,4.6c-0.1,1,0,2,0.4,2.9l3.2,9.5c0.4,1.1,1.2,2.4,2.2,2c0.6-0.2,0.9-0.9,1.1-1.5
	l2.1-5.9c1.9-0.2,1.5,4.3,3.4,4c1.2-0.2,1-2,0.7-3.3c-0.6-3.5,1.7-6.7,5.2-7.3c0,0,0,0,0,0c0.9,0,1.9-0.1,2.7-0.5
	c0.5-0.4,1.1-0.8,1.7-1.1c2.4-0.9,4.8,1.1,7.5,0.1C213.2,14.2,215.6,12.1,216.9,9.4z"/>
<polygon class="st4" points="239.5,200.8 241.5,206.1 256.7,205.8 237.5,214.6 233.9,202.7 "/>
<linearGradient id="SVGID_22_" gradientUnits="userSpaceOnUse" x1="232.6" y1="267.63" x2="255.41" y2="267.63" gradientTransform="matrix(1 0 0 -1 0 476)">
	<stop  offset="0" style="stop-color:#000000;stop-opacity:0"/>
	<stop  offset="0.99" style="stop-color:#000000"/>
</linearGradient>
<polygon class="st28" points="238.2,201.5 240.2,206.8 255.4,206.5 236.3,215.3 232.6,203.4 "/>
<polygon class="st4" points="266.3,184.7 268.2,190.1 283.4,189.8 264.3,198.5 260.6,186.7 "/>
<linearGradient id="SVGID_23_" gradientUnits="userSpaceOnUse" x1="259.36" y1="283.685" x2="282.18" y2="283.685" gradientTransform="matrix(1 0 0 -1 0 476)">
	<stop  offset="0" style="stop-color:#000000;stop-opacity:0"/>
	<stop  offset="0.99" style="stop-color:#000000"/>
</linearGradient>
<polygon class="st29" points="265,185.4 267,190.8 282.2,190.5 263,199.2 259.4,187.4 "/>
</svg>
