<?xml version="1.0" encoding="utf-8"?>
<!-- Generator: Adobe Illustrator 23.0.6, SVG Export Plug-In . SVG Version: 6.00 Build 0)  -->
<svg version="1.1" id="Layer_1" xmlns="http://www.w3.org/2000/svg" xmlns:xlink="http://www.w3.org/1999/xlink" x="0px" y="0px"
	 viewBox="0 0 726.6 598.2" style="enable-background:new 0 0 726.6 598.2;" xml:space="preserve">
<style type="text/css">
	.st0{opacity:0.18;fill:#FDE74C;enable-background:new    ;}
	.st1{fill:#3F3D56;}
	.st2{fill:#222E50;}
	.st3{fill:#25233A;}
	.st4{fill:url(#SVGID_1_);}
	.st5{fill:url(#SVGID_2_);}
	.st6{fill:url(#SVGID_3_);}
	.st7{opacity:0.31;fill:url(#SVGID_4_);enable-background:new    ;}
	.st8{opacity:0.31;fill:url(#SVGID_5_);enable-background:new    ;}
	.st9{fill:url(#SVGID_6_);}
	.st10{fill:url(#SVGID_7_);}
	.st11{fill:url(#SVGID_8_);}
	.st12{fill:url(#SVGID_9_);}
	.st13{fill:url(#SVGID_10_);}
	.st14{fill:url(#SVGID_11_);}
	.st15{opacity:0.19;fill:url(#SVGID_12_);enable-background:new    ;}
	.st16{fill:url(#SVGID_13_);}
	.st17{fill:url(#SVGID_14_);}
	.st18{fill:url(#SVGID_15_);}
	.st19{fill:#FDE74C;}
	.st20{fill:url(#SVGID_16_);}
	.st21{fill:url(#SVGID_17_);}
	.st22{fill:url(#SVGID_18_);}
	.st23{fill:#379634;}
	.st24{fill:url(#SVGID_19_);}
	.st25{fill:url(#SVGID_20_);}
	.st26{fill:url(#SVGID_21_);}
	.st27{fill:none;stroke:#6C62FF;stroke-width:1.86;stroke-miterlimit:10;}
	.st28{fill:url(#SVGID_22_);}
	.st29{opacity:0.25;fill:#FFFFFF;enable-background:new    ;}
	.st30{fill:url(#SVGID_23_);}
	.st31{fill:url(#SVGID_24_);}
	.st32{fill:url(#SVGID_25_);}
	.st33{fill:url(#SVGID_26_);}
	.st34{fill:url(#SVGID_27_);}
</style>
<title>29. Working in front Computer</title>
<path class="st0" d="M537.7,103.9c-22.2-25.2-39.3-55.4-65.9-75.9C430.2-4.4,370.3-7.6,321.6,12.8S235,74.2,210,120.7
	c-13.1,24.4-23.5,51.1-42.8,71.1c-16.3,16.9-37.7,27.6-58,39.4C76.5,250,45,272.8,23.8,304.1S-6.8,376.4,6.7,411.6
	c9.1,23.8,27.5,42.7,46.4,59.8c22.2,20.1,46,39,73.5,51c34.4,14.9,72.7,18.1,110.1,19.7c66.4,2.7,133,0.7,199.2-6
	c54.2-5.5,110-14.8,155.3-45c63.5-42.3,96.2-119.7,103.6-195.6c3-30.4,2.2-61.9-9.5-90.1C657.3,138.1,581.6,153.9,537.7,103.9z"/>
<path class="st1" d="M268.8,239.2c0,0-25.1-4.4-32.2,13s0,77.6,0,77.6l93.8,66.4L268.8,239.2z"/>
<path class="st2" d="M387,507.1l-36.4,10.8c-5.3,1.6-10.8-1.5-12.4-6.7l0,0c-1.6-5.3,1.5-10.8,6.7-12.4l36.3-10.8
	c5.3-1.6,10.8,1.5,12.4,6.7l0,0C395.2,500,392.3,505.6,387,507.1z"/>
<circle class="st3" cx="384.9" cy="530.2" r="16.8"/>
<circle class="st1" cx="381.9" cy="531.7" r="8.4"/>
<circle class="st3" cx="317.8" cy="513.6" r="16.8"/>
<linearGradient id="SVGID_1_" gradientUnits="userSpaceOnUse" x1="362.32" y1="-107.51" x2="379.08" y2="-107.51" gradientTransform="matrix(1 0 0 -1 -55.96 407.59)">
	<stop  offset="0" style="stop-color:#183866"/>
	<stop  offset="1" style="stop-color:#1A7FC1"/>
</linearGradient>
<path class="st4" d="M323.1,515.1c0,4.6-3.8,8.4-8.4,8.4s-8.4-3.8-8.4-8.4c0-4.6,3.8-8.4,8.4-8.4S323.1,510.5,323.1,515.1
	L323.1,515.1z"/>
<circle class="st3" cx="312.9" cy="536.5" r="16.8"/>
<path class="st1" d="M326.1,537.1c0,4.6-3.8,8.4-8.4,8.4s-8.4-3.8-8.4-8.4c0-4.6,3.8-8.4,8.4-8.4S326.1,532.5,326.1,537.1
	L326.1,537.1z"/>
<path class="st2" d="M388.3,523.6l-76.6-15.5c-5.4-1.1-8.9-6.4-7.8-11.8l0,0c1.1-5.4,6.4-8.9,11.8-7.8l76.6,15.4
	c5.4,1.1,8.9,6.4,7.8,11.8l0,0C399,521.2,393.7,524.7,388.3,523.6z"/>
<path class="st2" d="M341.1,403.2H362v88.1c0,5.8-4.7,10.5-10.5,10.5l0,0c-5.8,0-10.5-4.7-10.5-10.5L341.1,403.2L341.1,403.2z"/>
<path class="st2" d="M348.6,517.8l-36.4,10.8c-5.3,1.6-10.8-1.5-12.4-6.7l0,0c-1.6-5.3,1.5-10.8,6.7-12.4l36.4-10.8
	c5.3-1.6,10.8,1.5,12.4,6.7l0,0C356.8,510.7,353.8,516.2,348.6,517.8z"/>
<linearGradient id="SVGID_2_" gradientUnits="userSpaceOnUse" x1="402.86" y1="-109.6781" x2="410.55" y2="-109.6781" gradientTransform="matrix(1 0 0 -1 -55.96 407.59)">
	<stop  offset="0" style="stop-color:#000000"/>
	<stop  offset="0.99" style="stop-color:#000000;stop-opacity:0"/>
</linearGradient>
<path class="st5" d="M354.6,516.7l-4,1.2c-1.2,0.4-2.4,0.5-3.7,0.4l1.7-0.5c1.2-0.3,2.3-0.9,3.2-1.6L354.6,516.7z"/>
<linearGradient id="SVGID_3_" gradientUnits="userSpaceOnUse" x1="420.03" y1="-96.9724" x2="465.78" y2="-76.5424" gradientTransform="matrix(1 0 0 -1 -55.96 407.59)">
	<stop  offset="0" style="stop-color:#000000"/>
	<stop  offset="0.99" style="stop-color:#000000;stop-opacity:0"/>
</linearGradient>
<path class="st6" d="M394.1,497.6c0,2.3-0.8,4.5-2.3,6.3l-31.8-6.4c0.8-1.1,1.4-2.3,1.7-3.6l19.6-5.8c5.3-1.5,10.8,1.5,12.4,6.8l0,0
	C394,495.7,394.1,496.7,394.1,497.6z"/>
<linearGradient id="SVGID_4_" gradientUnits="userSpaceOnUse" x1="419.3056" y1="-37.5568" x2="363.6956" y2="-56.2067" gradientTransform="matrix(1 0 0 -1 -55.96 407.59)">
	<stop  offset="0" style="stop-color:#000000"/>
	<stop  offset="0.99" style="stop-color:#000000;stop-opacity:0"/>
</linearGradient>
<path class="st7" d="M341.3,493.7c-0.2-0.8-0.3-1.6-0.3-2.4v-88.1h7.3v95c-0.1,0.5,0,0.9,0.1,1.4c-1.1-0.5-2.3-0.7-3.5-0.8
	c-0.8-0.1-1.7-0.1-2.5,0l0.5-0.1C343.2,498.6,341.8,495.5,341.3,493.7z"/>
<linearGradient id="SVGID_5_" gradientUnits="userSpaceOnUse" x1="450.1241" y1="-97.8028" x2="307.5941" y2="-145.6128" gradientTransform="matrix(1 0 0 -1 -55.96 407.59)">
	<stop  offset="0" style="stop-color:#000000"/>
	<stop  offset="0.99" style="stop-color:#000000;stop-opacity:0"/>
</linearGradient>
<path class="st8" d="M395,522.5c-1.5,0.8-3.1,1.2-4.8,1.2c-0.7,0-1.3-0.1-2-0.2l-33.7-6.8l-2.8-0.6c-1,0.7-2,1.3-3.2,1.6l-1.7,0.5
	l-34.6,10.3c-5.3,1.6-10.8-1.5-12.4-6.7c3,2.8,7.6,3,10.9,0.6c4.2-2.9,21.1-7.3,30.6-9.7c4.5-1.1,8-4.7,8.8-9.3
	c0-0.3,0.1-0.5,0.1-0.8c1.6,1.7,4.5,3.6,9.8,5.3c13,4,34.1,6.7,34.1,6.7S397.9,518.4,395,522.5z"/>
<linearGradient id="SVGID_6_" gradientUnits="userSpaceOnUse" x1="454.9959" y1="-112.4271" x2="450.0559" y2="-114.0872" gradientTransform="matrix(1 0 0 -1 -55.96 407.59)">
	<stop  offset="0" style="stop-color:#000000"/>
	<stop  offset="0.99" style="stop-color:#000000;stop-opacity:0"/>
</linearGradient>
<path class="st9" d="M398.7,519.2c-0.7,1-1.5,1.9-2.5,2.7C396.8,521.1,397.7,520.2,398.7,519.2z"/>
<linearGradient id="SVGID_7_" gradientUnits="userSpaceOnUse" x1="400.438" y1="-98.1505" x2="357.1281" y2="-86.3806" gradientTransform="matrix(1 0 0 -1 -55.96 407.59)">
	<stop  offset="0" style="stop-color:#000000"/>
	<stop  offset="0.99" style="stop-color:#000000;stop-opacity:0"/>
</linearGradient>
<path class="st10" d="M341.3,493.7c0.4,1.8,1.3,3.4,2.5,4.7c-0.3,0.1-0.6,0.1-1,0.2l-31.5,9.3c-5.4-1.4-8.6-6.8-7.2-12.2
	c1.1-4.4,5-7.4,9.5-7.5c0.7,0,1.3,0.1,2,0.2L341.3,493.7z"/>
<linearGradient id="SVGID_8_" gradientUnits="userSpaceOnUse" x1="399.76" y1="-90.81" x2="399.76" y2="-90.81" gradientTransform="matrix(1 0 0 -1 -55.96 407.59)">
	<stop  offset="0" style="stop-color:#000000"/>
	<stop  offset="0.99" style="stop-color:#000000;stop-opacity:0"/>
</linearGradient>
<path class="st11" d="M343.8,498.4"/>
<linearGradient id="SVGID_9_" gradientUnits="userSpaceOnUse" x1="399.76" y1="-90.81" x2="399.76" y2="-90.81" gradientTransform="matrix(1 0 0 -1 -55.96 407.59)">
	<stop  offset="0" style="stop-color:#000000"/>
	<stop  offset="0.99" style="stop-color:#000000;stop-opacity:0"/>
</linearGradient>
<path class="st12" d="M343.8,498.4"/>
<linearGradient id="SVGID_10_" gradientUnits="userSpaceOnUse" x1="399.76" y1="-90.81" x2="399.76" y2="-90.81" gradientTransform="matrix(1 0 0 -1 -55.96 407.59)">
	<stop  offset="0" style="stop-color:#000000"/>
	<stop  offset="0.99" style="stop-color:#000000;stop-opacity:0"/>
</linearGradient>
<path class="st13" d="M343.8,498.4"/>
<path class="st1" d="M389.9,69.1c0,0-0.4-31.1-25.3-28.4s-23-7.6-33.6-6.5s-23,11.6-19.5,24.6s-9.4,15.9-17.9,25.7s2,17.9,16.3,27.5
	s-0.9,7.1,7.6,22.3s37.2-4.2,37.2-4.2L389.9,69.1z"/>
<path class="st2" d="M186.7,589.1l17.7,0.6V448.6c0,0,0.9-36.5,35.3-40.1s346.8-48.9,346.8-48.9s12.4-1.3,19.5,22.4
	s14.1,117.1,14.1,117.1L716,512c0,0,2.5-164.9-32.1-174s-487.4,37.3-487.4,37.3S162.9,550.4,186.7,589.1z"/>
<linearGradient id="SVGID_11_" gradientUnits="userSpaceOnUse" x1="752.8197" y1="-42.7428" x2="-22.2204" y2="-80.0228" gradientTransform="matrix(1 0 0 -1 -55.96 407.59)">
	<stop  offset="0" style="stop-color:#000000"/>
	<stop  offset="0.99" style="stop-color:#000000;stop-opacity:0"/>
</linearGradient>
<path class="st14" d="M186.7,589.1l17.7,0.6V448.6c0,0,0.9-36.5,35.3-40.1s346.8-48.9,346.8-48.9s12.4-1.3,19.5,22.4
	s14.1,117.1,14.1,117.1L716,512c0,0,2.5-164.9-32.1-174s-487.4,37.3-487.4,37.3S162.9,550.4,186.7,589.1z"/>
<path class="st2" d="M93.5,392.6c0,0,8.7-47.9,69.6-60.5l430-49.3c0,0,42.2-1.8,61.5,9.9s46.9,21.4,58.2,74.3s14,143.3,14,143.3
	L716,512c0,0-15.6-163.6-32.1-174s-463.5,53.2-463.5,53.2s-31,6.2-33.7,52.1s0,145.8,0,145.8l-93.2-37.6L93.5,392.6L93.5,392.6z"/>
<linearGradient id="SVGID_12_" gradientUnits="userSpaceOnUse" x1="319.785" y1="77.8258" x2="714.6966" y2="77.8258" gradientTransform="matrix(1 0 0 -1 -55.96 407.59)">
	<stop  offset="0" style="stop-color:#183866"/>
	<stop  offset="1" style="stop-color:#1A7FC1"/>
</linearGradient>
<path class="st15" d="M535.8,301.3c-22.3-2.9-44.7-5-67.1-4.1c-16.9,0.7-33.6,3-50.3,5.3L271,323.1c-2.5,0.4-5.4,0.9-6.6,3.1
	c-2.4,4.2,3.2,8.3,7.8,9.9c49,17.2,101.4,34.6,151.8,22.3c23.1-5.6,44.5-17.2,67.9-21.3c23.4-4,47.4-0.3,70.7-4.1
	c21.9-3.6,42.8-13.8,65.1-13.9c6.8,0,13.8,0.9,20.3-1.3s12.2-8.8,10.4-15.3c-20.9-0.7-44.3-4.6-64.8-0.4
	C573.4,306.3,556.1,301.3,535.8,301.3z"/>
<path class="st2" d="M402.5,326.4l0.9,3.3c0,0,25.5,15.8,25.3,16.3s105.6-25.3,105.6-25.3l2.5-7.4L402.5,326.4z"/>
<linearGradient id="SVGID_13_" gradientUnits="userSpaceOnUse" x1="456.7681" y1="460.168" x2="498.4381" y2="627.218" gradientTransform="matrix(1 0 0 1 -1.000000e-02 -192)">
	<stop  offset="0" style="stop-color:#000000"/>
	<stop  offset="0.99" style="stop-color:#000000;stop-opacity:0"/>
</linearGradient>
<path class="st16" d="M402.5,326.4l0.9,3.3c0,0,25.5,15.8,25.3,16.3s105.6-25.3,105.6-25.3l2.5-7.4L402.5,326.4z"/>
<polygon class="st2" points="404.9,326.4 498,305.4 536.8,313.4 431,340 "/>
<linearGradient id="SVGID_14_" gradientUnits="userSpaceOnUse" x1="388.3897" y1="486.6905" x2="528.4197" y2="533.6205" gradientTransform="matrix(1 0 0 1 0 -192)">
	<stop  offset="0" style="stop-color:#000000"/>
	<stop  offset="0.99" style="stop-color:#000000;stop-opacity:0"/>
</linearGradient>
<polygon class="st17" points="404.9,326.4 498,305.4 536.8,313.4 431,340 "/>
<path class="st2" d="M375.6,343l22.1,0.7c0,0,5.6,0.3,7.1-3.9s-9-13.3-10.1-13.4s-30.2,7.5-26,15.3L375.6,343z"/>
<linearGradient id="SVGID_15_" gradientUnits="userSpaceOnUse" x1="387.9755" y1="521.7036" x2="384.3155" y2="548.3135" gradientTransform="matrix(1 0 0 1 -1.000000e-02 -192)">
	<stop  offset="0" style="stop-color:#000000"/>
	<stop  offset="0.99" style="stop-color:#000000;stop-opacity:0"/>
</linearGradient>
<path class="st18" d="M375.6,343l22.1,0.7c0,0,5.6,0.3,7.1-3.9s-9-13.3-10.1-13.4s-30.2,7.5-26,15.3L375.6,343z"/>
<path class="st19" d="M120.3,560.6l-10.8,32.6c-31.2,11.1-57.7,0-57.7,0L44.2,559C44.2,559,83,571.9,120.3,560.6z"/>
<linearGradient id="SVGID_16_" gradientUnits="userSpaceOnUse" x1="189.5494" y1="-168.2932" x2="121.9494" y2="-170.8733" gradientTransform="matrix(1 0 0 -1 -55.96 407.59)">
	<stop  offset="0" style="stop-color:#000000"/>
	<stop  offset="0.99" style="stop-color:#000000;stop-opacity:0"/>
</linearGradient>
<path class="st20" d="M120.3,560.6l-10.8,32.6c-31.2,11.1-57.7,0-57.7,0L44.2,559C44.2,559,83,571.9,120.3,560.6z"/>
<path class="st19" d="M132.5,530.2L129,556l-8.7,4.6c-37.2,11.3-76.2-1.6-76.2-1.6l-6.7-5l-3.1-23.8H132.5z"/>
<linearGradient id="SVGID_17_" gradientUnits="userSpaceOnUse" x1="199.8301" y1="-137.3014" x2="143.8201" y2="-139.2314" gradientTransform="matrix(1 0 0 -1 -55.96 407.59)">
	<stop  offset="0" style="stop-color:#000000"/>
	<stop  offset="0.99" style="stop-color:#000000;stop-opacity:0"/>
</linearGradient>
<path class="st21" d="M132.5,530.2L129,556l-8.7,4.6c-37.2,11.3-76.2-1.6-76.2-1.6l-6.7-5l-3.1-23.8H132.5z"/>
<ellipse class="st19" cx="83.4" cy="530.2" rx="49.1" ry="8.8"/>
<linearGradient id="SVGID_18_" gradientUnits="userSpaceOnUse" x1="90.2739" y1="-89.1329" x2="61.944" y2="-225.6129" gradientTransform="matrix(1 0 0 -1 -1.000000e-02 408)">
	<stop  offset="0" style="stop-color:#000000"/>
	<stop  offset="0.99" style="stop-color:#000000;stop-opacity:0"/>
</linearGradient>
<ellipse class="st22" cx="83.4" cy="530.2" rx="49.1" ry="8.8"/>
<path class="st23" d="M60,333.2c-4.8-2.3-10-4-14.2-7.3c-8.4-6.8-10.5-18.4-13.2-28.9s-7.7-22-18.1-25c-3.9-1.1-8.4-0.7-11.4,2.1
	C0,277-0.6,281.8,0.2,286s2.9,8,4.5,12c3.7,9.3,4.9,19.4,3.3,29.3c-1.3,8.1-4.4,16.3-2.4,24.3C9,365.1,26,373,26.5,386.9
	c0.3,9.4-7.4,18.1-5.6,27.3c1.3,6.8,7.6,12.2,7.9,19.1c0.4,7.9-7.1,14.5-6.7,22.4s8.2,13.1,13.4,19.3c4.3,5.2,6.9,11.6,7.3,18.4
	c0.3,4.2-0.3,8.5,1.1,12.5c1,2.9,3,5.4,4.5,8c1.7,2.8,3,5.9,5.1,8.5c5.3,6.7,14.1,9.5,22.3,7c1.6-10.5,0.2-21.1,0.6-31.7
	c0.9-20.5,8.6-41.1,3.7-61c-1.8-7.3-5.3-14.2-5.9-21.7c-0.6-6.7,1.2-13.3,2.5-19.9c2.6-13.6,2.5-27.7,1.5-41.4
	C77.3,342.8,69.6,337.7,60,333.2z"/>
<path class="st23" d="M90.7,386.8c-0.1,9.1,2,18.6-0.9,27.2c-2.2,6.6-7.1,12-9.6,18.4c-5.8,14.9,2,31.6,0.4,47.5
	c-0.7,6.6-2.9,12.9-4.3,19.3c-1.8,8.2-2.2,16.5-1.3,24.8c-0.2,3.1,1.9,5.9,5,6.5c4.9,1.9,10,3.2,15.2,4.1c-1.7-9.7,0.1-19.6,5.2-28
	c7.9-13,23.3-21.8,26.2-36.7c1.9-10.1-2.6-20.4-2.3-30.7c0.2-6.8,2.6-13.5,6.7-18.9c3.7-4.9,8.8-8.6,12.3-13.7
	c8.3-12.1,5.7-28.4,3.3-42.9s-3.9-31.3,5.9-42.3c3.1-3.5,7.1-6.1,9.9-9.8c6.3-8.3,4.7-21.1-2.6-28.5s-19-9.5-28.9-6.2
	c-4.2,1.2-7.9,3.7-10.5,7.2c-5,7.1-3,16.8-0.9,25.2c1.8,7.3,3.3,15.8,0.8,23.2c-1.9,5.5-6.7,8.5-10.8,12.3
	C97.8,355.9,91.1,370.9,90.7,386.8z"/>
<linearGradient id="SVGID_19_" gradientUnits="userSpaceOnUse" x1="133.4236" y1="-121.414" x2="76.3892" y2="138.726" gradientTransform="matrix(1 0 0 -1 -55.96 407.59)">
	<stop  offset="0" style="stop-color:#000000"/>
	<stop  offset="0.99" style="stop-color:#000000;stop-opacity:0"/>
</linearGradient>
<path class="st24" d="M80.4,467.7c-1.4,9.9-3.5,19.9-3.9,29.9v1c0,0.2-0.1,0.5-0.2,0.7c-1.8,8.2-2.2,16.5-1.3,24.8
	c0.1,1.3,0.4,2.7,1,3.9c-0.1,0.4-0.1,0.8-0.2,1.3c-8.2,2.5-17-0.3-22.3-7c-2-2.6-3.3-5.7-5.1-8.5c-1.6-2.6-3.5-5.1-4.5-8
	c-1.4-4-0.8-8.3-1.1-12.5c-0.5-6.7-3-13.2-7.3-18.4c-5.1-6.1-13-11.3-13.4-19.3s7.1-14.5,6.7-22.4c-0.3-6.9-6.6-12.3-7.9-19.1
	c-1.8-9.2,6-17.9,5.6-27.3C26,372.9,9,365,5.6,351.5c-2-8,1.1-16.2,2.4-24.3c1.6-9.9,0.5-20-3.2-29.3c-1.6-4-3.7-7.8-4.5-12
	s-0.2-9,2.9-11.9c3-2.8,7.5-3.2,11.4-2.1c10.4,3,15.4,14.5,18.1,25s4.8,22.1,13.2,28.9c4.2,3.4,9.3,5,14.2,7.3
	c9.6,4.5,17.3,9.6,18.1,20.4c1,13.8,1.1,27.8-1.5,41.4c-1.2,6.6-3,13.2-2.5,19.9s3.4,13,5.3,19.5c0.2,0.7,0.4,1.5,0.6,2.2
	C82.7,446.8,81.9,457.2,80.4,467.7z"/>
<linearGradient id="SVGID_20_" gradientUnits="userSpaceOnUse" x1="136.5595" y1="-126.6455" x2="129.8995" y2="-96.2555" gradientTransform="matrix(1 0 0 -1 -55.96 407.59)">
	<stop  offset="0" style="stop-color:#000000"/>
	<stop  offset="0.99" style="stop-color:#000000;stop-opacity:0"/>
</linearGradient>
<path class="st25" d="M76,528c-0.6-1.2-1-2.5-1.1-3.8c-0.9-8.3-0.5-16.7,1.3-24.8c0.1-0.2,0.1-0.5,0.2-0.7
	C76.1,508.4,77.3,518.3,76,528z"/>
<linearGradient id="SVGID_21_" gradientUnits="userSpaceOnUse" x1="128.7453" y1="-140.2537" x2="192.7253" y2="78.7764" gradientTransform="matrix(1 0 0 -1 -55.96 407.59)">
	<stop  offset="0" style="stop-color:#000000"/>
	<stop  offset="0.99" style="stop-color:#000000;stop-opacity:0"/>
</linearGradient>
<path class="st26" d="M162.2,311.8c-2.8,3.7-6.9,6.3-9.9,9.8c-9.8,11-8.4,27.7-5.9,42.3s5.1,30.8-3.3,42.9c-3.5,5-8.5,8.8-12.3,13.7
	c-4.2,5.4-6.5,12.1-6.7,18.9c-0.3,10.3,4.2,20.5,2.3,30.7c-2.9,14.9-18.3,23.7-26.2,36.7c-5.1,8.4-6.9,18.4-5.1,28
	c-5.2-0.9-10.2-2.2-15.1-4.1c-1.3-0.4-2.5-1.1-3.5-2.1c-0.1-0.2-0.3-0.3-0.4-0.5c-0.6-1.2-1-2.5-1.1-3.8c-0.9-8.3-0.5-16.7,1.3-24.8
	c0.1-0.2,0.1-0.5,0.2-0.7c1.4-6.2,3.5-12.3,4.2-18.6c0.3-4.1,0.3-8.2-0.2-12.3c1.5-10.5,2.3-20.9-0.2-31.1c-0.2-0.7-0.4-1.5-0.6-2.2
	c0.2-0.6,0.4-1.3,0.7-1.9c2.5-6.5,7.4-11.8,9.6-18.4c2.9-8.7,0.8-18.1,0.9-27.2c0.1-15.8,7.2-31,18.7-41.8
	c4.1-3.8,8.9-6.8,10.8-12.3c2.5-7.4,1-15.9-0.8-23.2c-2.1-8.4-4.2-18.1,0.9-25.2c2.5-3.5,6.4-5.8,10.5-7.2
	c9.9-3.3,21.6-1.2,28.9,6.2S168.5,303.6,162.2,311.8z"/>
<path class="st27" d="M449.1-16.9"/>
<path class="st2" d="M339.5,155c0,0-42.1,6.4-61.5,52.3S268.7,310,269,315s59.6,26.7,76.6,26.7s20.5-16.8,20.5-16.8l-30-12.6
	l91-10.4h16.3l-9,15c0,0,17.8,1.8,29.6,2.3s19.9-22.8,21.3-34.3S432.8,172,424.8,166S395,145.3,339.5,155z"/>
<linearGradient id="SVGID_22_" gradientUnits="userSpaceOnUse" x1="391.9963" y1="288.5685" x2="452.7061" y2="288.5685" gradientTransform="matrix(1 0 0 -1 -55.96 407.59)">
	<stop  offset="0" style="stop-color:#ECC4D7"/>
	<stop  offset="0.42" style="stop-color:#EFD4D1"/>
	<stop  offset="1" style="stop-color:#F2EAC9"/>
</linearGradient>
<path class="st28" d="M389.9,69.1c0,0,7.5,4.3,6.8,18s-4.9,34.4-9.1,39.8s-19.1,7.5-19.1,7.5s8.1,19.5,14.1,24.5s-6,23.6-17.8,17.5
	S339.5,155,339.5,155s9.8-18.4,6.5-28.1s-16-43.7-6.5-52.9S369.3,51.4,389.9,69.1z"/>
<polygon class="st29" points="322.4,221 315.8,301.9 336,312.3 352.4,309.5 331.9,284.8 "/>
<path class="st29" d="M428.7,217c0,0,26.4,62.7,14.7,85l-9-1.7L428.7,217z"/>
<linearGradient id="SVGID_23_" gradientUnits="userSpaceOnUse" x1="404.2759" y1="77.8633" x2="460.7592" y2="77.8633" gradientTransform="matrix(1 0 0 -1 -55.96 407.59)">
	<stop  offset="0" style="stop-color:#ECC4D7"/>
	<stop  offset="0.42" style="stop-color:#EFD4D1"/>
	<stop  offset="1" style="stop-color:#F2EAC9"/>
</linearGradient>
<path class="st30" d="M355,322c0,0-10.1,9-5.6,16s9.9,6.8,14.3,3.7s13.3-10.6,23.7-7.1s13,5.6,13,5.6s5.5-3.6,4.1-7.2
	s-12.3-15.5-15.5-17s-16.3,3.1-16.3,3.1S363,316.4,355,322z"/>
<linearGradient id="SVGID_24_" gradientUnits="userSpaceOnUse" x1="487.06" y1="96.1061" x2="532.06" y2="96.1061" gradientTransform="matrix(1 0 0 -1 -55.96 407.59)">
	<stop  offset="0" style="stop-color:#ECC4D7"/>
	<stop  offset="0.42" style="stop-color:#EFD4D1"/>
	<stop  offset="1" style="stop-color:#F2EAC9"/>
</linearGradient>
<path class="st31" d="M446.4,305.1c0,0-9.6,1.1-12,7.2s-3.3,6.8-3.3,6.8s5.4,1,7.7-1.8s4.6-1.6,4.6-1.6l-0.7,3.6
	c0,0,14.7,2.1,21.3-0.2s9.5-5,9.5-5l2.6-6.1c0,0-6.3-4.4-11-5.1S446.4,305.1,446.4,305.1z"/>
<path class="st3" d="M495,372.7c0,0,32.6,24.8,29.7,58.4s-7.2,83.5-7.2,83.5s-13.2,5.5-21.9,0s-14-81.4-18.3-88.6
	s-30.3-39.9-58.1-42.7L495,372.7z"/>
<path class="st1" d="M330.4,396.1c0,0,15.7,15,43.8,19.7s41.1,8.6,49.7,32.8s16.8,76,19.5,81.8s14.1,2.8,14.1,2.8s6.5-7.4,6.5-48.7
	c0-57.5,4-69.3-10.4-83.8S426,382.4,426,382.4L330.4,396.1z"/>
<path class="st3" d="M443.4,530.4l2.7,21h5c0,0,32.2,1.8,33.2,1s-1.5-16.7-13.8-16.2s-13-3-13-3L443.4,530.4z"/>
<path class="st3" d="M499.6,516.4l5.2,20.7l56.8-7.8c0,0,2-13.6-16-12.3c-4.8,0.3-8.3,3.7-14,3.7s-11.2-2.3-14.1-6.1l0,0
	L499.6,516.4z"/>
<path class="st2" d="M697.7,255.7l-215.1,11.5c-5.2,0.3-9.6-3.7-9.9-8.9c0-0.2,0-0.3,0-0.5V105.4c0-6.2,4.9-11.2,11.1-11.3L698,89.7
	c5.7-0.1,10.5,4.4,10.6,10.1l0,0v144.4C708.6,250.4,703.8,255.4,697.7,255.7z"/>
<path class="st2" d="M707.7,255.7l-215.1,11.5c-5.2,0.3-9.6-3.7-9.9-8.9c0-0.2,0-0.3,0-0.5V105.4c0-6.2,4.9-11.2,11.1-11.3L708,89.7
	c5.7-0.1,10.4,4.4,10.5,10.1v144.4C718.5,250.4,713.8,255.4,707.7,255.7z"/>
<linearGradient id="SVGID_25_" gradientUnits="userSpaceOnUse" x1="786.6913" y1="142.7719" x2="536.9413" y2="308.1119" gradientTransform="matrix(1 0 0 -1 -55.96 407.59)">
	<stop  offset="0" style="stop-color:#000000"/>
	<stop  offset="0.99" style="stop-color:#000000;stop-opacity:0"/>
</linearGradient>
<path class="st32" d="M707.7,255.7l-215.1,11.5c-5.2,0.3-9.6-3.7-9.9-8.9c0-0.2,0-0.3,0-0.5V105.4c0-6.2,4.9-11.2,11.1-11.3
	L708,89.7c5.7-0.1,10.4,4.4,10.5,10.1v144.4C718.5,250.4,713.8,255.4,707.7,255.7z"/>
<path class="st2" d="M645,313.3l-54.6,5.8c0,0-16.6-3.4-15.7-5.8s18.3-4.8,18.3-4.8v-99.2l0,0c-0.2-0.2-2.4-3.1-8.7-5l0,0
	c-1.2-0.4-2.5-0.6-3.7-0.9c-1.1-0.2-2.1-0.5-3.1-0.9c-3.7-1.9,0.4-5.3,6.2-5.4c0.9,0,1.8,0,2.7,0.2h42c0,0,15.9,4.5,16.7,26.8
	S645,313.3,645,313.3z"/>
<path class="st2" d="M600.6,313.5l-10.2,5.6c0,0-16.6-3.4-15.7-5.8s18.3-4.8,18.3-4.8v-99.2l0,0c-0.2-0.2-2.8-2.9-8.7-5l0,0
	c-2.2-0.8-4.5-1.4-6.8-1.8c-3.7-1.9,0.4-5.3,6.2-5.4c4.9,0.7,14.6,6.1,15.3,9.1S600.6,313.5,600.6,313.5z"/>
<linearGradient id="SVGID_26_" gradientUnits="userSpaceOnUse" x1="743.9035" y1="53.6652" x2="570.2936" y2="215.5553" gradientTransform="matrix(1 0 0 -1 -55.96 407.59)">
	<stop  offset="0" style="stop-color:#000000"/>
	<stop  offset="0.99" style="stop-color:#000000;stop-opacity:0"/>
</linearGradient>
<path class="st33" d="M600.6,313.5l-10.2,5.6c0,0-16.6-3.4-15.7-5.8s18.3-4.8,18.3-4.8v-99.2l0,0c-0.2-0.2-2.8-2.9-8.7-5l0,0
	c-2.2-0.8-4.5-1.4-6.8-1.8c-3.7-1.9,0.4-5.3,6.2-5.4c4.9,0.7,14.6,6.1,15.3,9.1S600.6,313.5,600.6,313.5z"/>
<linearGradient id="SVGID_27_" gradientUnits="userSpaceOnUse" x1="452.2539" y1="-114.5916" x2="450.5724" y2="-115.1521" gradientTransform="matrix(1 0 0 -1 -55.96 407.59)">
	<stop  offset="0" style="stop-color:#000000"/>
	<stop  offset="0.99" style="stop-color:#000000;stop-opacity:0"/>
</linearGradient>
<path class="st34" d="M396.2,521.8c-1.3,1.3-1.9,1.8-1.1,0.7C395.4,522.3,395.8,522.1,396.2,521.8z"/>
</svg>
