<svg xmlns="http://www.w3.org/2000/svg" viewBox="0 0 156.14 85.72"><defs><style>.cls-1{stroke:#fff;stroke-miterlimit:10;stroke-width:0.25px;}</style></defs><title>Hiboo-black</title><g id="Layer_2" data-name="Layer 2"><g id="Layer_1-2" data-name="Layer 1"><g id="Black"><g id="Hiboo"><path class="cls-1" d="M101.22,46.37c0-5.94,2.32-11.22,5.64-16.17C105.35,29,104,28,102.7,27a1.64,1.64,0,0,1-.37-2.65c2.55-3.52,5-7.12,7.47-10.68.35-.49.67-1.08,1.18-1.16a1.2,1.2,0,0,1,.94.39c1.37,1.21,5,7,6.42,8.83,3.44,4.33,10.63,6.12,15.66,5.32,1.5-.24,2.21-.57,3.55-.3,4.45.87,6.27,7.84,6.53,8.72a15.88,15.88,0,0,1,0,9c-1.81,6.33-4,12.54-6.22,18.75a3.1,3.1,0,0,1-2.11,1.65,42.77,42.77,0,0,1-23.12-2.29,5.14,5.14,0,0,0-3.31,0,33.2,33.2,0,0,1-17,1.43c-3.68-.61-5.83-3.07-7.55-6.53-3.36,5.13-8.19,7-13.88,7S60,63.92,57,57.4c-.54.91-.76,1.34-1,1.73-2.5,3.43-6,4.88-10.11,5.23a54.83,54.83,0,0,1-7.36.19c-1.93-.09-2.53.76-2.83,2.47a26.36,26.36,0,0,1-5.17,12c-3.75,4.72-8.75,6.48-14.59,6.53A20.77,20.77,0,0,1,1.59,79.87,5.6,5.6,0,0,1,1,79.31c-2.17-2.63.55-4.78.75-7.19.13-1.43,1.2-1.77,2.59-1.82,6.67-.2,13.3-.75,19.47-3.67a3.57,3.57,0,0,0,1.12-.56,14,14,0,0,0,1.25-1.67,6.5,6.5,0,0,0-2-.1c-3.9,1.07-7.8,1.71-11.82.7C8,63.93,4.75,61.47,3.91,57.09c-1.92-9.92.06-19.2,6.58-27,4.61-5.53,11.61-5.39,16.85-.38C31.45,33.63,33.62,38.62,35,44c.51,2,1.27,2.79,3.37,2.66,2.72-.16,5.47.07,8.2,0,4.36-.1,6.75-2,7.87-6.17,1.49-5.54,1.49-5.51,7.15-4.8,1.76.22,2.89.64,2.34,2.87a20.1,20.1,0,0,0-.13,4.4c0,2,1.07,3.41,2.93,3.48a66.6,66.6,0,0,0,10.85-.28c2.69-.33,3.8-2,3.79-4.76a31.31,31.31,0,0,0-.59-6c-.29-1.38.3-1.81,1.36-2.06,1.84-.42,3.7-.77,5.54-1.19,1.34-.31,1.91.22,2.12,1.54a68.79,68.79,0,0,0,1.4,7C92.71,46.19,95.3,47.66,101.22,46.37ZM115.65,33.9a4.37,4.37,0,0,0-4.77,4.64A5.76,5.76,0,0,0,116,44c2,0,4.7-3,4.74-5.43C120.77,35.83,118.71,33.93,115.65,33.9ZM23,49.25l.59-1.1A52.81,52.81,0,0,0,19.42,42c-1.38-1.56-3.17-1.19-4.29.4-1.63,2.29-1.81,5.33-.34,6.33a2.37,2.37,0,0,0,1.16.46C18.29,49.27,20.63,49.25,23,49.25ZM129,37.61c-.5,2.55-1,4.91-1.38,7.28,0,.32.42,1,.67,1,2.72.07,5.45,0,8.48,0A12.64,12.64,0,0,0,129,37.61Z"/><path class="cls-1" d="M76.79,69.19c1.68,0,3.37-.09,5,0,3.28.2,5.48,2.35,5.18,5.62a25.71,25.71,0,0,1-2,6.76,2.64,2.64,0,0,1-2,1.11c-6.34.55-12.68,1-19,1.46-2.21.17-4.5-2.73-3.68-4.73,1.1-2.65,2.14-5.34,3.46-7.88a3.74,3.74,0,0,1,2.48-1.72c3.47-.4,7-.51,10.47-.74Z"/><path class="cls-1" d="M47.4,84.29c-1.81.1-3.63.31-5.44.24-.56,0-1.54-.79-1.56-1.25-.14-3.14-.14-6.29,0-9.43a2.27,2.27,0,0,1,1.36-1.56,17.94,17.94,0,0,1,10.73-.21,2.4,2.4,0,0,1,1.23,1.83c.13,2.93,0,5.87.07,8.81,0,1.22-.47,1.79-1.76,1.73-1.54-.08-3.08,0-4.62,0Z"/></g><g id="Hat"><path class="cls-1" d="M103.29,12.07"/><path class="cls-1" d="M99.77,13.52c-.12-.43,0-.81.35-1.41a6.73,6.73,0,0,1,2.21-2.51,7.73,7.73,0,0,1,2.5-1.15.68.68,0,0,1,.13-.57.6.6,0,0,1,.43-.22l1.13-4L105,1.94c-.9-1-.39-1.95.55-1.8l.19,0,4,.62,6.91,1.08,6.38,1L130,4l5.07.8a2.11,2.11,0,0,1,1.26.71l4.36,5.13,4.49,5.29,4.24,5,6.45,7.6a.61.61,0,0,1-.55,1c-1.64-.22-4.14-.59-5.62-.85l-10.22-1.8-6.54-1.16-6.68-1.18-.73-.14a2.05,2.05,0,0,1-1.18-.66l-2.82-3.2-4.67-5.26-4.36-4.92-3.58-4-.23-.23-.3.26c-1.2,1-2.08,1.06-2.2,1.68,0,.25,0,.43-.1.64a.94.94,0,0,1-.53.26c-.63.21-.71,1.54-.78,2.11-.17,1.34-.94,3.3-2.18,3.72A2.36,2.36,0,0,1,99.77,13.52Z"/><path class="cls-1" d="M113.24,11.18l.25.26,2.78,3.15L121,19.88c1.25,1.41,2.51,2.82,3.75,4.23a.43.43,0,0,0,.27.15l7.29,1.29L139,26.74l2.87.51.3.07a1.13,1.13,0,0,1-.45.58,4,4,0,0,0-1.61,2.77c-.08.66-.33,1.13-.93,1.25a5.38,5.38,0,0,1-1,.1,13,13,0,0,1-3.26-.5c-.7-.17-1.41-.37-2.1-.61a57.92,57.92,0,0,1-9.6-4.43q-2.66-1.52-5.18-3.27a38.65,38.65,0,0,1-3.61-2.85,17.51,17.51,0,0,1-2.92-3.13,4.8,4.8,0,0,1-.61-1.19,1.13,1.13,0,0,1,.26-1.14A6.8,6.8,0,0,0,113,11.61,1,1,0,0,1,113.24,11.18Z"/></g></g></g></g></svg>