<svg width="269" height="229" viewBox="0 0 269 229" fill="none" xmlns="http://www.w3.org/2000/svg">
<path d="M98.6567 104.805C111.358 104.501 128.549 139.66 122.64 170.752C117.802 196.231 98.8799 211.125 95.8005 213.48C85.8522 221.123 74.0358 226.121 61.508 227.983C37.5515 231.407 2.6788 218.563 4.01765 216.391C4.2671 214.772 4.61928 206.92 7.14159 207.701C11.6044 208.57 39.1804 221.899 61.4188 220.449C77.0566 219.432 83.9829 217.651 86.8748 212.628C89.4454 208.179 87.696 203.122 85.7502 196.743C85.7502 196.743 80.1806 178.443 76.4496 158.43C72.0403 134.629 87.1515 105.075 98.6567 104.805Z" fill="black"/>
<path d="M97.7278 46.2886C109.831 47.0359 121.238 56.7164 121.238 69.1862C121.238 82.412 108.412 92.6486 95.3536 92.0751C81.0725 91.4407 69.2549 77.9281 71.8433 64.6067C74.0837 53.2752 85.9995 45.5674 97.7278 46.2886Z" fill="black"/>
<path d="M174.471 0.332878C179.166 0.975922 179.737 20.7626 180.416 44.3206C181.826 93.3657 173.489 128.49 156.816 198.729C155.442 204.491 152.219 217.847 149.765 217.63C148.569 217.508 147.417 214.154 146.195 193.585C144.856 170.322 145.079 155.793 145.079 155.793C145.605 121.903 144.606 116.932 145.079 103.776C146.953 52.9669 166.518 -0.770725 174.471 0.332878Z" fill="black"/>
<path d="M243.672 104.401C256.373 104.105 273.564 139.255 267.664 170.348C262.818 195.835 243.895 210.729 240.816 213.084C230.859 220.742 219.03 225.752 206.488 227.622C182.531 231.054 162.493 221.539 162.752 220.088C163.002 218.854 179.068 221.869 206.407 220.088C222.036 219.071 228.963 217.29 231.854 212.267C234.425 207.809 232.676 202.752 230.73 196.382C230.73 196.382 225.16 178.073 221.429 158.06C217.02 134.233 232.131 104.67 243.672 104.401Z" fill="black"/>
<path d="M29.4555 0.015695C34.1593 0.658739 34.7305 20.4367 35.4089 44.0034C36.8191 93.0485 28.4826 128.173 11.8094 198.412C10.4348 204.173 7.21264 217.53 4.75807 217.304C3.56203 217.191 2.41062 213.828 1.1878 193.259C-0.088575 170.023 0.134567 155.493 0.134567 155.485C0.661183 121.594 -0.34742 116.624 0.134567 103.468C1.97326 52.6584 21.5384 -1.05315 29.4555 0.015695Z" fill="black"/>
<path d="M53.3375 60.8228C53.4273 60.8237 53.5167 60.8053 53.5993 60.7685C53.6845 60.7305 53.7608 60.6737 53.822 60.6014C53.8832 60.529 53.9276 60.443 53.9506 60.3497C53.9737 60.2564 53.9748 60.1589 53.9536 60.065L53.9513 60.0548L53.9486 60.0448C52.8179 55.8562 51.6784 51.6415 50.5299 47.4007L50.5299 47.4007L50.5285 47.3957C50.5254 47.3847 50.522 47.3738 50.5183 47.363C50.5426 47.3412 50.5657 47.3181 50.5875 47.2936L51.2441 46.5853L51.2499 46.579L51.2554 46.5726C51.3941 46.4123 51.4719 46.2073 51.4719 45.9933C51.4719 45.7794 51.3941 45.5744 51.2554 45.4141L51.2533 45.4117L50.767 44.8571C50.7961 44.8282 50.8239 44.7976 50.85 44.765C50.9867 44.5947 51.0868 44.357 51.0471 44.0817V37.7462C51.064 37.6278 51.0572 37.5002 51.0156 37.3776C51.0155 37.3774 51.0154 37.3772 51.0153 37.3769L67.9513 43.8879L67.9614 43.8918L67.9717 43.8952C68.1002 43.9383 68.2347 43.9617 68.3702 43.9645L68.3799 43.9647L68.3897 43.9645C70.9053 43.9192 73.4317 43.8804 75.9689 43.8481L78.7968 50.0044V50.0392L78.8357 50.132C78.9389 50.3779 79.0969 50.5969 79.2971 50.7736C79.4973 50.9502 79.7346 51.0801 79.9914 51.1547C80.2481 51.2292 80.5184 51.2467 80.7827 51.206C81.047 51.1653 81.2994 51.0673 81.5211 50.9185L81.5212 50.9186L81.5269 50.9146C85.6315 48.0768 90.5211 46.5091 95.5572 46.4178C100.593 46.3266 105.54 47.7161 109.75 50.4034L109.754 50.4057C109.96 50.5351 110.191 50.622 110.432 50.6618C110.672 50.7015 110.919 50.6934 111.157 50.6378C111.394 50.5822 111.619 50.4801 111.816 50.3371C112.013 50.1941 112.18 50.0129 112.305 49.8041L112.305 49.8041L112.309 49.7975L115.738 43.8583C118.156 43.8883 120.565 43.9235 122.964 43.964C123.078 43.9794 123.194 43.9771 123.307 43.9569L123.34 43.9511L123.373 43.9408L140.581 38.4315L140.589 38.429L140.596 38.4263C140.818 38.3475 141.012 38.2035 141.149 38.0114C141.287 37.8192 141.363 37.5888 141.363 37.3514C141.363 37.1139 141.287 36.8835 141.149 36.6913C141.012 36.4995 140.819 36.3556 140.597 36.2767C140.597 36.2766 140.597 36.2765 140.596 36.2764L95.3624 20.0356L95.3624 20.0355L95.3529 20.0323C95.1078 19.9499 94.8418 19.9498 94.5967 20.0323C94.5967 20.0323 94.5967 20.0323 94.5966 20.0323L50.2097 34.909L50.2097 34.909L53.3409 60.3228M53.3375 60.8228C53.3348 60.8228 53.3322 60.8227 53.3295 60.8227L53.3409 60.3228M53.3375 60.8228H53.3409V60.3228M53.3375 60.8228H46.5127H46.4668L46.4216 60.8144C46.3403 60.7993 46.2623 60.7683 46.1923 60.7225C46.1224 60.6766 46.0618 60.6168 46.0148 60.5461C45.9677 60.4754 45.9355 60.3953 45.9205 60.3108C45.9056 60.2262 45.9085 60.1395 45.9289 60.0561L45.9314 60.046L45.9315 60.046C47.0503 55.8572 48.1809 51.6423 49.3235 47.4014L49.3251 47.3957L49.3251 47.3957C49.327 47.3888 49.3291 47.3819 49.3313 47.3752C49.345 47.387 49.359 47.3984 49.3734 47.4093C49.3772 47.4122 49.3811 47.4151 49.3849 47.4179C49.4358 47.4553 49.4905 47.4872 49.5481 47.5131C49.626 47.5482 49.7083 47.5718 49.7922 47.5836C49.7906 47.5897 49.789 47.5958 49.7873 47.6018L49.5647 47.6621C49.5992 47.7895 49.6337 47.9169 49.6682 48.0443C48.5727 52.1119 47.4881 56.1555 46.4145 60.1751C46.4106 60.1911 46.4101 60.2077 46.4129 60.2239C46.4158 60.2401 46.422 60.2556 46.4312 60.2694C46.4404 60.2832 46.4523 60.295 46.4663 60.3042C46.4803 60.3134 46.4961 60.3197 46.5127 60.3228H53.3409M50.1861 48.0439C51.2875 52.1116 52.3808 56.1554 53.4658 60.1751L50.1861 48.0439ZM50.1861 48.0439C50.2204 47.9165 50.2547 47.789 50.2891 47.6615L50.0663 47.6015M50.149 47.8684C50.1461 47.8706 50.1432 47.8727 50.1403 47.8747C50.1377 47.8652 50.1351 47.8557 50.1325 47.8462C50.1108 47.7658 50.089 47.6854 50.0672 47.6051L50.2875 47.6672C50.2643 47.7496 50.2146 47.8198 50.149 47.8684Z" fill="white" stroke="black"/>
<path d="M111.572 115.263L99.0761 124.004C99.0351 124.032 99.0037 124.07 98.9861 124.115C98.9686 124.16 98.9657 124.21 98.9779 124.256C99.7574 127.674 100.54 131.087 101.325 134.493C101.34 134.545 101.37 134.591 101.411 134.626C101.453 134.661 101.504 134.684 101.559 134.69C101.613 134.697 101.669 134.687 101.718 134.663C101.767 134.639 101.807 134.601 101.834 134.554L111.965 115.584C111.988 115.533 111.993 115.475 111.98 115.421C111.967 115.366 111.936 115.317 111.891 115.281C111.847 115.245 111.792 115.223 111.735 115.22C111.677 115.217 111.62 115.232 111.572 115.263Z" fill="white"/>
<path d="M86.3124 115.262L98.8084 124.004C98.8494 124.031 98.8808 124.07 98.8984 124.115C98.916 124.16 98.9188 124.21 98.9066 124.256C98.1271 127.674 97.3446 131.086 96.5591 134.493C96.5448 134.545 96.5149 134.591 96.4733 134.626C96.4318 134.661 96.3804 134.683 96.3258 134.69C96.2712 134.696 96.2158 134.687 96.1667 134.663C96.1177 134.638 96.0772 134.6 96.0504 134.554L85.9019 115.584C85.8719 115.53 85.8623 115.468 85.8746 115.408C85.8869 115.348 85.9205 115.295 85.9693 115.256C86.0182 115.218 86.0793 115.198 86.142 115.199C86.2047 115.2 86.265 115.222 86.3124 115.262Z" fill="white"/>
</svg>
