<?xml version="1.0" encoding="utf-8"?>
<!-- Generator: Adobe Illustrator 23.0.6, SVG Export Plug-In . SVG Version: 6.00 Build 0)  -->
<svg version="1.1" id="Layer_1" xmlns="http://www.w3.org/2000/svg" xmlns:xlink="http://www.w3.org/1999/xlink" x="0px" y="0px"
	 viewBox="0 0 269 229" style="enable-background:new 0 0 269 229;" xml:space="preserve">
<style type="text/css">
	.st0{fill:#FFFFFF;}
	.st1{stroke:#000000;}
</style>
<path class="st0" d="M98.7,104.8c12.7-0.3,29.9,34.9,24,65.9c-4.8,25.5-23.8,40.4-26.8,42.7c-9.9,7.6-21.8,12.6-34.3,14.5
	c-24,3.4-58.8-9.4-57.5-11.6c0.2-1.6,0.6-9.5,3.1-8.7c4.5,0.9,32,14.2,54.3,12.7c15.6-1,22.6-2.8,25.5-7.8c2.6-4.4,0.8-9.5-1.1-15.9
	c0,0-5.6-18.3-9.3-38.3C72,134.6,87.2,105.1,98.7,104.8z"/>
<path class="st0" d="M97.7,46.3c12.1,0.7,23.5,10.4,23.5,22.9c0,13.2-12.8,23.5-25.9,22.9c-14.3-0.6-26.1-14.1-23.5-27.5
	C74.1,53.3,86,45.6,97.7,46.3z"/>
<path class="st0" d="M174.5,0.3c4.7,0.6,5.3,20.4,5.9,44c1.4,49-6.9,84.2-23.6,154.4c-1.4,5.8-4.6,19.1-7.1,18.9
	c-1.2-0.1-2.3-3.5-3.6-24c-1.3-23.3-1.1-37.8-1.1-37.8c0.5-33.9-0.5-38.9,0-52C147,53,166.5-0.8,174.5,0.3z"/>
<path class="st0" d="M243.7,104.4c12.7-0.3,29.9,34.9,24,65.9c-4.8,25.5-23.8,40.4-26.8,42.7c-10,7.7-21.8,12.7-34.3,14.5
	c-24,3.4-44-6.1-43.7-7.5c0.3-1.2,16.3,1.8,43.7,0c15.6-1,22.6-2.8,25.4-7.8c2.6-4.5,0.8-9.5-1.1-15.9c0,0-5.6-18.3-9.3-38.3
	C217,134.2,232.1,104.7,243.7,104.4z"/>
<path class="st0" d="M29.5,0c4.7,0.6,5.3,20.4,6,44c1.4,49-6.9,84.2-23.6,154.4c-1.4,5.8-4.6,19.1-7.1,18.9c-1.2-0.1-2.3-3.5-3.6-24
	c-1.3-23.2-1.1-37.8-1.1-37.8c0.5-33.9-0.5-38.9,0-52C2,52.7,21.5-1.1,29.5,0z"/>
<path class="st1" d="M53.3,60.8c0.1,0,0.2,0,0.3-0.1c0.1,0,0.2-0.1,0.2-0.2c0.1-0.1,0.1-0.2,0.1-0.3c0-0.1,0-0.2,0-0.3l0,0l0,0
	c-1.1-4.2-2.3-8.4-3.4-12.6l0,0l0,0c0,0,0,0,0,0c0,0,0,0,0.1-0.1l0.7-0.7l0,0l0,0c0.1-0.2,0.2-0.4,0.2-0.6c0-0.2-0.1-0.4-0.2-0.6
	l0,0l-0.5-0.6c0,0,0.1-0.1,0.1-0.1c0.1-0.2,0.2-0.4,0.2-0.7v-6.3c0-0.1,0-0.2,0-0.4c0,0,0,0,0,0L68,43.9l0,0l0,0
	c0.1,0,0.3,0.1,0.4,0.1l0,0l0,0c2.5,0,5-0.1,7.6-0.1l2.8,6.2v0l0,0.1c0.1,0.2,0.3,0.5,0.5,0.6c0.2,0.2,0.4,0.3,0.7,0.4
	c0.3,0.1,0.5,0.1,0.8,0.1c0.3,0,0.5-0.1,0.7-0.3l0,0l0,0c4.1-2.8,9-4.4,14-4.5c5-0.1,10,1.3,14.2,4l0,0c0.2,0.1,0.4,0.2,0.7,0.3
	c0.2,0,0.5,0,0.7,0c0.2-0.1,0.5-0.2,0.7-0.3c0.2-0.1,0.4-0.3,0.5-0.5l0,0l0,0l3.4-5.9c2.4,0,4.8,0.1,7.2,0.1c0.1,0,0.2,0,0.3,0l0,0
	l0,0l17.2-5.5l0,0l0,0c0.2-0.1,0.4-0.2,0.6-0.4c0.1-0.2,0.2-0.4,0.2-0.7c0-0.2-0.1-0.5-0.2-0.7c-0.1-0.2-0.3-0.3-0.6-0.4
	c0,0,0,0,0,0L95.4,20v0l0,0c-0.2-0.1-0.5-0.1-0.8,0c0,0,0,0,0,0L50.2,34.9l0,0l3.1,25.4 M53.3,60.8C53.3,60.8,53.3,60.8,53.3,60.8
	l0-0.5 M53.3,60.8L53.3,60.8l0-0.5 M53.3,60.8h-6.8h0l0,0c-0.1,0-0.2,0-0.2-0.1c-0.1,0-0.1-0.1-0.2-0.2c0-0.1-0.1-0.2-0.1-0.2
	c0-0.1,0-0.2,0-0.3l0,0h0c1.1-4.2,2.2-8.4,3.4-12.6l0,0l0,0c0,0,0,0,0,0c0,0,0,0,0,0c0,0,0,0,0,0c0.1,0,0.1,0.1,0.2,0.1
	c0.1,0,0.2,0.1,0.2,0.1c0,0,0,0,0,0l-0.2,0.1c0,0.1,0.1,0.3,0.1,0.4c-1.1,4.1-2.2,8.1-3.3,12.1c0,0,0,0,0,0c0,0,0,0,0,0c0,0,0,0,0,0
	s0,0,0,0h6.8 M50.2,48c1.1,4.1,2.2,8.1,3.3,12.1L50.2,48z M50.2,48c0-0.1,0.1-0.3,0.1-0.4l-0.2-0.1 M50.1,47.9
	C50.1,47.9,50.1,47.9,50.1,47.9C50.1,47.9,50.1,47.9,50.1,47.9c0-0.1-0.1-0.2-0.1-0.3l0.2,0.1C50.3,47.7,50.2,47.8,50.1,47.9z"/>
<path d="M111.6,115.3L99.1,124c0,0-0.1,0.1-0.1,0.1c0,0,0,0.1,0,0.1c0.8,3.4,1.6,6.8,2.3,10.2c0,0.1,0,0.1,0.1,0.1
	c0,0,0.1,0.1,0.1,0.1c0.1,0,0.1,0,0.2,0c0,0,0.1-0.1,0.1-0.1l10.1-19c0-0.1,0-0.1,0-0.2c0-0.1,0-0.1-0.1-0.1c0,0-0.1-0.1-0.2-0.1
	C111.7,115.2,111.6,115.2,111.6,115.3z"/>
<path d="M86.3,115.3l12.5,8.7c0,0,0.1,0.1,0.1,0.1c0,0,0,0.1,0,0.1c-0.8,3.4-1.6,6.8-2.3,10.2c0,0.1,0,0.1-0.1,0.1
	c0,0-0.1,0.1-0.1,0.1c-0.1,0-0.1,0-0.2,0c0,0-0.1-0.1-0.1-0.1l-10.1-19c0-0.1,0-0.1,0-0.2c0-0.1,0-0.1,0.1-0.2c0,0,0.1-0.1,0.2-0.1
	S86.3,115.2,86.3,115.3z"/>
</svg>
