<svg xmlns="http://www.w3.org/2000/svg" viewBox="0 0 810.16 596.88"><defs><style>.cls-1{fill:#ff931e;}.cls-2{fill:#fef8e0;}.cls-3{fill:#efeeab;}.cls-4{fill:#995a0f;}.cls-5{fill:#c39156;}.cls-6{fill:#f5f5f5;}.cls-7{fill:#8c6239;}.cls-8{fill:#fff;}.cls-9{fill:#73502f;}.cls-10{fill:#573e28;}.cls-11{fill:#85532b;}.cls-12{fill:#9c6e4a;}.cls-13{fill:#603813;}</style></defs><title>hiboo</title><g id="Layer_2" data-name="Layer 2"><g id="Layer_1-2" data-name="Layer 1"><g id="Body"><path class="cls-1" d="M297.31,551.41l-.74,1.38-1.29,2.31-2.43.42-1.54.31-3.06.63c-2.07.45-4.23.93-6.44,1.46a110.64,110.64,0,0,0-13.72,4c-.55.24-1.11.46-1.63.72-.28.12-.53.25-.77.38l-.19.1-.05,0c-.12.1-.26.21-.22.37s.23.2.35.23h.1l.2.06c.27.08.58.14.86.21.6.13,1.23.24,1.87.34a63.75,63.75,0,0,0,8.25.54H279l2.75-.05c2.93-.06,6.07-.31,9.18-.49l-2.58,5.95-1.21,3-.67,1.77c-.73,2-1.42,4-2,6a43.29,43.29,0,0,0-1.42,6c-.07.48-.12,1-.15,1.39,0,.17,0,.43,0,.53h0l0,0c.22-.15.69-.46,1-.74s.76-.62,1.14-1a48.4,48.4,0,0,0,4.42-4.6c1.42-1.64,2.78-3.34,4.09-5.06l1.4-1.86,1.9-2.67,3.76-5.5c1,2.2,2,4.48,2.93,6.59l.74,1.56.72,1.45.94,1.84c1,1.95,2.1,3.85,3.23,5.62a30.77,30.77,0,0,0,3.58,4.7,11.44,11.44,0,0,0,.91.84l.42.31.09.06h0a.32.32,0,0,0,.52-.19.18.18,0,0,0,0-.11l.06-.41c0-.34.05-.65,0-1a27.39,27.39,0,0,0-.52-4.48,84.55,84.55,0,0,0-2.29-8.9c-.88-2.85-1.81-5.57-2.74-8.16l-1.39-3.76-.69-1.8c-.39-1-.79-1.91-1.17-2.84l1.49-2c.32-.44.63-.88.93-1.31.54-.77,1-1.52,1.52-2.27.7-1.11,1.32-2.19,1.88-3.24-4.27-.63-8.52-1.35-12.75-2.13l-.39.73Z"/><path class="cls-1" d="M282.87,589.06Z"/><path class="cls-1" d="M436.57,551.72l1,1.26,1.6,1.9q-.39,1.14-.81,2.31l-.32.95-.23.73c-.31,1-.62,2-.94,3q-.94,3.07-1.86,6.41a88.56,88.56,0,0,0-2.88,14.2,19.27,19.27,0,0,0,0,3.47,4.31,4.31,0,0,0,.12.72c0,.12,0,.1,0,.16a.38.38,0,0,0,.16.17.37.37,0,0,0,.23,0l.1-.06s.05,0,0,0l.14-.1a14.18,14.18,0,0,0,2.3-2.56,50.73,50.73,0,0,0,4.17-7.27l.94-2c.42-.94.83-1.88,1.25-2.83,1.19-2.77,2.3-5.89,3.46-8.92l4,5.28c.69.85,1.37,1.7,2.05,2.56l1.5,1.78c1.41,1.64,2.86,3.26,4.37,4.82a51.14,51.14,0,0,0,4.67,4.35c.4.33.8.62,1.19.9s.86.55,1.08.68l0,0h0c0,.4-.06-.89-.25-1.78a41.88,41.88,0,0,0-1.75-6c-.72-2-1.52-4-2.37-5.92l-.76-1.71-1.38-2.93-2.93-5.84c2.33,0,4.7,0,6.95,0,1.13,0,2.23,0,3.33-.09l1.66-.07c2.16-.1,4.29-.26,6.36-.5a40.91,40.91,0,0,0,5.83-1.06l.64-.19.31-.1.14,0h0l.14,0a.38.38,0,0,0,.24-.22.27.27,0,0,0-.09-.25l-.12-.09-.06,0-.05,0-.14-.07a33,33,0,0,0-4.21-1.5c-2.93-.86-5.91-1.52-8.78-2.09s-5.66-1.06-8.34-1.49l-3.92-.61-1.89-.27-2.87-.35-1.42-2.23-.82-1.34-1.56-2.57-.47-.78q-6.24,1.56-12.57,2.92c.62,1,1.29,2.05,2.06,3.12C435.44,550.26,436,551,436.57,551.72Z"/><path class="cls-2" d="M314.87,501.64a25.19,25.19,0,0,1-2.95-1.18,21.88,21.88,0,0,1-10.13-9.38,15.24,15.24,0,0,1-1.86-8.75c.27-2.11,1.11-3.27,2-3.32s1.86.73,3,2a40.39,40.39,0,0,0,4.45,4.44,19.15,19.15,0,0,0,7.1,3.54,37.47,37.47,0,0,0,10.57,1,36.84,36.84,0,0,0,10.49-1.76,20.89,20.89,0,0,0,7-4,49.89,49.89,0,0,0,4.32-4.66c1.13-1.28,2-2.09,3-2s1.79,1.16,2.13,3.26a15.63,15.63,0,0,1-1.54,8.76,22.61,22.61,0,0,1-9.48,9.87,34,34,0,0,1-15.08,4,262.62,262.62,0,0,0,77.75-3.28,30,30,0,0,1-7.59-2.45A22.55,22.55,0,0,1,388,488.39a15.71,15.71,0,0,1-2.08-8.65c.21-2.12,1-3.31,1.92-3.39s1.88.66,3.09,1.87a49.07,49.07,0,0,0,4.6,4.38,20.66,20.66,0,0,0,7.23,3.59,36.92,36.92,0,0,0,10.58,1.11,37.37,37.37,0,0,0,10.49-1.66,19.12,19.12,0,0,0,6.86-4,40.35,40.35,0,0,0,4.17-4.71c1.08-1.32,2-2.15,2.89-2.16s1.83,1.1,2.24,3.19a15.32,15.32,0,0,1-1.32,8.85,20.23,20.23,0,0,1-4.28,6.05A260.12,260.12,0,0,0,520.59,447c-5.72-63.17-68-129.77-155.26-127.06-90.14,2.79-149.09,77.75-147.07,142.69,0,.42,0,.85.05,1.27A241,241,0,0,0,314.87,501.64ZM430.5,423c.92-.09,1.88.66,3.09,1.87a49.07,49.07,0,0,0,4.6,4.38,20.58,20.58,0,0,0,7.23,3.59A36.92,36.92,0,0,0,456,434a37.37,37.37,0,0,0,10.49-1.66,19.11,19.11,0,0,0,6.86-4,41.18,41.18,0,0,0,4.17-4.71c1.08-1.32,2-2.16,2.89-2.17s1.83,1.1,2.24,3.19a15.32,15.32,0,0,1-1.32,8.85,22,22,0,0,1-9.53,10,36.22,36.22,0,0,1-31.06.82,22.47,22.47,0,0,1-10.08-9.26,15.7,15.7,0,0,1-2.08-8.65C428.79,424.3,429.58,423.12,430.5,423ZM384.37,365c.93-.09,1.89.66,3.09,1.87a49.12,49.12,0,0,0,4.6,4.37,20.76,20.76,0,0,0,7.23,3.6,36.92,36.92,0,0,0,10.58,1.11,38,38,0,0,0,10.49-1.66,19.17,19.17,0,0,0,6.87-4,40.16,40.16,0,0,0,4.16-4.71c1.09-1.32,2-2.16,2.9-2.16s1.83,1.09,2.23,3.19a15.16,15.16,0,0,1-1.32,8.85,21.91,21.91,0,0,1-9.53,10,36.26,36.26,0,0,1-31.06.83A22.63,22.63,0,0,1,384.53,377a15.7,15.7,0,0,1-2.07-8.66C382.66,366.22,383.45,365,384.37,365Zm-40.74,60.78c.93-.06,1.86.73,3,2a41.27,41.27,0,0,0,4.45,4.45,19.29,19.29,0,0,0,7.1,3.53,37.81,37.81,0,0,0,10.57,1,36.47,36.47,0,0,0,10.49-1.77,20.56,20.56,0,0,0,7-4,48.69,48.69,0,0,0,4.32-4.65c1.13-1.29,2-2.09,3-2.06s1.79,1.16,2.13,3.26a15.66,15.66,0,0,1-1.54,8.77,22.6,22.6,0,0,1-9.48,9.86,36.23,36.23,0,0,1-31.06,1.1,22,22,0,0,1-10.13-9.37,15.24,15.24,0,0,1-1.86-8.75C341.87,426.93,342.71,425.78,343.63,425.73Zm-45.12-58.12c.92-.05,1.85.73,3,2A39.51,39.51,0,0,0,306,374a19,19,0,0,0,7.09,3.53,37.48,37.48,0,0,0,10.58,1,36.9,36.9,0,0,0,10.49-1.76,20.59,20.59,0,0,0,7-4,48.69,48.69,0,0,0,4.32-4.65c1.13-1.28,2-2.09,3-2.06s1.79,1.16,2.12,3.26a15.71,15.71,0,0,1-1.53,8.77,22.59,22.59,0,0,1-9.49,9.87,36.29,36.29,0,0,1-31,1.1,22,22,0,0,1-10.13-9.38,15.26,15.26,0,0,1-1.87-8.75C296.75,368.82,297.59,367.66,298.51,367.61Zm-43.78,64.13c.27-2.11,1.12-3.27,2-3.32s1.85.73,3,2a38.7,38.7,0,0,0,4.45,4.44,19,19,0,0,0,7.09,3.53,37.44,37.44,0,0,0,10.57,1,36.92,36.92,0,0,0,10.5-1.76,20.69,20.69,0,0,0,7-4,48.69,48.69,0,0,0,4.32-4.65c1.13-1.28,2-2.09,3-2.06s1.79,1.17,2.12,3.27a15.63,15.63,0,0,1-1.54,8.76,22.5,22.5,0,0,1-9.48,9.87,36.3,36.3,0,0,1-31,1.1,21.94,21.94,0,0,1-10.13-9.38A15.26,15.26,0,0,1,254.73,431.74Z"/><path class="cls-3" d="M521,453.28c-.07-2.08-.2-4.15-.38-6.24a260.12,260.12,0,0,1-86.21,45.85,23.12,23.12,0,0,1-5.25,3.94,34.4,34.4,0,0,1-15.45,3.9,37.85,37.85,0,0,1-8-.63,262.62,262.62,0,0,1-77.75,3.28l-.32,0a36.6,36.6,0,0,1-12.71-1.76,241,241,0,0,1-96.56-37.7,95.49,95.49,0,0,0,18.74,53.72q10.35,4.9,21.2,9c6,2,11.88,4.17,18,5.75l4.58,1.29,2.29.65,2.32.53,9.33,2.13A302.62,302.62,0,0,0,333,542.37l4.86.39,2.44.19,2.44.09,9.79.34c3.27.18,6.55.08,9.83.06l9.87-.1,9.86-.51c3.27-.19,6.56-.29,9.8-.67l9.76-.95,2.43-.23,2.42-.35,4.82-.69a300.57,300.57,0,0,0,37.84-7.75l9.17-2.7,2.29-.68,2.25-.78,4.49-1.58c6-2,11.8-4.51,17.63-6.86q10.56-4.73,20.6-10.27C514.77,495.22,521.69,476.7,521,453.28Z"/><path class="cls-4" d="M142.09,177.2a113.4,113.4,0,0,1,10.33-32.14c.27-18.74-9-37.56-11.58-57-3.77-21.42-14-38.39-26.71-53.35l0,.44a8.35,8.35,0,0,0-.06,1,70,70,0,0,0,.4,8.78c.27,3,.7,6.15,1.15,9.31.92,6.34,2.1,12.91,3.4,19.71,2.63,13.59,5.83,28.08,9.44,43.4q1.38,5.73,2.79,11.64c.49,2,1,3.94,1.46,5.93l.75,3,.19.74.13.53a3.36,3.36,0,0,1,.13.63l.06,1.92a248.76,248.76,0,0,1-1.06,26c-.4,4.42-.94,8.87-1.57,13.37-.32,2.25-.66,4.51-1.07,6.77s-.76,4.54-1.22,6.8c-1.73,9.1-3.87,18.24-5.83,27.54s-3.75,18.76-5.07,28.49q-.93,6.93-1.61,14h0a20.46,20.46,0,0,1,4.31-1.76,3.78,3.78,0,0,1,1.23-.14c.31.06.43.13.42.21,0-.15.52-.26,1.51-.27a16.38,16.38,0,0,1,4.36.62,18.87,18.87,0,0,1,6,2.91c1.4-18.93,4-38,7.07-56.8A113.9,113.9,0,0,1,142.09,177.2Z"/><path class="cls-4" d="M218.31,463.94a233.08,233.08,0,0,1-27.13-21.34A163.25,163.25,0,0,1,161,406.93c-.12,6.3-.37,12.75-.8,19.35-.33,4.43-.7,8.92-1.27,13.48-.52,4.28-1.17,8.62-2.07,13q5.22,6.89,11.07,13.38l3,3.33,3.13,3.18,3.13,3.19c.53.53,1,1.07,1.58,1.59l1.65,1.52c2.21,2,4.4,4.07,6.64,6.07l7,5.76a237.78,237.78,0,0,0,30.38,20.37q6.26,3.44,12.73,6.5A95.49,95.49,0,0,1,218.31,463.94Z"/><path class="cls-4" d="M520.59,447c.18,2.09.31,4.16.38,6.24.72,23.42-6.2,41.94-15.35,56q6.27-3.46,12.3-7.26A238.59,238.59,0,0,0,547,479.84l6.6-6.18c2.12-2.14,4.17-4.33,6.25-6.48l1.56-1.61c.5-.55,1-1.13,1.47-1.69l2.93-3.37,2.92-3.38,2.74-3.5A210.85,210.85,0,0,0,604.91,393c.89-2.68,1.87-5.33,2.68-8l2.34-8.08,2-8.12c.63-2.7,1.07-5.43,1.61-8.14.86-4.86,1.53-9.73,2-14.58-25.85,36.59-57.09,69.5-91.46,98.12C522.91,445.17,521.75,446.1,520.59,447Z"/><polygon class="cls-5" points="516 32.37 516 32.37 516 32.37 516 32.37"/><path class="cls-5" d="M182.94,35.66a103.57,103.57,0,0,0-18-5.41,110.88,110.88,0,0,0-25.46-2.17,96.5,96.5,0,0,0-15.07,1.6,49.37,49.37,0,0,0-7.68,2l-.89.36a5,5,0,0,0-.56.27,2.12,2.12,0,0,0-.89.73,8.26,8.26,0,0,0-.21,1.18l-.05.48c12.75,15,22.94,31.93,26.71,53.35,2.59,19.41,11.85,38.23,11.58,57a113.79,113.79,0,0,1,207.76,8.79A113.77,113.77,0,1,1,376.59,256.2c-1.24,2.88-2.43,5.53-3.54,7.9a86.16,86.16,0,0,1-5.66,10.52,12.29,12.29,0,0,1-2.12,2.54,2.06,2.06,0,0,1-.86.47c-.24.06-.42-.05-.39-.13s-.14.2-.39.16a2.27,2.27,0,0,1-.89-.42,12.29,12.29,0,0,1-2.27-2.41,83.56,83.56,0,0,1-6.3-10.14c-1.26-2.3-2.61-4.87-4-7.67A113.79,113.79,0,0,1,141.41,209.5c-3.08,18.81-5.67,37.87-7.07,56.8.18.13.36.23.54.37a30.84,30.84,0,0,1,6.78,7.29c4.22,6.18,7.66,14.66,10.31,24.73,1.33,5,2.49,10.49,3.51,16.31s1.83,12,2.55,18.53c1.37,13.05,2.18,27.41,2.67,42.88.31,9.72.47,19.91.26,30.52a163.25,163.25,0,0,0,30.22,35.67,233.08,233.08,0,0,0,27.13,21.34c0-.42,0-.85-.05-1.27-2-64.94,56.93-139.9,147.07-142.69,87.26-2.71,149.54,63.89,155.26,127.06,1.16-.94,2.32-1.87,3.46-2.83,34.37-28.62,65.61-61.53,91.46-98.12q.9-9,1-17.82c.07-5.3-.22-10.76-.41-16.12,0-1.88-.15-3.75-.24-5.61-3-1.18-5.78-2.38-8.46-3.62-9.46-4.36-17.2-9.22-22.56-14.45a31,31,0,0,1-6-7.94,19.14,19.14,0,0,1-2.1-7,16.34,16.34,0,0,1,.16-4.4c.17-1,.37-1.44.52-1.44-.08,0-.13-.13-.13-.45a3.73,3.73,0,0,1,.35-1.19,20.72,20.72,0,0,1,2.48-3.94,102.61,102.61,0,0,1,12.14-12.83A198.72,198.72,0,0,1,608,236.36c-.06-.28-.11-.56-.16-.83-1.92-9.63-4.29-19-6.82-28.12s-5.24-18.15-7.53-27.12c-.6-2.23-1.12-4.49-1.64-6.72s-1-4.46-1.49-6.68c-.91-4.46-1.72-8.87-2.39-13.25a246,246,0,0,1-2.67-25.86l-.06-1.92a3.4,3.4,0,0,1,.09-.64l.1-.53.14-.76.56-3c.37-2,.73-4,1.09-6l2.07-11.78c2.65-15.51,4.94-30.17,6.72-43.91.89-6.86,1.66-13.5,2.18-19.88.25-3.18.49-6.31.57-9.36a67,67,0,0,0-.15-8.79,6.49,6.49,0,0,0-.12-1l-.14-.92a7.87,7.87,0,0,0-.29-1.16,2.09,2.09,0,0,0-.93-.67,4.78,4.78,0,0,0-.57-.23l-.91-.31a50.36,50.36,0,0,0-7.8-1.57,98.1,98.1,0,0,0-15.13-.66,110.88,110.88,0,0,0-25.28,3.75,102.89,102.89,0,0,0-17.64,6.52c-4.6,2.2-8,4.19-10.22,5.54s-3.42,2.07-3.53,1.92c-.11.2-1.25-.11-3.3-.89-1-.38-2.29-.89-3.77-1.5l-5.15-2a282.09,282.09,0,0,0-33.39-10.57A350.82,350.82,0,0,0,419.24,8.7c-9.73-1-20-1.62-30.62-1.9-5.31-.13-10.73-.17-16.22-.1-2.74,0-5.5.11-8.28.2L360,7.09l-2.09.12-2.22.15-2.24,0-2.08,0-4.18.07c-2.78.08-5.54.17-8.28.31-5.48.27-10.88.65-16.18,1.11-10.6.93-20.79,2.22-30.44,3.79a350.78,350.78,0,0,0-50.51,11.87,284.47,284.47,0,0,0-32.68,12.62l-5,2.3c-1.44.7-2.66,1.29-3.67,1.74-2,.9-3.11,1.29-3.23,1.09-.11.15-1.31-.48-3.65-1.7S187.68,37.57,182.94,35.66Zm338.69,3.63a16.6,16.6,0,0,1,3-3.29A54,54,0,0,1,538,27.39a75.73,75.73,0,0,1,10.43-3.94,84.55,84.55,0,0,1,12.6-2.62,80.74,80.74,0,0,1,14.3-.52c1.24,0,2.5.14,3.76.28l1.39.14c.58.06,1.16.13,1.74.23a11.78,11.78,0,0,1,3.24,1,9.89,9.89,0,0,1,4.62,4.78,13.16,13.16,0,0,1,1,3.35c.09.59.17,1.19.22,1.8l.1,1.4a182.17,182.17,0,0,1-3.09,51.16c-2.79,12.85-6.27,20.32-8,20-3.79-.82.77-32-2.29-70.09l0-.42h0a0,0,0,0,0,0,0v0h0l-.34,0c-1.07-.15-2.13-.28-3.2-.35a88.09,88.09,0,0,0-12.3-.27A107.36,107.36,0,0,0,551,34.31c-3.49.61-6.76,1.23-9.7,2-5.92,1.48-10.67,3.14-14.07,4.2a31.08,31.08,0,0,1-4.1,1c-1,.14-1.69,0-2-.36S521.06,40.17,521.63,39.29Zm-292.5,3.26c7-2.84,17.16-6.54,30-10.44a354.93,354.93,0,0,1,46.22-10.75,257.77,257.77,0,0,1,28.13-2.94,295.28,295.28,0,0,1,30.3.2c10.3.54,20.25,1.41,29.81,2.26s18.8,1.75,27.61,2.73c17.61,2,33.48,4.37,46.68,7.14a231.36,231.36,0,0,1,30.82,8.36,62.45,62.45,0,0,1,8,3.38c1.79.94,2.66,1.64,2.54,2.09-.56,1.9-16.67-1.47-42.92-4.45-13.13-1.52-28.81-2.92-46.31-4.19L392.56,34c-9.57-.67-19.42-1.44-29.45-2s-19.75-.76-29.08-.46-18.36,1-26.95,2c-17.18,2.08-32.61,5.06-45.59,7.71s-23.52,5-30.9,6.25-11.58,1.64-11.84.74S222.18,45.41,229.13,42.55ZM199.55,55.16c-1,1.62-5.3.92-11.67-.83s-14.82-4.5-24.23-7.16c-4.72-1.33-9.15-2.55-13.18-3.49S142.8,42,139.69,41.41c-6.18-1.17-10.41-1.77-10.83-3.64-.19-.9.66-2,2.49-3.09a25,25,0,0,1,8.27-2.77,50.32,50.32,0,0,1,12.71-.47,77.65,77.65,0,0,1,15,2.8A80.72,80.72,0,0,1,192,45.79C197.74,49.93,200.48,53.58,199.55,55.16Z"/><polygon class="cls-5" points="364.01 277.5 364.01 277.5 364.01 277.5 364.01 277.5"/><path class="cls-5" d="M298.34,379.68a22,22,0,0,0,10.13,9.38,36.29,36.29,0,0,0,31-1.1,22.59,22.59,0,0,0,9.49-9.87,15.71,15.71,0,0,0,1.53-8.77c-.33-2.1-1.2-3.23-2.12-3.26s-1.84.78-3,2.06a48.69,48.69,0,0,1-4.32,4.65,20.59,20.59,0,0,1-7,4,36.9,36.9,0,0,1-10.49,1.76,37.48,37.48,0,0,1-10.58-1A19,19,0,0,1,306,374a39.51,39.51,0,0,1-4.45-4.44c-1.17-1.25-2.1-2-3-2s-1.76,1.21-2,3.32A15.26,15.26,0,0,0,298.34,379.68Z"/><path class="cls-5" d="M343,499.36a22.61,22.61,0,0,0,9.48-9.87,15.63,15.63,0,0,0,1.54-8.76c-.34-2.1-1.2-3.24-2.13-3.26s-1.83.77-3,2a49.89,49.89,0,0,1-4.32,4.66,20.89,20.89,0,0,1-7,4A36.84,36.84,0,0,1,327.1,490a37.47,37.47,0,0,1-10.57-1,19.15,19.15,0,0,1-7.1-3.54A40.39,40.39,0,0,1,305,481c-1.16-1.25-2.09-2-3-2s-1.76,1.21-2,3.32a15.24,15.24,0,0,0,1.86,8.75,21.88,21.88,0,0,0,10.13,9.38,25.19,25.19,0,0,0,2.95,1.18,36.6,36.6,0,0,0,12.71,1.76l.32,0A34,34,0,0,0,343,499.36Z"/><path class="cls-5" d="M384.53,377a22.63,22.63,0,0,0,10.08,9.26,36.26,36.26,0,0,0,31.06-.83,21.91,21.91,0,0,0,9.53-10,15.16,15.16,0,0,0,1.32-8.85c-.4-2.1-1.31-3.2-2.23-3.19s-1.81.84-2.9,2.16a40.16,40.16,0,0,1-4.16,4.71,19.17,19.17,0,0,1-6.87,4,38,38,0,0,1-10.49,1.66,36.92,36.92,0,0,1-10.58-1.11,20.76,20.76,0,0,1-7.23-3.6,49.12,49.12,0,0,1-4.6-4.37c-1.2-1.21-2.16-2-3.09-1.87s-1.71,1.27-1.91,3.38A15.7,15.7,0,0,0,384.53,377Z"/><path class="cls-5" d="M438.66,486.84A15.32,15.32,0,0,0,440,478c-.41-2.09-1.32-3.2-2.24-3.19s-1.81.84-2.89,2.16a40.35,40.35,0,0,1-4.17,4.71,19.12,19.12,0,0,1-6.86,4,37.37,37.37,0,0,1-10.49,1.66,36.92,36.92,0,0,1-10.58-1.11,20.66,20.66,0,0,1-7.23-3.59,49.07,49.07,0,0,1-4.6-4.38c-1.21-1.21-2.17-2-3.09-1.87s-1.71,1.27-1.92,3.39a15.71,15.71,0,0,0,2.08,8.65,22.55,22.55,0,0,0,10.07,9.26,30,30,0,0,0,7.59,2.45,37.85,37.85,0,0,0,8,.63,34.4,34.4,0,0,0,15.45-3.9,23.12,23.12,0,0,0,5.25-3.94A20.23,20.23,0,0,0,438.66,486.84Z"/><path class="cls-5" d="M266.73,449.87a36.3,36.3,0,0,0,31-1.1,22.5,22.5,0,0,0,9.48-9.87,15.63,15.63,0,0,0,1.54-8.76c-.33-2.1-1.2-3.24-2.12-3.27s-1.84.78-3,2.06a48.69,48.69,0,0,1-4.32,4.65,20.69,20.69,0,0,1-7,4,36.92,36.92,0,0,1-10.5,1.76,37.44,37.44,0,0,1-10.57-1,19,19,0,0,1-7.09-3.53,38.7,38.7,0,0,1-4.45-4.44c-1.17-1.25-2.1-2-3-2s-1.77,1.21-2,3.32a15.26,15.26,0,0,0,1.87,8.75A21.94,21.94,0,0,0,266.73,449.87Z"/><path class="cls-5" d="M430.66,435.07a22.47,22.47,0,0,0,10.08,9.26,36.22,36.22,0,0,0,31.06-.82,22,22,0,0,0,9.53-10,15.32,15.32,0,0,0,1.32-8.85c-.41-2.09-1.32-3.19-2.24-3.19s-1.81.85-2.89,2.17a41.18,41.18,0,0,1-4.17,4.71,19.11,19.11,0,0,1-6.86,4A37.37,37.37,0,0,1,456,434a36.92,36.92,0,0,1-10.58-1.11,20.58,20.58,0,0,1-7.23-3.59,49.07,49.07,0,0,1-4.6-4.38c-1.21-1.21-2.17-2-3.09-1.87s-1.71,1.27-1.92,3.39A15.7,15.7,0,0,0,430.66,435.07Z"/><path class="cls-5" d="M343.46,437.8a22,22,0,0,0,10.13,9.37,36.23,36.23,0,0,0,31.06-1.1,22.6,22.6,0,0,0,9.48-9.86,15.66,15.66,0,0,0,1.54-8.77c-.34-2.1-1.2-3.24-2.13-3.26s-1.83.77-3,2.06a48.69,48.69,0,0,1-4.32,4.65,20.56,20.56,0,0,1-7,4,36.47,36.47,0,0,1-10.49,1.77,37.81,37.81,0,0,1-10.57-1,19.29,19.29,0,0,1-7.1-3.53,41.27,41.27,0,0,1-4.45-4.45c-1.16-1.24-2.09-2-3-2s-1.76,1.2-2,3.32A15.24,15.24,0,0,0,343.46,437.8Z"/><path class="cls-3" d="M141.41,209.5A113.79,113.79,0,0,0,350.14,257c-1.32-2.61-2.7-5.43-4.14-8.43s-3-6.41-4.62-9.89q-1.17-2.61-2.4-5.33c-.41-.91-.81-1.83-1.23-2.76l-1.86-4.33a24.13,24.13,0,0,1,1.51-2.56l.44-.62.22-.31.15-.18.58-.71a26.38,26.38,0,0,1,2.59-2.59,28.15,28.15,0,0,1,6.14-4.05,37.49,37.49,0,0,1,29.1-.9A27.6,27.6,0,0,1,383,218a26.33,26.33,0,0,1,2.74,2.42l.63.68.16.17.24.29.48.6a22.58,22.58,0,0,1,1.66,2.46q-.8,2.24-1.59,4.43c-.35,1-.7,1.9-1.05,2.83q-1.06,2.79-2.07,5.48-2.06,5.34-4,10.15c-1.25,3.08-2.46,6-3.62,8.67a113.76,113.76,0,1,0-16.41-102.35A113.8,113.8,0,0,0,141.41,209.5ZM468.62,107.77a83.22,83.22,0,0,1,82.81,61.17,48.13,48.13,0,0,1,2.69,28.69,83.2,83.2,0,1,1-85.5-89.86Zm-230,7.14a83.18,83.18,0,0,1,85.58,77.74,48.15,48.15,0,0,1-4.57,33.18,83.2,83.2,0,1,1-81-110.92Z"/><path class="cls-6" d="M243.74,281.23a83.23,83.23,0,0,0,75.85-55.4,48.54,48.54,0,0,1-12.88,15.28,48.19,48.19,0,1,1,17.45-48.46,83.19,83.19,0,1,0-80.42,88.58Z"/><path class="cls-6" d="M473.78,274.09a83.21,83.21,0,0,0,80.34-76.46,48.19,48.19,0,1,1-2.69-28.69,83.2,83.2,0,1,0-77.65,105.15Z"/><path class="cls-7" d="M231.26,217.88a48.18,48.18,0,0,0,75.45,23.23C283.61,227,257.88,218.14,231.26,217.88Z"/><path class="cls-7" d="M508.49,235.75A48,48,0,0,0,540,222.69c-25.54-14-52.43-22.74-77.95-17.76A48.2,48.2,0,0,0,508.49,235.75Z"/><path class="cls-8" d="M251.09,180.18A11.19,11.19,0,1,0,262.62,191,11.19,11.19,0,0,0,251.09,180.18Z"/><path class="cls-8" d="M481,164.68a11.19,11.19,0,1,0,11.53,10.83A11.18,11.18,0,0,0,481,164.68Z"/><path class="cls-9" d="M364.41,276.49c.26-.62.63-1.58,1.1-2.85.93-2.53,2.24-6.29,3.86-11,.4-1.16.81-2.37,1.24-3.64a4.81,4.81,0,0,1-2.72-.57c-11.33-6.2-14.75-21.17-19.2-36.27a25,25,0,0,0-3.07,2.13,20.73,20.73,0,0,0-2,1.88l-.43.5-.1.12h0l0,0-.06.05s0,0,0,.09l.49,1.23,1.13,2.79q1.13,2.75,2.19,5.39L351,246.4c2.6,6.32,4.89,11.91,6.8,16.57s3.45,8.3,4.54,10.77c.54,1.24,1,2.18,1.27,2.78a6.18,6.18,0,0,1,.46,1h0A5.28,5.28,0,0,1,364.41,276.49Z"/><path class="cls-7" d="M367.89,258.4a4.81,4.81,0,0,0,2.72.57l4.51-13.32c1.1-3.25,2.25-6.69,3.47-10.29l1.85-5.52.95-2.85.42-1.26s0-.06,0-.09l-.06,0h0l-.11-.12-.46-.47a20.9,20.9,0,0,0-2.08-1.75,21.84,21.84,0,0,0-5-2.73,32.07,32.07,0,0,0-23.72.73c-.59.27-1.16.58-1.71.9C353.14,237.23,356.56,252.2,367.89,258.4Zm-10.1-35.18a9.17,9.17,0,0,1,3.7-1.56,16.73,16.73,0,0,1,4.31-.22,15.36,15.36,0,0,1,7.24,2.29c1.66,1.12,2.4,2.34,2.06,3.2s-1.63,1.24-3.38,1.37a48.11,48.11,0,0,1-6.41-.16c-1.21-.09-2.42-.21-3.33-.31l-2.38-.22c-.66-.06-1.21-.09-1.76-.13a2.77,2.77,0,0,1-1.42-.37,1.38,1.38,0,0,1-.39-1.52A4.42,4.42,0,0,1,357.79,223.22Z"/><path class="cls-10" d="M384.2,237.38q1-2.69,2.07-5.48c.35-.93.7-1.87,1.05-2.83q.8-2.19,1.59-4.43a22.58,22.58,0,0,0-1.66-2.46l-.48-.6-.24-.29-.16-.17-.63-.68A26.33,26.33,0,0,0,383,218a27.6,27.6,0,0,0-6.38-3.66,37.49,37.49,0,0,0-29.1.9,28.15,28.15,0,0,0-6.14,4.05,26.38,26.38,0,0,0-2.59,2.59l-.58.71-.15.18-.22.31-.44.62a24.13,24.13,0,0,0-1.51,2.56l1.86,4.33c.42.93.82,1.85,1.23,2.76q1.23,2.72,2.4,5.33,2.39,5.22,4.62,9.89c1.44,3,2.82,5.82,4.14,8.43,1.42,2.8,2.77,5.37,4,7.67a83.56,83.56,0,0,0,6.3,10.14,12.29,12.29,0,0,0,2.27,2.41,2.27,2.27,0,0,0,.89.42c.25,0,.41-.09.39-.16h0a6.18,6.18,0,0,0-.46-1c-.3-.6-.73-1.54-1.27-2.78-1.09-2.47-2.63-6.14-4.54-10.77s-4.2-10.25-6.8-16.57l-4.09-10.06q-1.07-2.64-2.19-5.39l-1.13-2.79-.49-1.23s0-.06,0-.09l.06-.05,0,0h0l.1-.12.43-.5a20.73,20.73,0,0,1,2-1.88,25,25,0,0,1,3.07-2.13c.55-.32,1.12-.63,1.71-.9a32.07,32.07,0,0,1,23.72-.73,21.84,21.84,0,0,1,5,2.73,20.9,20.9,0,0,1,2.08,1.75l.46.47.11.12h0l.06,0s0,0,0,.09l-.42,1.26-.95,2.85-1.85,5.52c-1.22,3.6-2.37,7-3.47,10.29L370.61,259c-.43,1.27-.84,2.48-1.24,3.64-1.62,4.74-2.93,8.5-3.86,11-.47,1.27-.84,2.23-1.1,2.85a5.28,5.28,0,0,0-.39,1h0c0,.08.15.19.39.13a2.06,2.06,0,0,0,.86-.47,12.29,12.29,0,0,0,2.12-2.54,86.16,86.16,0,0,0,5.66-10.52c1.11-2.37,2.3-5,3.54-7.9,1.16-2.69,2.37-5.59,3.62-8.67S382.83,240.94,384.2,237.38Z"/><path class="cls-11" d="M82.89,432.21c-11.39-8.94-10.14-28.6-4.8-43.32C66.77,407.12,51.64,427.33,29.31,426c-6.2-.6-10.17-3.5-12.7-7.7a186.8,186.8,0,0,0-5.37,19.64,81.34,81.34,0,0,0-1.79,13.74,32.43,32.43,0,0,0,.38,6.48,10.18,10.18,0,0,0,1.83,4.67,3.11,3.11,0,0,0,1.27,1,1.35,1.35,0,0,1,.3.14,2.63,2.63,0,0,1,.39.06,5.27,5.27,0,0,0,1,.07,15.4,15.4,0,0,0,5.49-1.56,63,63,0,0,0,12.05-7.84c3.93-3.13,7.76-6.58,11.5-10.21l1.4-1.37,2.5-2.5c1.87-1.91,3.74-3.86,5.62-5.94l11.61-13.09q-.78,7-1.57,14.1a126.55,126.55,0,0,0-.78,12.86v2.18l0,1.48c0,1,.07,2,.11,2.94.12,2,.26,3.91.5,5.84a48.62,48.62,0,0,0,2.45,11c1.2,3.38,3.06,6.19,5.19,7.53a4.79,4.79,0,0,0,1.1.57c.19.08.37.17.57.24l.61.14c.5.18.6.06.81.14s.24-.05.37-.06a1.48,1.48,0,0,0,.2,0l.24-.09a13.27,13.27,0,0,0,4.86-3.2,65.67,65.67,0,0,0,9.32-12c2.79-4.43,5.36-9.05,7.74-13.74l.45-.88.78-1.59c.56-1.15,1.11-2.23,1.68-3.5,1.15-2.44,2.27-4.9,3.39-7.52l5.35-12.82C100.6,434,92,439.24,82.89,432.21Z"/><path class="cls-11" d="M141.58,444c-19.46-6.57-19.63-31.08-14.76-47.42-4.46,7-10.33,18.17-17.14,26.76q1.48,8.25,2.95,16.46c.27,1.38.55,2.74.86,4s.6,2.56.93,3.79.64,2.38,1,3.53l.39,1.36.27.88a79.18,79.18,0,0,0,5.28,13.2,32.64,32.64,0,0,0,3.52,5.46,12.59,12.59,0,0,0,4,3.45,5.17,5.17,0,0,0,1,.36c.16,0,.29.1.47.14l.64.08.63.1h1.2l.57-.07a8.29,8.29,0,0,0,4.2-1.86,16.4,16.4,0,0,0,3.63-4.26,13.16,13.16,0,0,0,.79-1.32c.24-.46.5-.9.74-1.37.43-1,.93-1.9,1.31-2.93a80.08,80.08,0,0,0,3.8-12.62c.46-2,.86-4.07,1.22-6.12A33.88,33.88,0,0,1,141.58,444Z"/><path class="cls-12" d="M117.49,266.32a167.07,167.07,0,0,0-13.41,10.92A254.22,254.22,0,0,0,84.6,296.68a249.89,249.89,0,0,0-22.42,28.81,418.63,418.63,0,0,0-22.44,38.64A400.8,400.8,0,0,0,19,411.32q-1.23,3.44-2.39,7c2.53,4.2,6.5,7.1,12.7,7.7,22.33,1.35,37.46-18.86,48.78-37.09-5.34,14.72-6.59,34.38,4.8,43.32,9.1,7,17.71,1.81,25.25-7,.44-1,.88-2.1,1.31-3.14.08.43.15.84.23,1.27,6.81-8.59,12.68-19.76,17.14-26.76-4.87,16.34-4.7,40.85,14.76,47.42a33.88,33.88,0,0,0,7.41,1.61q.6-3.48,1.07-6.95c.62-4.36,1-8.71,1.43-13,1.41-17.23,1.63-33.71,1.52-49.06s-.52-29.6-1.44-42.45q-.73-9.64-1.82-18.24c-.77-5.72-1.66-11.06-2.71-16-2.09-9.85-4.9-18.06-8.34-24s-7.66-9.37-10.95-10.75a32,32,0,0,0-3.9-1.41c-.91-.29-1.39-.48-1.37-.64,0,.16-.46.27-1.31.8S119.08,265.17,117.49,266.32Zm-.07,13.19A16.26,16.26,0,0,1,122,279a13.28,13.28,0,0,1,5.4,1.43,15.22,15.22,0,0,1,4.13,3.11,26.56,26.56,0,0,1,4.55,6.83c1,2.1,2.06,4.2,2.87,6.44.43,1.11.9,2.22,1.29,3.36s.74,2.3,1.11,3.46a107.4,107.4,0,0,1,4.34,26.61,145,145,0,0,1-.79,21.48c-1.41,12.05-3.54,19.29-5.36,19.22s-3.12-7.55-4.15-19.33-2-27.85-6.89-44.07c-.32-1-.64-2-1-3s-.72-1.94-1.06-2.91c-.65-1.94-1.53-3.74-2.28-5.58a17.2,17.2,0,0,0-2.11-3.82,4.22,4.22,0,0,0-.64-.67c-.13-.1-.1-.15-.31-.21a8.06,8.06,0,0,0-3.37.45,43.59,43.59,0,0,0-4.49,1.42,46.71,46.71,0,0,0-7.76,3.81A70,70,0,0,0,95.13,305c-2.42,2.14-4,3.4-4.82,3s-.82-2.52.49-5.91a35.11,35.11,0,0,1,8.88-12.52,43.33,43.33,0,0,1,8.82-6.37,42.21,42.21,0,0,1,5.59-2.58A26.07,26.07,0,0,1,117.42,279.51Z"/><path class="cls-12" d="M577.76,269.15c.08.57.17,1.31.32,2.18,37.16,30.22,94,32.63,139.55,37.24,21.28,1.91,41.76-.49,61.65-5.65-.43-.36-.87-.71-1.31-1.06a78.45,78.45,0,0,0-12.09-7.48l-.82-.42-1.27-.63c-1.07-.52-2.09-1-3.3-1.57s-2.34-1.06-3.58-1.57-2.48-1-3.79-1.54l-16.91-6.21,15.68-3.52a81.52,81.52,0,0,1-26.79-28.67c21.9,13,49.57,12.56,72.94,1.61a18.29,18.29,0,0,0-5-4.06,49.07,49.07,0,0,0-10.41-4.33c-1.85-.56-3.75-1-5.66-1.5-1-.2-1.91-.43-2.88-.61l-1.45-.29-2.15-.38a126.41,126.41,0,0,0-12.79-1.46l-14.17-.91,14.91-9.15c.86-.54,1.69-1.09,2.51-1.63a59.17,59.17,0,0,1-25.4-13.66c19.44,0,37.09-10.81,52.26-23.7a36.82,36.82,0,0,0-5-1.08,82.4,82.4,0,0,0-13.84-.62,203.7,203.7,0,0,0-27.54,3,403.25,403.25,0,0,0-50.07,12.24,416.83,416.83,0,0,0-41.95,15.4,250.06,250.06,0,0,0-32.27,17.08A255.28,255.28,0,0,0,594.55,252a169.41,169.41,0,0,0-13.08,11.31c-1.41,1.37-2.44,2.46-3.08,3.2s-.85,1.14-1,1.15C577.53,267.7,577.64,268.2,577.76,269.15ZM741.4,242.34a79,79,0,0,1,38.48,4.57c4.65,1.9,7.24,3.73,7,4.58-.65,1.81-12.28-.93-26.7-2.59s-26.34-1.82-26.56-3.73C733.49,244.27,736.44,243.1,741.4,242.34Zm-125.72,1.22a82.73,82.73,0,0,1,15-10.72,202.59,202.59,0,0,1,24.28-11.69c9.27-3.82,19.44-7.78,30.3-11.71,21.67-7.87,41.86-13.74,56.76-16.82s24.42-3.62,24.85-1.86-8.18,5.58-22.17,11-33.35,12.53-54.88,20.35c-10.75,3.89-21.11,7.51-30.5,10.66s-17.65,6-24.52,8.66c-13.74,5.2-21.87,9.6-23,8-.27-.37-.06-1.07.6-2.08A22.93,22.93,0,0,1,615.68,243.56Z"/><path class="cls-11" d="M735.5,213.88a59.17,59.17,0,0,0,25.4,13.66c1.47-1,2.91-1.91,4.31-2.88l2.91-2,1.59-1.14c4.21-3.05,8.28-6.22,12-9.55a62.65,62.65,0,0,0,9.81-10.51,15.42,15.42,0,0,0,2.5-5.14c0-.32.16-.7.09-.94a2.67,2.67,0,0,1,0-.4,1.25,1.25,0,0,1-.08-.32,3.12,3.12,0,0,0-.74-1.41,10.14,10.14,0,0,0-4.28-2.62c-.42-.15-.86-.29-1.3-.42C772.59,203.07,754.94,213.83,735.5,213.88Z"/><path class="cls-11" d="M725.1,250.25a81.52,81.52,0,0,0,26.79,28.67l1.19-.27c2.78-.64,5.4-1.32,8-2,1.35-.36,2.51-.71,3.74-1.06l1.69-.49,1-.29c5-1.53,10-3.25,14.88-5.24a65.79,65.79,0,0,0,13.41-7.1,13.24,13.24,0,0,0,4-4.23l.13-.23a1.05,1.05,0,0,0,0-.19,2.06,2.06,0,0,1,.12-.35c0-.22.09-.3,0-.82l0-.63c0-.2-.1-.4-.14-.6a5,5,0,0,0-.37-1.18,9,9,0,0,0-1.47-2.36C774.67,262.81,747,263.26,725.1,250.25Z"/><path class="cls-11" d="M578.08,271.33c.1.58.22,1.2.39,1.9.79,3.49,3.38,8.24,8.7,12.65s12.87,8.62,22.22,12.39c4.67,1.89,9.78,3.69,15.28,5.44s11.4,3.36,17.65,5c12.5,3.14,26.44,6,41.55,8.79s31.37,5.41,48.58,7c4.3.36,8.66.7,13,.85s8.84.22,13.27,0a79.5,79.5,0,0,0,13.09-1.56c1.08-.18,2.07-.53,3.11-.78.51-.15,1-.33,1.48-.49a11.47,11.47,0,0,0,1.43-.54,16.48,16.48,0,0,0,4.83-2.84,8.28,8.28,0,0,0,2.56-3.82l.18-.54.08-.59.11-.6v-.64l0-.64c0-.18,0-.32,0-.49a5.47,5.47,0,0,0-.19-1,12.69,12.69,0,0,0-2.71-4.53,30.59,30.59,0,0,0-3.45-3.35c-19.89,5.16-40.37,7.56-61.65,5.65C672.08,304,615.24,301.55,578.08,271.33Z"/></g><path class="cls-13" d="M464,583.64Z"/><path id="Left_Eye" data-name="Left Eye" class="cls-13" d="M231.26,217.88c26.72.08,52.48,8.93,75.57,23a50,50,0,0,0,13-15.55,49.14,49.14,0,0,0,4.81-33.61,47.67,47.67,0,0,0-48.47-37.87c-26.7,1-47.82,23.65-47.17,50.57A49.12,49.12,0,0,0,231.26,217.88Zm20.15-38.29a11.09,11.09,0,0,1,11.5,10.89,11.46,11.46,0,0,1-11,11.74,11.09,11.09,0,0,1-11.5-10.89A11.47,11.47,0,0,1,251.41,179.59Z"/><path id="Right_Eye" data-name="Right Eye" class="cls-13" d="M463,203.24c25.66-5.21,52.58,3.47,78.12,17.45a49.69,49.69,0,0,0,14.35-25.46,49,49,0,0,0,1.12-11.69,48.54,48.54,0,0,0-3.63-17.33A47.59,47.59,0,0,0,507,136.63c-26.7,1-47.82,23.66-47.17,50.58A48.49,48.49,0,0,0,463,203.24Zm19.33-40.87a11.09,11.09,0,0,1,11.5,10.89,11.47,11.47,0,0,1-11,11.74,11.09,11.09,0,0,1-11.5-10.89A11.46,11.46,0,0,1,482.29,162.37Z"/><path class="cls-13" d="M200.37,41.17c1-.45,2.23-1,3.67-1.74l5-2.3a284.47,284.47,0,0,1,32.68-12.62,350.78,350.78,0,0,1,50.51-11.87c9.65-1.57,19.84-2.86,30.44-3.79,5.3-.46,10.7-.84,16.18-1.11,2.74-.14,5.5-.23,8.28-.31l4.18-.07,2.08,0,2.24,0,2.22-.15L360,7.09l4.17-.19c2.78-.09,5.54-.17,8.28-.2,5.49-.07,10.91,0,16.22.1,10.64.28,20.89.93,30.62,1.9a350.82,350.82,0,0,1,51.15,8.72A282.09,282.09,0,0,1,503.78,28l5.15,2c1.48.61,2.74,1.12,3.77,1.5,2,.78,3.19,1.09,3.3.89h0c.1-.21-.82-.92-2.7-2.1-.94-.58-2.11-1.29-3.51-2.1l-5-2.57a202,202,0,0,0-33.2-12.76A308,308,0,0,0,419.9,2.55C410,1.39,399.63.59,388.82.22,383.42,0,377.91,0,372.33,0c-2.8,0-5.61.08-8.45.18L359.6.38,357.45.5l-2,.14h-4.19L347,.72q-4.26.12-8.44.34c-5.59.3-11.07.72-16.46,1.23-10.76,1-21.09,2.49-30.87,4.25a308,308,0,0,0-51,13.48,203.6,203.6,0,0,0-32.34,14.79l-4.78,2.87c-1.35.89-2.47,1.68-3.37,2.32-1.8,1.29-2.68,2.06-2.56,2.26S198.37,42.07,200.37,41.17Z"/><path class="cls-13" d="M794.33,318.18c.13-.4.27-.8.37-1.2l.23-1.2.2-1.22.06-1.19,0-1.19c0-.42-.06-.89-.09-1.34a14.85,14.85,0,0,0-.48-2.61,21.78,21.78,0,0,0-4.6-8.22,42.52,42.52,0,0,0-6.11-5.79,88.61,88.61,0,0,0-13.56-8.56l-1.49-.78-.07,0-.08-.06.15,0H769l.16,0,1.23-.37c5.27-1.58,10.54-3.37,15.8-5.5,2.63-1.09,5.25-2.26,7.86-3.6a55,55,0,0,0,7.76-4.72l1.9-1.52c.62-.58,1.24-1.13,1.85-1.76l.9-1,.44-.51.42-.59.83-1.19c.26-.44.49-.92.73-1.38l.34-.71c.11-.25.19-.53.28-.8.17-.54.35-1.08.47-1.64a13.62,13.62,0,0,0,.18-3.34l-.11-1.46c-.07-.48-.19-1-.29-1.44a15.27,15.27,0,0,0-.88-2.81,20.5,20.5,0,0,0-4.76-6.82,30.33,30.33,0,0,0-6-4.45,58.37,58.37,0,0,0-12.58-5.25c-2.11-.64-4.22-1.17-6.33-1.66-1-.23-2.1-.47-3.15-.67l-2.46-.46h-.12s0,0,0,0l0,0h0l.37-.27,1.66-1.2c4.4-3.22,8.67-6.59,12.75-10.24,2-1.82,4-3.74,5.91-5.76a52.93,52.93,0,0,0,5.38-6.62,24.13,24.13,0,0,0,3.93-8.73,14,14,0,0,0,.26-2.86c0-.5,0-1-.07-1.51s-.2-1-.33-1.54a12.74,12.74,0,0,0-2.76-5.25,19.4,19.4,0,0,0-8.34-5.32,41.39,41.39,0,0,0-8.21-1.89,89.29,89.29,0,0,0-15.49-.53,209.08,209.08,0,0,0-28.77,3.54,408.07,408.07,0,0,0-93.22,30.31,232.33,232.33,0,0,0-31.47,18.15c-2-8.89-4.24-17.56-6.66-26-2.66-9.23-5.45-18.14-7.8-26.9-.61-2.18-1.14-4.37-1.68-6.53s-1.05-4.34-1.53-6.49c-.93-4.32-1.78-8.61-2.48-12.87a241.25,241.25,0,0,1-2.94-25l-.06-1.2s0-.08,0-.12l0-.24.13-.77c.18-1,.35-2,.52-3.06q.51-3,1-6l1.89-11.87c2.42-15.62,4.47-30.39,6-44.27.76-6.94,1.4-13.66,1.8-20.17.18-3.26.35-6.46.37-9.63a72.71,72.71,0,0,0-.39-9.44c0-.39-.09-.78-.17-1.19l-.24-1.27a7.78,7.78,0,0,0-.45-1.5c-.19-.49-.33-1-.56-1.46a5.63,5.63,0,0,0-2.48-1.84c-.45-.21-1-.41-1.42-.56s-.76-.23-1.13-.34A54.08,54.08,0,0,0,588.3,11a99.24,99.24,0,0,0-15.82-.23,108.38,108.38,0,0,0-25.93,4.79,95.27,95.27,0,0,0-17.73,7.58,76.82,76.82,0,0,0-9.88,6.5c-2.09,1.66-3,2.64-2.94,2.77h0c.11.15,1.27-.56,3.53-1.92s5.62-3.34,10.22-5.54a102.89,102.89,0,0,1,17.64-6.52,110.88,110.88,0,0,1,25.28-3.75,98.1,98.1,0,0,1,15.13.66,50.36,50.36,0,0,1,7.8,1.57l.91.31a4.78,4.78,0,0,1,.57.23,2.09,2.09,0,0,1,.93.67,7.87,7.87,0,0,1,.29,1.16l.14.92a6.49,6.49,0,0,1,.12,1,67,67,0,0,1,.15,8.79c-.08,3-.32,6.18-.57,9.36-.52,6.38-1.29,13-2.18,19.88-1.78,13.74-4.07,28.4-6.72,43.91l-2.07,11.78c-.36,2-.72,4-1.09,6l-.56,3-.14.76-.1.53a3.4,3.4,0,0,0-.09.64l.06,1.92a246,246,0,0,0,2.67,25.86c.67,4.38,1.48,8.79,2.39,13.25.46,2.22.94,4.45,1.49,6.68s1,4.49,1.64,6.72c2.29,9,5,18,7.53,27.12s4.9,18.49,6.82,28.12c.05.27.1.55.16.83a198.72,198.72,0,0,0-15.74,12.92,102.61,102.61,0,0,0-12.14,12.83,20.72,20.72,0,0,0-2.48,3.94,3.73,3.73,0,0,0-.35,1.19c0,.32,0,.45.13.45s.35-.4,1-1.15,1.67-1.83,3.08-3.2A169.41,169.41,0,0,1,594.55,252a255.28,255.28,0,0,1,22.52-15.81,250.06,250.06,0,0,1,32.27-17.08,416.83,416.83,0,0,1,41.95-15.4,403.25,403.25,0,0,1,50.07-12.24,203.7,203.7,0,0,1,27.54-3,82.4,82.4,0,0,1,13.84.62,36.82,36.82,0,0,1,5,1.08c.44.13.88.27,1.3.42a10.14,10.14,0,0,1,4.28,2.62,3.12,3.12,0,0,1,.74,1.41,1.25,1.25,0,0,0,.08.32,2.67,2.67,0,0,0,0,.4c.07.24-.09.62-.09.94a15.42,15.42,0,0,1-2.5,5.14,62.65,62.65,0,0,1-9.81,10.51c-3.76,3.33-7.83,6.5-12,9.55l-1.59,1.14-2.91,2c-1.4,1-2.84,1.92-4.31,2.88-.82.54-1.65,1.09-2.51,1.63l-14.91,9.15,14.17.91a126.41,126.41,0,0,1,12.79,1.46l2.15.38,1.45.29c1,.18,1.92.41,2.88.61,1.91.46,3.81.94,5.66,1.5A49.07,49.07,0,0,1,793,247.8a18.29,18.29,0,0,1,5,4.06,9,9,0,0,1,1.47,2.36,5,5,0,0,1,.37,1.18c0,.2.1.4.14.6l0,.63c.09.52,0,.6,0,.82a2.06,2.06,0,0,0-.12.35,1.05,1.05,0,0,1,0,.19l-.13.23a13.24,13.24,0,0,1-4,4.23,65.79,65.79,0,0,1-13.41,7.1c-4.85,2-9.85,3.71-14.88,5.24l-1,.29-1.69.49c-1.23.35-2.39.7-3.74,1.06-2.6.7-5.22,1.38-8,2l-1.19.27-15.68,3.52,16.91,6.21c1.31.51,2.6,1,3.79,1.54s2.41,1,3.58,1.57,2.23,1.05,3.3,1.57l1.27.63.82.42A78.45,78.45,0,0,1,778,301.86c.44.35.88.7,1.31,1.06a30.59,30.59,0,0,1,3.45,3.35,12.69,12.69,0,0,1,2.71,4.53,5.47,5.47,0,0,1,.19,1c0,.17,0,.31,0,.49l0,.64v.64l-.11.6-.08.59-.18.54a8.28,8.28,0,0,1-2.56,3.82,16.48,16.48,0,0,1-4.83,2.84,11.47,11.47,0,0,1-1.43.54c-.49.16-1,.34-1.48.49-1,.25-2,.6-3.11.78a79.5,79.5,0,0,1-13.09,1.56c-4.43.21-8.87.16-13.27,0s-8.75-.49-13-.85c-17.21-1.6-33.48-4.24-48.58-7s-29-5.65-41.55-8.79c-6.25-1.6-12.14-3.24-17.65-5s-10.61-3.55-15.28-5.44c-9.35-3.77-16.94-8-22.22-12.39s-7.91-9.16-8.7-12.65c-.17-.7-.29-1.32-.39-1.9-.15-.87-.24-1.61-.32-2.18-.12-.95-.23-1.45-.39-1.46s-.35.47-.52,1.44a16.34,16.34,0,0,0-.16,4.4,19.14,19.14,0,0,0,2.1,7,31,31,0,0,0,6,7.94c5.36,5.23,13.1,10.09,22.56,14.45,2.68,1.24,5.51,2.44,8.46,3.62.09,1.86.19,3.73.24,5.61.19,5.36.48,10.82.41,16.12q0,8.85-1,17.82c-.49,4.85-1.16,9.72-2,14.58-.54,2.71-1,5.44-1.61,8.14l-2,8.12L607.59,385c-.81,2.7-1.79,5.35-2.68,8a210.85,210.85,0,0,1-33.46,60.59l-2.74,3.5-2.92,3.38-2.93,3.37c-.49.56-1,1.14-1.47,1.69l-1.56,1.61c-2.08,2.15-4.13,4.34-6.25,6.48l-6.6,6.18a238.59,238.59,0,0,1-29.06,22.22q-6,3.79-12.3,7.26-10,5.55-20.6,10.27c-5.83,2.35-11.6,4.9-17.63,6.86L462.9,528l-2.25.78-2.29.68-9.17,2.7a300.57,300.57,0,0,1-37.84,7.75l-4.82.69-2.42.35-2.43.23-9.76.95c-3.24.38-6.53.48-9.8.67l-9.86.51-9.87.1c-3.28,0-6.56.12-9.83-.06l-9.79-.34-2.44-.09-2.44-.19-4.86-.39A302.62,302.62,0,0,1,294.79,537l-9.33-2.13-2.32-.53-2.29-.65-4.58-1.29c-6.14-1.58-12.06-3.78-18-5.75q-10.83-4.08-21.2-9-6.48-3.07-12.73-6.5a237.78,237.78,0,0,1-30.38-20.37L187,485c-2.24-2-4.43-4.06-6.64-6.07l-1.65-1.52c-.54-.52-1.05-1.06-1.58-1.59L174,472.66l-3.13-3.18-3-3.33q-5.85-6.48-11.07-13.38c.9-4.39,1.55-8.73,2.07-13,.57-4.56.94-9.05,1.27-13.48.43-6.6.68-13,.8-19.35.21-10.61,0-20.8-.26-30.52-.49-15.47-1.3-29.83-2.67-42.88Q157,323.74,155.48,315c-1-5.82-2.18-11.27-3.51-16.31-2.65-10.07-6.09-18.55-10.31-24.73a30.84,30.84,0,0,0-6.78-7.29c-.18-.14-.36-.24-.54-.37a18.87,18.87,0,0,0-6-2.91,16.38,16.38,0,0,0-4.36-.62c-1,0-1.49.12-1.51.27s.46.35,1.37.64a32,32,0,0,1,3.9,1.41c3.29,1.38,7.53,4.75,10.95,10.75S145,290,147,299.87c1.05,4.94,1.94,10.28,2.71,16s1.33,11.81,1.82,18.24c.92,12.85,1.32,27.08,1.44,42.45s-.11,31.83-1.52,49.06c-.39,4.29-.81,8.64-1.43,13q-.47,3.47-1.07,6.95c-.36,2.05-.76,4.09-1.22,6.12a80.08,80.08,0,0,1-3.8,12.62c-.38,1-.88,1.95-1.31,2.93-.24.47-.5.91-.74,1.37a13.16,13.16,0,0,1-.79,1.32,16.4,16.4,0,0,1-3.63,4.26,8.29,8.29,0,0,1-4.2,1.86l-.57.07h-1.2l-.63-.1-.64-.08c-.18,0-.31-.1-.47-.14a5.17,5.17,0,0,1-1-.36,12.59,12.59,0,0,1-4-3.45,32.64,32.64,0,0,1-3.52-5.46,79.18,79.18,0,0,1-5.28-13.2l-.27-.88-.39-1.36c-.33-1.15-.66-2.24-1-3.53s-.64-2.48-.93-3.79-.59-2.62-.86-4q-1.47-8.2-2.95-16.46c-.08-.43-.15-.84-.23-1.27-.43,1-.87,2.1-1.31,3.14L102.79,438c-1.12,2.62-2.24,5.08-3.39,7.52-.57,1.27-1.12,2.35-1.68,3.5l-.78,1.59-.45.88c-2.38,4.69-4.95,9.31-7.74,13.74a65.67,65.67,0,0,1-9.32,12,13.27,13.27,0,0,1-4.86,3.2l-.24.09a1.48,1.48,0,0,1-.2,0c-.13,0-.26.05-.37.06s-.31,0-.81-.14l-.61-.14c-.2-.07-.38-.16-.57-.24a4.79,4.79,0,0,1-1.1-.57c-2.13-1.34-4-4.15-5.19-7.53a48.62,48.62,0,0,1-2.45-11c-.24-1.93-.38-3.88-.5-5.84,0-1-.09-2-.11-2.94l0-1.48V448.5a126.55,126.55,0,0,1,.78-12.86q.78-7.06,1.57-14.1L53.13,434.63c-1.88,2.08-3.75,4-5.62,5.94l-2.5,2.5-1.4,1.37c-3.74,3.63-7.57,7.08-11.5,10.21a63,63,0,0,1-12,7.84,15.4,15.4,0,0,1-5.49,1.56,5.27,5.27,0,0,1-1-.07,2.63,2.63,0,0,0-.39-.06,1.35,1.35,0,0,0-.3-.14,3.11,3.11,0,0,1-1.27-1,10.18,10.18,0,0,1-1.83-4.67,32.43,32.43,0,0,1-.38-6.48,81.34,81.34,0,0,1,1.79-13.74,186.8,186.8,0,0,1,5.37-19.64q1.16-3.52,2.39-7a400.8,400.8,0,0,1,20.74-47.19,418.63,418.63,0,0,1,22.44-38.64A249.89,249.89,0,0,1,84.6,296.68a254.22,254.22,0,0,1,19.48-19.44,167.07,167.07,0,0,1,13.41-10.92c1.59-1.15,2.84-2,3.68-2.48s1.27-.64,1.31-.8-.11-.15-.42-.21a3.78,3.78,0,0,0-1.23.14,20.46,20.46,0,0,0-4.31,1.76h0q.69-7.1,1.61-14c1.32-9.73,3.1-19.2,5.07-28.49s4.1-18.44,5.83-27.54c.46-2.26.83-4.54,1.22-6.8s.75-4.52,1.07-6.77c.63-4.5,1.17-9,1.57-13.37a248.76,248.76,0,0,0,1.06-26l-.06-1.92a3.36,3.36,0,0,0-.13-.63l-.13-.53-.19-.74-.75-3c-.49-2-1-4-1.46-5.93q-1.41-5.91-2.79-11.64c-3.61-15.32-6.81-29.81-9.44-43.4-1.3-6.8-2.48-13.37-3.4-19.71-.45-3.16-.88-6.27-1.15-9.31a70,70,0,0,1-.4-8.78,8.35,8.35,0,0,1,.06-1l0-.44.05-.48a8.26,8.26,0,0,1,.21-1.18,2.12,2.12,0,0,1,.89-.73,5,5,0,0,1,.56-.27l.89-.36a49.37,49.37,0,0,1,7.68-2,96.5,96.5,0,0,1,15.07-1.6,110.88,110.88,0,0,1,25.46,2.17,103.57,103.57,0,0,1,18,5.41c4.74,1.91,8.22,3.7,10.55,4.9s3.54,1.85,3.65,1.7-.93-1.06-3.12-2.58a74.57,74.57,0,0,0-10.26-5.87,94.46,94.46,0,0,0-18.16-6.48,109.62,109.62,0,0,0-26.18-3.17,99.63,99.63,0,0,0-15.77,1.21,53.23,53.23,0,0,0-8.49,2c-.36.13-.73.26-1.1.42a13,13,0,0,0-1.39.64,5.61,5.61,0,0,0-2.35,2,15.35,15.35,0,0,0-.47,1.5,7.74,7.74,0,0,0-.37,1.53l-.15,1.28a10,10,0,0,0-.09,1.2,70.78,70.78,0,0,0,.19,9.44c.22,3.16.58,6.34,1,9.59.8,6.47,1.85,13.14,3,20,2.39,13.76,5.35,28.37,8.73,43.81q1.29,5.79,2.62,11.73c.46,2,.92,4,1.38,6,.24,1,.47,2,.71,3l.18.76.06.24s0,.08,0,.12v1.2a242.83,242.83,0,0,1-1.38,25.19c-.44,4.29-1,8.62-1.68,13-.35,2.18-.7,4.37-1.13,6.57s-.79,4.41-1.27,6.63c-1.8,8.88-4,17.95-6.11,27.33s-4,19.06-5.47,29c-1,6.74-1.75,13.6-2.39,20.54-1.85,1.28-3.83,2.71-6,4.34a208.56,208.56,0,0,0-21,18.64,232,232,0,0,0-24.1,28.63,407,407,0,0,0-46,86.55A208.52,208.52,0,0,0,2.2,436,90.26,90.26,0,0,0,0,451.34a41.12,41.12,0,0,0,.44,8.41,19.26,19.26,0,0,0,3.79,9.14A12.77,12.77,0,0,0,9,472.52c.48.21,1,.41,1.47.59s1,.23,1.47.33a14.07,14.07,0,0,0,2.85.24A24.22,24.22,0,0,0,24,471.33a52.82,52.82,0,0,0,7.45-4.15q3.48-2.3,6.7-4.83c4.3-3.38,8.36-7,12.3-10.78L52,450.15l.33-.32h0l0,0,0,0,0,.12,0,2.5c0,1.07.07,2.14.11,3.22.12,2.16.28,4.33.54,6.52a58.26,58.26,0,0,0,3,13.3,30.67,30.67,0,0,0,3.34,6.68A20.58,20.58,0,0,0,65.26,488a15,15,0,0,0,2.61,1.36c.46.18.91.38,1.38.53l1.41.37a14.37,14.37,0,0,0,3.32.4c.58,0,1.14-.11,1.7-.18l.84-.13.75-.22c.5-.15,1-.3,1.49-.48l1.32-.61.65-.31.58-.35,1.14-.71c.73-.49,1.38-1,2.06-1.52l1.82-1.6a55.48,55.48,0,0,0,6-6.83c1.77-2.33,3.38-4.71,4.9-7.11,3-4.81,5.69-9.69,8.17-14.61l.57-1.14.07-.15,0-.06,0-.14,0,.09,0,.07.51,1.61a88,88,0,0,0,6.07,14.84,42.94,42.94,0,0,0,4.65,7,22,22,0,0,0,7.29,5.95,16.09,16.09,0,0,0,2.49.92c.43.11.89.24,1.3.32l1.19.16,1.18.14,1.23,0h1.23c.41,0,.83-.1,1.24-.16a17.8,17.8,0,0,0,8.88-4,25.7,25.7,0,0,0,5.63-6.64,18.59,18.59,0,0,0,1-1.76c.31-.59.64-1.18.93-1.77.51-1.19,1.12-2.37,1.55-3.56s.84-2.26,1.22-3.38q3.35,4.14,6.91,8.14l3.08,3.49,3.25,3.34,3.26,3.35c.55.55,1.09,1.12,1.65,1.67l1.72,1.59c2.3,2.12,4.58,4.27,6.92,6.37l7.26,6.05a248,248,0,0,0,31.67,21.38A271.56,271.56,0,0,0,254.82,536c6.19,2.08,12.35,4.36,18.71,6l4.75,1.34,2.38.67,2.41.56,9.65,2.22,2.34.46-1.32,2.06-.84,1.33c-.11.15-.23.3-.34.46l-.53,0-1.48.2-3.15.46c-2.14.33-4.36.7-6.65,1.13a103.93,103.93,0,0,0-14.68,3.68c-.66.25-1.31.49-2,.79-.33.13-.67.29-1,.46-.13.06-.44.21-.7.35s-.52.32-.78.49l-.78.49a7.59,7.59,0,0,0-.68.57c-.22.2-.46.39-.65.6L259,561a2.39,2.39,0,0,0-.4.71,2.54,2.54,0,0,0-.29.75,8.66,8.66,0,0,0-.18,1.63c.18,2.27,1.95,4,4.4,5,.3.13.59.27.91.38l.74.24c.4.12.79.21,1.18.32.78.19,1.54.34,2.3.48a69.73,69.73,0,0,0,9.09.8l2.29,0h1.73l.12,0-.06.08,0,0-.48,1.25c-.79,2.08-1.55,4.19-2.22,6.39a48.88,48.88,0,0,0-1.67,7,19.56,19.56,0,0,0-.22,2c0,.37,0,.61,0,1.12a8.24,8.24,0,0,0,.15,1.69,7.1,7.1,0,0,0,1.07,3,6.42,6.42,0,0,0,2.32,1.94l.36.1c2,.74,4.32,0,6.23-1.12a16.18,16.18,0,0,0,1.79-1.24c.52-.42,1-.84,1.49-1.26a57,57,0,0,0,5-5.26c1.52-1.79,2.94-3.59,4.3-5.41l.59-.8a.47.47,0,0,0,0-.05l0-.09.06.06s0,0,.08.12l.66,1.21c1.13,2.07,2.33,4.09,3.63,6a35.1,35.1,0,0,0,4.53,5.62,19.19,19.19,0,0,0,1.49,1.29c.3.21.58.42.89.61l.61.35a4,4,0,0,0,.7.33,6.26,6.26,0,0,0,5.54-.24l.91-.74.77-.89a11.64,11.64,0,0,0,.56-1.05,8.41,8.41,0,0,0,.36-1.14,4.84,4.84,0,0,0,.24-1.14l.09-.87c0-.52,0-1.06,0-1.55a32.82,32.82,0,0,0-.81-5.46,84.78,84.78,0,0,0-2.85-9.4c-1.05-2.92-2.16-5.66-3.26-8.24-.55-1.3-1.1-2.55-1.65-3.76l-.83-1.79-.33-.62c.09-.16.18-.33.27-.48l.68-1.15q.76-1.29,1.41-2.55a44.38,44.38,0,0,0,2.12-4.63c5.58.76,11.19,1.37,16.84,1.75l5,.41,2.51.2,2.51.09,10.08.35c3.36.19,6.73.08,10.1.06l10.13-.09,10.12-.53c3.37-.19,6.74-.3,10.08-.69l10-1,2.5-.25,2.49-.35,5-.72c5.58-.73,11.12-1.68,16.61-2.78a48.94,48.94,0,0,0,2.36,4.49q.72,1.21,1.56,2.46l.74,1.11.3.47c-.07.17-.16.34-.24.5l-.06.13-.14.36-.29.73c-.38,1-.76,2-1.15,3q-1.16,3.07-2.27,6.47a84.71,84.71,0,0,0-3.72,15,23.43,23.43,0,0,0-.17,4.58,9.46,9.46,0,0,0,.16,1.32,10.11,10.11,0,0,0,.53,1.8,5.62,5.62,0,0,0,6,3.62c.32-.05.64-.12,1-.2s.61-.24.92-.36a4.58,4.58,0,0,0,.92-.45,8.7,8.7,0,0,0,.75-.5,18.74,18.74,0,0,0,3.64-3.73,54.71,54.71,0,0,0,4.92-8.12l1-2.13.66-1.39.08-.09.05.09,0,0,.63.76c1.46,1.74,3,3.47,4.6,5.17a56.23,56.23,0,0,0,5.29,5c.49.4,1,.79,1.56,1.17a15.63,15.63,0,0,0,1.86,1.14c2,1,4.35,1.64,6.27.76a5,5,0,0,0,2.37-1.89,2.35,2.35,0,0,0,.39-.67c.11-.24.24-.46.33-.71a8.23,8.23,0,0,0,.35-1.58,11.76,11.76,0,0,0,0-3c-.07-.7-.19-1.34-.31-2a48.11,48.11,0,0,0-2.06-6.93c-.8-2.18-1.67-4.27-2.58-6.31l-.58-1.26,0,0L465,566l.07,0h.06l1.7-.1c2.29-.15,4.55-.37,6.8-.67a44.82,44.82,0,0,0,6.77-1.41l.86-.28c.14,0,.29-.11.44-.16l.56-.22a12.94,12.94,0,0,0,2.54-1.4,7.21,7.21,0,0,0,1.8-1.91,6.49,6.49,0,0,0,.73-2.36,8.63,8.63,0,0,0-.4-2c-.17-.29-.3-.6-.49-.88l-.68-.8a9.44,9.44,0,0,0-.84-.7l-.44-.34-.5-.29-1-.56c-.17-.09-.35-.18-.52-.25l-.43-.18a36.17,36.17,0,0,0-5-1.62c-3.26-.83-6.37-1.37-9.36-1.83s-5.87-.81-8.62-1.09l-4-.39-1.94-.15c-.42,0-.4,0-.53,0h-.34l-.36-.44-.91-1.28-1.5-2.07,2.43-.63,9.5-2.82,2.37-.71,2.33-.81,4.66-1.64c6.25-2,12.25-4.71,18.3-7.16a271.82,271.82,0,0,0,34.24-18.36,246.68,246.68,0,0,0,30.28-23.29l6.88-6.49c2.2-2.24,4.34-4.53,6.51-6.79l1.62-1.69c.52-.58,1-1.18,1.53-1.77l3.06-3.54,3-3.54,2.85-3.67a219.59,219.59,0,0,0,34.66-63.47c.91-2.81,1.91-5.58,2.75-8.4s1.59-5.64,2.39-8.45,1.32-5.68,2-8.5,1.09-5.69,1.64-8.52a198.85,198.85,0,0,0,2.89-34c0-5.66-.31-11.07-.53-16.51,0-.64-.07-1.27-.1-1.9q7.53,2.61,15.92,5.07c12.62,3.62,26.62,6.91,41.77,10.07s31.57,6.18,49.21,8.12c4.42.44,8.91.86,13.49,1.09s9.26.37,14,.2a87.48,87.48,0,0,0,14.66-1.57c1.25-.2,2.52-.6,3.78-.9.64-.18,1.27-.41,1.91-.61a17,17,0,0,0,1.91-.7,25.58,25.58,0,0,0,7.51-4.39A17.71,17.71,0,0,0,794.33,318.18ZM307.22,561.8l.69,1.8,1.39,3.76c.93,2.59,1.86,5.31,2.74,8.16a84.55,84.55,0,0,1,2.29,8.9,27.39,27.39,0,0,1,.52,4.48c0,.36,0,.67,0,1l-.06.41a.18.18,0,0,1,0,.11.32.32,0,0,1-.52.19h0l-.09-.06-.42-.31a11.44,11.44,0,0,1-.91-.84,30.77,30.77,0,0,1-3.58-4.7c-1.13-1.77-2.2-3.67-3.23-5.62l-.94-1.84-.72-1.45-.74-1.56c-1-2.11-1.95-4.39-2.93-6.59l-3.76,5.5-1.9,2.67-1.4,1.86c-1.31,1.72-2.67,3.42-4.09,5.06a48.4,48.4,0,0,1-4.42,4.6c-.38.35-.76.67-1.14,1s-.82.59-1,.74l0,0h0c0-.1,0-.36,0-.53,0-.44.08-.91.15-1.39a43.29,43.29,0,0,1,1.42-6c.61-2,1.3-4,2-6l.67-1.77,1.21-3,2.58-5.95c-3.11.18-6.25.43-9.18.49L279,565h-2.16a63.75,63.75,0,0,1-8.25-.54c-.64-.1-1.27-.21-1.87-.34-.28-.07-.59-.13-.86-.21l-.2-.06h-.1c-.12,0-.3-.08-.35-.23s.1-.27.22-.37l.05,0,.19-.1c.24-.13.49-.26.77-.38.52-.26,1.08-.48,1.63-.72a110.64,110.64,0,0,1,13.72-4c2.21-.53,4.37-1,6.44-1.46l3.06-.63,1.54-.31,2.43-.42,1.29-2.31.74-1.38,1.42-2.66.39-.73c4.23.78,8.48,1.5,12.75,2.13-.56,1.05-1.18,2.13-1.88,3.24-.48.75-1,1.5-1.52,2.27-.3.43-.61.87-.93,1.31l-1.49,2C306.43,559.89,306.83,560.84,307.22,561.8Zm138.69-17.52,1.56,2.57.82,1.34,1.42,2.23,2.87.35,1.89.27,3.92.61c2.68.43,5.47.91,8.34,1.49s5.85,1.23,8.78,2.09a33,33,0,0,1,4.21,1.5l.14.07.05,0,.06,0,.12.09a.27.27,0,0,1,.09.25.38.38,0,0,1-.24.22l-.14,0h0l-.14,0-.31.1-.64.19a40.91,40.91,0,0,1-5.83,1.06c-2.07.24-4.2.4-6.36.5l-1.66.07c-1.1,0-2.2.07-3.33.09-2.25,0-4.62,0-6.95,0l2.93,5.84,1.38,2.93.76,1.71c.85,2,1.65,3.93,2.37,5.92a41.88,41.88,0,0,1,1.75,6c.19.89.28,2.18.25,1.78l0,0c-.22-.13-.71-.42-1.08-.68s-.79-.57-1.19-.9a51.14,51.14,0,0,1-4.67-4.35c-1.51-1.56-3-3.18-4.37-4.82l-1.5-1.78c-.68-.86-1.36-1.71-2.05-2.56l-4-5.28c-1.16,3-2.27,6.15-3.46,8.92-.42,1-.83,1.89-1.25,2.83l-.94,2a50.73,50.73,0,0,1-4.17,7.27,14.18,14.18,0,0,1-2.3,2.56l-.14.1s0,0,0,0l-.1.06a.37.37,0,0,1-.23,0,.38.38,0,0,1-.16-.17c0-.06,0,0,0-.16a4.31,4.31,0,0,1-.12-.72,19.27,19.27,0,0,1,0-3.47,88.56,88.56,0,0,1,2.88-14.2q.92-3.33,1.86-6.41c.32-1,.63-2,.94-3l.23-.73.32-.95q.42-1.17.81-2.31l-1.6-1.9-1-1.26c-.58-.74-1.13-1.46-1.64-2.18-.77-1.07-1.44-2.11-2.06-3.12q6.33-1.35,12.57-2.92Z"/><g id="Stuff"><path class="cls-8" d="M167.32,34.24a77.65,77.65,0,0,0-15-2.8,50.32,50.32,0,0,0-12.71.47,25,25,0,0,0-8.27,2.77c-1.83,1.09-2.68,2.19-2.49,3.09.42,1.87,4.65,2.47,10.83,3.64,3.11.6,6.74,1.29,10.78,2.27s8.46,2.16,13.18,3.49c9.41,2.66,17.85,5.4,24.23,7.16s10.72,2.45,11.67.83-1.81-5.23-7.51-9.37A80.72,80.72,0,0,0,167.32,34.24Z"/><path class="cls-8" d="M521.15,41.2c.26.39.93.5,2,.36a31.08,31.08,0,0,0,4.1-1c3.4-1.06,8.15-2.72,14.07-4.2,2.94-.79,6.21-1.41,9.7-2a107.36,107.36,0,0,1,11.19-1.14,88.09,88.09,0,0,1,12.3.27c1.07.07,2.13.2,3.2.35l.34,0h0v0a0,0,0,0,1,0,0h0l0,.42c3.06,38.06-1.5,69.27,2.29,70.09,1.75.37,5.23-7.1,8-20a182.17,182.17,0,0,0,3.09-51.16l-.1-1.4c-.05-.61-.13-1.21-.22-1.8a13.16,13.16,0,0,0-1-3.35A9.89,9.89,0,0,0,585.5,22a11.78,11.78,0,0,0-3.24-1c-.58-.1-1.16-.17-1.74-.23l-1.39-.14c-1.26-.14-2.52-.24-3.76-.28a80.74,80.74,0,0,0-14.3.52,84.55,84.55,0,0,0-12.6,2.62A75.73,75.73,0,0,0,538,27.39,54,54,0,0,0,524.58,36a16.6,16.6,0,0,0-3,3.29C521.06,40.17,520.89,40.82,521.15,41.2Z"/><path class="cls-8" d="M356.42,227.11a2.77,2.77,0,0,0,1.42.37c.55,0,1.1.07,1.76.13l2.38.22c.91.1,2.12.22,3.33.31a48.11,48.11,0,0,0,6.41.16c1.75-.13,3-.5,3.38-1.37s-.4-2.08-2.06-3.2a15.36,15.36,0,0,0-7.24-2.29,16.73,16.73,0,0,0-4.31.22,9.17,9.17,0,0,0-3.7,1.56,4.42,4.42,0,0,0-1.76,2.37A1.38,1.38,0,0,0,356.42,227.11Z"/><path class="cls-8" d="M760.13,248.9c14.42,1.66,26,4.4,26.7,2.59.29-.85-2.3-2.68-7-4.58a79,79,0,0,0-38.48-4.57c-5,.76-7.91,1.93-7.83,2.83C733.79,247.08,745.73,247.14,760.13,248.9Z"/><path class="cls-8" d="M611.7,249.44c1.18,1.56,9.31-2.84,23-8,6.87-2.64,15.15-5.52,24.52-8.66S679,226,689.77,222.08c21.53-7.82,40.87-15,54.88-20.35s22.62-9.13,22.17-11-10-1.27-24.85,1.86-35.09,8.95-56.76,16.82c-10.86,3.93-21,7.89-30.3,11.71a202.59,202.59,0,0,0-24.28,11.69,82.73,82.73,0,0,0-15,10.72,22.93,22.93,0,0,0-3.38,3.8C611.64,248.37,611.43,249.07,611.7,249.44Z"/><path class="cls-8" d="M114.09,280.6a42.21,42.21,0,0,0-5.59,2.58,43.33,43.33,0,0,0-8.82,6.37,35.11,35.11,0,0,0-8.88,12.52c-1.31,3.39-1.29,5.5-.49,5.91s2.4-.83,4.82-3a70,70,0,0,1,10.37-7.95,46.71,46.71,0,0,1,7.76-3.81,43.59,43.59,0,0,1,4.49-1.42,8.06,8.06,0,0,1,3.37-.45c.21.06.18.11.31.21a4.22,4.22,0,0,1,.64.67,17.2,17.2,0,0,1,2.11,3.82c.75,1.84,1.63,3.64,2.28,5.58.34,1,.74,1.92,1.06,2.91s.63,2,1,3c4.87,16.22,5.75,32.34,6.89,44.07s2.27,19.26,4.15,19.33,4-7.17,5.36-19.22a145,145,0,0,0,.79-21.48,107.4,107.4,0,0,0-4.34-26.61c-.37-1.16-.74-2.32-1.11-3.46s-.86-2.25-1.29-3.36c-.81-2.24-1.9-4.34-2.87-6.44a26.56,26.56,0,0,0-4.55-6.83,15.22,15.22,0,0,0-4.13-3.11A13.28,13.28,0,0,0,122,279a16.26,16.26,0,0,0-4.55.49A26.07,26.07,0,0,0,114.09,280.6Z"/></g></g></g></svg>