<svg width="24" height="25" viewBox="0 0 24 25" fill="none" xmlns="http://www.w3.org/2000/svg">
<path d="M15.5 9.55L14.25 8.8C14.1 8.7 13.9 8.7 13.75 8.8L12.5 9.55C12.15 9.75 11.75 9.5 11.75 9.1V3.25H16.25V9.1C16.25 9.5 15.85 9.75 15.5 9.55Z" stroke="black" stroke-width="2" stroke-miterlimit="10" stroke-linejoin="round"/>
<path d="M4.75 6.9V4.75C4.75 3.9 5.4 3.25 6.25 3.25H18.75C19.05 3.25 19.25 3.45 19.25 3.75V15.4" stroke="black" stroke-width="2" stroke-miterlimit="10" stroke-linecap="round" stroke-linejoin="round"/>
<path d="M19.25 18.75V21.25C19.25 21.55 19.05 21.75 18.75 21.75H6.25C5.4 21.75 4.75 21.1 4.75 20.25V10" stroke="black" stroke-width="2" stroke-miterlimit="10" stroke-linecap="round" stroke-linejoin="round"/>
<path d="M13.75 21.75H6.25C5.4 21.75 4.75 21.1 4.75 20.25C4.75 19.4 5.4 18.75 6.25 18.75H19.25" stroke="black" stroke-width="2" stroke-miterlimit="10" stroke-linecap="round" stroke-linejoin="round"/>
</svg>
