<svg width="48" height="48" viewBox="0 0 48 48" fill="none" xmlns="http://www.w3.org/2000/svg">
<path d="M31 18.1L28.5 16.6C28.2 16.4 27.8 16.4 27.5 16.6L25 18.1C24.3 18.5 23.5 18 23.5 17.2V5.5H32.5V17.2C32.5 18 31.7 18.5 31 18.1Z" stroke="white" stroke-width="3" stroke-miterlimit="10" stroke-linejoin="round"/>
<path d="M9.5 12.8V8.5C9.5 6.8 10.8 5.5 12.5 5.5H37.5C38.1 5.5 38.5 5.9 38.5 6.5V29.8" stroke="white" stroke-width="3" stroke-miterlimit="10" stroke-linecap="round" stroke-linejoin="round"/>
<path d="M38.5 36.5V41.5C38.5 42.1 38.1 42.5 37.5 42.5H12.5C10.8 42.5 9.5 41.2 9.5 39.5V19" stroke="white" stroke-width="3" stroke-miterlimit="10" stroke-linecap="round" stroke-linejoin="round"/>
<path d="M27.5 42.5H12.5C10.8 42.5 9.5 41.2 9.5 39.5C9.5 37.8 10.8 36.5 12.5 36.5H38.5" stroke="white" stroke-width="3" stroke-miterlimit="10" stroke-linecap="round" stroke-linejoin="round"/>
</svg>
