<svg width="17" height="17" viewBox="0 0 17 17" fill="none" xmlns="http://www.w3.org/2000/svg">
<path d="M8.5 17C10.7543 17 12.9163 16.1045 14.5104 14.5104C16.1045 12.9163 17 10.7543 17 8.5C17 6.24566 16.1045 4.08365 14.5104 2.48959C12.9163 0.895533 10.7543 0 8.5 0C6.24566 0 4.08365 0.895533 2.48959 2.48959C0.895533 4.08365 0 6.24566 0 8.5C0 10.7543 0.895533 12.9163 2.48959 14.5104C4.08365 16.1045 6.24566 17 8.5 17ZM12.252 6.93945L8.00195 11.1895C7.68984 11.5016 7.18516 11.5016 6.87637 11.1895L4.75137 9.06445C4.43926 8.75234 4.43926 8.24766 4.75137 7.93887C5.06348 7.63008 5.56816 7.62676 5.87695 7.93887L7.4375 9.49941L11.123 5.81055C11.4352 5.49844 11.9398 5.49844 12.2486 5.81055C12.5574 6.12266 12.5607 6.62734 12.2486 6.93613L12.252 6.93945Z" fill="#D62C2C"/>
</svg>
